<svg xmlns="http://www.w3.org/2000/svg" viewBox="-145 302 320 190"><path d="M-84.5 418.8c1.3 0 2.4-.1 3.4-.4s1.9-.7 2.7-1.2c.8-.5 1.5-1 2.1-1.6.6-.6 1.1-1.2 1.5-1.8.3.2.5.5.7.9.2.4.2.9.2 1.3 0 .7-.2 1.5-.6 2.3-.4.8-1.1 1.6-2 2.2-.9.7-2.1 1.2-3.7 1.7-1.5.4-3.4.7-5.6.7-3 0-5.7-.5-8-1.4s-4.2-2.2-5.7-3.9c-1.5-1.7-2.6-3.7-3.4-6.1-.8-2.4-1.1-5-1.1-7.9 0-2.8.4-5.4 1.2-7.8.8-2.4 1.9-4.4 3.4-6.1 1.5-1.7 3.4-3 5.7-3.9 2.3-.9 4.9-1.4 7.9-1.4 2 0 3.8.2 5.3.5s2.7.7 3.7 1.3c1 .5 1.7 1.2 2.2 1.9.5.7.7 1.5.7 2.4 0 .6-.1 1.3-.4 1.8-.3.6-.7 1-1.3 1.4-.6.4-1.2.7-2.1 1-.8.2-1.8.3-2.8.3 0-.9-.1-1.7-.3-2.6s-.5-1.6-1-2.3c-.5-.7-1-1.3-1.8-1.7-.7-.4-1.6-.7-2.7-.7-1.7 0-3.1.4-4.2 1.1-1.1.7-2.1 1.7-2.8 3.1-.7 1.3-1.2 3-1.5 5-.3 2-.5 4.2-.5 6.8s.2 4.7.6 6.6c.4 1.9 1 3.5 1.8 4.7.8 1.3 1.9 2.2 3.3 2.8 1.5.7 3.2 1 5.1 1zm17.5 3.7v-2.8h2.2c.4 0 .8 0 1.1-.1.3-.1.6-.2.8-.5s.4-.6.6-1c.1-.4.2-1 .2-1.8v-25.1c0-.8-.1-1.3-.2-1.8-.1-.4-.3-.8-.6-1-.2-.2-.5-.4-.8-.5-.3-.1-.7-.1-1.1-.1H-67V385h18.1v2.8h-2.2c-.4 0-.7 0-1 .1-.3.1-.6.2-.9.4-.2.2-.4.5-.6 1-.1.4-.2 1-.2 1.7v28.3h9.8c1.2 0 2.2-.4 2.9-1.2.7-.8 1.2-1.9 1.5-3.4l.8-3.9h2.9l-.4 11.7H-67zm47.5-12.3l-1.5 4.5c-.1.4-.3.9-.4 1.5-.1.6-.2 1.1-.2 1.5 0 .3.1.6.2.9s.3.5.5.6c.2.2.5.3.8.4.3.1.6.1.9.1h2.2v2.8h-13.7v-2.8h.6c.5 0 .9-.1 1.3-.2s.7-.3 1.1-.6c.3-.3.6-.7.9-1.2s.6-1.1.9-1.9l11.4-30.8h7.2l11 30.9c.3.7.5 1.3.8 1.8.3.5.6.9.9 1.2.3.3.7.5 1.1.6.4.1.8.2 1.2.2h.9v2.8H-8.7v-2.8h2c.3 0 .5 0 .8-.1.3-.1.5-.2.7-.4.2-.2.4-.4.5-.6.1-.3.2-.6.2-.9 0-.4-.1-.8-.2-1.2-.1-.4-.2-.7-.3-1l-1.8-5.3h-12.7zm9-11.8c-.2-.6-.4-1.2-.6-1.9-.2-.7-.4-1.3-.6-2-.2-.7-.4-1.4-.6-2-.2-.7-.3-1.3-.5-1.9-.2.5-.3 1.1-.5 1.7-.2.6-.4 1.3-.7 1.9-.2.7-.5 1.3-.7 2s-.4 1.3-.7 1.9l-3.1 8.9h10.6l-2.6-8.6zM25.7 423c-2.4 0-4.3-.2-5.9-.7-1.6-.4-2.8-1-3.8-1.7-.9-.7-1.6-1.5-2-2.4-.4-.9-.6-1.7-.6-2.6 0-.9.2-1.7.5-2.3.3-.6.8-1.1 1.3-1.5.6-.4 1.2-.7 1.9-.8.7-.2 1.4-.3 2.2-.3 0 1.5.2 2.8.5 4 .4 1.1.9 2.1 1.5 2.8s1.4 1.3 2.3 1.7c.9.4 1.8.6 2.9.6 1 0 1.9-.1 2.7-.4s1.5-.7 2-1.2c.6-.5 1-1.1 1.3-1.8.3-.7.4-1.4.4-2.2 0-.9-.2-1.7-.5-2.4-.4-.7-.9-1.3-1.6-1.9-.7-.6-1.6-1.2-2.7-1.7s-2.4-1.1-3.9-1.7c-1.8-.8-3.4-1.5-4.6-2.3-1.3-.8-2.3-1.7-3-2.6-.8-.9-1.3-1.9-1.7-3s-.5-2.3-.5-3.5c0-1.6.3-3.1 1-4.4.6-1.3 1.5-2.4 2.7-3.3 1.1-.9 2.5-1.6 4.1-2.1 1.6-.5 3.3-.7 5.1-.7 1.9 0 3.6.2 5 .5s2.6.7 3.5 1.3c.9.5 1.6 1.2 2 1.9s.7 1.5.7 2.4c0 .6-.1 1.2-.4 1.7s-.7 1-1.2 1.4c-.5.4-1.2.7-2 .9-.8.2-1.8.3-2.8.3 0-.7-.1-1.5-.3-2.4-.2-.8-.5-1.6-1-2.4-.4-.7-1-1.3-1.7-1.8s-1.6-.7-2.6-.7c-.7 0-1.4.1-2 .3-.6.2-1.2.5-1.7.9s-.8.9-1.1 1.5c-.3.6-.4 1.3-.4 2.1 0 .7.1 1.4.4 2.1.2.6.7 1.3 1.3 1.9.6.6 1.5 1.2 2.6 1.9 1.1.6 2.6 1.3 4.3 2 1.8.7 3.3 1.5 4.6 2.3 1.3.8 2.3 1.6 3.1 2.5.8.9 1.4 1.8 1.8 2.9.4 1.1.6 2.2.6 3.5 0 1.7-.3 3.2-1 4.6-.7 1.4-1.6 2.6-2.9 3.6-1.2 1-2.7 1.8-4.5 2.4-1.7.5-3.7.8-5.9.8zm34 0c-2.4 0-4.3-.2-5.9-.7-1.6-.4-2.8-1-3.8-1.7-.9-.7-1.6-1.5-2-2.4s-.6-1.7-.6-2.6c0-.9.2-1.7.5-2.3.3-.6.8-1.1 1.3-1.5s1.2-.7 1.9-.8c.7-.2 1.4-.3 2.2-.3 0 1.5.2 2.8.5 4 .4 1.1.9 2.1 1.5 2.8s1.4 1.3 2.3 1.7c.9.4 1.8.6 2.9.6 1 0 1.9-.1 2.7-.4s1.5-.7 2-1.2c.6-.5 1-1.1 1.3-1.8.3-.7.4-1.4.4-2.2 0-.9-.2-1.7-.5-2.4-.4-.7-.9-1.3-1.6-1.9-.7-.6-1.6-1.2-2.7-1.7s-2.4-1.1-3.9-1.7c-1.8-.8-3.4-1.5-4.6-2.3-1.3-.8-2.3-1.7-3-2.6-.8-.9-1.3-1.9-1.7-3s-.5-2.3-.5-3.5c0-1.6.3-3.1 1-4.4s1.5-2.4 2.7-3.3c1.1-.9 2.5-1.6 4.1-2.1 1.6-.5 3.3-.7 5.1-.7 1.9 0 3.6.2 5 .5s2.6.7 3.5 1.3c.9.5 1.6 1.2 2 1.9s.7 1.5.7 2.4c0 .6-.1 1.2-.4 1.7s-.7 1-1.2 1.4c-.5.4-1.2.7-2 .9-.8.2-1.8.3-2.8.3 0-.7-.1-1.5-.3-2.4-.2-.8-.5-1.6-1-2.4-.4-.7-1-1.3-1.7-1.8s-1.6-.7-2.6-.7c-.7 0-1.4.1-2 .3-.6.2-1.2.5-1.7.9s-.8.9-1.1 1.5c-.3.6-.4 1.3-.4 2.1 0 .7.1 1.4.4 2.1.2.6.7 1.3 1.3 1.9.6.6 1.5 1.2 2.6 1.9 1.1.6 2.6 1.3 4.3 2 1.8.7 3.3 1.5 4.6 2.3 1.3.8 2.3 1.6 3.1 2.5.8.9 1.4 1.8 1.8 2.9.4 1.1.6 2.2.6 3.5 0 1.7-.3 3.2-1 4.6-.7 1.4-1.6 2.6-2.9 3.6-1.2 1-2.7 1.8-4.5 2.4-1.7.5-3.7.8-5.9.8zm21.6-.5v-2.8h2.2c.4 0 .8 0 1.1-.1.3-.1.6-.2.8-.5s.4-.6.6-1c.1-.4.2-1 .2-1.8v-25.1c0-.8-.1-1.3-.2-1.8-.1-.4-.3-.8-.6-1s-.5-.4-.8-.5c-.3-.1-.7-.1-1.1-.1h-2.2V385h18.1v2.8h-2.2c-.4 0-.7 0-1.1.1-.3.1-.6.2-.9.5-.2.2-.4.6-.6 1-.1.4-.2 1-.2 1.8v25.1c0 .8.1 1.3.2 1.8.1.4.3.8.6 1 .2.2.5.4.9.5s.7.1 1.1.1h2.2v2.8H81.3zm45.1-3.7c1.3 0 2.4-.1 3.4-.4s1.9-.7 2.7-1.2c.8-.5 1.5-1 2.1-1.6s1.1-1.2 1.5-1.8c.3.2.5.5.7.9.2.4.2.9.2 1.3 0 .7-.2 1.5-.6 2.3-.4.8-1.1 1.6-2 2.2-.9.7-2.1 1.2-3.7 1.7-1.5.4-3.4.7-5.6.7-3 0-5.7-.5-8-1.4s-4.2-2.2-5.7-3.9-2.6-3.7-3.4-6.1c-.8-2.4-1.1-5-1.1-7.9 0-2.8.4-5.4 1.2-7.8.8-2.4 1.9-4.4 3.4-6.1 1.5-1.7 3.4-3 5.7-3.9 2.3-.9 4.9-1.4 7.9-1.4 2 0 3.8.2 5.3.5s2.7.7 3.7 1.3c1 .5 1.7 1.2 2.2 1.9.5.7.7 1.5.7 2.4 0 .6-.1 1.3-.4 1.8-.3.6-.7 1-1.3 1.4-.6.4-1.2.7-2.1 1-.8.2-1.8.3-2.8.3 0-.9-.1-1.7-.3-2.6s-.5-1.6-1-2.3c-.5-.7-1-1.3-1.8-1.7-.7-.4-1.6-.7-2.7-.7-1.7 0-3.1.4-4.2 1.1-1.1.7-2.1 1.7-2.8 3.1-.7 1.3-1.2 3-1.5 5s-.5 4.2-.5 6.8.2 4.7.6 6.6c.4 1.9 1 3.5 1.8 4.7.8 1.3 1.9 2.2 3.3 2.8 1.5.7 3.2 1 5.1 1zm-163.7-88.1c2.4-1 4.4-1.2 6-.5 1.9.8 3.3 2.7 4.4 5.7 1.1 3 1.3 5.4.6 7.2-.6 1.6-1.9 2.8-4 3.7-2.1.9-3.9 1.1-5.5.5-1.8-.7-3.4-2.4-4.9-5.3-1.4-2.8-1.8-5.2-1.2-7.1.7-1.8 2.2-3.2 4.6-4.2zm7.4 6.3c-1-2.5-2-4.1-3.1-4.9-1.1-.8-2.3-.9-3.8-.3-1.4.6-2.2 1.6-2.4 3-.1 1.3.4 3.2 1.5 5.6 1.1 2.4 2.3 4 3.3 4.8 1.1.8 2.2.9 3.5.3 1.3-.6 2-1.5 2.1-2.8.3-1.3-.2-3.2-1.1-5.7zm11.1-3.4c.7 2.2 1.3 4.3 2 6.5.9-.3 1.7-.5 2.6-.7l.3 1.2c-2.3.6-4.6 1.4-6.9 2.1-.1-.4-.3-.8-.4-1.2.5-.2 1.1-.4 1.6-.5-1.5-4.6-3-9.2-4.5-13.7l-1.8.6c-.1-.4-.3-.8-.4-1.2 2.3-.8 4.5-1.5 6.8-2.1 2.2-.6 3.9-.7 5-.3 1.1.4 1.8 1.4 2.2 2.9.2 1 .1 2-.5 3-.5.9-1.2 1.5-2 1.9 1.3.1 2.5 1 3.6 2.6.8 1.1 1.5 2.3 2.3 3.4.5-.1 1.1-.2 1.6-.4.1.4.2.8.3 1.3-1.5.3-2.9.7-4.4 1-.9-1.5-1.9-3.1-2.9-4.6-.3-.5-.7-1-1.2-1.3-.9-.7-1.8-.9-2.7-.6-.2 0-.4.1-.6.1zm-.4-1.2c.2-.1.4-.1.6-.2 1.4-.4 2.3-1 2.8-1.7.4-.6.4-1.5.2-2.5-.5-2-1.7-2.7-3.6-2.2-.6.2-1.2.3-1.8.5.6 2 1.2 4.1 1.8 6.1zm19.1 4c.5-.1 1.1-.2 1.6-.2.1.4.1.9.2 1.3-2.1.3-4.1.6-6.1 1-.1-.4-.2-.8-.2-1.3.6-.1 1.1-.2 1.7-.3-.8-4.7-1.7-9.5-2.5-14.2l-1.8.3c-.1-.4-.2-.8-.2-1.3 2.3-.4 4.7-.8 7-1.2.1.4.1.9.2 1.3l-1.8.3c.4 4.7 1.2 9.5 1.9 14.3zm11-17.2c2.4-.1 4.3.3 5.8 1.2v2.5h-1.8v-1.4c-1.1-.8-2.5-1.2-3.9-1.1-1.5.1-2.6.7-3.2 2-.6 1.2-.7 3.1-.5 5.8.2 2.7.7 4.5 1.4 5.6.7 1.1 1.7 1.6 3.1 1.5 1.2-.1 2.1-.4 2.7-1.1-.1-1.6-.1-3.3-.2-4.9-.6 0-1.2 0-1.8.1 0-.4 0-.8-.1-1.3 1.6-.1 3.3-.1 4.9-.1 0 2.3 0 4.7.1 7-1.7 1-3.6 1.5-5.6 1.6-2.2.1-3.9-.4-5.2-1.5-1.4-1.3-2.3-3.5-2.7-6.6-.4-3.1.1-5.5 1.3-7 1.3-1.4 3.2-2.2 5.7-2.3zm15 16c.5 0 1.1.1 1.6.1 0 .4-.1.9-.1 1.3-2.1-.2-4.1-.2-6.2-.3V335h1.7c.2-4.8.3-9.6.5-14.5-.6 0-1.2 0-1.9-.1v-1.3c2.4.1 4.7.2 7.1.3 0 .4-.1.9-.1 1.3-.6 0-1.2-.1-1.8-.1-.2 4.9-.5 9.7-.8 14.6zm15 3.1c-1.5-5.1-3.2-10.1-5.2-15.1-.5 4.2-1.1 8.5-1.6 12.7.5.1 1.1.1 1.6.2-.1.4-.1.9-.2 1.3l-4.5-.6c0-.4.1-.9.1-1.3.5.1 1.1.1 1.6.2.6-4.8 1.1-9.6 1.7-14.4-.6-.1-1.2-.1-1.8-.2 0-.4.1-.9.1-1.3 1.8.2 3.5.4 5.3.6 1.9 4.9 3.6 9.8 5.1 14.7.8-4 1.6-8.1 2.4-12.1-.6-.1-1.2-.2-1.8-.4.1-.4.2-.8.2-1.3 1.7.3 3.4.7 5.2 1.1-.1.4-.2.8-.3 1.3-.6-.1-1.2-.3-1.8-.4-1.1 5.1-2.2 10.3-3.3 15.4-1 0-1.9-.2-2.8-.4zm11.9-2.5c-.7 1.1-1.4 2.2-2.1 3.4.5.1 1.1.3 1.6.4-.1.4-.2.8-.4 1.2-1.6-.4-3.1-.9-4.7-1.2.1-.4.2-.8.3-1.3.5.1 1.1.3 1.6.4 2.6-4.3 5.4-8.5 8.3-12.7-.6-.2-1.2-.3-1.8-.5.1-.4.2-.8.4-1.2 1.6.5 3.3 1 4.9 1.5.1 5.6 0 11.1-.3 16.6.5.2 1.1.4 1.6.6-.2.4-.3.8-.5 1.2-2-.8-4-1.5-6.1-2.1.1-.4.3-.8.4-1.2.5.2 1.1.3 1.6.5 0-1.3.1-2.7.1-4-1.6-.6-3.2-1.1-4.9-1.6zm5 .2c0-2.5 0-5.1-.1-7.6-1.5 2.1-2.9 4.2-4.3 6.3 1.6.4 3 .8 4.4 1.3zm19.7-2.2c-.9-.4-1.7-.8-2.6-1.2-2 4.4-4 8.8-5.9 13.2l3.9 1.8c.3-.6.6-1.1.8-1.7.5.3 1 .5 1.5.8-.5.9-1 1.9-1.4 2.8-3.1-1.6-6.3-3.1-9.6-4.4.2-.4.3-.8.5-1.2.5.2 1 .4 1.6.6 1.9-4.4 3.7-8.9 5.6-13.3-.6-.2-1.2-.5-1.7-.7.2-.4.3-.8.5-1.2 2.5 1 5 2.1 7.5 3.3-.3.4-.5.8-.7 1.2zM-29.1 466.3c2.4-3.6 4.7-7.2 7-10.9-.5-.1-1.1-.3-1.6-.4.1-.4.2-.8.4-1.2 1.5.4 3.1.8 4.6 1.2-.1.4-.2.8-.3 1.3-.5-.1-1.1-.3-1.6-.4-2.9 4.7-5.9 9.3-9 13.9-.9-.3-1.7-.5-2.6-.8-.1-5.5 0-11 .2-16.5-.5-.2-1.1-.4-1.6-.6.1-.4.3-.8.4-1.2 2 .7 4 1.4 6 2-.1.4-.3.8-.4 1.2-.5-.2-1-.3-1.6-.5 0 4.3 0 8.6.1 12.9zm14 5.7c.6.1 1.2.2 1.7.3-.1.4-.2.8-.2 1.3-2.2-.4-4.5-.9-6.7-1.4.1-.4.2-.8.3-1.3.6.1 1.2.3 1.8.4 1-4.7 2.1-9.4 3.1-14.1-.5-.1-1.1-.2-1.6-.4.1-.4.2-.8.3-1.3 2 .5 4 .9 6 1.3-.1.4-.2.8-.2 1.3-.5-.1-1.1-.2-1.6-.3-1 4.7-1.9 9.4-2.9 14.2zm16.3 3.7c-2.1-4.9-4-9.9-5.7-14.9-.6 4.2-1.2 8.5-1.8 12.7.6.1 1.2.2 1.8.2-.1.4-.1.9-.2 1.3-1.7-.2-3.3-.5-5-.7.1-.4.1-.9.2-1.3.6.1 1.2.2 1.7.3.7-4.8 1.5-9.5 2.2-14.3-.5-.1-1.1-.2-1.6-.3.1-.4.1-.9.2-1.3 1.5.3 3.1.5 4.6.7 1.6 4.8 3.5 9.6 5.6 14.4.4-4.1.7-8.2 1.1-12.3-.5 0-1.1-.1-1.6-.2 0-.4.1-.9.1-1.3 1.5.1 3 .3 4.5.4 0 .4-.1.9-.1 1.3-.5 0-1.1-.1-1.6-.1-.4 5.2-.8 10.5-1.2 15.7-1.1-.1-2.2-.2-3.2-.3zm19.3.7c-2.9.1-5.7 0-8.6 0v-1.3c.9 0 1.8 0 2.7.1.1-4.8.1-9.7.2-14.5-1.3 0-2.7 0-4-.1 0 .6-.1 1.2-.1 1.9-.6 0-1.1 0-1.7-.1.1-1.1.1-2.1.2-3.2 4.7.2 9.4.3 14 .1 0 1.1.1 2.1.1 3.2-.6 0-1.1 0-1.7.1 0-.6 0-1.3-.1-1.9-1.3 0-2.6.1-4 .1 0 4.8 0 9.7.1 14.5h2.7c.2.2.2.7.2 1.1zm9.2-5.6l-.9 3.9c.6 0 1.2-.1 1.8-.1 0 .4.1.9.1 1.3-1.8.1-3.5.3-5.3.4 0-.4 0-.9-.1-1.3.6 0 1.2-.1 1.8-.1 1.3-4.9 2.4-9.8 3.4-14.8-.5 0-1.1.1-1.6.1 0-.4-.1-.9-.1-1.3 1.5-.1 2.9-.3 4.4-.4 2.1 5.1 4.4 10.1 6.8 15l1.8-.3c.1.4.1.9.2 1.3-2.3.4-4.6.7-6.9.9 0-.4-.1-.9-.1-1.3.6-.1 1.2-.1 1.8-.2-.6-1.2-1.1-2.4-1.7-3.6-1.9.2-3.6.4-5.4.5zm4.8-1.7c-1-2.3-2-4.7-2.9-7-.5 2.5-1 5-1.5 7.4 1.4-.1 2.9-.3 4.4-.4zm13.8-13.3c2-.4 3.7-.4 5.3.2l.6 2.4c-.5.1-1.1.3-1.6.4-.1-.5-.2-.9-.3-1.4-1.2-.6-2.4-.7-3.6-.5-1.3.3-2.2 1-2.6 2.3-.4 1.3-.3 3.2.2 5.8.5 2.6 1.2 4.4 2 5.5.9 1 2 1.4 3.5 1 1.3-.3 2.2-.8 2.7-1.6-.4-1.6-.8-3.2-1.1-4.8-.6.1-1.1.3-1.7.4l-.3-1.2c1.6-.4 3.1-.7 4.7-1.1.6 2.3 1.2 4.5 1.7 6.8-1.6 1.4-3.5 2.3-5.7 2.8-2.4.5-4.3.2-5.8-.8-1.6-1.2-2.6-3.3-3.2-6.4-.5-3.1-.3-5.5.7-7.1.9-1.3 2.4-2.2 4.5-2.7zm18.1 11.7c1.4-.5 2.9-.9 4.3-1.4l-.6-1.8c.6-.2 1.1-.4 1.7-.6.4 1 .7 2 1.1 3-3.6 1.3-7.3 2.5-10.9 3.5-.1-.4-.2-.8-.4-1.2.6-.2 1.2-.3 1.7-.5-1.4-4.6-2.7-9.2-4.1-13.9-.5.2-1 .3-1.6.5-.1-.4-.2-.8-.4-1.2 3.3-.9 6.5-2 9.7-3.1.4 1 .7 2 1.1 3-.5.2-1.1.4-1.6.6l-.6-1.8c-1.3.4-2.6.9-3.8 1.3.6 2 1.3 4 1.9 6.1 1-.3 2.1-.7 3.1-1-.1-.4-.3-.8-.4-1.2.5-.2 1.1-.4 1.6-.6.4 1.2.8 2.4 1.3 3.6-.5.2-1.1.4-1.6.6-.1-.4-.3-.8-.4-1.2-1 .4-2.1.7-3.1 1 .6 2 1.3 4.1 2 6.3zM43 357c1.5 3.5 0 13.3-7.5 3.5-7.1-9.4-16.1-1.5-16.9-.8-.8-.7-9.8-8.6-16.9.8-7.5 9.8-8.9 0-7.5-3.5 0 0-9.2 8.3-.3 16.7 7.5 7 21.4 2.6 24.7-5.2 3.3 7.8 17.1 12.2 24.7 5.2 8.9-8.3-.3-16.7-.3-16.7zm-52.4 75.3v1.9h-1.2v-.6h-1.2v1.2h1.2v1.2h-1.2v1.2h1.2v-.6h1.2v1.9h-4.4v-1.2h.6v-3.7h-.6v-1.2h4.4zm5.2 2.5c.5.1.9.2 1.2.4.3.2.5.4.7.6s.3.4.3.6.1.4.1.5c0 .2-.1.5-.2.7s-.2.4-.4.6c-.2.2-.4.3-.6.4s-.5.1-.8.1c-.3 0-.6 0-.8-.1-.2-.1-.5-.1-.6-.2v.3h-1.2v-1.9h1.2l.3.3c.1.1.2.2.3.2.1.1.2.1.4.1h.5c.2 0 .4 0 .6-.1s.2-.2.2-.4c0-.1 0-.2-.1-.3-.1-.1-.2-.2-.3-.2-.1-.1-.3-.1-.4-.2-.1 0-.3-.1-.4-.1-.5-.1-.9-.2-1.2-.4-.3-.2-.5-.3-.7-.5-.2-.2-.3-.4-.3-.6s-.1-.4-.1-.5c0-.3.1-.5.2-.7.1-.2.2-.4.4-.6.2-.2.4-.3.6-.4s.5-.1.8-.1c.3 0 .6 0 .8.1.2.1.4.1.6.2v-.3H-2v1.9h-1.3l-.3-.3c-.1-.1-.2-.2-.3-.2-.1-.1-.2-.1-.4-.1h-.4c-.2 0-.4.1-.6.2-.1.1-.2.2-.2.4.1.2.5.5 1.3.6zm10-2.5v1.9H4.6v-.6H4v3.7h.6v1.2H2.1v-1.2h.6v-3.7h-.6v.6H.8v-1.9h5zm5.3 0c.3 0 .7.1 1 .2.3.1.6.3.8.5.2.2.4.5.5.8.1.3.2.6.2 1v1.2c0 .3-.1.7-.2 1-.1.3-.3.6-.5.8-.2.2-.5.4-.8.5-.3.1-.6.2-1 .2H8.6v-1.2h.6v-3.7h-.6v-1.2h2.5zm0 4.9c.2 0 .3 0 .5-.1s.3-.2.4-.3c.1-.1.2-.2.3-.4.1-.2.1-.3.1-.5v-1.2c0-.2 0-.3-.1-.5s-.2-.3-.3-.4c-.1-.1-.2-.2-.4-.3-.2-.1-.3-.1-.5-.1h-.6v3.7h.6zm5.9-.2c.2 0 .4.1.5.2.1.1.2.3.2.5s-.1.4-.2.5c-.1.1-.3.2-.5.2s-.4-.1-.5-.2c-.1-.1-.2-.3-.2-.5s.1-.4.2-.5c.1-.1.3-.2.5-.2zm11.2.2v1.2h-2.5v-1.2h.6v-3.7h-.6v-1.2h1.9v5h.6zm5.3-4.9c.3 0 .5 0 .7.1.2.1.4.2.6.4s.3.4.4.6.1.5.1.7v2.5c0 .3 0 .5-.1.7-.1.2-.2.4-.4.6s-.4.3-.6.4c-.2.1-.5.1-.7.1h-.6c-.3 0-.5 0-.7-.1-.2-.1-.4-.2-.6-.4s-.3-.4-.4-.6c-.1-.2-.1-.5-.1-.7h1.2c0 .2.1.3.2.4s.3.2.4.2h.6c.2 0 .3-.1.4-.2.1-.1.2-.3.2-.4v-.7c-.2.1-.4.1-.6.1h-.6c-.3 0-.5 0-.7-.1-.2-.1-.4-.2-.6-.4s-.3-.4-.4-.6c-.1-.2-.1-.5-.1-.7 0-.3 0-.5.1-.7s.2-.4.4-.6.4-.3.6-.4c.2-.1.5-.1.7-.1h.6zm0 2.5c.2 0 .3-.1.4-.2.1-.1.2-.3.2-.4s-.1-.3-.2-.4c-.1-.1-.3-.2-.4-.2h-.6c-.2 0-.3.1-.4.2s-.2.3-.2.4.1.3.2.4.3.2.4.2h.6zm7.5-.1c.2.1.5.2.6.4.2.2.3.4.4.6.1.2.2.5.2.8 0 .3-.1.5-.2.8-.1.2-.2.5-.4.6-.2.2-.4.3-.6.4-.2.1-.5.2-.8.2h-.3c-.3 0-.5 0-.7-.1-.2-.1-.4-.2-.6-.4s-.3-.4-.4-.6c-.1-.2-.1-.5-.1-.7h1.2c0 .2.1.3.2.4s.3.2.4.2h.3c.2 0 .4-.1.5-.2.1-.1.2-.3.2-.5s-.1-.4-.2-.5c-.1-.1-.3-.2-.5-.2H38v-3.5h4v1.9h-1.2v-.6h-1.6v1h.9c.4-.2.7-.1.9 0zm6.5-2.4c.3 0 .5 0 .7.1.2.1.4.2.6.4s.3.4.4.6.1.5.1.7v2.5c0 .3 0 .5-.1.7-.1.2-.2.4-.4.6s-.4.3-.6.4c-.2.1-.5.1-.7.1h-.6c-.3 0-.5 0-.7-.1-.2-.1-.4-.2-.6-.4s-.3-.4-.4-.6c-.1-.2-.1-.5-.1-.7h1.2c0 .2.1.3.2.4s.3.2.4.2h.6c.2 0 .3-.1.4-.2.1-.1.2-.3.2-.4v-.7c-.2.1-.4.1-.6.1h-.6c-.3 0-.5 0-.7-.1-.2-.1-.4-.2-.6-.4s-.3-.4-.4-.6c-.1-.2-.1-.5-.1-.7 0-.3 0-.5.1-.7s.2-.4.4-.6.4-.3.6-.4c.2-.1.5-.1.7-.1h.6zm0 2.5c.2 0 .3-.1.4-.2.1-.1.2-.3.2-.4s-.1-.3-.2-.4c-.1-.1-.3-.2-.4-.2h-.6c-.2 0-.3.1-.4.2s-.2.3-.2.4.1.3.2.4.3.2.4.2h.6zm-150.6-62.6h80.8v3.4h-80.8zm161.5 0h78.5v3.4H58.4zm-161.5 60.6h80.8v3.4h-80.8zm161.5 0h78.5v3.4H58.4z" fill="#333"/></svg>