<svg version="1.1" id="Layer_1" xmlns="http://www.w3.org/2000/svg" x="0" y="0" viewBox="-145 302 320 190" xml:space="preserve"><style>.st0{fill:#333}</style><g id="XMLID_85_"><g id="XMLID_86_"><g id="XMLID_195_"><text id="XMLID_194_" transform="translate(-342.258 1026.508)" class="st0" font-family="BebasNeueBold" font-size="9.377">S</text></g><g id="XMLID_190_"><text id="XMLID_189_" transform="translate(-336.745 1026.508)" class="st0" font-family="BebasNeueBold" font-size="9.377">A</text></g><g id="XMLID_134_"><text id="XMLID_133_" transform="translate(-330.91 1026.508)" class="st0" font-family="BebasNeueBold" font-size="9.377">L</text></g><text transform="translate(-326.07 1026.508)" class="st0" font-family="BebasNeueBold" font-size="9.377" id="XMLID_129_">T</text><g id="XMLID_124_"><text id="XMLID_123_" transform="translate(-317.527 1026.508)" class="st0" font-family="BebasNeueBold" font-size="9.377">L</text></g><g id="XMLID_119_"><text transform="translate(-312.186 1026.508)" class="st0" font-family="BebasNeueBold" font-size="9.377" letter-spacing="1">A</text><text transform="translate(-306.386 1026.508)" class="st0" font-family="BebasNeueBold" font-size="9.377">K</text></g><g id="XMLID_114_"><text id="XMLID_113_" transform="translate(-300.447 1026.508)" class="st0" font-family="BebasNeueBold" font-size="9.377">E</text></g><text transform="translate(-295.054 1026.508)" class="st0" font-family="BebasNeueBold" font-size="9.377" id="XMLID_109_">,</text><g id="XMLID_104_"><text id="XMLID_103_" transform="translate(-288.106 1026.508)" class="st0" font-family="BebasNeueBold" font-size="9.377">U</text></g><g id="XMLID_99_"><text id="XMLID_98_" transform="translate(-282.318 1026.508)" class="st0" font-family="BebasNeueBold" font-size="9.377">T</text></g><g id="XMLID_94_"><text id="XMLID_93_" transform="translate(-277.238 1026.508)" class="st0" font-family="BebasNeueBold" font-size="9.377">A</text></g><g id="XMLID_89_"><text id="XMLID_88_" transform="translate(-271.401 1026.508)" class="st0" font-family="BebasNeueBold" font-size="9.377">H</text></g></g></g><g id="XMLID_19_"><g id="XMLID_32_"><text id="XMLID_31_" transform="translate(-360.73 957.295)" class="st0" font-family="GearedSlab-Bold" font-size="10.94">E</text></g><g id="XMLID_27_"><text id="XMLID_26_" transform="translate(-355.468 957.295)" class="st0" font-family="GearedSlab-Bold" font-size="10.94">S</text></g><g id="XMLID_22_"><text transform="translate(-350.108 957.295)" class="st0" font-family="GearedSlab-Bold" font-size="10.94">TD</text><text transform="translate(-338.908 957.295)" class="st0" font-family="GearedSlab-Bold" font-size="10.94">.</text></g></g><g id="XMLID_3_"><g id="XMLID_16_"><text id="XMLID_15_" transform="translate(-268.002 957.295)" class="st0" font-family="GearedSlab-Bold" font-size="10.94">1</text></g><g id="XMLID_11_"><text id="XMLID_10_" transform="translate(-263.692 957.295)" class="st0" font-family="GearedSlab-Bold" font-size="10.94">9</text></g><g id="XMLID_6_"><text transform="translate(-258.31 957.295)" class="st0" font-family="GearedSlab-Bold" font-size="10.94">5</text><text transform="translate(-252.81 957.295)" class="st0" font-family="GearedSlab-Bold" font-size="10.94">9</text></g></g><path class="st0" d="M-86.3 397.2v1.2h-9l-5.4-9.3h-4.2v9.3h-8.1v-31.6h13.8c12.4 0 14.7 15 6.7 20.4l6.2 10zM-99.2 374h-5.8v7.9h5.8c4.4 0 4.6-7.8 0-7.9zm35.6 0h-11.7v4.5h10.7v7.2h-10.7v5.5h12.1v7.2h-20.1v-31.6h19.7v7.2zm2.5 0v-7.2h23.4v7.2h-7.7v24.3h-8V374h-7.7zm53.3 23.2v1.2h-9l-5.4-9.3h-4.2v9.3h-8.1v-31.6h13.8c12.4 0 14.7 15 6.7 20.4l6.2 10zM-20.7 374h-5.8v7.9h5.8c4.4 0 4.6-7.8 0-7.9zm14 8.6c0-21.8 32.4-21.8 32.4 0 0 21.9-32.4 21.9-32.4 0zm24.1 0c0-11.4-15.8-11.4-15.8 0 0 11.5 15.8 11.5 15.8 0zm28 6.5c0-2.2-2.6-2.7-5.8-2.9-6.9-.5-11.4-2.8-11.5-9.7-.3-13.6 24.3-13.6 24.1 0h-7.7c0-4.2-8.5-3.8-8.7-.1-.2 2.4 2.2 2.9 5 3.2 6.3.7 12.4 1.6 12.4 9.5 0 13.3-25.7 13.5-25.5-.4h7.8c0 4 9.9 4.1 9.9.4zm38.3 9.3h-8.3v-12.7h-9.7v12.7h-8.3v-31.6h8.3v11.5h9.7v-11.5h8.3v31.6zm4.3-15.8c0-21.8 32.4-21.8 32.4 0 0 21.9-32.4 21.9-32.4 0zm24.1 0c0-11.4-15.8-11.4-15.8 0 0 11.5 15.8 11.5 15.8 0zm12.6 15.8v-31.6h13.9c15.1 0 15.1 23.5 0 23.5h-5.8v8.1h-8.1zm13.8-24.4h-5.8v9h5.8c4.4 0 4.7-8.9 0-9zm-163.4-50c1.9-3.4 4.8-5 7.1-5 3.2 0 5.7 2.5 5.7 6.4 0 1.7-.5 3.7-1.7 5.8-3.4 5.9-8.6 8.3-13.2 8.3-.9 0-1.7-.1-2.4-.2l-1.2 2.1c-2.6 4.4-.8 7.3 2.1 7.3 4.3 0 8.1-2.9 11.2-6.4l.3-.3c.6.2 1.4.8 1.6 1.5-3.6 4.1-7.7 7.9-14.1 7.9-6.1 0-7.9-5.8-4.8-11l1.3-2.2c-3.5-1.8-5.4-5.1-5.4-8.6 0-2.9 1.4-5.8 4.4-8l1.4 2.5c-1.9 1.4-2.8 3.4-2.8 5.4 0 2.4 1.3 4.8 3.8 6.1l6.7-11.6zm-2.1 12.6c6.7 0 11.6-7.2 11.6-11.2 0-1.6-.7-2.6-2.4-2.6-1.2 0-2.6 1-3.9 3.1l-6.2 10.7h.9z"/><path class="st0" d="M-6.4 341.9c.6.2 1.3.9 1.6 1.5-3.6 4.1-7.6 7.9-11.2 7.9-3.5 0-4.8-2.9-2.9-6.1L-5 321.1h4.3l-14.5 25.2c-1 1.7-.5 2.4.5 2.4 1.9 0 4.9-2.9 8-6.4l.3-.4z"/><path class="st0" d="M13.9 341.9c.6.2 1.3.9 1.6 1.5-3.6 4.1-7.6 7.9-11.2 7.9-2.2 0-3.5-1.2-3.7-2.8-2.1 1.7-4.2 2.8-6 2.8-3.5 0-4.8-2.9-2.9-6.1l6-10.4c1.8-3.1 5-5 7.4-5 2.8 0 4.7 2.5 4.5 4.3H12l-6.9 12.2c-1 1.7-.5 2.4.5 2.4 1.9 0 4.9-2.9 8-6.4l.3-.4zm-18.5 4.4c-1 1.7-.5 2.4.5 2.4 1.8 0 4.3-1.9 6.9-6l3.3-5.9c2.1-3.9-2.5-4.9-4.8-.9l-5.9 10.4z"/><path class="st0" d="M12.1 347.8l2.7-1.4s.6 1.6 2 1.6c4.1 0 3.2-8 4.9-12.5-1.5 2-3.7 5-6.1 7.9-.6-.4-1.2-1-1.6-1.5 3.9-4.5 7.8-10.2 9.5-12.6l3.2 1.7c-2.6 5.5-2.4 11.8-3.7 15.9 1.7-1.2 3.6-2.8 5.2-4.7l.3-.3c.6.2 1.4.8 1.6 1.5-3.2 3.8-7.6 7.2-11.9 7.8h-.1c-.4 0-.8.1-1.2.1-4.1 0-4.8-3.5-4.8-3.5z"/><path class="st0" d="M26.6 347.8l2.7-1.4s.6 1.6 2 1.6c4.1 0 3.2-8 4.9-12.5-1.5 2-3.7 5-6.1 7.9-.6-.4-1.2-1-1.6-1.5 3.9-4.5 7.8-10.2 9.5-12.6l3.2 1.7c-2.6 5.5-2.4 11.8-3.7 15.9 1.7-1.2 3.6-2.8 5.2-4.7l.3-.3c.6.2 1.4.8 1.6 1.5-3.2 3.8-7.6 7.2-11.9 7.8h-.1c-.4 0-.8.1-1.2.1-4 0-4.8-3.5-4.8-3.5z"/><path class="st0" d="M53.6 341.9c.6.2 1.3.9 1.6 1.5-3.6 4.1-7.6 7.9-11.2 7.9-3.5 0-4.8-2.9-2.9-6.1l8.6-15H54l-9.2 16.1c-1 1.7-.5 2.4.5 2.4 1.9 0 4.9-2.9 8-6.4l.3-.4zm.9-18.9c1.4 0 2.5 1.1 2.5 2.5s-1.1 2.5-2.5 2.5-2.5-1.1-2.5-2.5 1.1-2.5 2.5-2.5z"/><path class="st0" d="M57 343.5c-2 3.5-.4 5.1 2.2 5.1 3 0 7-2.9 10.1-6.4l.3-.3c.6.2 1.3.9 1.6 1.5-3.6 4.1-8.4 7.9-13.3 7.9-5.1 0-7.4-4.2-4.7-8.8l4.5-7.7c1.8-3.1 4.6-5 8.1-5s5.7 3 3.4 6.9l-.6 1.1h-3.5l.6-1.1c2.6-4.5-1.8-5.2-4.3-.9l-4.4 7.7zM-54.8 452.3c4.1-7.6 16.1-2.1 13.1 5.9-3.3 8.5-17.3 2.1-13.1-5.9zm9.7 4.6c1.8-4.2-4.4-7-6.4-2.9-2.1 4.2 4.6 7.2 6.4 2.9zm9.2 3.7c-.7 2-1.4 3.9-2.1 5.9-1.2-.4-2.4-.9-3.6-1.3 1.5-4 3-8 4.6-12 .4.1.8.3 1.2.4 1.4 2.8 2.8 5.5 4.4 8.2.6-2 1.3-4 1.9-5.9 1.1.4 2.2.7 3.3 1-1.2 4.1-2.4 8.1-3.7 12.2-.4-.1-.8-.3-1.3-.4-1.6-2.6-3.2-5.3-4.7-8.1zm13.8 7.7c1.6.4 3.3.8 5 1.2-.2 1.1-.4 1.8-.6 2.9-2.9-.6-5.8-1.4-8.6-2.1 1.1-4.1 2.3-8.2 3.4-12.3l3.3.9c-1.7 6.2-1.1 4.1-2.5 9.4zm12.4 5.5l-3.6-.6c.3-1.8.7-3.5 1-5.3-1.1-2.5-2.1-5.1-3.1-7.7 0-.2.1-.3.1-.5 1.2.3 2.4.5 3.6.7.5 1.5 1 3.1 1.6 4.6h.1c1.1-1.2 2.1-2.5 3.1-3.8 1.2.2 2.4.4 3.6.5 0 .2 0 .3-.1.5-1.8 2.1-3.6 4.1-5.5 6.1-.2 2-.5 3.8-.8 5.5zm11.8-8.3c.1-1 .2-1.9.3-2.9 3.2.3 6.5.5 9.7.7 0 1-.1 1.9-.1 2.9-1.1 0-2.2-.1-3.3-.2-.2 3.3-.4 6.5-.6 9.8-1.2-.1-2.4-.2-3.6-.2.3-3.3.5-6.5.8-9.8-1-.1-2.1-.2-3.2-.3zm23.7 10.4c-1.2.1-2.5.1-3.7.1 0-1.7-.1-3.4-.1-5.1-1.4 0-2.8.1-4.2.1v5.1h-3.7l.3-12.7h3.4v4.6c1.4 0 2.8 0 4.2-.1 0-1.5-.1-3.1-.1-4.6 1.1 0 2.3-.1 3.4-.1.1 4.3.3 8.5.5 12.7zM37 465.1c-2 .2-3 .3-4.9.5.1.6.1 1.2.2 1.8 1.5-.1 3.1-.3 4.6-.5.1 1 .2 1.9.3 2.9-1.6.2-3.1.4-4.7.5.1.7.1 1.5.2 2.2 2-.2 3.2-.3 5.3-.6.1.9.2 1.9.4 2.9-3.3.4-5.7.6-9 .9-.3-4.2-.6-8.5-.9-12.7 3-.2 5.1-.4 8.2-.8.1 1 .2 2 .3 2.9zm17.7.1c1.2.3 2 1 2.2 2.1.5 2.2-.5 4.3-3.4 4.9-2.2.5-4.4.9-6.6 1.3-.7-4.2-1.5-8.4-2.2-12.5 1.8-.3 3.7-.7 5.5-1.1 2.2-.5 4.4.7 4.9 2.9.3.7.2 1.7-.4 2.4zm-6.1-1.9c.1.7.3 1.3.4 2 .7-.1 1.4-.3 2.2-.4 1.4-.3.9-2.3-.5-2-.7.1-1.4.2-2.1.4zm.9 4.6c.1.7.3 1.4.4 2.1.9-.2 1.9-.4 2.8-.6 1.4-.3.9-2.4-.5-2.1-.9.3-1.8.5-2.7.6zm16.7-9.3c-1.9.6-2.9.9-4.8 1.5.2.6.3 1.2.5 1.7 1.5-.4 3-.9 4.4-1.4.3.9.6 1.8.9 2.8-1.5.5-3 .9-4.5 1.4l.6 2.1c2-.6 3.1-.9 5.2-1.6.3.9.6 1.8.9 2.8-3.2 1-5.6 1.7-8.8 2.6l-3.3-12.3c3-.8 5-1.4 7.9-2.3.4.9.7 1.8 1 2.7zm11.5 2.4c-.3-.8-1.5-.6-2.8-.2-2.9.9-5.1.6-6-2-1.8-5.1 7.7-8.7 9.8-3.7-1.1.5-2 .8-3.1 1.3-.6-1.6-4-.1-3.6 1.3.3.9 1.3.8 2.5.4 2.7-.7 5.3-1.4 6.5 1.5 2.2 5-9 9.4-10.7 3.9 1.1-.4 2.1-.7 3.3-1.2.5 1.6 4.7.1 4.1-1.3zm2-7.4l-1.2-2.7c3-1.3 6.1-2.7 9-4.2.4.9.9 1.7 1.3 2.6l-3 1.5c1.4 2.9 2.8 5.9 4.3 8.8-1.1.5-2.2 1.1-3.3 1.6-1.4-3-2.7-6-4.1-8.9-.9.4-2 .8-3 1.3zm-38-35.8l-10.8 4.8s.4 6.4-4.4 6.5c0 0-5.3.6-5.4-4.9l4.6-6.1-6.4-6.1v-.1.1l-6.4 6.1 4.6 6.1c-.1 5.5-5.4 4.9-5.4 4.9-4.8-.1-4.4-6.5-4.4-6.5l-10.8-4.8 7.8 19 14.6-.1 14.6.1 7.8-19zM4.6 438.6H34v2.4H4.6zm-81.1-96.9s1.4-.2 3.9-.5c1.2-.1 2.5-.3 4-.5s3.1-.3 4.7-.4c1.6-.1 3.2-.5 4.7-.5s2.9.2 4.1.5c1.2.3 2 .6 2.7.9.7.3.9.5.9.5v.4s-.2.2-.9.5-1.6.6-2.8.9c-1.2.3-2.6.5-4.1.5-1.5 0-3.1-.4-4.7-.5-1.6-.1-3.2-.3-4.7-.4-1.5-.1-2.7-.3-3.9-.5-2.4-.3-3.8-.5-3.8-.5v-.4zm184.9-.3s-1.5.2-3.8.5c-1.1.1-2.5.3-3.9.5s-2.9.3-4.5.4c-1.5.1-3 .5-4.5.5-1.4 0-2.8-.2-3.9-.5s-1.9-.6-2.5-.9c-.7-.3-.8-.5-.8-.5v-.4s.2-.2.8-.5c.7-.3 1.5-.6 2.7-.9 1.1-.3 2.4-.5 3.8-.5s2.9.4 4.4.5c1.5.1 3 .3 4.5.4 1.4.1 2.7.3 3.9.5 2.3.3 3.8.5 3.8.5v.4z"/><path d="M-33.7 431.3h-4.1v-7.1h4.1v1.2h-2.6v1.6h2.4v1.2h-2.4v1.8h2.6v1.3zm5.3-1.9c0 .3-.1.6-.2.9-.1.3-.3.5-.5.6-.2.2-.5.3-.8.4-.3.1-.6.1-1 .1-.3 0-.7 0-1-.1l-.9-.3v-1.4c.2.1.3.1.5.2s.3.1.5.2.3.1.5.1h.5c.2 0 .3 0 .4-.1.1 0 .2-.1.3-.2l.2-.2c0-.1.1-.2.1-.3 0-.1 0-.2-.1-.4-.1-.1-.1-.2-.2-.3-.1-.1-.2-.2-.4-.3-.1-.1-.3-.2-.5-.3-.1-.1-.3-.2-.5-.3-.2-.1-.4-.2-.5-.4s-.3-.4-.4-.6c-.1-.2-.2-.5-.2-.8 0-.3.1-.6.2-.8.1-.3.3-.5.4-.6s.4-.3.7-.4c.3-.1.6-.1.9-.1h.5c.2 0 .3.1.5.1s.3.1.5.2.3.1.5.2l-.5 1.2c-.1-.1-.3-.1-.4-.2-.1-.1-.2-.1-.4-.1-.1 0-.2-.1-.4-.1h-.3c-.3 0-.4.1-.6.2-.1.1-.2.3-.2.5 0 .1 0 .2.1.3 0 .1.1.2.2.3s.2.2.3.2c.1.1.3.2.5.3.2.1.5.3.7.4.2.1.4.3.5.4s.3.3.3.6c.2.4.2.6.2.9zm3.9 1.9H-26v-5.8h-1.8v-1.3h5v1.3h-1.8v5.8zm8.4-3.6c0 .6-.1 1.1-.2 1.6-.2.5-.4.8-.7 1.1-.3.3-.7.5-1.1.7-.4.2-1 .2-1.5.2h-1.9v-7.1h2.1c.5 0 1 .1 1.4.2s.8.4 1.1.7.5.7.7 1.1c0 .5.1 1 .1 1.5zm-1.5.1c0-.4 0-.7-.1-1s-.2-.5-.3-.7c-.2-.2-.3-.3-.6-.4-.2-.1-.5-.1-.7-.1h-.7v4.6h.6c.6 0 1.1-.2 1.4-.6.2-.5.4-1 .4-1.8zm2.3 2.9c0-.2 0-.3.1-.4 0-.1.1-.2.2-.3s.2-.1.3-.1h.6c.1 0 .2.1.3.1s.1.1.2.3c0 .1.1.2.1.4 0 .1 0 .3-.1.4 0 .1-.1.2-.2.3-.1.1-.2.1-.3.1h-.6c-.1 0-.2-.1-.3-.1-.1-.1-.1-.2-.2-.3 0-.2-.1-.3-.1-.4zm71 .6h-1.5v-5.6l-.1.1-.1.1s-.1.1-.2.1-.1.1-.2.1l-.8.7-.7-.9 2.3-1.8h1.2v7.2zm6.6-4c0 .3 0 .7-.1 1 0 .3-.1.7-.2 1-.1.3-.2.6-.4.9s-.4.5-.6.7c-.3.2-.6.3-.9.5s-.8.2-1.2.2h-.8v-1.2c.1 0 .2.1.4.1h.4c.4 0 .8-.1 1.1-.2.3-.1.5-.3.7-.5.2-.2.3-.4.4-.7s.1-.6.1-.9H61c-.1.1-.1.2-.2.3l-.3.3c-.1.1-.3.1-.4.2-.2 0-.3.1-.5.1-.3 0-.6-.1-.8-.2-.2-.1-.5-.2-.6-.4-.2-.2-.3-.4-.4-.7-.1-.3-.1-.6-.1-1s.1-.7.2-1 .3-.6.5-.8c.2-.2.4-.4.7-.5.3-.1.6-.2 1-.2.3 0 .7.1 1 .2.3.1.6.3.8.6s.4.6.5 1c-.2.2-.1.7-.1 1.2zm-2.5-1.9c-.1 0-.3 0-.4.1-.1 0-.2.1-.3.2-.1.1-.1.2-.2.4 0 .2-.1.3-.1.6s.1.6.2.8.4.3.7.3c.1 0 .3 0 .4-.1.1-.1.2-.1.3-.2.1-.1.2-.2.2-.3s.1-.2.1-.4 0-.3-.1-.5-.1-.3-.2-.4l-.3-.3c0-.2-.1-.2-.3-.2zm5.7 1.4c.3 0 .6 0 .8.1s.5.2.7.4c.2.2.3.4.5.7s.2.6.2.9c0 .4-.1.7-.2 1-.1.3-.3.6-.5.8s-.5.4-.9.5c-.3.1-.7.2-1.2.2h-.5c-.2 0-.3 0-.5-.1-.2 0-.3-.1-.5-.1s-.3-.1-.4-.2v-1.3c.1.1.2.1.4.2.1.1.3.1.5.1s.3.1.5.1h.5c.4 0 .8-.1 1-.3.2-.2.3-.5.3-.9 0-.3-.1-.6-.3-.8-.2-.2-.6-.3-1-.3h-.6c-.1 0-.2 0-.3.1s-.2 0-.2.1l-.6-.3.3-3.6h3.7v1.3h-2.4l-.1 1.4c.1 0 .2 0 .4-.1.1.1.2.1.4.1zm7.7.5c0 .3 0 .7-.1 1 0 .3-.1.7-.2 1-.1.3-.2.6-.4.9s-.4.5-.6.7c-.3.2-.6.3-.9.5s-.8.2-1.2.2H69v-1.2c.1 0 .2.1.4.1h.4c.4 0 .8-.1 1.1-.2.3-.1.5-.3.7-.5.2-.2.3-.4.4-.7s.1-.6.1-.9H72c-.1.1-.1.2-.2.3l-.3.3c-.1.1-.3.1-.4.2-.2 0-.3.1-.5.1-.3 0-.6-.1-.8-.2-.2-.1-.5-.2-.6-.4-.2-.2-.3-.4-.4-.7-.1-.3-.1-.6-.1-1s.1-.7.2-1 .3-.6.5-.8c.2-.2.4-.4.7-.5.3-.1.6-.2 1-.2.3 0 .7.1 1 .2.3.1.6.3.8.6s.4.6.5 1c-.2.2-.2.7-.2 1.2zm-2.4-1.9c-.1 0-.3 0-.4.1-.1 0-.2.1-.3.2-.1.1-.1.2-.2.4 0 .2-.1.3-.1.6s.1.6.2.8.4.3.7.3c.1 0 .3 0 .4-.1.1-.1.2-.1.3-.2.1-.1.2-.2.2-.3s.1-.2.1-.4 0-.3-.1-.5-.1-.3-.2-.4l-.3-.3c0-.2-.2-.2-.3-.2z" fill="#666"/></svg>