<svg version="1.1" id="Layer_1" xmlns="http://www.w3.org/2000/svg" x="0" y="0" viewBox="0 0 320 190" xml:space="preserve"><style>.st0{fill:#333}.st1{fill:#fff}</style><g id="XMLID_223_"><path id="XMLID_235_" class="st0" d="M188.1 119.1h-45.9c-.8 0-1.5-.7-1.5-1.5v-1.4h48.9v1.4c-.1.9-.7 1.5-1.5 1.5z"/><path id="XMLID_232_" class="st0" d="M176.5 82.2c-.2-.5-.7-.9-1.3-.9h-8.3c-.6 0-1.1.3-1.3.9l-1.9 4.5h14.7l-1.9-4.5zm-3.7 2.6c0 .3-.2.5-.5.5h-2.4c-.3 0-.5-.2-.5-.5v-1.4c0-.3.2-.5.5-.5h2.4c.3 0 .5.2.5.5v1.4z"/><path id="XMLID_229_" class="st0" d="M189.5 95.5v-6.8c0-.6-.5-1.1-1.1-1.1h-27c-.7 0-1.2.5-1.2 1.2 0 .4-.3.8-.8.8h-18.1c-.4 0-.7.3-.7.7v3.4h16.9c2.1-2.4 5.1-3.9 8.5-3.9 6.2 0 11.3 5.1 11.3 11.3s-5.1 11.3-11.3 11.3c-6.2 0-11.3-5.1-11.3-11.3 0-2.1.6-4 1.5-5.7h-15.6v18.8h48.8l.1-18.7zm-2-3.2c0 .3-.3.6-.6.6h-6.3c-.3 0-.6-.3-.6-.6v-2c0-.3.3-.6.6-.6h6.3c.3 0 .6.3.6.6v2z"/><path id="XMLID_228_" class="st0" d="M143.3 88.6v-1.4c0-.3.2-.5.5-.5h4.9c.3 0 .5.2.5.5v1.4h-5.9z"/><path id="XMLID_227_" class="st0" d="M157.9 88.6h-7.4v-2.2c0-.4.3-.7.7-.7h6.1c.4 0 .7.3.7.7v2.2z"/><path id="XMLID_224_" class="st0" d="M166.1 92.2c-5 0-9.1 4.1-9.1 9.1s4.1 9.1 9.1 9.1 9.1-4.1 9.1-9.1c.1-5-4-9.1-9.1-9.1zm0 13.6c-2.5 0-4.4-2-4.4-4.4 0-2.5 2-4.4 4.4-4.4 2.5 0 4.4 2 4.4 4.4.1 2.4-1.9 4.4-4.4 4.4z"/></g><g id="XMLID_198_"><g id="XMLID_199_"><path id="XMLID_221_" class="st0" d="M69.2 38.3c-6.2 7.6-13.6 15.6-17 22.9-3.1 6.5-3.8 11.7-1.9 16.5 2 4.9 6.5 6.4 10.5 5 4-1.5 5.4-5.3 4.5-7.9-.6-1.8-2.2-3-4.8-2.8.3-1.6.6-3.1.9-4.7 4.4-.4 7.4 2.2 8.5 5.6 1.5 4.6-.6 10.7-7.6 13.3-7.6 2.7-16.8 1.9-20.6-6.6-2.2-5-1.3-11.6 1.3-16.6 6.7-12.8 19.5-24.6 27.1-33.4.7-4.2 1.5-8.1 3.3-10.1 1.8.3 3.5.6 5.2 1 0 3.3-1.4 6.6-3.7 10.2 1.4 17.1 8.3 51.6 2.2 69.2-1.6 4.6-4.7 7.7-9.6 9.5-4.8 1.8-8.6 0-10.3-4.1-1.7-4.1.1-9.8 6.8-12.4.7 1.6 1.3 3.3 2 4.9-4 2-4.7 4.9-4 6.8.7 1.8 2.5 2.3 4.3 1.7 2.8-1.1 4.4-3.3 5.5-6.4 4.4-12.2-3.7-39.1-2.6-61.6z"/><path id="XMLID_217_" class="st0" d="M110.1 57.5c-1.1 4.3-4.1 7.7-7.5 9.5-1.6 5.3-4.8 8.9-9.4 10-5 1.2-8.5-2.8-10.1-8.7-1-3.6-1.2-7.9-.7-12.2 1-.1 2-.1 3-.1-.4-5.2 1.9-10.5 7.8-11.7 5.5-1.2 9.3 3.4 10.4 9.4.6 3.2.3 6.8-.1 9.9 1.8-1.2 3.4-3.2 4.3-6.5.4-.2 2.3 0 2.3.4zM95.8 68.6c-3.4-.3-6.1-2.4-7.9-5.3.1 1 .3 2 .5 2.9 1 3.8 2.8 6.2 4.7 5.8.2-.1.4-.1.6-.2.8-.6 1.4-1.7 2.1-3.2zm-5.5-9.9c.8 3.5 2.9 6.6 6.5 6.7.9-3.8 1.1-8.7.4-12.2-.6-3-2-5-4.2-4.5-.2 0-.4.2-.6.2-2.3 1-3.1 5.6-2.1 9.8z"/><path id="XMLID_215_" class="st0" d="M106.8 73.5s-.5-6.1.8-11.5c.2-7.8.5-14.7.6-19.9 2.4-.4 4.7-.7 7.1-1.1-.1 1.5-.2 3.1-.3 4.6 2.1-3.6 5.2-6 8.7-6.4 2.9-.3 5 1 5.3 4.2.5 6.2-3.7 14.7-3.1 20.2.2 1.9 1.1 2.2 1.8 2.1 2-.2 4-4.2 6.9-12.2.5 0 2.3.4 2.3.8-2.9 7.9-5.5 15.9-11.6 16.7-2.6.3-5.3-1.2-5.9-5.3-1.1-7.2 3.1-15.3 2.6-20.1-.1-.7-.6-1.3-1.5-1.2-2 .3-5.3 3.9-6.4 13.6-.3 4.7-.6 9.5-.9 14.2-2.1.5-4.2.9-6.4 1.3z"/><path id="XMLID_212_" class="st0" d="M152.7 38.1c2 0 3.9-.1 5.9-.1-2.5 8.9-3.9 16.2-4.8 22.9-.1.7-.1 1.3-.1 1.7 0 1 .3 1.5.6 1.5.9 0 3.9-3.3 7.8-11.6.5 0 2.2.6 2.2 1-5 10.7-8.5 15.4-12 15.5-2.4.1-3.8-1.8-4-6.5v-.7c-1.6 4.2-4.1 7.8-8.4 8.1-3.6.3-5.5-3.2-5.9-8.1-.9-9.4 4.2-23.9 12.3-24.3 3.1-.1 4.9 1.3 5.5 4.3.4-1.2.6-2.4.9-3.7zm-12.2 22.6c.1 2.1.7 3.5 1.8 3.4 3.4-.2 7.5-11.3 7.3-17.5-.1-2.5-.9-4.2-2.7-4.1-3.4 0-6.9 12.1-6.4 18.2z"/><path id="XMLID_210_" class="st0" d="M176 22.6c-.7 5.5-1.8 10.5-3.5 15.8 1.3.1 2.5 0 3.2 0-.3 1-.6 2.1-.9 3.1-.3 0-1.9 0-3.4-.1-.8 2.5-1.8 5.1-2.8 7.8-.9 4.6-1.4 8.1-1.5 10.6-.1 2.8.4 4.3 1.4 4.3 2 .1 5.3-6.1 8-11.1.5 0 2.2.7 2.2 1.1-5.3 10.4-7.7 15-12.6 14.9-3.3-.1-4.6-3.7-4.6-9.4 0-4.9.9-11.6 3-18.4-1.9 0-3.3 0-3.6-.1.2-1.1.4-2.1.6-3.2.6 0 2 .1 3.7.1 1.2-4.6 2.4-9.1 4.6-15.8 2 .2 4.1.2 6.2.4z"/><path id="XMLID_207_" class="st0" d="M172.7 68.9v-1.8c.2-5.3 2.9-10.7 2.9-10.7 3.5-14.1 8.4-30.1 12.6-36 1.9-2.7 5.2-3.7 7.8-3.4 4.4.5 5.9 2.4 5.6 4.9-.8 5.4-9.2 13.6-14.8 18.3l-1.2 3.6c3-3.1 6.6-4.8 10.2-4.4 2.9.3 4.6 2.1 4.2 5.3-.9 6.2-7 13.5-7.6 19-.2 1.9.6 2.4 1.3 2.5 2 .2 4.9-3.2 9.5-10.3.5.1 2.1.9 2.1 1.3-4.7 7-9.1 14.2-15.1 13.6-2.6-.3-4.9-2.4-4.5-6.5.6-7.2 6.5-14.1 7.1-18.9.1-.7-.3-1.4-1.2-1.5-3.5-.4-8.7 5.7-12.8 25.5-2.1-.2-4.1-.4-6.1-.5zm23.4-47.5c-1.4-.2-2.9 2.5-7 13.3 2.7-3.4 7.3-8.9 7.7-12.3 0-.5-.3-.9-.7-1z"/><path id="XMLID_204_" class="st0" d="M224.4 45c1.9.4 3.9.8 5.8 1.3-4.5 8.1-7.5 14.9-10 21.2-.3.7-.4 1.2-.5 1.7-.2 1-.1 1.5.3 1.6.8.2 4.6-2.3 10.3-9.5.5.1 2 1.1 1.9 1.5-7.3 9.2-11.9 13-15.3 12.3-2.4-.5-3.3-2.7-2.4-7.2 0-.2.1-.5.1-.7-2.5 3.7-5.8 6.7-10.1 6-3.6-.6-4.6-4.4-3.9-9.2 1.2-9.4 9.6-22.3 17.6-20.8 3 .6 4.5 2.4 4.4 5.5.7-1.4 1.3-2.6 1.8-3.7zm-17.1 19.1c-.3 2.1-.1 3.5 1 3.7 3.4.6 9.9-9.3 11.2-15.4.5-2.4.1-4.3-1.7-4.6-3.4-.7-9.5 10.3-10.5 16.3z"/><path id="XMLID_202_" class="st0" d="M222.8 75.9s2-5.8 5.3-10.2c3.3-7 6.3-13.2 8.6-17.9 2.3.6 4.6 1.2 7 1.9-.7 1.4-1.4 2.7-2.1 4.1 3.4-2.4 7.2-3.4 10.6-2.3 2.8.9 4.2 3 3.2 6-2 5.9-9.4 11.9-11 17.2-.6 1.9.1 2.4.8 2.6 1.9.6 5.4-2.2 11.3-8.4.5.2 1.9 1.2 1.8 1.6-5.9 6-11.6 12.3-17.5 10.5-2.5-.8-4.4-3.3-3.3-7.2 1.9-7 9-12.7 10.5-17.3.2-.7 0-1.4-.9-1.7-2-.6-6.4 1.4-11.4 9.9-2.2 4.2-4.4 8.4-6.5 12.7-2.1-.5-4.2-1-6.4-1.5z"/><path id="XMLID_200_" class="st0" d="M255.8 78.4c.5 1.7 1.1 2.6 2.5 3.1 1.8.7 3.3-.1 4.1-2.3 1.5-3.9.8-8.5.7-13.6-1.6 1.8-3.3 3.4-4.8 5 0 0-2-1.1-1.8-1.6v-.1c1.7-1.8 4.2-4.2 6.8-6.7.1-2.1.5-4.3 1.2-6.4.9-2.5 2.5-5.1 4.9-7.7 1.8.9 3.5 1.9 5.2 2.9-2 3.1-3.9 5.8-5.9 8.3-1.7 5.4 3.2 14.8.3 21.8 0 .1-.1.2-.1.2 2.2-1.4 4.3-3.2 6.4-5.1.4.2 1.9 1.4 1.7 1.8-6.6 5.9-13.5 11.4-21.1 8.6-3.3-1.2-5.5-3.9-5.6-6.8 1.9-.6 3.7-1 5.5-1.4z"/></g></g><g id="XMLID_85_"><g id="XMLID_86_"><g id="XMLID_195_"><text id="XMLID_194_" transform="translate(-197.258 724.508)" class="st0" font-family="BebasNeueBold" font-size="9.377">S</text></g><g id="XMLID_190_"><text id="XMLID_189_" transform="translate(-191.745 724.508)" class="st0" font-family="BebasNeueBold" font-size="9.377">A</text></g><g id="XMLID_134_"><text id="XMLID_133_" transform="translate(-185.91 724.508)" class="st0" font-family="BebasNeueBold" font-size="9.377">L</text></g><g id="XMLID_129_"><text id="XMLID_128_" transform="translate(-181.07 724.508)"><tspan x="0" y="0" class="st0" font-family="BebasNeueBold" font-size="9.377" letter-spacing="1">T</tspan></text></g><g id="XMLID_124_"><text id="XMLID_123_" transform="translate(-172.527 724.508)" class="st0" font-family="BebasNeueBold" font-size="9.377">L</text></g><g id="XMLID_119_"><text id="XMLID_118_" transform="translate(-167.186 724.508)"><tspan x="0" y="0" class="st0" font-family="BebasNeueBold" font-size="9.377" letter-spacing="2">A</tspan><tspan x="5.8" y="0" class="st0" font-family="BebasNeueBold" font-size="9.377">K</tspan></text></g><g id="XMLID_114_"><text id="XMLID_113_" transform="translate(-155.447 724.508)" class="st0" font-family="BebasNeueBold" font-size="9.377">E</text></g><g id="XMLID_109_"><text id="XMLID_108_" transform="translate(-150.054 724.508)"><tspan x="0" y="0" class="st0" font-family="BebasNeueBold" font-size="9.377" letter-spacing="1">,</tspan></text></g><g id="XMLID_104_"><text id="XMLID_103_" transform="translate(-143.106 724.508)" class="st0" font-family="BebasNeueBold" font-size="9.377">U</text></g><g id="XMLID_99_"><text id="XMLID_98_" transform="translate(-137.318 724.508)" class="st0" font-family="BebasNeueBold" font-size="9.377">T</text></g><g id="XMLID_94_"><text id="XMLID_93_" transform="translate(-132.238 724.508)" class="st0" font-family="BebasNeueBold" font-size="9.377">A</text></g><g id="XMLID_89_"><text id="XMLID_88_" transform="translate(-126.401 724.508)" class="st0" font-family="BebasNeueBold" font-size="9.377">H</text></g></g></g><g id="XMLID_35_"><g id="XMLID_36_"><g id="XMLID_80_"><path id="XMLID_84_" class="st0" d="M73.5 127.9c2.6 5.3 5.3 10.5 8.1 15.8-4.6 3.8-9.3 7.5-14.1 11.1 10.6 2.4 21.2 4.3 31.9 5.9-4.6-2.7-9.1-5.5-13.5-8.3 1.3-7.1 2.6-14.1 3.9-21.2-5.5-1-10.9-2.1-16.3-3.3z"/><path id="XMLID_83_" class="st0" d="M256.7 127.9c-5.4 1.2-10.8 2.3-16.2 3.3 1.3 7.1 2.6 14.1 3.9 21.2-4.4 2.8-8.9 5.6-13.5 8.3 10.7-1.6 21.3-3.6 31.9-5.9-4.8-3.6-9.5-7.3-14.1-11.1 2.7-5.3 5.4-10.5 8-15.8z"/><g id="XMLID_81_"><path id="XMLID_82_" class="st0" d="M237.8 125.6c-48.1 8.6-97.3 8.6-145.3 0-.8 4.6-2.9 16.5-4.6 25.6 9.5 1.8 43.3 7.2 77.2 6.8 33.9.4 67.8-5 77.2-6.8-.8-4.5-2.9-16.3-4.5-25.6z"/></g></g><g id="XMLID_37_"><path id="XMLID_77_" class="st1" d="M104.4 135.6c.4.1.7.2.9.4.2.2.4.4.5.7.1.3.2.5.2.8v.8l-.3 1.8c-.1.7-.4 1.2-.8 1.6-.5.3-1.1.5-2 .3-.2 0-.5-.1-.7-.1-.1 0-.2 0-.2.2-.1.8-.2 1.7-.4 2.5v.2l.1.1c.1.1.1.2.2.3.1.1.1.3.1.4 0 .2-.1.4-.1.6-.9-.1-1.9-.3-2.8-.4 0-.2.1-.4.1-.6 0-.2.1-.3.2-.4.1-.1.2-.2.3-.2 0 0 .1 0 .1-.1l.1-.1c.4-2.6.8-5.2 1.2-7.7v-.2s0-.1-.1-.1c-.1-.1-.2-.2-.2-.3v-.5c0-.2.1-.4.1-.5 1.1.1 2.3.3 3.5.5zm-.2 2.5c0-.3 0-.6-.1-.8-.1-.2-.3-.4-.6-.4-.2 0-.4-.1-.6-.1-.1 0-.2 0-.2.1 0 0-.1.1-.1.2-.2 1.1-.3 2.2-.5 3.2 0 .1 0 .2.2.2s.4.1.6.1c.3 0 .5 0 .7-.2.2-.2.3-.4.3-.8.2-.5.2-1 .3-1.5z"/><path id="XMLID_75_" class="st1" d="M114.2 137.5c0 .3-.2.5-.4.6 0 0-.1 0-.1.1l-.1.1c-.3 2.5-.6 5.1-.9 7.6v.2l.1.1c.1.1.1.2.2.3.1.1.1.3.1.4 0 .2 0 .4-.1.6-.9-.1-1.9-.2-2.8-.4 0-.2.1-.4.1-.6 0-.2.1-.3.2-.4.1-.1.2-.2.3-.2.1 0 .1-.1.1-.1s0-.1.1-.2c.1-1.1.3-2.1.4-3.2 0-.1 0-.2-.2-.2-.5-.1-1-.1-1.5-.2h-.2l-.1.1c-.1 1-.3 2.1-.4 3.1v.2l.1.1c.1.1.1.2.2.3.1.1.1.3.1.4 0 .2-.1.4-.1.6-.9-.1-1.9-.2-2.8-.4 0-.2.1-.4.1-.6 0-.2.1-.3.2-.4.1-.1.2-.2.3-.2.1 0 .1-.1.1-.1s.1-.1.1-.2c.3-2.5.7-5.1 1-7.6v-.2l-.1-.1c-.2-.2-.3-.4-.3-.7 0-.2.1-.4.1-.6.9.1 1.8.2 2.7.4 0 .2-.1.4-.1.6 0 .1-.1.2-.1.3-.1.1-.2.2-.3.2l-.1.1s-.1.1-.1.2c-.1.9-.2 1.8-.4 2.7 0 .1 0 .1.1.2l.1.1c.5.1 1 .1 1.5.2h.2l.1-.1.3-2.7v-.2l-.1-.1c-.2-.2-.3-.4-.3-.7 0-.2.1-.4.1-.6l2.7.3c-.1.5-.1.7-.1.9z"/><path id="XMLID_72_" class="st1" d="M117.5 148.3c-.4 0-.7-.1-1-.2-.3-.1-.6-.3-.8-.5-.2-.2-.4-.5-.5-.8-.1-.3-.1-.6-.1-1 .3-2.2.5-4.4.8-6.7 0-.4.2-.7.3-.9.2-.3.4-.5.7-.6.3-.1.6-.3.9-.3.3-.1.7-.1 1 0s.7.1 1 .2c.3.1.6.3.8.5.2.2.4.4.5.7.1.3.2.6.1 1-.2 2.2-.5 4.4-.7 6.7 0 .4-.1.7-.3.9-.2.3-.4.5-.7.6-.3.2-.6.3-.9.3-.3.1-.7.1-1.1.1zm1.9-8.6c0-.4 0-.6-.2-.8-.2-.1-.4-.2-.7-.3-.3 0-.5 0-.7.1-.2.1-.3.4-.4.7-.2 2.1-.5 4.2-.7 6.3 0 .4 0 .6.2.8.2.2.4.2.7.3.3 0 .5 0 .7-.1s.3-.4.4-.8c.3-2 .5-4.1.7-6.2z"/><path id="XMLID_70_" class="st1" d="M129 138.6c.1.1.1.3.1.5s0 .4-.1.6c0 .2 0 .5-.1.7-.2 0-.4 0-.7-.1-.3 0-.5-.2-.6-.5 0-.1-.1-.2-.2-.2h-.5c-.1 0-.1 0-.2.1 0 0-.1.1-.1.2-.2 2.5-.5 5-.7 7.6v.2l.1.1c.1.1.1.2.2.3.1.1.1.3.1.4 0 .2 0 .4-.1.6-.9-.1-1.9-.2-2.8-.3 0-.2 0-.4.1-.6 0-.2.1-.3.2-.4.1-.1.2-.2.3-.2.1 0 .1-.1.1-.1s0-.1.1-.2c.2-2.5.5-5.1.7-7.6 0-.1 0-.1-.1-.2l-.1-.1h-.5c-.1 0-.2.1-.2.1-.1.1-.1.2-.2.3-.1.1-.2.1-.5.1-.2 0-.4 0-.7-.1 0-.3.1-.5.1-.8 0-.2 0-.4.1-.6 0-.2.1-.4.2-.5.1-.1.3-.1.5-.1 1.6.2 3.1.3 4.7.4.6.2.7.3.8.4z"/><path id="XMLID_67_" class="st1" d="M133 149.7c-.4 0-.7-.1-1-.2-.3-.1-.6-.3-.8-.5-.2-.2-.4-.4-.5-.7-.1-.3-.2-.6-.1-1 .2-2.2.4-4.5.5-6.7 0-.4.1-.7.3-.9.2-.3.4-.5.6-.6.3-.2.5-.3.9-.3.3-.1.7-.1 1-.1.4 0 .7.1 1 .2.3.1.6.3.8.5.2.2.4.4.5.7.1.3.2.6.1 1-.2 2.2-.3 4.5-.5 6.7 0 .4-.1.7-.3.9-.2.3-.4.5-.6.6-.3.2-.6.3-.9.3-.3.1-.6.1-1 .1zm1.6-8.6c0-.4 0-.6-.2-.8-.2-.1-.4-.2-.7-.2-.3 0-.5 0-.7.1-.2.1-.3.4-.3.7-.2 2.1-.3 4.2-.5 6.3 0 .4 0 .6.2.8.2.1.4.2.7.3.3 0 .5 0 .7-.2.2-.1.3-.4.3-.8.2-2 .4-4.1.5-6.2z"/><path id="XMLID_65_" class="st1" d="M143.5 150.1c0 .1-.1.2-.2.2h-.5l-.1-.1c-.1-.2-.2-.3-.2-.3-.1 0-.2 0-.2.1-.2.1-.4.2-.7.2-.2.1-.5.1-.8.1-.4 0-.7-.1-1-.2-.3-.1-.6-.3-.9-.5-.2-.2-.4-.5-.6-.8-.1-.3-.2-.6-.2-1 .1-2.1.3-4.3.4-6.4 0-.4.1-.7.3-1 .2-.3.4-.5.6-.7.3-.2.5-.3.9-.4.3-.1.7-.1 1-.1.4 0 .7.1 1 .2.3.1.6.3.8.5.2.2.4.5.5.8.1.3.2.6.2 1s0 .8-.1 1.1c-.3 0-.7 0-1-.1-.2 0-.3-.1-.5-.2s-.3-.3-.2-.6v-.2c0-.4 0-.7-.2-.8-.2-.2-.4-.3-.6-.3-.3 0-.5.1-.7.2-.2.2-.3.4-.3.8-.1 2-.2 4-.4 6.1 0 .4 0 .7.2.8.2.2.4.3.7.3.3 0 .5-.1.7-.2.2-.2.3-.4.3-.8 0-.5.1-1.1.1-1.6 0-.2-.1-.3-.2-.4-.1 0-.2-.1-.3-.2 0-.1-.1-.3-.1-.6v-.5c.6 0 1.3.1 1.9.1.1 0 .3.1.3.2.1.1.1.2.1.4.1 1.6.1 3.2 0 4.9z"/><path id="XMLID_62_" class="st1" d="M151.4 149.2l.2.2c.1.1.1.2.1.4v.8h-1.5c-.3 0-.5-.1-.6-.3-.1-.2-.2-.3-.2-.6 0-1.1.1-2.1.1-3.2 0-.3 0-.5-.2-.6-.1-.1-.3-.2-.6-.2h-.6c-.1 0-.2.1-.2.2 0 1-.1 2-.1 3v.2l.1.1c.1.1.2.1.2.3.1.1.1.2.1.4v.6c-.9 0-1.9-.1-2.8-.1v-.6c0-.2.1-.3.1-.4.1-.1.2-.2.3-.2l.1-.1s.1-.1.1-.2c.1-2.6.2-5.1.3-7.7v-.2s0-.1-.1-.1c-.1-.1-.2-.1-.2-.2-.1-.1-.1-.3-.1-.5v-.6c1 0 2.1.1 3.1.1.4 0 .7.1 1 .2.3.1.5.3.8.5.2.2.4.5.5.8.1.3.2.6.1 1v1.3c0 .3-.1.6-.2.8-.1.3-.2.5-.5.6-.1.1-.1.2 0 .3.2.2.4.4.4.7.1.3.1.6.1 1 0 .7 0 1.3-.1 2v.2c.3 0 .3.1.3.1zm-1.6-7.2c0-.3-.1-.5-.2-.7-.2-.2-.4-.2-.6-.3h-.6c-.1 0-.2.1-.2.2 0 .9-.1 1.9-.1 2.8v.2h.9c.3 0 .5-.1.6-.2.1-.2.2-.4.2-.7V142z"/><path id="XMLID_59_" class="st1" d="M160.3 149.5c.1 0 .2.1.2.2.1.1.1.2.1.4v.6h-2.8v-.5c0-.2 0-.3.1-.4 0-.1.1-.2.1-.2 0-.1.1-.1.1-.2s.1-.1.1-.2c0-.3-.1-.5-.1-.7 0-.2 0-.3-.1-.4 0-.1 0-.2-.1-.2 0 0-.1-.1-.2-.1h-1.6s-.1.1-.1.2v.7c0 .2 0 .3-.1.5v.2c0 .1.1.1.1.2s.1.1.1.2v.8c-.9 0-1.8 0-2.8-.1v-.6c0-.1 0-.3.1-.3l.2-.2.2-.2c.1-.1.1-.1.1-.2.3-1.3.6-2.5.9-3.8.1-.5.2-.9.3-1.4.1-.5.2-.9.3-1.2.1-.4.2-.7.2-.9.1-.2.1-.3.1-.4v-.1c0-.1 0-.1-.1-.2 0 0-.1-.1-.1-.2-.1-.1-.1-.1-.1-.2s-.1-.2-.1-.4v-.5h1.3c.3 0 .6 0 .8.1.2 0 .3.1.4.2.1.1.2.2.2.4 0 0 0 .2.1.5s.1.6.2 1 .2.9.3 1.4c.1.5.2 1 .3 1.6.2 1.2.5 2.7.9 4.2 0 .1 0 .1.1.2.3.2.4.2.4.2zm-2.6-3c.1 0 .2 0 .2-.2-.1-.7-.2-1.3-.3-2 0-.3-.1-.5-.1-.7 0-.2-.1-.5-.1-.7 0-.2-.1-.3-.1-.5v-.2s0 .1-.1.3c0 .2-.1.4-.1.7-.1.3-.1.6-.2.9-.1.3-.1.7-.2 1-.1.3-.1.6-.2.8 0 .2-.1.3-.1.4v.1h.7c.3.1.4.1.6.1z"/><path id="XMLID_56_" class="st1" d="M166.2 140c.4 0 .7.1.9.2.3.2.5.4.6.6.2.2.3.5.3.8.1.3.1.5.1.8v1.9c0 .7-.2 1.3-.6 1.7-.4.4-1 .6-1.9.6h-.7c-.1 0-.2.1-.2.2v2.7l.1.1c.1.1.2.1.2.2.1.1.1.2.1.4v.6h-2.8v-.6c0-.2 0-.3.1-.4l.2-.2.1-.1s0-.1.1-.1v-8l-.1-.1c-.1-.1-.2-.1-.2-.3 0-.1-.1-.3-.1-.5v-.5h3.8zm.3 2.5c0-.3-.1-.6-.2-.8-.1-.2-.3-.3-.7-.3h-.6c-.1 0-.2 0-.2.1s-.1.1-.1.2v3.3c0 .1.1.2.2.2h.6c.3 0 .5-.1.7-.3.1-.2.2-.5.2-.8.1-.6.1-1.1.1-1.6z"/><path id="XMLID_54_" class="st1" d="M176.2 140.4c0 .3-.1.5-.3.7l-.1.1s0 .1-.1.1c.1 2.6.1 5.1.2 7.7 0 .1 0 .2.1.2l.1.1c.1.1.2.1.2.2.1.1.1.2.1.4v.6c-.9 0-1.9 0-2.8.1v-.6c0-.2 0-.3.1-.4.1-.1.2-.2.2-.3l.1-.1v-.2c0-1.1 0-2.1-.1-3.2 0-.1-.1-.2-.2-.2h-1.5c-.1 0-.1 0-.2.1l-.1.1c0 1.1 0 2.1.1 3.2v.2l.1.1c.1.1.2.1.2.2.1.1.1.2.1.4v.6h-2.8v-.6c0-.2 0-.3.1-.4l.2-.2.1-.1v-.2c0-2.5-.1-5.1-.1-7.6v-.2l-.1-.1c-.2-.1-.4-.4-.4-.6v-.6h2.7v.6c0 .1 0 .2-.1.4-.1.1-.1.2-.3.3l-.1.1v2.9c0 .1 0 .1.1.2h1.7c.1 0 .1 0 .2-.1v-.2c0-.9 0-1.8-.1-2.7v-.2l-.1-.1c-.2-.2-.3-.4-.4-.6v-.6c.9 0 1.8 0 2.8-.1.4.2.4.4.4.6z"/><path id="XMLID_52_" class="st1" d="M184.1 139.5v.6c0 .2 0 .3-.1.4-.1.1-.1.2-.2.3l-.1.1c-.1 0-.1.1-.1.2 0 0 0 .1-.1.3 0 .2-.1.4-.2.6-.1.2-.1.5-.2.8l-.3.9c-.2.7-.4 1.6-.7 2.5 0 .9.1 1.8.1 2.8 0 .1 0 .1.1.2l.1.1c.1.1.2.1.3.2.1.1.1.2.1.4v.6c-.9 0-1.8.1-2.7.1v-.6c0-.2 0-.3.1-.4.1-.1.1-.2.2-.3l.1-.1v-.2c0-.9-.1-1.8-.1-2.7-.3-.8-.6-1.6-.9-2.5l-.3-.9c-.1-.3-.2-.6-.3-.8-.1-.2-.2-.4-.2-.6-.1-.1-.1-.2-.1-.3l-.1-.1-.1-.1c-.1-.1-.2-.1-.2-.2-.1-.1-.1-.2-.1-.4v-.6c.8 0 1.7-.1 2.5-.1v1.1c0 .1-.1.2-.2.2l-.1.1s-.1.1 0 .2c0 0 0 .1.1.2 0 .1.1.2.1.4s.1.3.2.5.1.4.2.6c.1.5.3 1 .5 1.5.1-.6.3-1.1.4-1.6.1-.4.2-.8.3-1.1.1-.3.1-.5.1-.6 0-.1 0-.1-.1-.2-.1 0-.1-.1-.2-.1s-.1-.1-.2-.2v-1c.7-.1 1.5-.1 2.4-.2z"/><path id="XMLID_50_" class="st1" d="M192.8 142.3c0 .2.1.4.3.5.2.1.4.3.7.4.3.1.6.3.9.4.3.2.6.3.9.5.3.2.5.4.7.7.2.3.3.6.3 1 0 .6.1 1.1.1 1.7 0 .4 0 .7-.2 1-.1.3-.3.5-.6.7-.2.2-.5.3-.9.5-.3.1-.7.2-1.1.2-.4 0-.7 0-1.1-.1l-.9-.3c-.3-.2-.5-.4-.6-.6-.2-.3-.3-.6-.3-.9 0-.5-.1-.9-.1-1.4.3 0 .6 0 .9-.1.3 0 .5 0 .6.2.1.1.2.3.2.6v.7c0 .2.1.3.3.4.2.1.4.1.7.1.1 0 .3 0 .4-.1.1 0 .2-.1.3-.2.1-.1.2-.1.2-.2s.1-.1.1-.2c0-.5-.1-1-.1-1.6 0-.3-.1-.6-.3-.8-.2-.2-.4-.4-.7-.5-.3-.1-.6-.3-.9-.4-.3-.1-.6-.3-.9-.5-.3-.2-.5-.4-.7-.7-.2-.3-.3-.6-.3-1.1 0-.4 0-.7-.1-1.1 0-.4 0-.7.1-1 .1-.3.3-.5.5-.7.2-.2.5-.3.8-.4.3-.1.6-.2 1-.2s.7 0 1 .1c.3.1.6.2.8.3l.6.6.3.9c0 .5.1.9.1 1.4-.3 0-.6 0-.9.1-.2 0-.5-.1-.6-.2-.2-.2-.3-.4-.3-.6v-.4c0-.2-.1-.4-.3-.5-.2-.1-.4-.1-.6-.1-.2 0-.4.1-.5.2-.1.1-.2.3-.2.4.4.5.4.9.4 1.3z"/><path id="XMLID_48_" class="st1" d="M203.6 138.3c.1.1.2.3.2.5s0 .4.1.6c0 .2 0 .5.1.7-.2 0-.4 0-.7.1-.3 0-.5-.1-.7-.3l-.2-.2h-.5c-.1 0-.1 0-.2.1 0 0-.1.1-.1.2.2 2.5.4 5 .7 7.6 0 .1 0 .2.1.2l.1.1c.1.1.2.1.3.2.1.1.1.2.1.4s0 .4.1.6c-.9.1-1.9.2-2.8.2 0-.2 0-.4-.1-.6 0-.2 0-.3.1-.4.1-.1.1-.2.2-.3l.1-.1v-.2c-.2-2.5-.4-5.1-.6-7.6 0-.1 0-.1-.1-.2h-.5s-.1 0-.2.1c-.1 0-.1.1-.2.2 0 .1-.1.2-.1.3 0 .1-.2.1-.4.1s-.4 0-.7.1c0-.3 0-.5-.1-.8v-.6c0-.2 0-.4.1-.5.1-.1.2-.2.5-.2 1.6-.1 3.1-.3 4.7-.4.4 0 .6.1.7.1z"/><path id="XMLID_46_" class="st1" d="M211.7 137.4v.8c0 .1-.1.2-.2.3l-.1.1v.2c.3 2.4.5 4.9.8 7.3 0 .4 0 .7-.1 1-.1.3-.3.5-.5.7-.2.2-.5.4-.8.5-.3.1-.7.2-1 .2h-1.1l-.9-.3c-.3-.2-.5-.4-.7-.6-.2-.3-.3-.6-.3-.9-.2-2.4-.5-4.9-.7-7.3 0-.1 0-.1-.1-.2l-.1-.1c-.1 0-.2-.1-.3-.2-.1-.1-.1-.2-.2-.4v-.4l2.7-.3v.3c0 .2 0 .3-.1.5-.1.1-.1.2-.2.3l-.1.1v.2c.2 2.4.5 4.7.7 7.1 0 .4.2.6.4.7.2.1.4.2.7.2.3 0 .5-.1.7-.3.2-.2.2-.4.2-.8-.3-2.4-.5-4.7-.8-7.1 0-.1 0-.2-.1-.2l-.1-.1c-.1 0-.2-.1-.2-.2-.1-.1-.1-.3-.2-.4v-.3c1-.2 1.8-.3 2.7-.4z"/><path id="XMLID_43_" class="st1" d="M216.6 136.8c.8-.1 1.5 0 1.9.4.4.4.7.9.8 1.6.3 2 .5 4.1.8 6.1.1.7 0 1.3-.4 1.8-.3.5-.9.8-1.8.9-1.1.1-2.2.3-3.3.4 0-.2 0-.4-.1-.6v-.5c0-.1.1-.2.2-.3.1-.1.2-.2.1-.3l-.9-7.5c0-.2-.1-.3-.2-.3-.2-.1-.3-.3-.4-.6 0-.2 0-.4-.1-.6 1.2-.2 2.3-.4 3.4-.5zm1 2.2c0-.1 0-.2-.1-.3 0-.1-.1-.2-.1-.3l-.2-.2h-.4c-.3 0-.5.1-.8.1-.1 0-.1 0-.1.1v.2c.3 2.5.6 5 .9 7.6 0 .1.1.2.2.2.3 0 .6-.1.8-.1.2 0 .3-.1.4-.1.1-.1.2-.1.2-.2s.1-.2.1-.3v-.3c-.4-2.3-.7-4.3-.9-6.4z"/><path id="XMLID_41_" class="st1" d="M224.3 145.1c0 .1 0 .2.1.2l.1.1c.1 0 .2.1.3.2.1.1.2.2.2.4s.1.4.1.6c-.9.1-1.9.3-2.8.4 0-.2-.1-.4-.1-.6 0-.2 0-.3.1-.4.1-.1.1-.2.2-.3l.1-.1v-.2c-.3-2.5-.7-5.1-1-7.6 0-.1 0-.2-.1-.2l-.1-.1c-.1 0-.2-.1-.3-.2-.1-.1-.1-.2-.2-.4 0-.2-.1-.4-.1-.6.9-.1 1.8-.2 2.7-.4 0 .2.1.4.1.6 0 .2 0 .3-.1.4-.1.1-.1.2-.2.3l-.1.1v.2c.4 2.6.8 5.1 1.1 7.6z"/><path id="XMLID_38_" class="st1" d="M229.6 146.1c-.4.1-.7.1-1.1 0-.3 0-.6-.1-.9-.3-.3-.1-.5-.3-.7-.6-.2-.3-.3-.6-.4-.9-.3-2.2-.6-4.4-1-6.6-.1-.4 0-.7.1-1 .1-.3.3-.5.5-.8.2-.2.5-.4.8-.5.3-.1.6-.2 1-.3.4-.1.7-.1 1 0 .3 0 .6.1.9.3.3.1.5.3.7.6.2.2.3.6.4.9.3 2.2.7 4.4 1 6.6.1.4 0 .7-.1 1-.1.3-.3.6-.5.8-.2.2-.5.4-.8.5-.1.1-.5.2-.9.3zm-.3-8.8c-.1-.4-.2-.6-.4-.7-.2-.1-.4-.1-.7-.1-.3 0-.5.1-.6.3-.2.2-.2.4-.2.8l.9 6.3c.1.4.2.6.4.7.2.1.4.1.7.1.3 0 .5-.2.7-.3.2-.2.2-.5.1-.8-.3-2.2-.6-4.2-.9-6.3z"/></g></g></g><g id="XMLID_19_"><g id="XMLID_32_"><text id="XMLID_31_" transform="translate(-215.73 655.295)" class="st0" font-family="GearedSlab-Bold" font-size="10.94">E</text></g><g id="XMLID_27_"><text id="XMLID_26_" transform="translate(-210.468 655.295)" class="st0" font-family="GearedSlab-Bold" font-size="10.94">S</text></g><g id="XMLID_22_"><text id="XMLID_21_" transform="translate(-205.108 655.295)"><tspan x="0" y="0" class="st0" font-family="GearedSlab-Bold" font-size="10.94">TD</tspan><tspan x="11.2" y="0" class="st0" font-family="GearedSlab-Bold" font-size="10.94">.</tspan></text></g></g><g id="XMLID_3_"><g id="XMLID_16_"><text id="XMLID_15_" transform="translate(-123.002 655.295)" class="st0" font-family="GearedSlab-Bold" font-size="10.94">1</text></g><g id="XMLID_11_"><text id="XMLID_10_" transform="translate(-118.692 655.295)" class="st0" font-family="GearedSlab-Bold" font-size="10.94">9</text></g><g id="XMLID_6_"><text id="XMLID_5_" transform="translate(-113.31 655.295)"><tspan x="0" y="0" class="st0" font-family="GearedSlab-Bold" font-size="10.94">5</tspan><tspan x="5.5" y="0" class="st0" font-family="GearedSlab-Bold" font-size="10.94">9</tspan></text></g></g></svg>