<svg version="1.1" id="Layer_1" xmlns="http://www.w3.org/2000/svg" x="0" y="0" viewBox="-145 302 320 190" xml:space="preserve"><style>.st0{fill:#333}</style><g id="XMLID_85_"><g id="XMLID_86_"><g id="XMLID_195_"><text id="XMLID_194_" transform="translate(-342.258 1026.508)" class="st0" font-family="BebasNeueBold" font-size="9.377">S</text></g><g id="XMLID_190_"><text id="XMLID_189_" transform="translate(-336.745 1026.508)" class="st0" font-family="BebasNeueBold" font-size="9.377">A</text></g><g id="XMLID_134_"><text id="XMLID_133_" transform="translate(-330.91 1026.508)" class="st0" font-family="BebasNeueBold" font-size="9.377">L</text></g><text transform="translate(-326.07 1026.508)" class="st0" font-family="BebasNeueBold" font-size="9.377" id="XMLID_129_">T</text><g id="XMLID_124_"><text id="XMLID_123_" transform="translate(-317.527 1026.508)" class="st0" font-family="BebasNeueBold" font-size="9.377">L</text></g><g id="XMLID_119_"><text transform="translate(-312.186 1026.508)" class="st0" font-family="BebasNeueBold" font-size="9.377" letter-spacing="1">A</text><text transform="translate(-306.386 1026.508)" class="st0" font-family="BebasNeueBold" font-size="9.377">K</text></g><g id="XMLID_114_"><text id="XMLID_113_" transform="translate(-300.447 1026.508)" class="st0" font-family="BebasNeueBold" font-size="9.377">E</text></g><text transform="translate(-295.054 1026.508)" class="st0" font-family="BebasNeueBold" font-size="9.377" id="XMLID_109_">,</text><g id="XMLID_104_"><text id="XMLID_103_" transform="translate(-288.106 1026.508)" class="st0" font-family="BebasNeueBold" font-size="9.377">U</text></g><g id="XMLID_99_"><text id="XMLID_98_" transform="translate(-282.318 1026.508)" class="st0" font-family="BebasNeueBold" font-size="9.377">T</text></g><g id="XMLID_94_"><text id="XMLID_93_" transform="translate(-277.238 1026.508)" class="st0" font-family="BebasNeueBold" font-size="9.377">A</text></g><g id="XMLID_89_"><text id="XMLID_88_" transform="translate(-271.401 1026.508)" class="st0" font-family="BebasNeueBold" font-size="9.377">H</text></g></g></g><g id="XMLID_19_"><g id="XMLID_32_"><text id="XMLID_31_" transform="translate(-360.73 957.295)" class="st0" font-family="GearedSlab-Bold" font-size="10.94">E</text></g><g id="XMLID_27_"><text id="XMLID_26_" transform="translate(-355.468 957.295)" class="st0" font-family="GearedSlab-Bold" font-size="10.94">S</text></g><g id="XMLID_22_"><text transform="translate(-350.108 957.295)" class="st0" font-family="GearedSlab-Bold" font-size="10.94">TD</text><text transform="translate(-338.908 957.295)" class="st0" font-family="GearedSlab-Bold" font-size="10.94">.</text></g></g><g id="XMLID_3_"><g id="XMLID_16_"><text id="XMLID_15_" transform="translate(-268.002 957.295)" class="st0" font-family="GearedSlab-Bold" font-size="10.94">1</text></g><g id="XMLID_11_"><text id="XMLID_10_" transform="translate(-263.692 957.295)" class="st0" font-family="GearedSlab-Bold" font-size="10.94">9</text></g><g id="XMLID_6_"><text transform="translate(-258.31 957.295)" class="st0" font-family="GearedSlab-Bold" font-size="10.94">5</text><text transform="translate(-252.81 957.295)" class="st0" font-family="GearedSlab-Bold" font-size="10.94">9</text></g></g><path class="st0" d="M-27.9 343.6c-.5.2-1 .4-1.4.5-.5.1-.9.1-1.4 0-.4-.1-.8-.2-1.2-.5-.4-.3-.7-.6-.9-1.1-1.4-2.8-2.9-5.6-4.3-8.5-.2-.5-.3-.9-.3-1.4 0-.5.2-.9.4-1.3s.6-.8 1-1.1c.4-.3.9-.7 1.5-.9.6-.3 1.1-.4 1.6-.5.5-.1 1.1-.1 1.5 0 .5.1.9.2 1.3.5s.7.6.9 1.1c1.2 2.9 2.5 5.8 3.7 8.7.2.5.3.9.2 1.4 0 .4-.2.8-.4 1.2-.2.4-.5.7-.9 1-.4.4-.8.7-1.3.9zm-3.8-11.8c-.2-.5-.5-.8-.8-.8-.3 0-.7 0-1.1.2-.4.2-.7.4-.9.7-.2.3-.2.7.1 1.2l3.9 8.1c.2.5.5.7.8.8.3.1.7 0 1-.2.4-.2.6-.4.8-.7.2-.3.1-.7-.1-1.2-1.2-2.7-2.4-5.4-3.7-8.1zm20.7 3.5c.1 0 .3.1.4.2.1.1.2.3.3.5.1.4.2.7.3 1.1-.7.2-1.3.4-2 .5-.4.1-.7.1-.9-.1-.2-.2-.4-.4-.5-.7-.4-1.5-.9-2.9-1.3-4.4-.1-.4-.3-.6-.5-.8-.2-.1-.6-.1-1 0l-.9.3c-.2.1-.3.2-.2.4.4 1.4.9 2.7 1.3 4.1 0 .1.1.2.1.3.1 0 .1.1.2.1s.3.1.4.2c.2.1.3.3.3.5.1.3.2.6.3.8-1.3.4-2.5.8-3.7 1.2-.1-.3-.2-.6-.3-.8-.1-.2-.1-.4 0-.6.1-.2.1-.3.2-.4 0-.1.1-.1.1-.2v-.3c-1.2-3.4-2.4-6.8-3.5-10.2 0-.1-.1-.2-.1-.3 0-.1-.1-.1-.2-.1s-.3-.1-.5-.2-.3-.3-.4-.5c-.1-.3-.2-.6-.3-.8 1.6-.6 3.2-1.1 4.9-1.6.6-.2 1.1-.3 1.6-.2.5 0 1 .1 1.4.3.4.2.8.5 1.1.8.3.4.5.8.6 1.3.2.6.3 1.2.5 1.8.1.4.2.8.1 1.2 0 .4-.2.7-.4 1-.1.2-.1.3.1.4.4.1.7.4.9.7.2.4.4.8.5 1.3.2.9.5 1.8.7 2.7 0 .1.1.2.1.2.1.2.2.2.3.3zm-5.5-9c-.1-.4-.3-.7-.7-.8-.3-.1-.7-.1-1.1 0l-.9.3c-.2.1-.2.2-.2.4.4 1.3.8 2.6 1.2 3.8 0 .1.1.2.1.2h.2c.4-.1.7-.2 1.1-.4.5-.1.7-.3.8-.6.1-.3.1-.6-.1-1 0-.6-.2-1.2-.4-1.9zm15 6.6c0 .1.1.2.1.3 0 0 .1.1.2.1.1.1.3.2.4.3.1.1.2.3.3.5 0 .3.1.6.1.8-1.3.2-2.6.5-3.9.7-.1-.3-.1-.6-.2-.8 0-.2 0-.4.1-.6.1-.2.2-.3.3-.4 0-.1.1-.1.1-.2v-.3c-.7-3.5-1.4-7.1-2.1-10.6 0-.1-.1-.2-.1-.3-.1 0-.1-.1-.2-.1-.1-.1-.3-.1-.4-.3-.2-.1-.3-.3-.3-.5-.1-.3-.1-.6-.2-.9 1.5-.3 2.9-.6 4.4-.8 0 .3.1.6.1.9 0 .2 0 .4-.1.6-.1.2-.2.3-.3.4-.1.1-.1.1-.1.2v.3c.6 3.6 1.2 7.1 1.8 10.7zm14.9.4c0 .2-.1.2-.2.2h-.7l-.1-.1c-.1-.2-.3-.3-.4-.3-.1 0-.2 0-.3.1-.3.2-.6.3-.9.4-.3.1-.7.2-1.1.2-.5 0-1 0-1.4-.1-.5-.1-.9-.3-1.3-.5s-.7-.6-1-.9c-.3-.4-.4-.8-.5-1.3-.3-3-.7-6-1-9-.1-.5 0-1 .2-1.4.2-.4.4-.8.8-1.1.4-.3.8-.6 1.3-.8.5-.2 1.1-.3 1.7-.4.6 0 1.2 0 1.7.1s1 .3 1.4.6c.4.3.7.6 1 1 .2.4.4.9.4 1.4 0 .5 0 1.1.1 1.6-.5 0-1 0-1.6.1-.3 0-.5-.1-.8-.2-.3-.2-.4-.4-.5-.8v-.2c0-.5-.2-.9-.5-1.1-.3-.2-.6-.3-1.1-.3-.4 0-.8.2-1 .5-.2.3-.3.7-.3 1.2.2 2.9.5 5.7.7 8.6 0 .5.2.9.5 1.1.3.2.6.3 1 .3s.7-.2 1-.4c.3-.3.4-.7.3-1.2 0-.7-.1-1.5-.1-2.2 0-.3-.1-.4-.4-.5-.2 0-.4-.1-.5-.3-.1-.1-.2-.4-.2-.8 0-.3 0-.5-.1-.8 1-.1 1.9-.1 2.9-.2.2 0 .4.1.5.2.1.2.2.3.2.5.1 2.1.2 4.5.3 6.8zm9.8-1.9v.3c0 .1.1.1.2.2s.2.2.3.4c.1.2.2.4.1.6 0 .3 0 .6-.1.9-1.3-.1-2.6-.1-3.9-.2v-.9c0-.2.1-.4.2-.6.1-.1.2-.3.4-.3.1-.1.1-.1.1-.2s.1-.1.1-.2l.3-10.8c0-.1 0-.2-.1-.3 0-.1-.1-.1-.2-.2l-.4-.4c-.1-.2-.2-.3-.2-.6v-.9c1.5 0 3 .1 4.5.2 0 .3 0 .6-.1.9 0 .2-.1.4-.2.6-.1.1-.3.3-.4.3l-.2.2c0 .1-.1.1-.1.3.1 3.5-.1 7.1-.3 10.7zm18.4-10.9c-.1.3-.1.6-.2.8 0 .2-.1.4-.2.5-.1.2-.2.3-.4.4-.1 0-.1.1-.2.1 0 0-.1.1-.1.2-.8 4.1-1.6 8.2-2.4 12.4 0 .1-.1.2-.2.3-.1.1-.2.1-.4.1-.4-.1-.8-.2-1.2-.2-.2 0-.3-.1-.4-.3-.1-.2-.1-.4-.2-.6 0-.1-.1-.3-.2-.7-.1-.4-.2-.9-.3-1.4-.1-.6-.3-1.1-.4-1.8-.2-.6-.3-1.2-.4-1.7-.1-.5-.2-1-.3-1.3-.1-.4-.1-.5-.1-.5v-.1.1c-.3 1.9-.5 3.8-.8 5.6v.3c0 .1.1.1.1.2.1.1.2.2.3.4.1.2.1.4.1.6 0 .3-.1.6-.1.8-1.3-.2-2.6-.4-3.9-.5 0-.3.1-.6.1-.9 0-.2.1-.4.2-.5.1-.2.3-.3.4-.4l.2-.2s.1-.1.1-.2c.4-3.6.9-7.3 1.3-10.9-.2-.1-.3-.1-.4-.3-.1-.1-.2-.2-.2-.4-.1-.2-.1-.4-.1-.6 0-.3.1-.6.1-.9l2.1.3c.2 0 .4.1.6.2.2.1.4.3.4.7 0 0 .1.2.2.6.1.4.2.8.4 1.4.1.5.3 1.1.5 1.8.2.6.3 1.3.5 1.9.2.6.3 1.1.4 1.6.1.5.2.8.2 1v-.1c.3-2 .7-4 1-6v-.3c0-.1-.1-.1-.1-.2-.1-.1-.2-.2-.3-.4-.1-.2-.1-.4-.1-.6 0-.3.1-.6.1-.8 1.6 0 3 .3 4.3.5zm12.1 17.4c.1.1.2.2.2.4.1.2 0 .4 0 .6-.1.3-.2.5-.3.8-1.2-.4-2.5-.9-3.7-1.3.1-.2.1-.5.2-.7.1-.2.1-.4.2-.5.1-.1.2-.2.3-.2.1-.1.2-.1.2-.2.1-.1.1-.1.2-.3 0-.4.1-.7.1-.9 0-.2.1-.4.1-.6v-.3c0-.1-.1-.1-.2-.2-.1 0-.1 0-.2-.1-.6-.2-1.2-.4-1.8-.5-.1 0-.2-.1-.3 0-.1 0-.1.1-.2.2 0 .1-.1.2-.1.3-.1.2-.1.3-.2.5s-.2.4-.3.7v.3c0 .1.1.2.1.3 0 .1 0 .2.1.3 0 .1 0 .3-.1.5s-.1.5-.2.7c-1.2-.4-2.5-.7-3.7-1 .1-.3.1-.5.2-.8.1-.2.1-.3.2-.4.1-.1.2-.2.3-.2.1-.1.2-.1.3-.2.1-.1.2-.1.3-.2.8-1.6 1.7-3.3 2.6-4.9.3-.6.7-1.2 1-1.8.3-.6.6-1.1.9-1.6.3-.5.5-.8.6-1.1.2-.3.2-.4.3-.4v-.4c-.1-.1-.1-.2-.2-.3-.1-.1-.1-.2-.1-.4s0-.4.1-.6c.1-.2.1-.5.2-.7.8.2 1.5.4 2 .6.5.1.9.3 1.2.4.3.1.5.3.6.5.1.2.2.4.2.7v.7c0 .4-.1.9-.1 1.5s-.1 1.3-.2 2-.1 1.5-.2 2.3c-.2 1.8-.4 3.8-.7 6.1v.3c0-.1.1 0 .1.1zm-2.3-5.2c.2.1.3 0 .3-.1.1-1 .2-1.9.3-2.9 0-.4.1-.7.1-1.1 0-.3.1-.7.1-.9 0-.3.1-.5.1-.7v-.3s-.1.1-.2.4c-.1.2-.3.5-.5.9l-.6 1.2-.6 1.2c-.2.4-.4.7-.5 1-.1.3-.2.4-.2.5v.2s.1.1.3.1c.2.1.5.1.7.2.2.2.5.2.7.3zm16.3 9.9c-.4.7-.7 1.4-1.1 2.2l-.3.3h-.4c-2.2-1.1-4.4-2.1-6.6-3.1.1-.3.2-.5.3-.8.1-.3.2-.5.4-.6.1-.1.3-.2.5-.2.1 0 .2 0 .2-.1.1 0 .1-.1.2-.2 1.4-3.3 2.8-6.6 4.3-9.9 0-.1.1-.2 0-.3 0-.1-.1-.1-.1-.2-.1-.1-.2-.3-.2-.5-.1-.2 0-.4 0-.6.1-.3.2-.5.3-.8l4.2 1.8c-.1.3-.2.5-.4.8-.1.2-.2.4-.4.4-.2.1-.3.1-.5.2-.1 0-.2 0-.2.1-.1 0-.1.1-.2.2l-4.5 9.9c-.1.2 0 .3.2.4.5.2 1 .5 1.6.7.2.1.4.1.5 0 .1-.1.3-.2.6-.3.2-.1.5-.1.8.1.2.2.5.3.8.5zm-81.9 111.2c-.1.3-.2.5-.3.8-.1.2-.2.4-.4.5-.2.1-.3.2-.4.2-.1 0-.2 0-.2.1-.1 0-.1.1-.2.2-1.3 2-2.4 3.8-3.5 5.4-.5.7-.9 1.3-1.3 2-.4.6-.8 1.2-1.2 1.7-.3.5-.6.9-.8 1.2-.2.3-.3.5-.3.5-.1.1-.2.1-.3.2-.1.1-.2 0-.4 0l-2.7-1.2c-.2-.1-.3-.2-.3-.3 0-.1-.1-.3 0-.5 1-4.1 2-8.3 3.2-12.3v-.3c0-.1-.1-.1-.1-.2-.1-.1-.1-.3-.2-.4 0-.2 0-.4.1-.6.1-.3.3-.5.4-.8 1.2.6 2.4 1.2 3.5 1.7-.1.3-.2.5-.4.8-.1.2-.2.4-.4.5-.1.1-.3.2-.4.2-.1 0-.2.1-.3.3-1 3.5-2 7-2.9 10.5 2-3 4-6.1 5.9-9.2.1-.2.1-.4 0-.5-.1-.1-.1-.3-.2-.4 0-.2 0-.4.1-.6.1-.3.2-.5.3-.8 1.2.3 2.4.8 3.7 1.3zm4.3 15.2v.3c0 .1.1.1.1.2.1.1.2.3.3.4.1.2.1.4 0 .6-.1.3-.1.6-.2.8-1.5-.4-3-.8-4.4-1.3.1-.3.2-.5.3-.8.1-.2.2-.4.4-.5.2-.1.3-.2.5-.2.1 0 .1-.1.2-.1s.1-.1.2-.2c1.1-3.4 2.1-6.9 3.2-10.3v-.3c0-.1-.1-.1-.1-.2-.1-.1-.2-.3-.2-.4-.1-.2-.1-.4 0-.6.1-.3.2-.6.3-.8 1.3.4 2.5.8 3.8 1.1-.1.3-.2.6-.2.8-.1.2-.2.4-.3.5-.2.1-.3.2-.4.2-.1 0-.2.1-.2.1s-.1.1-.1.3C-8 462-8.9 465.5-9.9 469zM8 459.2c0 .3-.1.6-.1.9 0 .2-.1.4-.1.5 0 .2-.2.3-.3.4-.1 0-.1.1-.2.1 0 0-.1.1-.1.2-.5 4.2-1 8.3-1.4 12.5 0 .1-.1.2-.2.3-.1.1-.2.1-.4.1-.5-.1-.9-.1-1.4-.2-.2 0-.4-.1-.5-.3-.1-.2-.2-.4-.2-.6 0-.1-.1-.3-.2-.7-.1-.4-.3-.9-.4-1.4-.2-.6-.3-1.1-.5-1.8-.2-.6-.3-1.2-.5-1.7-.1-.5-.2-1-.3-1.3-.1-.4-.1-.5-.1-.6v-.1.1c-.3 1.9-.7 3.7-1 5.6v.3c0 .1.1.1.1.2.1.1.2.2.3.4.1.2.1.4.1.6 0 .3-.1.6-.1.8-1.5-.3-3-.5-4.5-.8.1-.3.1-.6.2-.8 0-.2.1-.3.3-.5.1-.1.3-.2.5-.3.1-.1.2-.1.2-.1s.1-.1.1-.2c.7-3.6 1.5-7.2 2.2-10.8l-.3-.3c-.1-.1-.1-.2-.2-.4v-.6c.1-.3.1-.6.2-.9.6.1 1.2.2 1.8.4.2 0 .3.1.5.2s.3.3.4.7c0 0 .1.2.1.6.1.4.2.8.3 1.4.1.5.3 1.1.4 1.8.2.6.3 1.3.5 1.9.2.6.3 1.1.4 1.6.1.5.2.8.2 1v-.1c.3-2 .6-4 .9-6.1v-.3c0-.1-.1-.1-.1-.2-.1-.1-.2-.2-.3-.4-.1-.2-.1-.4-.1-.6 0-.3.1-.6.1-.8 1.2 0 2.5.1 3.7.3zm13.2.6c.2.1.2.4.3.7v1.9h-1c-.4 0-.7-.2-.9-.5-.1-.1-.2-.2-.3-.2h-.7c-.1 0-.2 0-.2.1-.1.1-.1.1-.1.3 0 3.6 0 7.2.1 10.7 0 .1 0 .2.1.3 0 .1.1.1.2.1.1.1.3.2.4.3s.2.3.2.6v.9h-4.5v-.9c0-.2.1-.4.2-.6.1-.1.3-.3.4-.3.1 0 .1-.1.2-.1 0-.1.1-.1.1-.3.1-3.6.1-7.2.2-10.8 0-.1 0-.2-.1-.2s-.1-.1-.2-.1h-.4c-.1 0-.1 0-.3.1-.1 0-.2.1-.3.2-.1.2-.2.3-.3.4-.1.1-.3.1-.7.1h-1c0-.4 0-.7.1-1.1v-.8c0-.3.1-.5.2-.7.1-.2.4-.2.7-.2 2.2.1 4.5.1 6.7 0 .5-.1.8 0 .9.1zm15 11.8c.1 0 .3.1.4.3.1.1.2.3.3.5 0 .3.1.5.1.8-1.5.3-3 .5-4.5.7 0-.2-.1-.5-.1-.7v-.5c0-.1.1-.2.2-.3.1-.1.1-.2.2-.3.1-.1.1-.2.1-.3-.1-.4-.2-.6-.3-.9-.1-.2-.1-.4-.2-.6-.1-.1-.1-.2-.2-.3-.1-.1-.2-.1-.3-.1h-.2c-.7.1-1.3.2-2 .3-.1 0-.2 0-.3.1-.1 0-.1.1-.1.2v1.7c0 .1.1.3.1.3l.2.2c.1.1.1.2.2.3.1.1.1.3.1.5s.1.5.1.7c-1.5.2-3 .3-4.5.4 0-.3 0-.5-.1-.8 0-.2 0-.4.1-.5.1-.1.2-.2.2-.3l.3-.3c.1-.1.2-.2.2-.3.3-1.8.6-3.7.8-5.5.1-.7.2-1.3.3-2 .1-.7.2-1.3.2-1.8.1-.5.1-.9.2-1.3 0-.3.1-.5.1-.5v-.1c0-.1-.1-.2-.1-.3-.1-.1-.2-.1-.2-.2-.1-.1-.2-.2-.2-.3-.1-.1-.1-.3-.2-.6 0-.2-.1-.5-.1-.7.7-.1 1.3-.2 1.8-.2.5-.1.8-.1 1.1-.1.3 0 .5.1.7.2.2.1.3.3.4.5 0 .1.1.3.2.6.1.4.3.8.5 1.4.2.6.5 1.2.7 1.9.3.7.6 1.4.8 2.1.7 1.7 1.5 3.6 2.4 5.7.1.1.1.2.2.2.3.1.3.2.4.2zm-4.7-3.5c.2 0 .3-.1.2-.3l-.9-2.7c-.1-.3-.2-.7-.3-1l-.3-.9c-.1-.3-.2-.5-.2-.6-.1-.2-.1-.3-.1-.3v1.4c0 .4 0 .9-.1 1.4 0 .5-.1 1-.1 1.4 0 .4-.1.8-.1 1.1v.5c0 .1 0 .2.1.2h.3c.3 0 .5-.1.8-.1.1 0 .4 0 .7-.1zm19.9 1.2c0 .1 0 .2-.2.3-.2.1-.4.1-.6.2h-.2c-.1 0-.1 0-.1-.1-.2-.2-.4-.2-.5-.2-.1 0-.2.1-.3.2-.3.2-.6.5-.9.7-.4.2-.8.4-1.2.5-.6.2-1.1.2-1.7.2-.6 0-1.1-.1-1.6-.3-.5-.2-.9-.4-1.2-.8-.3-.3-.6-.8-.7-1.3-.7-2.9-1.4-5.9-2.2-8.8-.1-.5-.1-1 0-1.4.1-.4.3-.8.6-1.2.3-.4.6-.7 1-.9.4-.3.9-.5 1.4-.6.5-.1 1-.2 1.5-.2s1 .1 1.4.2c.4.2.8.4 1.1.7.3.3.6.7.7 1.2.2.5.3 1 .5 1.5-.5.2-1 .3-1.5.5-.2.1-.5.1-.8 0-.3-.1-.5-.3-.6-.7 0-.1 0-.2-.1-.2-.2-.5-.4-.8-.7-1-.3-.2-.6-.2-1-.1s-.7.3-.8.6c-.2.3-.2.7 0 1.2.8 2.8 1.5 5.5 2.3 8.3.1.5.4.9.7 1 .3.2.7.2 1.2.1.4-.1.7-.3 1-.7.2-.3.3-.7.1-1.2-.2-.7-.4-1.4-.7-2.2-.1-.3-.2-.4-.5-.4-.2 0-.4 0-.5-.1-.1-.1-.2-.4-.3-.7-.1-.2-.1-.5-.2-.7.9-.3 1.9-.6 2.8-.9.2-.1.4-.1.6.1.2.1.3.3.3.4.4 2.3 1.2 4.5 1.9 6.8zm4.3-15.7v.2c.5 1.2 1.1 2.4 1.6 3.5.1.2.2.2.4.1.8-.4 1.6-.7 2.4-1.1h.3c.1 0 .2.1.2.2.2.4.4.9.6 1.3.1.2 0 .3-.2.4-.8.4-1.7.8-2.5 1.2-.2.1-.3.2-.2.4.6 1.3 1.2 2.6 1.8 4 0 .1.1.1.2.2h.3c.7-.3 1.3-.6 2-.9.1-.1.2-.2.2-.4-.1-.3 0-.6.2-.8.2-.2.4-.4.8-.6.3-.1.5-.3.8-.4.4.7.7 1.4 1.1 2.2.1.1.1.3 0 .4-.1.1-.2.3-.4.3-.5.2-.9.5-1.4.7-1.6.8-3.2 1.5-4.8 2.2-.5.2-.9.4-1.4.6-.1-.3-.2-.5-.3-.8-.1-.3-.2-.5-.1-.7 0-.2.1-.3.2-.5.1-.1.1-.1.1-.2v-.3c-1.4-3.3-2.7-6.6-4.1-9.9-.1-.2-.2-.3-.5-.3-.1 0-.3-.1-.4-.2-.1-.1-.2-.3-.3-.5-.1-.3-.2-.5-.3-.8 2.2-.9 4.3-1.8 6.4-2.9.1-.1.3-.1.5-.1s.3.1.4.2c.3.7.7 1.4 1 2.1-.3.1-.5.3-.8.4-.3.1-.5.2-.8.1-.2 0-.4-.1-.5-.2-.1-.1-.3-.1-.5 0-.6.3-1.1.5-1.7.8-.2 0-.3.1-.3.1zM39.2 347.7c-6.2-.6-12-.2-17.4 1.4-1.4.4-2.1.4-3.6 0-5.4-1.6-11.2-2-17.4-1.4-2.5.3-3.1 1.5-2.1 3.8.4.9.9-.1 1.4 2 0 .2.8 2.8 1 3.9.8 3.2 3.5 5 7.6 5 6.1 0 7.6-2.3 9.4-6.8.6-1.5 1.2-2.8 1.9-2.9.8 0 1.3 1.3 2 2.9 1 2.4 2.1 5.3 5.2 6.2 4.9 1.4 10.6.6 11.9-4.4.3-1.1 1-3.8 1-3.9.4-2 1-1.1 1.4-2 .8-2.4.2-3.6-2.3-3.8zm-15.1 3.1c3.6-1.6 7.3-2.2 11.2-1.2 1.7.5 2.5 1.6 2.5 3.3-.3 7.6-3.2 7.7-8.4 7.4-4.4-.9-4.3-1.3-5.2-4.5-1.2-3.9-1.3-4.4-.1-5zm-8.8 6.7c-.6 2-1.9 2.3-4.7 2.8-5.7.5-8.2-.1-8.4-7.3-.1-1.8.7-2.9 2.5-3.3 3.8-1 7.5-.4 11.2 1.2 1.4.6 1 1.2-.6 6.6zm-24.4 72.9v2.2c0 .1.1.2.2.2h1.4l.1.1v.8c0 .1-.1.2-.2.2H-9c-.1 0-.2.1-.2.2v2.3c0 .1 0 .1.1.1h1c.1 0 .1 0 .1-.1 0-.2.1-.3.2-.3s.2-.1.4-.1h.4v1.3c0 .1 0 .1-.1.2s-.1.1-.2.1H-11v-.6c0-.2 0-.3.1-.4 0-.1.1-.1.2-.2 0 0 .1 0 .1-.1v-5.8c0-.1-.1-.2-.2-.3-.1 0-.1-.1-.2-.2 0-.1-.1-.2-.1-.3v-.5h3.6c.1 0 .2 0 .2.1.1.1.1.1.1.2v1.2h-.4c-.2 0-.3 0-.4-.1l-.2-.2c0-.1-.1-.1-.2-.1l-.7.1c0-.1 0 0 0 0zm6.4 1.3c0 .1.1.3.2.4.1.1.3.2.5.4.2.1.4.2.6.4s.4.3.6.4c.2.2.3.4.5.6.1.2.2.5.2.8v1.3c0 .3-.1.5-.2.7-.1.2-.3.4-.4.5l-.6.3c-.2.1-.5.1-.8.1s-.5 0-.8-.1l-.6-.3c-.2-.1-.3-.3-.4-.5-.1-.2-.2-.4-.2-.7v-1h.7c.2 0 .3.1.4.2s.1.3.1.4v.5c0 .1.1.2.2.3.1.1.3.1.5.1h.3c.1 0 .2-.1.2-.1.1 0 .1-.1.2-.2 0-.1.1-.1.1-.2v-1.2c0-.2-.1-.4-.2-.6s-.3-.3-.5-.4l-.6-.3c-.2-.1-.4-.2-.6-.4s-.4-.3-.5-.6c-.1-.2-.2-.5-.2-.8v-.8c0-.3 0-.5.1-.7.1-.2.2-.4.4-.5l.6-.3c.2-.1.5-.1.7-.1s.5 0 .7.1l.6.3c.2.1.3.3.4.5.1.2.1.4.1.7v1H-1c-.2 0-.3-.1-.5-.2-.1-.1-.2-.3-.2-.5v-.3c0-.2-.1-.3-.2-.4-.1-.1-.3-.1-.4-.1-.2 0-.3 0-.4.1s-.2.2-.2.3v.9zm9.5-2.3c.1.1.1.2.1.4v1h-.5c-.2 0-.4-.1-.5-.3 0-.1-.1-.1-.1-.1h-.4v6s0 .1.1.1.1.1.2.2.1.2.1.3v.5h-2v-.5c0-.1 0-.2.1-.3l.2-.2s.1 0 .1-.1v-5.9c0-.1 0-.1-.1-.1h-.5c-.1 0-.1.1-.1.1 0 .1-.1.2-.1.2 0 .1-.2.1-.3.1h-.6v-1c0-.2 0-.3.1-.4.1-.1.2-.1.4-.1h3.5c.1 0 .2 0 .3.1zm5-.1c.6 0 1.1.2 1.4.5.3.3.4.7.4 1.3v4.6c0 .5-.1 1-.4 1.3-.3.3-.7.5-1.4.5H9.4v-.5c0-.2 0-.3.1-.4 0-.1.1-.1.2-.2.1 0 .1-.1.1-.2v-5.7c0-.1 0-.2-.1-.3-.2-.1-.2-.2-.2-.5v-.5h2.3zm.6 1.7v-.3c0-.1 0-.2-.1-.2 0-.1-.1-.1-.2-.1s-.2-.1-.3-.1h-.7v5.8c0 .1.1.2.2.2h.6c.1 0 .2 0 .3-.1.1 0 .1-.1.2-.2 0-.1.1-.1.1-.2V431zm5.4 5.4v.9c0 .1-.1.1-.2.1h-1c-.1 0-.2-.1-.2-.1v-.9c0-.1.1-.1.2-.1h1c.1 0 .2 0 .2.1zm10.2-.1c.1 0 .1.1.2.2s.1.2.1.3v.6h-2v-.6c0-.1 0-.2.1-.3l.2-.2.1-.1v-4.9c0-.1 0-.1-.1-.1h-.4c-.1 0-.2-.1-.3-.2-.1-.1-.2-.3-.2-.6v-.2c.2 0 .4-.1.6-.2.2-.1.3-.2.4-.5l.2-.2c.1-.1.2-.1.3-.1h.8v6.9c-.1.2-.1.2 0 .2zm5-7.1c.3 0 .5 0 .7.1l.6.3c.2.2.3.3.4.6.1.2.1.5.1.7v4.8c0 .6-.2 1-.5 1.3-.3.3-.8.5-1.3.5s-1-.1-1.3-.4-.5-.7-.5-1.2v-.8h.7c.1 0 .2 0 .3.1l.2.2c.1.1.1.2.1.2v.2c0 .1 0 .3.1.4.1.1.2.2.4.2s.3-.1.4-.2c.1-.1.1-.3.1-.4v-1.6c0-.1 0-.1-.1-.1s-.2.1-.4.1h-.3c-.5 0-.9-.2-1.2-.5-.3-.3-.4-.7-.4-1.3v-1.6c0-.3 0-.5.1-.7.1-.2.2-.4.4-.6.2-.2.4-.3.6-.3h.8zm.6 1.9c0-.3 0-.5-.1-.6s-.2-.2-.4-.2-.3.1-.4.2-.1.3-.1.6v1.2c0 .3 0 .5.1.6.1.1.2.2.4.2s.3-.1.4-.2c.1-.1.1-.4.1-.6v-1.2zm6.9.9c.2 0 .5 0 .6.1.2.1.3.2.4.4s.2.3.2.5.1.4.1.6v2.1c0 .3-.1.5-.2.8-.1.2-.2.4-.4.6-.2.1-.4.3-.6.3-.2.1-.5.1-.8.1-.3 0-.5 0-.8-.1l-.6-.3c-.2-.1-.3-.3-.4-.6-.1-.2-.2-.5-.2-.8v-1h.7c.1 0 .2 0 .3.1l.2.2c0 .1.1.1.1.2v.5c0 .2.1.4.2.4s.3.1.4.1h.2c.1 0 .1 0 .2-.1.1 0 .1-.1.2-.2 0-.1.1-.2.1-.3v-2.1c0-.1-.1-.3-.2-.4-.1-.1-.3-.2-.4-.2s-.3.1-.5.2-.2.2-.2.4h-.9c-.1 0-.1 0-.2-.1-.1 0-.1-.1-.2-.2 0-.1-.1-.2-.1-.3v-3.3c0-.2.1-.3.2-.4s.3-.2.4-.2H41c.1 0 .2 0 .3.1v1.6h-.5c-.2 0-.3 0-.4-.1-.1-.1-.2-.1-.2-.2 0 0 0-.1-.1-.1h-.9c-.1 0-.2.1-.2.2v1.3c0 .1 0 .1.1.1s.1-.1.2-.1h.6c.3.2.4.2.6.2zm6-2.8c.3 0 .5 0 .7.1l.6.3c.2.1.3.3.4.6.1.2.1.5.1.7v4.8c0 .6-.2 1-.5 1.3-.3.3-.8.5-1.3.5s-1-.1-1.3-.4c-.3-.3-.5-.7-.5-1.2v-.8h.7c.1 0 .2 0 .3.1l.2.2c.1.1.1.2.1.2v.2c0 .1 0 .3.1.4.1.1.2.2.4.2s.3-.1.4-.2c.1-.1.1-.3.1-.4v-1.6c0-.1 0-.1-.1-.1s-.2.1-.4.1h-.3c-.5 0-.9-.2-1.2-.5-.3-.3-.4-.7-.4-1.3v-1.6c0-.3 0-.5.1-.7.1-.2.2-.4.4-.6.2-.2.4-.3.6-.3h.8zm.6 1.9c0-.3 0-.5-.1-.6s-.2-.2-.4-.2-.3.1-.4.2-.1.3-.1.6v1.2c0 .3 0 .5.1.6.1.1.2.2.4.2s.3-.1.4-.2c.1-.1.1-.4.1-.6v-1.2zm91.5 2.5s-5 .1-12.5.3c-7.5.2-17.5.4-27.5.6-5 .1-10 .3-14.7.3-4.7 0-9.1-.1-12.8-.3-7.5-.3-12.5-1-12.5-1v-.3s5-.6 12.5-1c3.8-.2 8.1-.3 12.8-.3 4.7 0 9.7.2 14.7.3 10 .2 20 .4 27.5.6 7.5.2 12.5.3 12.5.3v.5zm-239.7-.3s5-.1 12.5-.3c7.5-.2 17.5-.4 27.5-.6 5-.1 10-.3 14.7-.3 4.7 0 9.1.1 12.8.3 7.5.3 12.5 1 12.5 1v.3s-5 .6-12.5 1c-3.8.2-8.1.3-12.8.3-4.7 0-9.7-.2-14.7-.3-10-.2-20-.4-27.5-.6-7.5-.2-12.5-.3-12.5-.3v-.5zm-13.5-13.9c-1.3 0-2.6-.2-3.8-.6-1.2-.4-2.2-1-3.1-1.7-.9-.7-1.6-1.7-2.1-2.8-.5-1.1-.8-2.3-.8-3.7v-24.2c0-1.4.3-2.6.8-3.7s1.2-2 2.1-2.8c.9-.7 1.9-1.3 3.1-1.7 1.2-.4 2.5-.6 3.8-.6 1.3 0 2.6.2 3.8.6 1.2.4 2.2 1 3.1 1.7.9.7 1.6 1.7 2.1 2.8.5 1.1.8 2.3.8 3.7v4.6h-3.3c-.9 0-1.7-.3-2.3-.8-.6-.6-1-1.3-1-2.2v-2c0-.7-.3-1.4-1-2-.6-.7-1.4-1-2.4-1s-1.8.3-2.4 1c-.6.7-.9 1.4-.9 2v25.5c0 .6.3 1.2 1 1.8.7.6 1.5.9 2.5.9.5 0 1-.1 1.4-.3.4-.2.8-.4 1.1-.7.3-.3.5-.6.7-.9.2-.3.2-.7.2-1v-2.2c0-.8.2-1.6.7-2.2.5-.6 1.2-.9 2.2-.9h3.4v4.6c0 1.4-.3 2.6-.8 3.7s-1.2 2-2.1 2.8c-.9.7-1.9 1.3-3.1 1.7-1.1.4-2.3.6-3.7.6zm43.2-5c.3.2.6.5.8.9s.4.9.4 1.5v2.2h-10.1v-2c0-.6.1-1.1.2-1.4.1-.3.3-.6.4-.8.2-.2.3-.4.5-.6s.2-.5.2-.8c-.2-1-.3-1.8-.4-2.5-.1-.7-.1-1.2-.2-1.6-.1-.4-.2-.7-.3-.8-.1-.2-.3-.2-.6-.2h-5c-.3 0-.6 0-.7.1-.1.1-.2.3-.3.6 0 .2-.1.5-.1 1s-.1 1-.1 1.5c-.1.6-.1 1.2-.2 1.9 0 .4.1.7.2.9.1.2.3.4.4.6.1.2.3.5.4.8.1.3.2.7.2 1.3v2h-9.9v-2.2c0-.5.1-1 .3-1.3.2-.3.4-.6.6-.8l.7-.7c.2-.2.4-.5.5-.8l3.1-14.4c.4-1.8.7-3.5 1.1-5.3.4-1.7.7-3.3 1-4.6.3-1.4.5-2.5.7-3.3.2-.9.3-1.3.3-1.3v-.3c0-.3-.1-.5-.2-.7-.2-.2-.3-.4-.5-.6-.2-.2-.4-.5-.5-.9-.2-.4-.2-.9-.2-1.6v-2h4.7c1.2 0 2.2 0 2.9.2.7.1 1.3.4 1.6.7.3.3.6.9.8 1.6 0 .1.2.7.4 1.7s.5 2.3.8 3.8c.3 1.5.7 3.3 1.1 5.2.4 1.9.8 3.9 1.2 5.9.9 4.7 2 10 3.3 15.9.1.3.2.5.3.7-.2.2 0 .4.2.5zm-9.5-11.2c.5 0 .7-.2.6-.6l-1.3-7.5c-.2-.9-.3-1.9-.5-2.8-.1-.9-.3-1.7-.4-2.5-.1-.7-.2-1.3-.3-1.8-.1-.5-.1-.7-.1-.7h-.1s-.1.4-.2 1.1-.3 1.6-.4 2.7c-.2 1.1-.4 2.3-.6 3.6-.2 1.3-.4 2.5-.6 3.6-.2 1.1-.4 2.1-.5 2.9-.1.8-.2 1.3-.2 1.4 0 .3 0 .4.1.5.1.1.3.1.7.1h3.8zm39.5 7.9v6.4c0 .4-.1.8-.4 1-.3.3-.6.4-.9.4h-18.4v-2.3c0-.8.1-1.4.3-1.8.2-.4.5-.7.9-.9.2-.1.3-.2.5-.4.1-.2.2-.4.2-.7v-28.9c0-.3-.1-.6-.2-.7-.1-.1-.2-.3-.4-.4-.3-.2-.6-.5-.9-.9-.3-.4-.4-.9-.4-1.5v-2.3H-51v2.3c0 .6-.1 1.1-.4 1.5-.3.4-.6.7-.9.9-.2.1-.3.2-.4.4-.1.1-.1.4-.1.8v29c0 .5.3.8.8.8h4.3c.5 0 .9-.2 1.1-.7.2-.4.5-.8.9-1.3s1.1-.8 1.9-.8h2.4zm17.5 2c0 .4 0 .6.1.8.1.1.2.3.4.4.3.2.6.5.9.9.3.4.4.9.4 1.5v2.3h-10.1v-2.3c0-.6.1-1.1.4-1.5.3-.4.6-.7.9-.9l.4-.4c.1-.1.2-.4.2-.7v-29c0-.4-.1-.6-.2-.8-.1-.1-.2-.3-.4-.4-.3-.2-.6-.5-.9-.9-.3-.4-.4-.9-.4-1.5v-2.3h10.1v2.3c0 .6-.1 1.1-.4 1.5-.3.4-.6.7-.9.9-.2.1-.3.3-.4.4-.1.1-.1.4-.1.8v28.9zm29.3-34.5c.3.3.5.7.5 1.1v5.9H3.7c-.8 0-1.4-.2-1.8-.5-.4-.4-.7-.7-.9-1-.1-.2-.2-.3-.4-.5-.2-.1-.4-.2-.8-.2H-4c-.3 0-.5.1-.6.2-.1.2-.2.4-.2.6v10.3c0 .3.1.5.2.7.1.1.3.2.6.2h5.8c.3 0 .5.1.6.4.1.3.2.5.2.8v3.4c0 .2-.1.4-.2.6-.1.2-.3.2-.5.2H-4c-.2 0-.4.1-.5.2-.2.1-.2.3-.2.6v11.6c0 .3 0 .6.1.7.1.1.2.3.4.4.3.2.6.5.9.9.3.4.4.9.4 1.5v2.3H-13v-2.3c0-.6.1-1.1.4-1.5.3-.4.6-.7.9-.9l.4-.4c.1-.1.2-.4.2-.8v-28.8c0-.5-.2-.9-.7-1.1-.4-.2-.7-.5-.9-.8-.2-.4-.3-1-.3-1.8v-2.2H4.4c.3-.2.6-.1 1 .2zm20.2 40.8c-1.3 0-2.6-.2-3.8-.5-1.2-.3-2.2-.8-3.1-1.5-.9-.7-1.6-1.6-2.1-2.6s-.8-2.2-.8-3.6v-25.3c0-1.4.3-2.6.8-3.6s1.2-1.9 2.1-2.6c.9-.7 1.9-1.2 3.1-1.5 1.2-.3 2.4-.5 3.8-.5 1.3 0 2.6.2 3.8.5 1.2.3 2.2.9 3.1 1.5.9.7 1.6 1.5 2.1 2.6s.8 2.2.8 3.6v25.3c0 1.4-.3 2.6-.8 3.6s-1.2 1.9-2.1 2.6c-.9.7-1.9 1.2-3.1 1.5-1.2.4-2.4.5-3.8.5zm3.5-32.9c0-1.4-.3-2.4-1-2.9s-1.5-.7-2.5-.7-1.8.2-2.5.7c-.7.5-1 1.4-1 2.9v24c0 1.4.3 2.4 1 2.9s1.5.8 2.5.8 1.9-.3 2.5-.8c.7-.6 1-1.6 1-3v-23.9zm37.2 27.3c.3.2.5.4.8.8s.3.8.3 1.4v2.9h-5.3c-.9 0-1.7-.3-2.1-.9-.5-.6-.7-1.3-.7-2.1v-12.1c0-1.1-.2-1.8-.6-2.3-.4-.5-1.2-.8-2.3-.8h-2.3c-.5 0-.7.3-.7.8V413c0 .4 0 .6.1.8.1.1.2.3.4.4.3.2.6.5.9.9.3.4.4.9.4 1.5v2.3H45.1v-2.3c0-.6.1-1.1.4-1.5.3-.4.6-.7.9-.9.1-.1.3-.2.4-.4.1-.1.2-.4.2-.7v-29.6c0-.2-.1-.3-.3-.4-.3-.2-.6-.5-1-.9-.3-.4-.5-1-.5-1.7v-2.3h11.5c1.3 0 2.6.2 3.7.7 1.1.5 2.1 1.1 2.8 1.9.8.8 1.4 1.8 1.8 2.9.4 1.1.6 2.3.6 3.7v5c0 1.2-.2 2.2-.5 3.2s-.9 1.8-1.6 2.4c-.4.4-.4.7.1 1.1.8.6 1.4 1.5 1.6 2.6.3 1.1.4 2.3.4 3.7v7.5c0 .3.1.6.2.7.2 0 .4.1.5.2zm-6.8-26.9c0-1.1-.3-2-1-2.6-.6-.6-1.4-.9-2.3-.9H54c-.4 0-.7.3-.7.8V395c0 .3.1.5.2.6.1.1.3.2.4.2h2.8c1.1 0 1.9-.3 2.2-.9.3-.6.5-1.4.5-2.5v-5.5zm40.1-8.7v2.3c0 .5 0 1-.1 1.4-.1.4-.3.8-.7 1.1l-.4.4c-.1.1-.1.4-.1.7v33.6c0 .4-.1.7-.3.9-.2.2-.5.4-.9.4h-3.2c-.5 0-.9-.2-1.2-.7-.3-.4-.5-.9-.7-1.5-.1-.2-.3-.8-.7-1.9-.4-1-.9-2.2-1.4-3.6-.5-1.4-1.1-2.9-1.7-4.5-.6-1.6-1.2-3-1.7-4.4-.5-1.3-.9-2.5-1.3-3.4s-.5-1.4-.5-1.4c0-.1 0-.1-.1-.1 0 0-.1.1-.1.2v15.2c0 .4.1.6.2.8.1.1.2.3.4.4.3.2.6.5.9.9.3.4.4.9.4 1.5v2.3h-10v-2.3c0-.5.1-1 .4-1.4.3-.4.6-.8 1-1.1.2-.2.3-.3.4-.5.1-.1.1-.3.1-.6v-29.3c-.4-.1-.7-.3-.9-.5-.3-.2-.5-.5-.7-.9-.2-.4-.3-.9-.3-1.5v-2.5h4.7c.4 0 .9.1 1.4.3.5.2.9.7 1.2 1.6 0 .1.2.6.6 1.5.4.9.8 2.1 1.3 3.4.5 1.4 1.1 2.9 1.7 4.5.6 1.6 1.2 3.2 1.8 4.7.6 1.5 1.1 2.9 1.5 4 .4 1.2.7 2 .9 2.5 0 .1.1.1.1 0s.1-.2.1-.3v-16.3c0-.4-.1-.6-.2-.8-.1-.1-.2-.3-.4-.4-.3-.2-.6-.5-.9-.9-.3-.4-.4-.9-.4-1.5v-2.3h9.8zm16.7 34.9c0 .4 0 .6.1.8.1.1.2.3.4.4.3.2.6.5.9.9.3.4.4.9.4 1.5v2.3H108v-2.3c0-.6.1-1.1.4-1.5.3-.4.6-.7.9-.9l.4-.4c.1-.1.2-.4.2-.7v-29c0-.4-.1-.6-.2-.8-.1-.1-.2-.3-.4-.4-.3-.2-.6-.5-.9-.9-.3-.4-.4-.9-.4-1.5v-2.3h10.1v2.3c0 .6-.1 1.1-.4 1.5-.3.4-.6.7-.9.9-.2.1-.3.3-.4.4-.1.1-.1.4-.1.8v28.9zm35.6 1.3c.3.2.6.5.8.9s.4.9.4 1.5v2.2H143v-2c0-.6.1-1.1.2-1.4.1-.3.3-.6.4-.8.2-.2.3-.4.5-.6s.2-.5.2-.8c-.2-1-.3-1.8-.4-2.5-.1-.7-.1-1.2-.2-1.6-.1-.4-.2-.7-.3-.8-.1-.2-.3-.2-.6-.2h-5c-.3 0-.6 0-.7.1-.1.1-.2.3-.3.6 0 .2-.1.5-.1 1s-.1 1-.1 1.5c-.1.6-.1 1.2-.2 1.9 0 .4.1.7.2.9.1.2.3.4.4.6.1.2.3.5.4.8.1.3.2.7.2 1.3v2h-9.9v-2.2c0-.5.1-1 .3-1.3.2-.3.4-.6.6-.8l.7-.7c.2-.2.4-.5.5-.8l3.1-14.4c.4-1.8.7-3.5 1.1-5.3.4-1.7.7-3.3 1-4.6.3-1.4.5-2.5.7-3.3.2-.9.3-1.3.3-1.3v-.3c0-.3-.1-.5-.2-.7-.2-.2-.3-.4-.5-.6-.2-.2-.4-.5-.5-.9-.2-.4-.2-.9-.2-1.6v-2h4.7c1.2 0 2.2 0 2.9.2.7.1 1.3.4 1.6.7.3.3.6.9.8 1.6 0 .1.2.7.4 1.7s.5 2.3.8 3.8c.3 1.5.7 3.3 1.1 5.2.4 1.9.8 3.9 1.2 5.9.9 4.7 2 10 3.3 15.9.1.3.2.5.3.7-.2.2 0 .4.2.5zm-9.5-11.2c.5 0 .7-.2.6-.6l-1.3-7.5c-.2-.9-.3-1.9-.5-2.8-.1-.9-.3-1.7-.4-2.5-.1-.7-.2-1.3-.3-1.8-.1-.5-.1-.7-.1-.7h-.1s-.1.4-.2 1.1-.3 1.6-.4 2.7c-.2 1.1-.4 2.3-.6 3.6-.2 1.3-.4 2.5-.6 3.6-.2 1.1-.4 2.1-.5 2.9-.1.8-.2 1.3-.2 1.4 0 .3 0 .4.1.5.1.1.3.1.7.1h3.8z"/></svg>