<svg version="1.1" id="Layer_1" xmlns="http://www.w3.org/2000/svg" x="0" y="0" viewBox="-145 302 320 190" xml:space="preserve"><style>.st0{fill:#575757}.st1{fill:#333}</style><g id="XMLID_85_"><g id="XMLID_86_"><g id="XMLID_195_"><text id="XMLID_194_" transform="translate(-487.258 1328.508)" class="st1" font-family="BebasNeueBold" font-size="9.377">S</text></g><g id="XMLID_190_"><text id="XMLID_189_" transform="translate(-481.745 1328.508)" class="st1" font-family="BebasNeueBold" font-size="9.377">A</text></g><g id="XMLID_134_"><text id="XMLID_133_" transform="translate(-475.91 1328.508)" class="st1" font-family="BebasNeueBold" font-size="9.377">L</text></g><text transform="translate(-471.07 1328.508)" class="st1" font-family="BebasNeueBold" font-size="9.377" id="XMLID_129_">T</text><g id="XMLID_124_"><text id="XMLID_123_" transform="translate(-462.527 1328.508)" class="st1" font-family="BebasNeueBold" font-size="9.377">L</text></g><g id="XMLID_119_"><text transform="translate(-457.186 1328.508)" class="st1" font-family="BebasNeueBold" font-size="9.377">A</text><text transform="translate(-451.386 1328.508)" class="st1" font-family="BebasNeueBold" font-size="9.377">K</text></g><g id="XMLID_114_"><text id="XMLID_113_" transform="translate(-445.447 1328.508)" class="st1" font-family="BebasNeueBold" font-size="9.377">E</text></g><text transform="translate(-440.054 1328.508)" class="st1" font-family="BebasNeueBold" font-size="9.377" id="XMLID_109_">,</text><g id="XMLID_104_"><text id="XMLID_103_" transform="translate(-433.106 1328.508)" class="st1" font-family="BebasNeueBold" font-size="9.377">U</text></g><g id="XMLID_99_"><text id="XMLID_98_" transform="translate(-427.318 1328.508)" class="st1" font-family="BebasNeueBold" font-size="9.377">T</text></g><g id="XMLID_94_"><text id="XMLID_93_" transform="translate(-422.238 1328.508)" class="st1" font-family="BebasNeueBold" font-size="9.377">A</text></g><g id="XMLID_89_"><text id="XMLID_88_" transform="translate(-416.401 1328.508)" class="st1" font-family="BebasNeueBold" font-size="9.377">H</text></g></g></g><g id="XMLID_19_"><g id="XMLID_32_"><text id="XMLID_31_" transform="translate(-505.73 1259.295)" class="st1" font-family="GearedSlab-Bold" font-size="10.94">E</text></g><g id="XMLID_27_"><text id="XMLID_26_" transform="translate(-500.468 1259.295)" class="st1" font-family="GearedSlab-Bold" font-size="10.94">S</text></g><g id="XMLID_22_"><text transform="translate(-495.108 1259.295)" class="st1" font-family="GearedSlab-Bold" font-size="10.94">TD</text><text transform="translate(-483.908 1259.295)" class="st1" font-family="GearedSlab-Bold" font-size="10.94">.</text></g></g><g id="XMLID_3_"><g id="XMLID_16_"><text id="XMLID_15_" transform="translate(-413.002 1259.295)" class="st1" font-family="GearedSlab-Bold" font-size="10.94">1</text></g><g id="XMLID_11_"><text id="XMLID_10_" transform="translate(-408.692 1259.295)" class="st1" font-family="GearedSlab-Bold" font-size="10.94">9</text></g><g id="XMLID_6_"><text transform="translate(-403.31 1259.295)" class="st1" font-family="GearedSlab-Bold" font-size="10.94">5</text><text transform="translate(-397.81 1259.295)" class="st1" font-family="GearedSlab-Bold" font-size="10.94">9</text></g></g><path class="st0" d="M-60.9 343.1c-2.8 2.8-1.5 6.1 2.3 6.1 2.9 0 5.3-2.4 7.2-5.8l11.6-20.1c-1.8 1-4.1 1.5-6.3 1.5-1.1 0-3.5-.1-4.5-.1-3.4 0-5.9 2.1-5.9 4.3 0 1.3.5 2.4 1.9 3.2l-2 2.5c-2.1-1.2-3.2-3.2-3.2-5.3 0-4.5 4.1-7.7 10-7.7h4.1c4.3 0 7.9-2 7.9-2l2.1 3.5-12.2 21.1c-3.4 5.9-7.2 8.3-11.3 8.3-6.1 0-9.2-6.8-4.1-11.4l2.4 1.9zm39.1-2.7c.5.2 1.3.9 1.5 1.4-3.3 3.9-7.2 7.5-10.6 7.5-3.3 0-4.5-2.8-2.8-5.8l5.3-9.2c1.7-3-1-4.1-7.3 3.9l-6.2 10.7H-46l16.2-28.1h4.1l-6.4 11.3c2-2.1 3.9-3.1 5.7-3.1 2.3 0 4 2.3 2.1 5.4l-5.9 10.3c-1 1.6-.4 2.3.4 2.3 1.8 0 4.6-2.7 7.6-6.1l.4-.5z"/><path class="st0" d="M-18.3 341.3l-.4.8c-1.8 3.3-.4 4.8 2.1 4.8 2.9 0 6.6-2.7 9.5-6.1l.3-.3c.5.2 1.3.9 1.5 1.4-3.3 3.9-7.9 7.5-12.5 7.5-4.8 0-7-4-4.5-8.4l4.3-7.3c1.7-3 4.3-4.7 7.6-4.7s5.5 2.8 3.2 6.5l-.5 1c-3.1 5.3-7.9 5.9-10.6 4.8zm1.2-2c1.5.5 4.2.6 6.1-2.7l.5-1c2.5-4.2-1.7-4.9-4.1-.9l-2.5 4.6zM18 323.5c1.8-3.2 4.5-4.7 6.8-4.7 12.8 0 5.8 19.3-8.7 19.3-.9 0-1.6-.1-2.3-.2l-1.2 2c-2.5 4.2-1.9 6.9.9 6.9 3.2 0 5.6-2.7 7.7-6.4l.4-.6h4.1l-5.1 8.8c3.2-1.4 6-3.9 9.4-7.7l.3-.3c.5.2 1.3.9 1.5 1.4-4.5 5.1-8.6 8-12.8 9.3l-3.1 5.4c-2.9 5-8.9 4.2-8.9.3 0-3 3.4-5.3 8.9-7l1.1-1.8c-1.3.8-2.7 1.3-4.4 1.3-5.8 0-6.2-5.5-3.4-10.4l1.2-2.1c-3.3-1.7-5.1-4.8-5.1-8 0-2.7 1.3-5.5 4.2-7.6l1.3 2.4c-1.7 1.4-2.6 3.2-2.6 5.1 0 2.3 1.3 4.5 3.6 5.8l6.2-11.2zm-5.5 32.4l1.8-3.3c-3.1 1.2-4.1 2.5-4.1 3.4 0 1.2 1.4 1.4 2.3-.1zm3.5-20.5c10.6 0 15.1-13.1 8.7-13.1-1.2 0-2.5.9-3.6 3l-5.8 10.1h.7z"/><path class="st0" d="M39.3 336.1c.4-.9.3-1.6-.2-2.3l-.5-.6c-3.2 4.4-4.7 6.4-6.8 8.7-.5-.4-1.2-.9-1.5-1.4 2.7-3.1 5-6.5 6.9-9.1l-.3-.4c-1.4-1.8-1.3-4.2 1.1-6.2l2.1 2.3c-.9.8-.9 1.6-.2 2.4L42 332c1.3 1.6 2 3 .5 5.5l-4.1 7.1c-1 1.6-.4 2.3.4 2.3 1.8 0 4.6-2.7 7.6-6.1l.3-.3c.5.2 1.3.9 1.5 1.4-3.3 3.9-7.2 7.5-10.6 7.5-3.3 0-4.5-2.8-2.8-5.8l4.5-7.5z"/><path class="st0" d="M50.4 341.3l-.4.8c-1.8 3.3-.4 4.8 2.1 4.8 2.9 0 6.6-2.7 9.5-6.1l.3-.3c.5.2 1.3.9 1.5 1.4-3.3 3.9-7.9 7.5-12.5 7.5-4.8 0-7-4-4.5-8.4l4.3-7.3c1.7-3 4.3-4.7 7.6-4.7s5.5 2.8 3.2 6.5l-.5 1c-3.1 5.3-8 5.9-10.6 4.8zm1.2-2c1.5.5 4.2.6 6.1-2.7l.5-1c2.5-4.2-1.7-4.9-4.1-.9l-2.5 4.6z"/><path class="st0" d="M81 340.4c.5.2 1.3.9 1.5 1.4-3.3 3.9-7.2 7.5-10.6 7.5-2 0-3.3-1.1-3.5-2.7-1.9 1.6-4 2.7-5.6 2.7-3.3 0-4.5-2.8-2.8-5.8l5.7-9.9c1.7-3 4.7-4.7 7-4.7 2.7 0 4.4 2.4 4.3 4.1h2.3l-6.5 11.5c-1 1.6-.4 2.3.4 2.3 1.8 0 4.6-2.7 7.6-6.1l.2-.3zm-17.4 4.2c-1 1.6-.4 2.3.4 2.3 1.7 0 4.1-1.8 6.5-5.7l3.2-5.6c2-3.6-2.4-4.6-4.5-.9l-5.6 9.9z"/><path class="st0" d="M84.9 327.5h3.6l3.9-6.6h4.1l-3.9 6.6h3.3l-1.2 1.9h-3.3l-8.7 15.2c-1 1.6-.4 2.3.4 2.3 1.8 0 4.6-2.7 7.6-6.1l.3-.3c.5.2 1.3.9 1.5 1.4-3.3 3.9-7.2 7.5-10.6 7.5-3.3 0-4.5-2.8-2.8-5.8l8.1-14.1h-3.8l1.5-2z"/><path class="st1" d="M-128.7 413.5v-50.9h6.8v49.9c-2.3.4-4.6.7-6.8 1zm27.2-27.9v-22.9h6.8c0 15.5-.1 31.1-.1 46.6-2.3.2-4.5.5-6.8.8v-9.4c-2.5-7-4.8-14-7.3-21.3V411c-2.3.3-4.5.5-6.8.9 0-16.4 0-32.7.1-49.1h6.8c2.4 7.6 4.9 15.3 7.3 22.8zm13.1 23c0-15.3.1-30.6.1-46h11.8c6.4 0 9.5 2.8 9.5 8.5 0 9.8-.1 19.4-.1 29.1 0 4.3-2.8 6.5-8.1 7.1-4.4.4-8.8.9-13.2 1.3zm6.8-6.1c1.7-.1 3.4-.3 5.1-.4 1.8-.1 2.7-.9 2.7-2.1 0-9.5.1-19.1.1-28.5 0-2.1-1-3.2-3-3.2h-4.7c-.1 11.3-.1 22.7-.2 34.2zm20.6 3.6c0-14.5.1-29 .1-43.5h6.8c0 14.4-.1 28.7-.1 43.1-2.2.1-4.5.3-6.8.4zm19.7-1.2c-2.3.1-4.5.2-6.9.4 0-11.8.1-23.6.1-35.4 0-4.9 2.8-7.3 8.1-7.3h5.1c5.5 0 8.1 2.4 8.1 7.1 0 11.5 0 22.9-.1 34.4-2.3.1-4.5.2-6.9.3v-15.3c-2.6.1-5.3.2-7.8.2.3 5.3.3 10.4.3 15.6zm7.8-20.8v-13.9c0-1.6-1-2.5-3-2.5h-1.8c-2 0-3 .9-3 2.5v14c2.7.1 5.2 0 7.8-.1zm27-1.7v-19.8H.3v40.8c-2.3 0-4.5.1-6.9.1v-8.1c-2.5-6.2-4.8-12.3-7.3-18.5v26.9c-2.3.1-4.5.1-6.9.2 0-13.8.1-27.5.1-41.4h6.8c2.5 6.7 4.9 13.3 7.4 19.8zM38.4 394v2.7c0 4.6-2.7 6.9-8.1 6.9-1.5 0-2.9 0-4.4-.1-5.5-.1-8.1-2.4-8.1-7v-26.9c0-4.6 2.7-7 8.1-7h4.4c5.5 0 8.1 2.4 8.1 7v4.6h-6.9V370c0-1.6-1.1-2.4-3-2.4h-1.4c-1.8 0-2.7.8-2.7 2.4v26.1c0 1.6.9 2.4 2.7 2.5h1.7c1.8 0 2.7-.8 2.7-2.4v-2.3c2.3.1 4.7.1 6.9.1zm5.4 9.8c0-13.7 0-27.4-.1-41.1h6.8c0 13.8.1 27.5.1 41.4-2.3-.1-4.6-.2-6.8-.3zm13-41.2h13.3c5.1 0 7.8 2.5 7.8 7.3v10.5c0 3.8-1.3 6-4.1 7 1.6 6 3.2 11.9 4.8 18-2.1-.1-4.3-.2-6.4-.4-1.5-5.8-3-11.6-4.5-17.3-1.4 0-2.8-.1-4.1-.1v16.9c-2.3-.1-4.5-.2-6.9-.3.1-13.8.1-27.6.1-41.6zm6.9 20.3c1.5 0 3 .1 4.5.1 2 0 3-1 3-3v-9.1c0-2-1.1-3.1-3.1-3.1h-4.5c.1 5 .1 10 .1 15.1zm40.4 14v2.9c0 5-2.7 7.4-8.1 6.9-1.5-.1-2.9-.2-4.4-.3-5.5-.4-8.1-3-8.1-7.9 0-9.4-.1-19-.1-28.4 0-4.8 2.7-7.3 8.1-7.3h4.4c5.5 0 8.1 2.6 8.1 7.6v5c-2.3-.1-4.5-.1-6.8-.2v-4.5c0-1.7-1.1-2.6-3.1-2.6h-1.4c-1.8 0-2.7.9-2.7 2.6 0 9.3.1 18.6.1 27.9 0 1.7.9 2.6 2.7 2.7.5 0 1.2.1 1.7.1 1.8.1 2.7-.6 2.7-2.4v-2.4c2.3 0 4.5.1 6.9.3zm27.2-34.3c0 12.9 0 25.7.1 38.5 0 6-2.7 8.7-8.1 8-1.9-.2-3.9-.4-5.7-.6-5.5-.5-8.1-3.6-8.1-9.4 0-12.2-.1-24.3-.1-36.5h6.8c0 12.4.1 24.9.1 37.3 0 2 1 3.1 3 3.2 1 .1 1.8.2 2.8.2 1.8.2 2.8-.8 2.8-2.8 0-12.6-.1-25.3-.1-38 2 .1 4.2.1 6.5.1zm19.5 13.4v-4.4c0-2-1-3-3-3h-1.1c-1.9 0-2.9 1-2.9 2.9v8.1c0 .9.2 1.5.5 1.8.4.3 1 .8 1.8 1.3 2.1 1.3 4.3 2.5 6.4 3.8 1.4.9 2.5 1.6 3 2 .5.5 1.1 1.1 1.4 1.7.3.6.5 1.9.5 3.6v10.8c0 5.8-2.7 8.1-8.1 7.4-1.4-.2-2.8-.3-4.2-.5-5.5-.8-8.1-4-8.1-9.9v-2.5c2.3.2 4.5.4 6.8.6v2.7c0 1.9 1 3 3 3.2.4 0 .8.1 1.2.1 1.8.2 2.7-.6 2.7-2.6v-8.5c0-1-.2-1.6-.5-1.9-.4-.3-1-.9-1.8-1.4-2.1-1.4-4.3-2.7-6.4-4-1.4-.9-2.5-1.5-3.1-2-.6-.5-1.1-1.2-1.4-2-.3-.8-.4-1.8-.4-3.1v-9.9c0-5.5 2.7-8.3 8.1-8.3h4.3c5.5 0 8.1 2.9 8.1 8.7v4.9c-2.3.6-4.6.5-6.8.4zm-249.4 58.1c2.4 6.9 4.7 13.7 7.1 20.6-6.1 2.1-12.2 4.4-18.2 7 2.3-5.9 4.6-11.9 7.2-17.8-5.8-2.8-11.8-5.5-17.9-7.9 12-4.9 24.2-9.3 36.6-12.9-5.1 3.5-10 7.1-14.8 11"/><path class="st1" d="M-78.3 434c2 7 4 13.9 6 21-5.1 1.5-10.2 3-15.2 4.7-2-6-7-20.6-8.9-26.4 15.5-5 17.3-5.6 33.2-9.4-5.2 3.2-10.3 6.7-15.1 10.1zm15.1-10.2c0 .1 0 .1 0 0 0 .1-.1.1 0 0-.1.1 0 .1 0 0zm192.4 10.3c-4.8-3.9-9.8-7.5-14.9-11.1 12.4 3.6 24.6 7.9 36.6 12.9-6.1 2.5-12.1 5.1-17.9 7.9 2.6 5.9 5 11.8 7.2 17.8-6-2.5-12.1-4.8-18.2-7 2.4-6.8 4.8-13.7 7.2-20.5"/><path class="st1" d="M102.9 455c1.7-6.2 4.2-14.8 6-21-4.9-3.4-9.9-6.9-15-10.1 16 4 17.7 4.4 33.2 9.4-3.3 9.8-5.8 17-8.9 26.4-5.1-1.7-10.2-3.3-15.3-4.7z"/><path class="st1" d="M-68.7 460.2c-1.5-5.5-5.9-21.3-7.4-26.9 5.3-1.8 49.6-13.5 93.3-12.3 43.7-.8 86.8 11.4 89.7 12.3-3.9 13.9-3.6 13.1-7.4 26.9-55.2-15.2-113.3-15.2-168.2 0zm162.4-36.4c.1.1.1.1 0 0 .1.1.1.1 0 0 0 .1 0 .1 0 0z"/><path d="M-58.8 450.5c-.5.1-1.2.3-1.7.4-.9-3.4-1.6-6.8-2.5-10.2-.3-1.4.2-2.3 1.6-2.6.4-.1.9-.2 1.4-.3 1.4-.3 2.4.2 2.7 1.6.8 3.4 1.5 6.9 2.3 10.2-.5.1-1.2.2-1.7.4-.3-1.5-.6-3-1.1-4.5-.6.1-1.4.3-2 .4.3 1.6.7 3.1 1 4.6zm.6-6.4c-.3-1.4-.6-2.8-1-4.1-.1-.4-.4-.6-1-.5-.2 0-.3.1-.5.1-.5.1-.8.4-.6.9.3 1.4.6 2.7 1 4.1.8-.2 1.4-.4 2.1-.5zm9.9-1.2c.1-2.6.1-5 .2-7.6.6-.1 1.3-.2 2-.4.8 4.2 1.5 8.3 2.4 12.4-.5.1-1.2.2-1.7.3-.4-2.7-1-5.5-1.4-8.1-.1 2-.1 4.1-.2 6.1-.4.1-.9.2-1.4.2-.9-1.8-1.7-3.8-2.5-5.6.6 2.7 1.2 5.4 1.8 8-.5.1-1.2.2-1.7.3-.9-4.2-1.7-8.3-2.6-12.4.6-.1 1.3-.3 2-.4 1 2.6 2 4.9 3.1 7.2zm10.5 3.4c-.5.1-1.2.2-1.7.3-.6-3.4-1.2-6.9-1.8-10.3-.2-1.4.3-2.3 1.8-2.5.4-.1.9-.1 1.4-.2 1.5-.2 2.3.3 2.5 1.8.5 3.4 1.1 6.9 1.6 10.4-.5.1-1.2.2-1.7.3-.2-1.5-.5-3-.8-4.6-.6.1-1.4.2-2 .3.2 1.4.5 2.9.7 4.5zm1.1-6.4l-.6-4.2c-.1-.5-.4-.6-.9-.6-.2 0-.3 0-.5.1-.5.1-.8.4-.6.9l.6 4.2c.6-.2 1.2-.3 2-.4zm8.1 3.4c1-.1 1.9-.2 3-.4.1.5.1 1 .2 1.5l-4.8.6c-.1-.2-.1-.4-.2-.5.4-3.6.9-7.2 1.4-10.8-.9.1-1.7.2-2.6.3-.1-.5-.1-1.1-.2-1.5 1.4-.2 2.8-.4 4.1-.5.1.2.3.4.4.6-.4 3.6-.8 7.2-1.3 10.7zm6.9.6c-.5-4.2-1-8.4-1.5-12.5.6-.1 1.2-.1 1.8-.2.4 4.2 1 8.4 1.4 12.5-.5.1-1.1.2-1.7.2zm9.3-7.5c-.2-2-.3-4.1-.5-6.1.6 0 1.2-.1 1.8-.1.3 4.2.6 8.4 1 12.6-.5 0-1.2.1-1.7.1-.1-.9-.1-1.7-.2-2.5-.8-1.8-1.6-3.8-2.5-5.6.2 2.8.5 5.5.8 8.3-.5 0-1.2.1-1.7.2-.4-4.2-.9-8.4-1.2-12.6.6-.1 1.2-.1 1.8-.2.7 2.1 1.6 4 2.4 5.9zm9.1 1.3c0-.5-.1-1.1-.1-1.5.9 0 1.8-.1 2.7-.1.1 2 .2 4.1.3 6.1-1.2.1-2.3.1-3.4.2-1.4.1-2-.5-2.1-2-.2-2.8-.3-5.6-.5-8.4-.1-1.4.5-2.3 1.9-2.3.4 0 .9 0 1.3-.1 1.5-.1 2.4.6 2.5 2 0 .4 0 1 .1 1.4-.6 0-1.2.1-1.8.1 0-.4 0-.8-.1-1.2 0-.6-.3-.9-.9-.9h-.4c-.5 0-.8.3-.8 1 .1 2.6.3 5.1.4 7.7 0 .6.3.9.9.9.4 0 .8 0 1.2-.1-.1-1.1-.1-2-.2-3.1-.3.3-.7.3-1 .3zm11.4 4.2c-1.4 0-2.8.1-4.2.1-.1-4.2-.3-8.5-.4-12.6.6 0 1.2 0 1.8-.1.1 3.8.2 7.4.3 11.1.9 0 1.6 0 2.5-.1-.1.6 0 1.2 0 1.6zm5.9 0h-1.7v-4.6c-.8-2.7-1.5-5.4-2.4-7.9h1.8c.4 1.8 1 3.6 1.4 5.5h.1c.4-1.8.8-3.6 1.2-5.5h1.8c-.8 2.7-1.5 5.4-2.1 8-.1 1.4-.1 2.9-.1 4.5zm13.3.2c-.5 0-1.2 0-1.7-.1l.3-10.5c0-1.4.8-2.1 2.3-2 .4 0 1 0 1.4.1 1.5.1 2.1.9 2 2.3-.2 3.5-.3 7-.5 10.5-.5 0-1.2-.1-1.7-.1.1-1.5.1-3.1.2-4.6-.6 0-1.4-.1-2-.1-.2 1.4-.3 2.9-.3 4.5zm2.2-6.1c.1-1.4.1-2.8.2-4.2 0-.5-.2-.8-.8-.8h-.5c-.5 0-.9.2-.9.8 0 1.4-.1 2.8-.1 4.2.7-.1 1.5 0 2.1 0zm16-5.4c-1.1 4.2-2 8.3-3.1 12.4-.6-.1-1.3-.1-1.9-.1-.2-2.5-.3-4.9-.5-7.4-.5 2.4-1.1 4.8-1.6 7.2-.6 0-1.3-.1-1.9-.1-.3-4.3-.8-8.5-1.2-12.8.6 0 1.2.1 1.8.1.2 3.2.4 6.3.6 9.5.6-3.1 1.3-6.2 1.9-9.3.4 0 1 .1 1.4.1.2 3.2.3 6.3.5 9.5.6-3.1 1.4-6.2 2-9.3.8 0 1.4.2 2 .2zm2.4 12.9c.4-4.2.9-8.4 1.3-12.5 1.5.1 3 .3 4.5.5-.1.5-.1 1-.2 1.5l-2.7-.3c-.1 1.3-.3 2.6-.4 3.9.8.1 1.6.2 2.4.2-.1.5-.1 1-.2 1.5-.8-.1-1.6-.2-2.4-.2-.1 1.4-.3 2.8-.4 4.2.9.1 1.7.2 2.6.3-.1.5-.1 1-.2 1.5-1.4-.3-2.9-.5-4.3-.6zm13-7.7c0-.3.1-.8.1-1.1.1-.5-.1-.8-.6-.9h-.3c-.5-.1-.9.1-.9.6-.1.6-.2 1.4-.3 2 0 .2 0 .4.1.5l.4.4c.5.3 1.1.8 1.6 1.1.3.2.5.4.8.5.1.1.2.3.3.4.1.2.1.4 0 1-.1.9-.2 1.8-.4 2.7-.2 1.4-1 2-2.5 1.8-.3 0-.8-.1-1.1-.1-1.4-.2-2-1.1-1.8-2.6 0-.2.1-.4.1-.6.6.1 1.2.1 1.7.2 0 .2-.1.4-.1.6-.1.5.2.8.6.9h.3c.4.1.8-.1.8-.6.1-.8.2-1.4.3-2.1 0-.2 0-.4-.1-.5l-.4-.4c-.5-.3-1.1-.8-1.6-1.1-.3-.2-.6-.4-.8-.5-.1-.1-.2-.3-.3-.5v-.9c.1-.9.2-1.7.3-2.6.2-1.4 1-2 2.5-1.8.4 0 .8.1 1.2.1 1.5.2 2 1.1 1.8 2.5-.1.4-.1.9-.2 1.2-.3-.1-.9-.1-1.5-.2zm6.6 10.4c-1.4-.2-2-1.1-1.8-2.5.4-2.8.9-5.5 1.3-8.3.2-1.4 1.1-2 2.5-1.8.5.1 1.2.2 1.7.3 1.5.2 2 1.1 1.8 2.5-.5 2.8-1 5.5-1.5 8.3-.2 1.4-1.1 2-2.5 1.7-.3-.1-.9-.2-1.5-.2zm.8-1.5c.3 0 .6.1.9.1.4.1.8-.1.9-.6.4-2.7 1-5.4 1.4-8 .1-.5-.1-.8-.6-.9-.3 0-.5-.1-.9-.1-.5-.1-.9.1-.9.6-.4 2.7-.9 5.4-1.3 8-.3.6 0 .8.5.9zm11.9-1.5c1.1-2.4 2-4.6 3.1-7 .6.1 1.3.3 2 .4-.9 4.1-1.7 8.3-2.7 12.3-.5-.1-1.2-.2-1.7-.3.6-2.7 1.3-5.4 1.9-8-.9 1.8-1.7 3.8-2.6 5.6-.4-.1-.9-.2-1.4-.3 0-2-.1-4.1-.1-6.1-.4 2.7-1 5.5-1.4 8.1-.5-.1-1.2-.2-1.7-.3.8-4.2 1.6-8.3 2.4-12.4.6.1 1.3.2 2 .4.1 2.5.1 5 .2 7.6zm6.7 6.7c1-4.1 1.9-8.3 2.8-12.3 1.5.3 3 .6 4.5 1.1l-.3 1.5c-.9-.2-1.7-.4-2.7-.6-.3 1.3-.5 2.5-.9 3.8.8.2 1.5.3 2.4.5l-.3 1.5c-.8-.2-1.5-.3-2.4-.5-.3 1.4-.6 2.8-1 4.1.9.2 1.7.4 2.6.6l-.3 1.5c-1.5-.5-2.9-.8-4.4-1.2z" fill="#fff"/><path class="st1" d="M-18.4 466.3v-.9c0-.3-.2-.5-.5-.5h-.2c-.3 0-.5.2-.5.5v1.5c0 .2 0 .3.1.3s.2.1.3.2l1.2.6c.2.1.4.2.5.3.1.1.2.2.2.3 0 .1.1.3.1.6v2c0 1.1-.5 1.6-1.5 1.6h-.8c-1 0-1.5-.5-1.5-1.7v-.4h1.3v.5c0 .3.2.5.5.5h.2c.3 0 .5-.2.5-.5v-1.6c0-.2 0-.3-.1-.3-.1-.1-.2-.1-.3-.2l-1.2-.6c-.2-.1-.4-.2-.5-.3-.1-.1-.2-.2-.2-.3 0-.1-.1-.3-.1-.6v-1.9c0-1.1.5-1.6 1.5-1.6h.8c1 0 1.5.5 1.5 1.6v.9h-1.3zm5.6 6.8v-9.3h1.3v9.3h-1.3zm8.2-4.8v-4.5h1.3v9.3h-1.3v-1.8L-6 467v6.1h-1.3v-9.3H-6l1.4 4.5zm9.5 2.6v.6c0 1.1-.5 1.6-1.5 1.6h-.9c-1 0-1.5-.5-1.5-1.6v-6.2c0-1.1.5-1.6 1.5-1.6h.9c1 0 1.5.5 1.5 1.6v1.1H3.6v-1c0-.3-.2-.5-.5-.5h-.4c-.3 0-.5.2-.5.5v6c0 .3.2.5.5.5H3c.3 0 .5-.2.5-.5v-.5h1.4zm4.1 2.2v-9.3h3.1v1.2h-1.8v2.8h1.6v1.2h-1.6v3.1h1.8v1.2H9v-.2zm12.6-7.3l-.3-.9c.3-.1.6-.3.9-.5.2-.2.4-.4.5-.8h.1l.9.4v8.9h-1.3v-7.5l-.8.4zm7.8 5.1v.4c0 .4.2.6.5.6h.2c.3 0 .5-.2.5-.5v-2.3l-.8.5h-.3c-1 0-1.5-.5-1.5-1.7v-2.6c0-1.1.5-1.6 1.5-1.6h.9c1 0 1.5.5 1.5 1.6v6c0 1.1-.5 1.7-1.5 1.7h-.8c-1 0-1.5-.5-1.5-1.7v-.5h1.3zm1.2-2.3v-3.1c0-.3-.2-.5-.6-.5h-.1c-.3 0-.5.2-.5.5v2.5c0 .4.2.6.5.6h.7zm5.6 2.3h1.3v.5c0 .3.2.5.5.5h.1c.3 0 .5-.2.5-.5v-2.1c0-.4-.2-.6-.5-.6h-1.9v-4.9h3.5v1.2h-2.4v2.7h1c1 0 1.5.5 1.5 1.6v2.3c0 1.1-.5 1.6-1.5 1.6h-.8c-1 0-1.5-.5-1.5-1.6v-.5h.2zm9.4 0v.4c0 .4.2.6.5.6h.2c.3 0 .5-.2.5-.5v-2.3l-.8.5h-.3c-1 0-1.5-.5-1.5-1.7v-2.6c0-1.1.5-1.6 1.5-1.6h.9c1 0 1.5.5 1.5 1.6v6c0 1.1-.5 1.7-1.5 1.7h-.8c-1 0-1.5-.5-1.5-1.7v-.5h1.3zm1.3-2.3v-3.1c0-.3-.2-.5-.6-.5h-.1c-.3 0-.5.2-.5.5v2.5c0 .4.2.6.5.6h.7z"/></svg>