<svg version="1.1" id="Layer_1" xmlns="http://www.w3.org/2000/svg" x="0" y="0" viewBox="-145 302 320 190" xml:space="preserve"><style>.st0{fill:#333}</style><g id="XMLID_85_"><g id="XMLID_86_"><g id="XMLID_195_"><text id="XMLID_194_" transform="translate(-342.258 1026.508)" class="st0" font-family="BebasNeueBold" font-size="9.377">S</text></g><g id="XMLID_190_"><text id="XMLID_189_" transform="translate(-336.745 1026.508)" class="st0" font-family="BebasNeueBold" font-size="9.377">A</text></g><g id="XMLID_134_"><text id="XMLID_133_" transform="translate(-330.91 1026.508)" class="st0" font-family="BebasNeueBold" font-size="9.377">L</text></g><text transform="translate(-326.07 1026.508)" class="st0" font-family="BebasNeueBold" font-size="9.377" id="XMLID_129_">T</text><g id="XMLID_124_"><text id="XMLID_123_" transform="translate(-317.527 1026.508)" class="st0" font-family="BebasNeueBold" font-size="9.377">L</text></g><g id="XMLID_119_"><text transform="translate(-312.186 1026.508)" class="st0" font-family="BebasNeueBold" font-size="9.377" letter-spacing="1">A</text><text transform="translate(-306.386 1026.508)" class="st0" font-family="BebasNeueBold" font-size="9.377">K</text></g><g id="XMLID_114_"><text id="XMLID_113_" transform="translate(-300.447 1026.508)" class="st0" font-family="BebasNeueBold" font-size="9.377">E</text></g><text transform="translate(-295.054 1026.508)" class="st0" font-family="BebasNeueBold" font-size="9.377" id="XMLID_109_">,</text><g id="XMLID_104_"><text id="XMLID_103_" transform="translate(-288.106 1026.508)" class="st0" font-family="BebasNeueBold" font-size="9.377">U</text></g><g id="XMLID_99_"><text id="XMLID_98_" transform="translate(-282.318 1026.508)" class="st0" font-family="BebasNeueBold" font-size="9.377">T</text></g><g id="XMLID_94_"><text id="XMLID_93_" transform="translate(-277.238 1026.508)" class="st0" font-family="BebasNeueBold" font-size="9.377">A</text></g><g id="XMLID_89_"><text id="XMLID_88_" transform="translate(-271.401 1026.508)" class="st0" font-family="BebasNeueBold" font-size="9.377">H</text></g></g></g><g id="XMLID_19_"><g id="XMLID_32_"><text id="XMLID_31_" transform="translate(-360.73 957.295)" class="st0" font-family="GearedSlab-Bold" font-size="10.94">E</text></g><g id="XMLID_27_"><text id="XMLID_26_" transform="translate(-355.468 957.295)" class="st0" font-family="GearedSlab-Bold" font-size="10.94">S</text></g><g id="XMLID_22_"><text transform="translate(-350.108 957.295)" class="st0" font-family="GearedSlab-Bold" font-size="10.94">TD</text><text transform="translate(-338.908 957.295)" class="st0" font-family="GearedSlab-Bold" font-size="10.94">.</text></g></g><g id="XMLID_3_"><g id="XMLID_16_"><text id="XMLID_15_" transform="translate(-268.002 957.295)" class="st0" font-family="GearedSlab-Bold" font-size="10.94">1</text></g><g id="XMLID_11_"><text id="XMLID_10_" transform="translate(-263.692 957.295)" class="st0" font-family="GearedSlab-Bold" font-size="10.94">9</text></g><g id="XMLID_6_"><text transform="translate(-258.31 957.295)" class="st0" font-family="GearedSlab-Bold" font-size="10.94">5</text><text transform="translate(-252.81 957.295)" class="st0" font-family="GearedSlab-Bold" font-size="10.94">9</text></g></g><path class="st0" d="M14.8 420.7c3.5 4.7 8.9 8.1 15.3 8.9-8.5 7.2-21.4 5.1-27.1-4.5 4.3-.2 8.5-1.8 11.8-4.4zm-.1-46.3l2.6-1.3c4.3 4.3 5.8 10.8 6.1 17-.9.3-1.8.6-2.7 1-1.2-11-6-16.7-6-16.7zm-13 48.1c4.2.1 8.4-1.4 11.7-4-4-7-4.3-16.7.9-22.8-1.9-1.7-4-3-6.3-4.1 2.3-7.3 5.2-21.1-1.1-29.6l-2.6 1s4.9 7.8 3.2 21.3c-.1 1.5-2.1 10.3-2.4 11.8.2-1-.2-3.4-.2-5.8-26.1-9.7-28.6 31.8-3.2 32.2zM0 393.7c2.7 3.1 7.5 4.5 10.9 4.4-5.7 3.8-9.6.2-10.9-4.4z"/><path class="st0" d="M32.5 427.2c23.1.6 31.6-36 .1-35.8-1.4-8.4-5.3-23.5-15.8-28.9l-2.2 2.3s8.7 5.3 13.7 19.6c.7 1.5 3 11.3 3.4 12.9-.3-1.1-2.1-3.3-3.2-5.7-25.9 2.8-17.4 35 4 35.6zm6.1-30.8c-3.5 6.3-9.1 5.2-13 1 4.6 1.9 10.1.5 13-1zm-146.5-7.7c.4.3.5.9.5 1.8v4.7h-2.2c-1 0-1.7-.5-2.2-1.4-.2-.3-.4-.5-.6-.6-.2-.1-.4-.1-.6-.1h-1c-.2 0-.4.1-.5.2-.2.2-.2.4-.2.6v26.4c0 .3.1.6.2.7.1.1.2.3.4.4.3.2.5.5.8.9.3.4.4.8.4 1.4v2.2h-9.2v-2.2c0-.6.1-1 .4-1.4.3-.4.5-.7.8-.9.2-.1.3-.2.4-.4.1-.1.1-.4.1-.7v-26.5c0-.3-.1-.5-.3-.6-.2-.1-.3-.2-.5-.2h-.9c-.1 0-.3.1-.6.2s-.5.3-.6.6c-.2.5-.4.8-.6 1.1-.2.2-.7.4-1.5.4h-2.3v-4.8c0-.8.1-1.3.4-1.7.3-.4.8-.6 1.7-.6h16c.8 0 1.4.2 1.7.5zm11.8 37.5c-1.2 0-2.4-.2-3.5-.5s-2-.8-2.9-1.4c-.8-.6-1.5-1.4-2-2.4s-.7-2.1-.7-3.3v-23.3c0-1.3.2-2.4.7-3.3.5-1 1.1-1.7 2-2.4.8-.6 1.8-1.1 2.9-1.4 1.1-.3 2.3-.5 3.5-.5 1.2 0 2.4.2 3.5.5s2.1.8 2.9 1.4c.8.6 1.5 1.4 2 2.4s.7 2.1.7 3.3v23.3c0 1.3-.2 2.4-.7 3.3-.5 1-1.1 1.8-2 2.4-.8.6-1.8 1.1-2.9 1.4-1 .3-2.2.5-3.5.5zm3.3-30.3c0-1.3-.3-2.2-.9-2.6-.6-.5-1.4-.7-2.3-.7-.9 0-1.7.2-2.3.7-.6.5-.9 1.3-.9 2.6V418c0 1.3.3 2.2.9 2.7.6.5 1.4.7 2.3.7.9 0 1.7-.3 2.3-.8.6-.5.9-1.4.9-2.8v-21.9zm39.2-4c-.2.4-.4.6-.6.8-.3.2-.6.4-.9.5v27.2c0 .3.1.6.2.7.1.1.2.3.4.4.3.2.5.5.8.9.3.4.4.8.4 1.4v2.2h-9.3v-2.2c0-.6.1-1 .4-1.4.3-.4.5-.7.8-.9.2-.1.3-.2.4-.4.1-.1.1-.4.1-.7v-19s-.1 0-.1.2c-1 2.2-2 4.3-2.8 6.1-.4.8-.7 1.5-1.1 2.3-.4.8-.7 1.4-1 2.1-.3.6-.5 1.1-.7 1.6-.2.4-.3.7-.4.8-.1.2-.4.4-.8.5-.4.1-.9.2-1.4.2-.5 0-.9 0-1.4-.2-.4-.1-.7-.3-.8-.5-.1-.1-.2-.4-.4-.8s-.4-.9-.7-1.5-.6-1.3-1-2-.7-1.5-1-2.3c-.8-1.8-1.8-3.8-2.8-5.9 0-.1-.1-.1-.1-.1s-.1.1-.1.3v18.3c0 .3.1.6.2.7.1.1.2.3.4.4.3.2.5.5.8.9.3.4.4.8.4 1.4v2.2H-85v-2.2c0-.6.1-1 .4-1.4.3-.4.5-.7.8-.9.1-.1.2-.2.3-.4.1-.1.1-.3.2-.6v-27.3c-.3-.1-.6-.2-.9-.5-.2-.2-.4-.4-.6-.8-.2-.4-.3-.8-.3-1.4v-2.3h6.8c.5 0 .8.3 1.1.8l7.9 17.5 7.8-17.5c.1-.3.4-.5.8-.6.4-.1.7-.2 1-.2h6.4v2.3c0 .4-.1.9-.3 1.3zm8.5-3.4v5.1c0 .6 0 1-.1 1.4-.1.4-.2.7-.4 1.1-.2.3-.4.7-.8 1-.3.4-.7.8-1.2 1.3-.3.3-.5.4-.6.3-.1 0-.3-.2-.5-.3-.2-.2-.3-.4-.3-.5 0-.1.2-.3.5-.7.5-.5.9-1 1.1-1.5.2-.5.3-.9.2-1.3-.1-.4-.2-.6-.5-.9-.3-.2-.6-.3-1-.3-.8 0-1.3-.1-1.6-.2-.3-.1-.5-.3-.5-.6v-4c0-.3.3-.5.8-.6.5-.1 1.1-.2 1.9-.2.8 0 1.5.1 2.1.2.5.3.9.5.9.7zm9 11c0 .7.3 1.3.9 1.8s1.3 1.1 2.2 1.7c.9.6 1.8 1.1 2.9 1.7 1 .6 2 1.3 2.9 2.1.9.8 1.6 1.7 2.2 2.6.6 1 .9 2.2.9 3.5v5.8c0 1.3-.3 2.4-.8 3.3-.5 1-1.2 1.7-2 2.4-.8.6-1.8 1.1-2.9 1.4-1.1.3-2.3.5-3.5.5-1.2 0-2.4-.2-3.5-.5s-2.1-.8-2.9-1.4c-.8-.6-1.5-1.4-2-2.4s-.7-2.1-.7-3.3v-4.8h3.1c.9 0 1.6.3 2 .8.5.6.7 1.2.7 2v2.5c0 .5.3 1 1 1.4.7.4 1.4.6 2.3.6.4 0 .9-.1 1.3-.2s.8-.3 1.1-.5c.3-.2.5-.5.7-.7.2-.3.3-.5.3-.7v-5.4c0-1.1-.3-2-.9-2.7-.6-.7-1.3-1.4-2.2-1.9-.9-.6-1.8-1.1-2.9-1.6-1-.5-2-1.1-2.9-1.8-.9-.7-1.6-1.6-2.2-2.6-.6-1-.9-2.3-.9-3.9l.1-3.7c0-1.3.2-2.5.7-3.4.4-1 1-1.7 1.8-2.4.8-.6 1.7-1.1 2.7-1.4 1-.3 2.2-.4 3.4-.4 1.2 0 2.4.2 3.4.5 1.1.3 2 .8 2.8 1.4.8.6 1.4 1.4 1.8 2.4.4 1 .7 2.1.7 3.3v4.7h-3c-.8 0-1.5-.3-2.1-1-.6-.7-.9-1.4-.9-2.2v-1.6c0-.7-.3-1.2-.9-1.6-.6-.4-1.2-.6-1.9-.6s-1.3.2-1.8.6c-.5.4-.8.9-.8 1.4v4.3zm113.6-11.2c.3.3.5.6.5 1.1v5.5h-2c-.7 0-1.2-.2-1.6-.5-.4-.3-.7-.7-.8-1-.1-.2-.2-.3-.4-.5-.2-.1-.4-.2-.8-.2h-3.5c-.2 0-.4.1-.6.2-.1.2-.2.3-.2.5v9.4c0 .3.1.5.2.6.1.1.3.2.6.2h5.4c.3 0 .5.1.6.4.1.2.2.5.2.8v3.1c0 .2-.1.4-.2.5-.1.2-.3.2-.5.2h-5.5c-.2 0-.3.1-.5.2s-.2.3-.2.5V420c0 .3 0 .5.1.7s.2.3.4.4c.3.2.5.5.8.9.3.4.4.8.4 1.4v2.2h-9.3v-2.2c0-.6.1-1 .4-1.4.3-.4.5-.7.8-.9l.4-.4c.1-.1.2-.4.2-.7v-26.5c0-.5-.2-.8-.6-1.1-.3-.2-.6-.4-.8-.8s-.3-.9-.3-1.7v-2h16.2s.3.1.6.4zm22.1 33c.3.2.5.4.8.8.3.4.4.8.4 1.4v2h-9.3v-1.8c0-.6.1-1 .2-1.3.1-.3.3-.5.4-.7.2-.2.3-.4.4-.6.1-.2.2-.4.2-.7-.2-.9-.3-1.7-.4-2.3-.1-.6-.1-1.1-.2-1.4-.1-.4-.2-.6-.3-.8-.1-.2-.3-.2-.5-.2h-4.6c-.3 0-.5 0-.7.1-.1.1-.2.3-.3.6 0 .2-.1.5-.1.9s-.1.9-.1 1.4c-.1.5-.1 1.1-.2 1.8 0 .4.1.6.2.8.1.2.2.4.4.6.1.2.2.4.4.7s.2.7.2 1.2v1.8h-9.1v-2c0-.5.1-.9.3-1.2.2-.3.4-.5.6-.7l.6-.6c.2-.2.4-.5.5-.8l2.8-13.3c.3-1.6.7-3.3 1-4.8s.7-3 .9-4.3c.3-1.3.5-2.3.7-3.1l.3-1.2v-.3c0-.3-.1-.5-.2-.7-.2-.2-.3-.4-.5-.6-.2-.2-.4-.5-.5-.8-.2-.3-.2-.8-.2-1.5v-1.8H88c1.1 0 2 0 2.7.2.7.1 1.2.4 1.5.7.3.3.6.8.7 1.4 0 .1.1.7.3 1.6.2.9.4 2.1.7 3.5.3 1.4.6 3 1 4.8.4 1.8.7 3.6 1.1 5.5.9 4.3 1.9 9.2 3 14.7.1.3.2.5.3.6 0 .1.1.2.3.4zM90.9 411c.4 0 .6-.2.6-.6l-1.2-6.9c-.2-.9-.3-1.7-.5-2.6-.1-.8-.3-1.6-.4-2.3-.1-.7-.2-1.2-.3-1.6-.1-.4-.1-.6-.1-.7h-.1s0 .4-.2 1c-.1.7-.2 1.5-.4 2.5s-.4 2.1-.6 3.3c-.2 1.2-.4 2.3-.6 3.3-.2 1-.3 1.9-.5 2.7-.1.7-.2 1.2-.2 1.3 0 .2 0 .4.1.5.1.1.3.1.7.1h3.7zm31.6 9.7c.3.2.5.4.7.7.2.3.3.8.3 1.3v2.7h-4.9c-.9 0-1.5-.3-2-.8-.4-.5-.7-1.2-.7-1.9v-11.2c0-1-.2-1.7-.6-2.2s-1.1-.7-2.1-.7h-2.1c-.4 0-.7.2-.7.7V420c0 .3 0 .6.1.7.1.1.2.3.4.4.3.2.5.5.8.9.3.4.4.8.4 1.4v2.2h-9.3v-2.2c0-.6.1-1 .4-1.4.3-.4.5-.7.8-.9.1-.1.3-.2.4-.4.1-.1.2-.4.2-.7v-27.3c0-.2-.1-.3-.3-.4-.3-.2-.6-.4-.9-.8-.3-.4-.5-.9-.5-1.6v-2.2h10.6c1.2 0 2.4.2 3.4.6 1 .4 1.9 1 2.6 1.7.7.7 1.3 1.6 1.7 2.6.4 1 .6 2.2.6 3.4v4.6c0 1.1-.2 2.1-.5 2.9-.3.9-.8 1.6-1.5 2.2-.4.3-.4.7 0 1 .8.6 1.3 1.4 1.5 2.4s.4 2.1.4 3.4v6.9c0 .3.1.5.2.7.3.4.4.5.6.6zm-6.4-24.8c0-1-.3-1.8-.9-2.4-.6-.5-1.3-.8-2.1-.8h-2c-.4 0-.6.2-.6.7v9.9c0 .3.1.5.2.6.1.1.2.2.4.2h2.6c1 0 1.7-.3 2-.8s.5-1.3.5-2.3v-5.1zm40.7-4.3c-.2.4-.4.6-.6.8-.3.2-.6.4-.9.5V420c0 .3 0 .6.2.7.1.1.2.3.4.4.3.2.5.5.8.9.3.4.4.8.4 1.4v2.2h-9.3v-2.2c0-.6.1-1 .4-1.4.3-.4.5-.7.8-.9.2-.1.3-.2.4-.4.1-.1.1-.4.1-.7v-19s-.1 0-.1.2c-1 2.2-2 4.3-2.8 6.1-.4.8-.7 1.5-1.1 2.3-.4.8-.7 1.4-1 2.1-.3.6-.5 1.1-.7 1.6-.2.4-.3.7-.4.8-.1.2-.4.4-.8.5-.4.1-.9.2-1.4.2-.5 0-.9 0-1.4-.2-.4-.1-.7-.3-.8-.5-.1-.1-.2-.4-.4-.8s-.4-.9-.7-1.5c-.3-.6-.6-1.3-1-2s-.7-1.5-1-2.3c-.8-1.8-1.8-3.8-2.8-5.9 0-.1-.1-.1-.1-.1s-.1.1-.1.3V420c0 .3 0 .6.2.7s.2.3.4.4c.3.2.5.5.8.9.3.4.4.8.4 1.4v2.2h-9.3v-2.2c0-.6.1-1 .4-1.4.3-.4.5-.7.8-.9.1-.1.2-.2.3-.4.1-.1.1-.3.2-.6v-27.3c-.3-.1-.6-.2-.9-.5-.2-.2-.4-.4-.6-.8-.2-.4-.3-.8-.3-1.4v-2.3h6.8c.5 0 .8.3 1.1.8l7.9 17.5 7.8-17.5c.1-.3.4-.5.8-.6.4-.1.7-.2 1-.2h6.4v2.3c0 .6-.1 1.1-.3 1.5zm-243.9-50.7c1.7 6.3 3.4 12.5 5.1 18.8.1.3.2.5.2.8.3 0 .6.1.9.1 3.1.3 6.2.7 9.2 1.1-7.4 1.8-14.8 3.9-22.1 6.2 2-4.5 4.1-9.1 6.4-13.6.2-.3.3-.7.5-1l-.9-.6c-4.3-2.6-8.7-5.2-13.2-7.7 4.7-1.4 9.3-2.8 13.9-4.1m1-1.5c-6.1 1.6-12.1 3.4-18.1 5.4 5.3 2.9 10.6 5.9 15.7 9-2.6 5.4-5.1 10.7-7.5 16.1 10.3-3.3 20.7-6.2 31.2-8.6-5.2-.8-10.5-1.5-15.8-2-1.9-6.6-3.7-13.3-5.5-19.9zm212.8 5.6c-4.5 2.5-8.9 5.1-13.2 7.7l-.9.6c.2.3.3.7.5 1 2.2 4.5 4.4 9 6.4 13.6-7.3-2.3-14.7-4.4-22.1-6.2 3-.4 6.1-.8 9.2-1.1.3 0 .6-.1.9-.1.1-.3.2-.5.2-.8 1.7-6.3 3.4-12.5 5.1-18.8 4.7 1.3 9.3 2.7 13.9 4.1m3.3-.2c-6-2-12.1-3.8-18.1-5.4-1.8 6.7-3.6 13.3-5.4 20-5.3.6-10.6 1.2-15.8 2 10.5 2.4 20.9 5.2 31.2 8.6-2.3-5.4-4.8-10.8-7.5-16.1 5-3.2 10.2-6.2 15.6-9.1z"/><path class="st0" d="M109.8 334.1c-1.9 7.3-3.8 14.5-5.7 21.8-59.8-15.6-122.6-15.6-182.4 0-1.9-7.3-3.8-14.5-5.7-21.8 63.5-16.5 130.2-16.5 193.8 0m1.6-.8c-64.6-17.1-132.5-17.1-197.1 0 1.2 4.4 4.1 15.6 6.4 24.2 9.4-2.8 50.8-12.6 92.1-11.9 41.4-.7 82.7 9.1 92.1 11.9 1.2-4.3 4.2-15.4 6.5-24.2z"/><path class="st0" d="M-64 345.2l-.3-.3c-2.5 2-7 1.6-7.9-2.3-1.4-6 8.3-8.1 9.5-2.1.2 1 .1 1.9-.2 2.7l1.3 1.3c0 .1 0 .2.1.3-.9.1-1.7.2-2.5.4zm-1.2-4.2c-.7-3.1-5.3-2.1-4.6 1 .7 3.1 5.3 2.1 4.6-1zm12.3-1c-.3-1.9-.7-3.8-1-5.7.8-.1 1.5-.3 2.3-.4.3 1.9.7 3.9 1 5.8.3 1.9-1.2 3.3-3.1 3.7-1.9.3-3.9-.4-4.2-2.3-.4-1.9-.7-3.8-1.1-5.8.8-.1 1.5-.3 2.3-.4.4 1.9.7 3.8 1.1 5.7.1.7.9.9 1.6.8.6-.2 1.2-.7 1.1-1.4zm12.5-.2c-1.2.2-2.4.4-3.7.6-.1.4-.2.8-.4 1.2-.8.1-1.5.2-2.3.4 0-.1 0-.2-.1-.3.9-3.1 1.9-6.1 2.9-9.2.3-.1.7-.1 1-.2 1.8 2.6 3.7 5.3 5.4 7.9v.3c-.8.1-1.5.2-2.3.3 0-.3-.2-.6-.5-1zm-2.5-3.9c-.2.8-.5 1.6-.7 2.4l2.1-.3c-.4-.7-.9-1.4-1.4-2.1zm11.6 1.8c1.1-.1 2.3-.3 3.4-.4.1.8.1 1.3.2 2-1.9.2-3.9.4-5.7.7-.4-2.9-.7-5.8-1.1-8.7l2.4-.3c.5 4.5.3 3 .8 6.7zm11.8-1.2c.1.7.1 1.3.2 2-1.6.1-3.1.3-4.7.4-.1-.7-.1-1.3-.2-2 .4 0 .8-.1 1.2-.1-.2-1.6-.3-3.2-.5-4.8-.4 0-.7.1-1.1.1-.1-.7-.1-1.3-.2-2 1.5-.2 3.1-.3 4.6-.4.1.7.1 1.3.2 2-.4 0-.7.1-1.1.1.1 1.6.3 3.2.4 4.9.4-.1.8-.1 1.2-.2zm3.2-5.1c-.1-.7-.1-1.3-.2-2 2.4-.2 4.7-.3 7.1-.5 0 .7.1 1.3.1 2-.8 0-1.5.1-2.3.1.1 2.3.3 4.5.4 6.8-.8.1-1.6.1-2.4.2-.2-2.3-.3-4.5-.5-6.8-.6.1-1.4.2-2.2.2zm16.4 5.9c-.8 0-1.6.1-2.4.1-.1-1.2-.1-2.5-.2-3.7-1.1-1.5-2.2-3.1-3.4-4.6v-.3c.9 0 1.8-.1 2.6-.1.6 1 1.2 1.9 1.8 2.9h.1c.5-1 1.1-2 1.6-3 .9 0 1.8-.1 2.6-.1v.3c-1 1.6-2 3.2-3 4.9.2 1.1.3 2.4.3 3.6zm13.4-.2v-8.8h4.2c4.6.1 4.4 6.6-.1 6.6h-1.7v2.3c-.8-.1-1.6-.1-2.4-.1zm4.2-6.8H16v2.5h1.7c1.3.1 1.4-2.4 0-2.5zm15.4 7v.3c-.9 0-1.8-.1-2.7-.1l-1.5-2.7c-.4 0-.8 0-1.2-.1 0 .9-.1 1.7-.1 2.6-.8 0-1.6-.1-2.4-.1.1-2.9.2-5.9.3-8.8 1.4 0 2.8.1 4.2.2 3.8.2 4.2 4.4 1.7 5.8.6 1 1.1 2 1.7 2.9zm-3.5-6.6c-.6 0-1.2-.1-1.7-.1 0 .7-.1 1.5-.1 2.2.6 0 1.1 0 1.7.1 1.3 0 1.5-2.2.1-2.2zm7.3 2.8c.4-6.1 10.2-5.4 9.6.7-.6 6.1-10 5.3-9.6-.7zm7.2.5c.3-3.2-4.5-3.5-4.7-.4-.3 3.2 4.4 3.6 4.7.4zm10 5.4c-1.2-.1-2.3-.3-3.5-.4.3-2.9.6-5.8.9-8.8 1.2.1 2.4.3 3.6.4 6.2.8 5 9.5-1 8.8zm-.9-2.2c.4 0 .8.1 1.1.1 3 .3 3.5-4.3.5-4.7-.4 0-.8-.1-1.1-.1-.2 1.6-.4 3.2-.5 4.7zm15.2 1.1c.3-1.9.6-3.9.9-5.8.8.1 1.6.2 2.3.4-.3 1.9-.6 3.9-.9 5.8-.3 1.9-2.2 2.7-4.1 2.5-1.9-.3-3.5-1.6-3.3-3.6.3-1.9.5-3.9.8-5.8.8.1 1.6.2 2.3.3-.3 1.9-.6 3.9-.8 5.8-.1.7.6 1.2 1.3 1.3.6 0 1.3-.2 1.5-.9zm12.4-3.9c2 .4 3.9 1.7 3.8 4.1-.8-.2-1.5-.3-2.3-.5-.2-.9-.8-1.5-1.8-1.7-1.4-.3-2.5.6-2.8 2-.2 1.3.5 2.5 1.9 2.8 1 .2 1.9-.1 2.3-1 .8.2 1.5.3 2.3.4-.8 2.4-3.1 2.9-5 2.6-2.3-.4-4.5-2.3-4-5.3.5-2.8 3.2-3.9 5.6-3.4zm14.4 5c-1.4-.3-2.1-.5-3.4-.8l-.3 1.2c1.1.2 2.1.5 3.2.7-.1.7-.3 1.3-.4 2-1-.2-2.1-.5-3.1-.7l-.3 1.5c1.4.3 2.1.5 3.5.8-.1.6-.3 1.3-.4 2-2.1-.5-3.7-.8-5.8-1.3.6-2.9 1.2-5.8 1.8-8.6 2.2.5 3.7.8 5.9 1.3-.4.6-.6 1.3-.7 1.9zm-107.2 32c0-.7-9.5-2.9-21.2 2.1s-21.2-1.4-21.2-2.1c0 .7 9.5 2.9 21.2-2.1 11.7-4.9 21.2 1.4 21.2 2.1zm91 0c0 .7-9.5 2.9-21.2-2.1s-21.2 1.4-21.2 2.1c0-.7 9.5-2.9 21.2 2.1s21.2-1.4 21.2-2.1zm-141 75.9c1.4 0 2.9.7 3.2 2.5h-1.8c-.3-.6-.8-.8-1.5-.8-1.1 0-1.8.9-1.8 2 0 1.2.7 1.9 1.8 1.9.7 0 1.2-.2 1.5-.9H-62v-1.6h3.3c0 .7 0 1.4-.2 2.1-.5 1.5-1.8 2-3.1 2-1.8 0-3.6-1.2-3.6-3.6 0-2.4 1.8-3.6 3.6-3.6zm11.7 4.8v-4.7h1.7v4.7c0 1.6-1.3 2.4-2.8 2.4-1.4 0-2.8-.9-2.8-2.4v-4.7h1.7v4.7c0 .6.6.9 1.1.9s1.1-.4 1.1-.9zm10.4 1.5h-2.8l-.4.9h-1.8v-.3l3.2-6.9h.8l3.2 6.9v.3h-1.8l-.4-.9zm-1.4-3.4l-.8 1.9h1.6l-.8-1.9zm13.6 4v.3h-2l-1.2-2.1h-.9v2.1h-1.8v-7h3.1c2.8 0 3.3 3.3 1.5 4.6l1.3 2.1zm-2.9-5.2h-1.3v1.8h1.3c1 0 1.1-1.8 0-1.8zm11.6 4.6h-2.8l-.4.9H-24v-.3l3.2-6.9h.8l3.2 6.9v.3h-1.8l-.4-.9zm-1.4-3.4l-.8 1.9h1.6l-.8-1.9zm9.5.8v3.5h-1.9v-7.1h.7l3.6 3.5v-3.5h1.8v7.1h-.6l-3.6-3.5zm8.3-2v-1.6h5.2v1.6H.9v5.4H-.9V449h-1.7zm13.8 0H8.6v1H11v1.6H8.6v1.2h2.7v1.6H6.8v-7h4.4v1.6zm9.1 0h-2.6v1h2.4v1.6h-2.4v1.2h2.7v1.6h-4.5v-7h4.4v1.6zm7.6 5.4h-2.7v-7h2.7c4.6 0 4.6 7 0 7zm-.9-1.6h.9c2.2 0 2.2-3.8 0-3.8H27v3.8zm19.6 1.6l-.2-.3c-2.1 1.1-5.4.1-5.4-3.2 0-4.9 7.2-4.9 7.2 0 0 .8-.2 1.5-.6 2.1l.7 1.2v.2h-1.7zm-.1-3.5c0-2.5-3.5-2.5-3.5 0-.1 2.6 3.5 2.6 3.5 0zm10.2 1.2v-4.7h1.7v4.7c0 1.6-1.3 2.4-2.8 2.4-1.4 0-2.8-.9-2.8-2.4v-4.7h1.7v4.7c0 .6.6.9 1.1.9.5-.1 1.1-.4 1.1-.9zm10.4 1.5h-2.8l-.4.9h-1.8v-.3l3.2-6.9h.8l3.2 6.9v.3h-1.8l-.4-.9zm-1.4-3.4l-.8 1.9h1.6l-.8-1.9zm9.4 2.6h2.6v1.6h-4.4v-7h1.8v5.4zm10.1.1v1.6h-3.6v-1.6h.9V449h-.8v-1.6h3.4v1.6h-.8v3.9h.9zM89 449v-1.6h5.2v1.6h-1.7v5.4h-1.8V449H89zm13.1 5.4h-1.8v-3l-2.4-3.8v-.3h1.9l1.3 2.3h.1l1.3-2.3h2v.3l-2.4 3.8v3zM-16 464.5h-2.6v1h2.4v1.6h-2.4v1.2h2.7v1.6h-4.5v-7h4.4v1.6zm8.3 3.4c0-.5-.6-.6-1.3-.6-1.5-.1-2.5-.6-2.6-2.2-.1-3 5.4-3 5.4 0h-1.7c0-.9-1.9-.9-2 0 0 .5.5.6 1.1.7 1.4.2 2.8.3 2.8 2.1 0 3-5.7 3-5.7-.1h1.7c.1.9 2.3.9 2.3.1zm5.6-3.4v-1.6h5.2v1.6H1.4v5.4H-.4v-5.4h-1.7zm12 5.5H7.3v-7H10c4.5-.1 4.5 6.9-.1 7zm-.8-1.7h.9c2.2 0 2.2-3.8 0-3.8h-.9v3.8zm8.2.8c0-.6.4-.9 1-.9.5 0 1 .4 1 .9 0 .6-.4.9-1 .9s-1-.3-1-.9zm11.5-4.7v-1.5h2.7v5.6h1.1v1.5h-3.9v-1.5h1v-4.1h-.9zm8.3 5.6l1.5-2.5c-1.5.1-2.5-.9-2.5-2.3 0-1.7 1.1-2.4 2.7-2.4 1.5 0 2.7.8 2.7 2.4 0 .5-.1 1-.4 1.4L39 470h-1.9zm.9-4.8c0 .5.4.9.9.9.6 0 .9-.3.9-.9 0-.5-.3-.9-.9-.9-.6.1-.9.4-.9.9zm9.2.1c1.6-.1 3.2.2 3.2 2.3 0 1.2-.8 2.5-2.5 2.5-1.3 0-2.3-.9-2.4-2.3h1.6c0 .5.3.7.8.7s.8-.3.8-.9c0-.4-.2-.6-.6-.8-.7-.2-1.9-.1-2.4-.1v-3.9h4.4v1.5h-2.9v1zm8.1 4.7l1.5-2.5c-1.5.1-2.5-.9-2.5-2.3 0-1.7 1.1-2.4 2.7-2.4 1.5 0 2.7.8 2.7 2.4 0 .5-.1 1-.4 1.4l-2.1 3.4h-1.9zm.8-4.8c0 .5.4.9.9.9.6 0 .9-.3.9-.9 0-.5-.3-.9-.9-.9-.5.1-.9.4-.9.9z"/></svg>