<svg version="1.1" id="Layer_1" xmlns="http://www.w3.org/2000/svg" x="0" y="0" viewBox="-145 302 320 190" xml:space="preserve"><style>.st0{fill:#333}</style><g id="XMLID_85_"><g id="XMLID_86_"><g id="XMLID_195_"><text id="XMLID_194_" transform="translate(-342.258 1026.508)" class="st0" font-family="BebasNeueBold" font-size="9.377">S</text></g><g id="XMLID_190_"><text id="XMLID_189_" transform="translate(-336.745 1026.508)" class="st0" font-family="BebasNeueBold" font-size="9.377">A</text></g><g id="XMLID_134_"><text id="XMLID_133_" transform="translate(-330.91 1026.508)" class="st0" font-family="BebasNeueBold" font-size="9.377">L</text></g><text transform="translate(-326.07 1026.508)" class="st0" font-family="BebasNeueBold" font-size="9.377" id="XMLID_129_">T</text><g id="XMLID_124_"><text id="XMLID_123_" transform="translate(-317.527 1026.508)" class="st0" font-family="BebasNeueBold" font-size="9.377">L</text></g><g id="XMLID_119_"><text transform="translate(-312.186 1026.508)" class="st0" font-family="BebasNeueBold" font-size="9.377" letter-spacing="1">A</text><text transform="translate(-306.386 1026.508)" class="st0" font-family="BebasNeueBold" font-size="9.377">K</text></g><g id="XMLID_114_"><text id="XMLID_113_" transform="translate(-300.447 1026.508)" class="st0" font-family="BebasNeueBold" font-size="9.377">E</text></g><text transform="translate(-295.054 1026.508)" class="st0" font-family="BebasNeueBold" font-size="9.377" id="XMLID_109_">,</text><g id="XMLID_104_"><text id="XMLID_103_" transform="translate(-288.106 1026.508)" class="st0" font-family="BebasNeueBold" font-size="9.377">U</text></g><g id="XMLID_99_"><text id="XMLID_98_" transform="translate(-282.318 1026.508)" class="st0" font-family="BebasNeueBold" font-size="9.377">T</text></g><g id="XMLID_94_"><text id="XMLID_93_" transform="translate(-277.238 1026.508)" class="st0" font-family="BebasNeueBold" font-size="9.377">A</text></g><g id="XMLID_89_"><text id="XMLID_88_" transform="translate(-271.401 1026.508)" class="st0" font-family="BebasNeueBold" font-size="9.377">H</text></g></g></g><g id="XMLID_19_"><g id="XMLID_32_"><text id="XMLID_31_" transform="translate(-360.73 957.295)" class="st0" font-family="GearedSlab-Bold" font-size="10.94">E</text></g><g id="XMLID_27_"><text id="XMLID_26_" transform="translate(-355.468 957.295)" class="st0" font-family="GearedSlab-Bold" font-size="10.94">S</text></g><g id="XMLID_22_"><text transform="translate(-350.108 957.295)" class="st0" font-family="GearedSlab-Bold" font-size="10.94">TD</text><text transform="translate(-338.908 957.295)" class="st0" font-family="GearedSlab-Bold" font-size="10.94">.</text></g></g><g id="XMLID_3_"><g id="XMLID_16_"><text id="XMLID_15_" transform="translate(-268.002 957.295)" class="st0" font-family="GearedSlab-Bold" font-size="10.94">1</text></g><g id="XMLID_11_"><text id="XMLID_10_" transform="translate(-263.692 957.295)" class="st0" font-family="GearedSlab-Bold" font-size="10.94">9</text></g><g id="XMLID_6_"><text transform="translate(-258.31 957.295)" class="st0" font-family="GearedSlab-Bold" font-size="10.94">5</text><text transform="translate(-252.81 957.295)" class="st0" font-family="GearedSlab-Bold" font-size="10.94">9</text></g></g><path class="st0" d="M-87.1 435.2c1.8 4.1 3.7 8.2 5.7 12.3-3.9 2.3-7.9 4.6-11.9 6.8 4.9 1.6 9.8 3.1 14.7 4.4 1.8-6.4 3.6-12.9 5.4-19.3-4.6-1.3-9.3-2.7-13.9-4.2zm199.3 12.3c2-4.1 3.9-8.2 5.7-12.3-4.6 1.5-9.2 2.9-13.9 4.2 1.8 6.4 3.6 12.9 5.4 19.3 4.9-1.4 9.8-2.8 14.7-4.4-4.1-2.2-8-4.5-11.9-6.8zm-182.3-11.7c-3.9 14.5-3.3 12.3-7.5 27.6 60.9 16.5 125.1 16.5 186 0-3.9-14.5-3.3-12.3-7.5-27.6-56 15.2-115 15.2-171 0z"/><path d="M-54.1 458.3c-.8-.2-1.5-.4-2-.8-.6-.4-1-.8-1.3-1.3-.3-.5-.5-1.1-.6-1.7-.1-.6 0-1.3.1-2 .2-.7.4-1.3.7-1.8.3-.5.7-1 1.2-1.3.5-.3 1.1-.5 1.7-.7.6-.1 1.3-.1 2.1.1.5.1.9.2 1.3.4.4.1.6.3.9.5.2.2.4.4.5.6.1.2.1.4.1.6 0 .1-.1.3-.2.4-.1.1-.2.2-.3.2-.1.1-.3.1-.4.1h-.5v-.6c0-.2-.1-.4-.2-.6-.1-.2-.3-.4-.5-.5-.2-.1-.5-.3-.8-.3-.6-.1-1.1-.1-1.5 0-.4.1-.8.3-1.2.6-.3.3-.6.7-.8 1.1-.2.5-.4 1-.5 1.7-.1.6-.2 1.2-.2 1.8 0 .5.1 1 .3 1.4.2.4.5.7.9 1 .4.3.9.5 1.5.6.3.1.5.1.8.1h.7c.1-.7.3-1.4.4-2.1v-.5c0-.1-.1-.2-.2-.3-.1-.1-.2-.1-.3-.2-.1 0-.3-.1-.4-.1h-.1c0-.2.1-.4.1-.5 1.2.2 2.4.5 3.6.7 0 .2-.1.4-.1.5h-.5c-.1 0-.2 0-.3.1-.1 0-.2.1-.3.2-.1.1-.1.3-.2.5-.2.8-.3 1.6-.5 2.3-.5.1-1 .2-1.5.2-.4-.2-.9-.2-1.5-.4zm9.1 1c.9.2 1.8.3 2.7.5h.6c.2 0 .3-.1.4-.2l.3-.3c.1-.1.1-.2.2-.4s.1-.4.2-.5c.2 0 .5.1.7.1-.2.8-.3 1.5-.5 2.3-2.5-.4-5-.8-7.5-1.3 0-.2.1-.4.1-.5h.2c.2 0 .3 0 .4.1.1 0 .3 0 .4-.1.1 0 .2-.1.3-.2.1-.1.1-.3.2-.4.4-2.1.8-4.3 1.2-6.4v-.5c0-.1-.1-.2-.2-.3-.1-.1-.2-.1-.3-.2-.1 0-.3-.1-.4-.1h-.2c0-.2.1-.4.1-.5 2.3.4 4.6.8 6.8 1.2-.1.8-.2 1.5-.3 2.3-.2 0-.5-.1-.7-.1v-1c0-.1-.1-.3-.2-.4l-.3-.3c-.1-.1-.3-.1-.5-.2-.8-.1-1.5-.3-2.3-.4-.2 1.2-.4 2.3-.6 3.5l3.3.6c0 .2-.1.4-.1.6l-3.3-.6c-.2 1.1-.4 2.4-.7 3.7zm14.7 2.9c-1.4-2.7-2.8-5.5-4.1-8.3l-.9 6v.5c0 .1.1.2.2.3.1.1.2.1.3.2.1 0 .3.1.4.1h.2c0 .2-.1.4-.1.5-1.2-.2-2.3-.3-3.5-.5 0-.2.1-.4.1-.5h.7c.1 0 .3 0 .4-.1.1 0 .2-.1.3-.2.1-.1.1-.3.2-.5.3-2.1.6-4.3 1-6.4v-.5c0-.1-.1-.2-.2-.3-.1-.1-.2-.1-.3-.2-.1 0-.3-.1-.4-.1h-.2c0-.2.1-.4.1-.5.8.1 1.7.3 2.5.4 1.3 2.6 2.6 5.3 3.9 7.9.3-1.9.5-3.9.8-5.8v-.5c0-.1-.1-.2-.2-.3-.1-.1-.2-.1-.3-.2-.1 0-.3-.1-.4-.1h-.2c0-.2.1-.4.1-.5 1.1.2 2.3.3 3.4.5 0 .2 0 .4-.1.6h-.6c-.1 0-.3 0-.4.1-.1.1-.2.1-.3.3-.1.1-.1.3-.2.5-.3 2.6-.7 5.2-1 7.9-.5-.2-.8-.2-1.2-.3zm9.2 1.3c-.6-.1-1-.2-1.5-.3-.4-.2-.8-.4-1.1-.6-.3-.3-.5-.6-.6-1-.1-.4-.1-.9-.1-1.4l.6-5.1v-.5c0-.1-.1-.2-.2-.3-.1-.1-.2-.1-.3-.2-.1 0-.3-.1-.4-.1h-.2c0-.2 0-.4.1-.6 1.3.2 2.6.3 4 .5 0 .2 0 .4-.1.6h-.6c-.1 0-.3 0-.4.1-.1.1-.2.1-.3.3-.1.1-.1.3-.1.5l-.6 5.1c0 .4 0 .7.1 1 .1.3.2.5.4.7.2.2.4.3.7.4.3.1.6.2.9.2h1.1c.3-.1.6-.2.8-.4.2-.2.4-.4.5-.6.1-.2.2-.5.2-.8.2-1.7.3-3.5.5-5.2v-.5c0-.1-.1-.2-.2-.3-.1-.1-.2-.1-.3-.2-.1 0-.3-.1-.4-.1h-.2c0-.2 0-.4.1-.6 1.1.1 2.3.2 3.4.3 0 .2 0 .4-.1.6h-.6c-.1 0-.3 0-.4.1-.1.1-.2.1-.3.3-.1.1-.1.3-.1.5-.2 1.7-.3 3.5-.5 5.2 0 .4-.2.8-.3 1.2-.2.3-.4.6-.7.8-.3.2-.7.4-1.1.4h-1.7zm7 .5v-.6h.7c.1 0 .3 0 .4-.1.1-.1.2-.1.3-.3.1-.1.1-.3.1-.5.2-2.1.3-4.3.5-6.4v-.5c0-.1-.1-.2-.2-.3-.1-.1-.2-.1-.3-.2-.1 0-.3-.1-.4-.1h-.2v-.6c1.3.1 2.7.2 4 .3v.6h-.6c-.1 0-.3 0-.4.1-.1.1-.2.1-.3.3-.1.1-.1.3-.1.5-.2 2.1-.3 4.3-.5 6.4 0 .2 0 .4.1.5.1.1.1.2.2.3.1.1.2.1.4.2.1 0 .3.1.4.1h.2v.6c-1.6-.1-3-.2-4.3-.3zm14 .9c-1.6-2.6-3.3-5.2-4.8-7.9-.1 2-.2 4.1-.4 6.1 0 .2 0 .4.1.5.1.1.1.2.2.3.1.1.2.1.4.2.1 0 .3 0 .4.1h.2v.6c-1.2-.1-2.4-.1-3.5-.2v-.6h.7c.1 0 .3 0 .4-.1.1-.1.2-.1.3-.3.1-.1.1-.3.1-.5.1-2.2.3-4.3.4-6.5 0-.2 0-.4-.1-.5-.1-.1-.1-.2-.2-.3-.1-.1-.2-.1-.4-.1-.1 0-.3 0-.4-.1h-.2v-.6c.8.1 1.7.1 2.5.2 1.5 2.5 3 5 4.6 7.5.1-1.9.2-3.9.3-5.8 0-.2 0-.4-.1-.5-.1-.1-.1-.2-.2-.3-.1-.1-.2-.1-.4-.1h-.6v-.6c1.1.1 2.3.1 3.4.1v.6H2c-.1 0-.3.1-.4.1l-.3.3c-.1.1-.1.3-.1.5-.1 2.6-.2 5.3-.3 7.9-.3.1-.6 0-1 0zm7.5-.4c.9 0 1.8 0 2.7.1.2 0 .4 0 .6-.1.2-.1.3-.1.4-.2l.3-.3c.1-.1.1-.3.1-.4 0-.2.1-.4.1-.6h.7c0 .8-.1 1.5-.1 2.3-2.5 0-5-.1-7.6-.2v-.6h.6c.1 0 .3-.1.4-.1.1-.1.2-.1.3-.3.1-.1.1-.3.1-.5.1-2.2.1-4.3.2-6.5 0-.2 0-.4-.1-.5-.1-.1-.1-.2-.2-.3-.1-.1-.2-.1-.4-.1h-.6v-.6c2.3.1 4.6.1 6.9.1v2.3h-.7c0-.2 0-.4-.1-.6 0-.1 0-.3-.1-.4-.1-.1-.1-.2-.2-.3-.1-.1-.2-.2-.4-.2-.1-.1-.3-.1-.5-.1H7.5c0 1.2-.1 2.3-.1 3.5 1.1 0 2.2 0 3.4.1v.6c-1.1 0-2.2 0-3.4-.1v4zm21.4-4.2c0 .6 0 1.2-.2 1.8-.1.5-.3 1-.6 1.5-.3.4-.6.8-1.1 1.1-.4.3-.9.5-1.5.6.1.4.1.8.3 1.1.1.3.3.5.5.7.2.2.4.3.6.4.2.1.5.1.8.1h.2v.6h-.6c-.4 0-.8 0-1.1-.1-.4-.1-.7-.2-1-.4-.3-.2-.6-.5-.8-.9-.2-.4-.4-.8-.4-1.4-.6 0-1.2-.2-1.7-.4s-.9-.6-1.2-1c-.3-.4-.6-.9-.7-1.5-.2-.6-.3-1.2-.3-1.9s.1-1.4.2-2c.2-.6.4-1.1.8-1.5.4-.4.8-.8 1.3-1 .5-.2 1.2-.4 1.9-.4s1.3.1 1.8.3c.5.2 1 .5 1.4.9.4.4.7.9.9 1.5.4.5.5 1.2.5 1.9zm-7.2.2c0 .7.1 1.2.2 1.7s.3.9.5 1.3c.2.3.5.6.9.8.4.2.8.3 1.3.2.5 0 1-.1 1.3-.3.4-.2.6-.5.9-.8.2-.4.4-.8.4-1.3.1-.5.1-1.1.1-1.8s-.1-1.2-.2-1.7-.3-.9-.5-1.3c-.2-.3-.5-.6-.9-.8-.4-.2-.8-.3-1.3-.2-.5 0-.9.1-1.3.3-.4.2-.6.5-.9.8-.2.4-.4.8-.5 1.3v1.8zm14.7 4.3c-.6 0-1.1 0-1.5-.1-.4-.1-.8-.2-1.1-.5-.3-.2-.6-.5-.7-.9-.2-.4-.3-.8-.3-1.4l-.3-5.1c0-.2 0-.3-.1-.5l-.3-.3c-.1-.1-.2-.1-.4-.1H31v-.6c1.3-.1 2.7-.1 4-.2v.6h-.2c-.2 0-.3 0-.4.1-.1 0-.3.1-.4.2-.1.1-.2.2-.2.3-.1.1-.1.3-.1.5l.3 5.1c0 .4.1.7.2 1 .1.3.3.5.5.6.2.2.5.3.8.3.3.1.6.1 1 .1s.8-.1 1-.2c.3-.1.5-.3.7-.5.2-.2.3-.4.4-.7.1-.3.1-.5.1-.8-.1-1.7-.2-3.5-.4-5.2 0-.2-.1-.3-.1-.5l-.3-.3c-.1-.1-.2-.1-.4-.1h-.6v-.6c1.1-.1 2.3-.2 3.4-.2v.6h-.2c-.2 0-.3 0-.4.1-.1 0-.3.1-.3.2-.1.1-.2.2-.2.3-.1.1-.1.3-.1.5.1 1.7.2 3.5.4 5.2 0 .4 0 .8-.1 1.2-.1.4-.3.7-.6.9-.3.3-.6.5-1 .6-.4.2-.9.3-1.5.4zm8.7-4c-.1.5-.3 1-.4 1.4 0 .1-.1.2-.1.3v.3c0 .2.1.4.3.5.2.1.4.1.7.1h.3v.6c-1.1.1-2.3.2-3.4.3v-.6h.3c.1 0 .3 0 .3-.1.1 0 .2-.1.2-.2.1-.1.1-.2.2-.3.1-.1.1-.3.2-.5l2.4-8.1c.4 0 .7-.1 1.1-.1l3.9 7.8c.1.1.1.2.2.3l.2.2c.1 0 .2.1.3.1h.6c0 .2 0 .4.1.6-1.3.1-2.6.3-3.9.4 0-.2 0-.4-.1-.6h.3c.6-.1.8-.3.8-.7 0-.1 0-.1-.1-.2 0-.1-.1-.2-.1-.3-.2-.5-.5-.9-.7-1.4-1.1 0-2.3.1-3.6.2zm2.3-3.1c-.2-.4-.3-.7-.5-1.1-.2-.3-.3-.6-.4-1 0 .2 0 .3-.1.5 0 .2-.1.3-.1.5s-.1.3-.1.5-.1.4-.2.6c-.2.8-.5 1.7-.7 2.5 1-.1 2.1-.2 3.1-.3-.3-.8-.6-1.5-1-2.2zm7 5.4c0-.2 0-.4-.1-.6h.2c.2 0 .3 0 .4-.1.1 0 .3-.1.4-.2.1-.1.2-.2.2-.3 0-.1.1-.3 0-.5-.2-2.1-.5-4.3-.7-6.4 0-.2-.1-.4-.1-.5l-.3-.3c-.1-.1-.2-.1-.4-.1h-.6c0-.2 0-.4-.1-.6 1.3-.2 2.6-.3 4-.5 0 .2 0 .4.1.6h-.2c-.2 0-.3 0-.4.1-.1 0-.2.1-.3.2-.1.1-.2.2-.2.3 0 .1-.1.3 0 .5.3 2.4.6 4.8.9 7.3.9-.1 1.8-.2 2.8-.3.2 0 .4-.1.5-.2l.3-.3c.1-.1.1-.3.2-.4v-1.4c.2 0 .5-.1.7-.1.1.9.2 1.9.3 2.8-2.6.4-5.1.7-7.6 1zm10.2-1.3c0-.2-.1-.4-.1-.5h.2c.2 0 .3-.1.4-.1.1 0 .3-.1.3-.2.1-.1.2-.2.2-.3v-.5c-.3-2.1-.6-4.2-.9-6.4 0-.2-.1-.4-.2-.5-.1-.1-.2-.2-.3-.2-.1-.1-.2-.1-.4-.1h-.6c0-.2-.1-.4-.1-.5 1.3-.2 2.6-.4 4-.6 0 .2.1.4.1.5h-.2c-.2 0-.3.1-.4.1-.1 0-.2.1-.3.2-.1.1-.2.2-.2.3v.5c.3 2.1.6 4.2 1 6.3 0 .2.1.4.2.5.1.1.2.2.3.2.1 0 .2.1.4.1h.6c0 .2.1.4.1.5-1.4.3-2.8.5-4.1.7zm10.7-3.2c0 .2.1.4.2.5.1.1.2.2.3.2.1 0 .2.1.4.1h.4c.1 0 .2 0 .3-.1 0 .2.1.4.1.5-1.4.3-2.9.5-4.3.8 0-.2-.1-.4-.1-.5.1 0 .2 0 .3-.1.2 0 .3-.1.4-.1.1 0 .2-.1.3-.2.1-.1.2-.2.2-.3v-.5l-1.2-7.2c-.4.1-.9.1-1.3.2-.2 0-.4.1-.5.2l-.3.3c-.1.1-.1.2-.1.4v1c-.2 0-.5.1-.7.1-.1-.8-.2-1.5-.3-2.3 2.6-.4 5.1-.9 7.6-1.3.2.8.3 1.5.5 2.3-.2 0-.5.1-.7.1-.1-.2-.1-.4-.2-.5 0-.1-.1-.3-.2-.4l-.3-.3c-.1-.1-.2-.1-.4-.2h-.5c-.4.1-.9.2-1.3.2.5 2.3.9 4.7 1.4 7.1zm7.4.1c0-.2-.1-.4-.1-.5.1 0 .2 0 .3-.1.2 0 .3-.1.4-.1.1 0 .2-.1.3-.2.1-.1.2-.2.2-.3v-.5c-.2-.8-.3-1.6-.5-2.4-1.1-1.2-2.2-2.4-3.4-3.7l-.3-.3c-.1-.1-.2-.1-.2-.2-.1 0-.2-.1-.3-.1h-.5c0-.2-.1-.4-.1-.5 1.2-.2 2.5-.5 3.7-.7 0 .2.1.4.1.5-.2 0-.3.1-.5.1-.1 0-.2.1-.3.1-.1 0-.1.1-.2.1l-.1.1v.2c0 .1.1.2.2.4.1.1.2.2.2.3.4.5.9 1 1.4 1.5.2.2.4.5.6.7.2.2.3.4.4.6 0-.1 0-.2.1-.3 0-.1.1-.3.1-.4 0-.1.1-.3.1-.4.1-.2.1-.3.2-.5.2-.6.4-1.1.6-1.7.1-.2.1-.3.1-.5v-.4c0-.2-.1-.3-.3-.4-.2-.1-.4-.1-.6 0-.1 0-.3.1-.4.1 0-.2-.1-.4-.1-.5 1.1-.2 2.2-.5 3.3-.7 0 .2.1.4.1.5h-.2c-.1 0-.2.1-.3.1-.1 0-.2.1-.2.2-.1.1-.1.2-.2.4-.1.1-.1.3-.2.5-.5 1.4-1 2.9-1.5 4.3.2.8.3 1.6.5 2.4 0 .2.1.4.2.5.1.1.2.2.3.2.1 0 .2.1.4.1.1 0 .3 0 .4-.1.1 0 .2 0 .3-.1 0 .2.1.4.1.5-1.2.6-2.6.9-4.1 1.2z" fill="#fff"/><path class="st0" d="M-101.2 379.8c4.2-.1 6.6 1.3 7.3 4 1.1 4.1 2.2 8.1 3.3 12.2 1.3 4.8-.6 7.9-5.6 9.3-4.4 1.3-8.9 2.6-13.3 4.1l-15.6-48c4.2-1.4 8.4-2.7 12.7-3.9 6.6-1.9 10.8.2 12.3 6 .8 3.1 1.7 6.2 2.5 9.4.8 2.8-.5 5-3.7 6.6 0 .1.1.2.1.3zm-10.3-.4c1.1-.3 2.2-.7 3.3-1 2.7-.8 3.7-2.4 3.1-4.7-.7-2.5-1.4-5-2.2-7.6-.7-2.3-2.1-3.2-4.3-2.6-1.5.4-2.9.9-4.4 1.3 1.6 5 3.1 9.8 4.5 14.6zm6.8 22.1c1.7-.5 3.4-1 5-1.5 1.8-.5 2.5-1.5 2.1-2.9-1-3.6-2-7.2-3.1-10.7-.7-2.3-2.4-3.1-5.1-2.2l-3.9 1.2c1.7 5.3 3.3 10.7 5 16.1zm10.8-49c4.9-1.2 9.8-2.3 14.7-3.4 5.8-1.2 9.2 1.1 10.3 6.7.8 4.1 1.6 8.1 2.3 12.2.8 4.3-.1 7.3-2.6 9 3 6.5 6 13.1 8.9 19.7-2.1.4-4.3.8-6.4 1.3-2.8-6.3-5.8-12.7-8.8-19-1.4.3-2.8.6-4.3 1 1.5 6.6 3 13.2 4.6 19.8-2.2.5-4.5 1-6.7 1.6-3.9-16.3-8-32.6-12-48.9zm13 21.9c1.6-.4 3.1-.7 4.7-1 2.1-.5 2.9-1.9 2.5-4.3-.7-3.6-1.5-7.1-2.2-10.7-.5-2.4-1.9-3.3-4.1-2.9-1.6.4-3.3.7-4.9 1.1 1.2 6 2.6 11.9 4 17.8zm33.4 20.1c-2.3.4-4.5.7-6.8 1.1-2.4-13.7-4.8-27.4-7.2-41.2-1-5.7 1.5-9.1 7.6-10 1.9-.3 3.8-.6 5.7-.8 6.1-.9 9.5 1.7 10.2 7.4 1.7 13.8 3.3 27.7 5 41.5-2.3.3-4.5.6-6.8.9-.8-6.1-1.7-12.2-2.5-18.3l-8.1 1.2c.9 6.1 1.9 12.2 2.9 18.2zm4.4-25.5c-.8-5.5-1.5-11.1-2.3-16.6-.3-1.9-1.5-2.8-3.7-2.5-.7.1-1.4.2-2 .3-2.2.3-3.1 1.5-2.8 3.4.9 5.5 1.7 11.1 2.6 16.6 2.7-.4 5.4-.8 8.2-1.2zm29.9-4.5c-.5-8.1-1.1-16.2-1.6-24.3 2.6-.2 5.1-.3 7.7-.4.8 16.8 1.7 33.6 2.5 50.4-2.3.1-4.5.2-6.8.4-.2-3.3-.4-6.7-.7-10-3-7.5-6.2-14.9-9.4-22.3.9 11 1.9 21.9 2.8 32.9-2.3.2-4.5.4-6.8.6-1.7-16.7-3.4-33.4-5.1-50.2 2.5-.3 5.1-.5 7.7-.7 3.3 7.8 6.6 15.7 9.7 23.6zm16.4 25.3l-1.5-50.4c4.5-.1 8.9-.2 13.4-.2 7.2 0 10.7 3.4 10.6 9.8-.3 11.1-.5 22.3-.8 33.4-.1 4.9-2.9 7.2-8.3 7.2-4.6 0-9 .1-13.4.2zm6.7-6.3h5.2c1.8 0 2.7-.7 2.8-2.2.1-10.8.1-21.5.2-32.3 0-2.4-1.1-3.7-3.4-3.7H9.4c.2 12.8.4 25.5.5 38.2zm38.3-18.7c.6-8.1 1.2-16.2 1.9-24.3 2.6.2 5.1.4 7.7.6-1.6 16.7-3.1 33.5-4.7 50.2-2.3-.2-4.5-.4-6.8-.6.3-3.3.5-6.7.8-10-1.9-7.8-4-15.6-6.2-23.4-.6 11-1.3 22-1.9 33-2.3-.1-4.5-.2-6.8-.3l2.1-50.4c2.6.1 5.1.2 7.7.4 2.1 8.2 4.3 16.5 6.2 24.8zm19.1 28.1c-2.3-.3-4.5-.6-6.8-.8 1.6-13.8 3.1-27.7 4.7-41.5.6-5.7 4-8.3 10.1-7.5 1.9.3 3.8.5 5.7.8 6.1.9 8.7 4.3 7.7 9.9-2.3 13.7-4.6 27.5-6.9 41.2-2.3-.4-4.5-.7-6.8-1.1l2.7-18.3c-2.7-.4-5.4-.8-8.1-1.1-.7 6.2-1.5 12.3-2.3 18.4zm11.4-23.2c.8-5.5 1.6-11.1 2.5-16.6.3-1.9-.7-3.1-2.9-3.4-.7-.1-1.4-.2-2-.3-2.2-.3-3.4.5-3.7 2.5-.7 5.5-1.4 11.1-2.2 16.6 2.8.4 5.5.8 8.3 1.2zm28.6 9.2c4.3-9.2 8.8-18.3 13.4-27.3 2.8.7 5.5 1.3 8.3 2.1-4.2 16.3-8.4 32.6-12.6 48.8-2.2-.6-4.4-1.1-6.7-1.7 2.8-10.6 5.6-21.3 8.4-31.9-3.7 7.3-7.3 14.6-10.7 22-1.8-.4-3.5-.8-5.3-1.2 0-8.2-.2-16.3-.4-24.5-1.9 10.8-3.9 21.7-5.8 32.5-2.2-.5-4.5-.9-6.7-1.3 3.1-16.5 6.1-33.1 9.2-49.6 2.8.5 5.6 1.1 8.4 1.6.3 10.2.5 20.3.5 30.5zm16.7 25.6l13.5-48.6c6.2 1.7 12.3 3.6 18.4 5.6-.6 1.9-1.3 3.9-1.9 5.8-3.6-1.2-7.2-2.3-10.8-3.4-1.5 4.9-2.9 9.8-4.4 14.7 3.1.9 6.2 1.9 9.3 2.9-.6 1.9-1.2 3.9-1.9 5.8-3-1-6.1-1.9-9.1-2.8-1.6 5.4-3.2 10.7-4.8 16.1 3.3 1 6.6 2 9.9 3.1-.6 1.9-1.3 3.9-1.9 5.8-5.3-1.9-10.8-3.5-16.3-5zm-131.6-74v-11.6h3.9v1.4H-6v3.5h2v1.4h-2v3.9h2.3v1.4h-3.9zm9.5-8.5v-1c0-.5-.2-.7-.7-.7H1c-.4 0-.7.2-.7.7v1.9c0 .2 0 .4.1.4.1.1.2.2.4.3l1.5.8c.3.2.6.3.7.4.1.1.2.2.3.4.1.1.1.4.1.8v2.5c0 1.3-.6 2-1.9 2h-1c-1.2 0-1.9-.7-1.9-2.1v-.6H.2v.6c0 .5.2.7.7.7h.3c.4 0 .6-.2.6-.7v-2c0-.2 0-.4-.1-.4s-.2-.2-.4-.3l-1.5-.8c-.3-.2-.6-.3-.7-.4-.1-.1-.3-.3-.3-.5s-.1-.4-.1-.7v-2.4c0-1.3.6-2 1.9-2h1c1.2 0 1.9.7 1.9 2v1.1H1.9zm7-1.7v10.2H7.3v-10.2H5.8v-1.4h4.5v1.4H8.9zm4 10.2v-11.6h2.7c1.5 0 2.2.7 2.2 2.2v7.7c0 1.1-.6 1.7-1.9 1.7h-3zm1.6-1.4h1.2c.4 0 .6-.2.6-.5v-7.5c0-.6-.2-.8-.7-.8h-1.1v8.8zm7.7-.6v2h-1.7v-2h1.7zm6.9-7l-.4-1.1c.4-.2.7-.4 1-.6.3-.3.5-.6.7-.9h.2l1 .6v11.1h-1.5v-9.4l-1 .3zm7.3 6.3v.5c0 .6.2.8.7.8h.2c.4 0 .6-.2.6-.7v-2.8l-1 .6h-.4c-1.2 0-1.9-.7-1.9-2.1v-3.3c0-1.4.6-2 1.9-2h1c1.2 0 1.9.7 1.9 2v7.5c0 1.4-.6 2.1-1.9 2.1h-.9c-1.2 0-1.9-.7-1.9-2.1v-.6h1.7zm1.6-2.9V321c0-.5-.3-.7-.8-.7H37c-.5 0-.7.2-.7.7v3c0 .6.2.8.7.8h1zm4.5 2.9h1.6v.6c0 .5.2.7.6.7h.2c.5 0 .7-.2.7-.7v-2.7c0-.5-.2-.8-.6-.8h-2.3v-6.1H47v1.4h-3v3.3h1.2c1.2 0 1.9.7 1.9 2.1v2.8c0 1.4-.6 2.1-1.9 2.1h-.9c-1.2 0-1.9-.7-1.9-2v-.7zm9.3 0v.5c0 .6.2.8.7.8h.2c.4 0 .6-.2.6-.7v-2.8l-1 .6H52c-1.2 0-1.9-.7-1.9-2.1v-3.3c0-1.4.6-2 1.9-2h1c1.2 0 1.9.7 1.9 2v7.5c0 1.4-.6 2.1-1.9 2.1h-.9c-1.2 0-1.9-.7-1.9-2.1v-.6h1.6zm1.5-2.9V321c0-.5-.3-.7-.8-.7h-.2c-.5 0-.7.2-.7.7v3c0 .6.2.8.7.8h1zM24.8 428.5H5.4c-.4 0-.8 0-1.3.1v2.5h22.5c.5-2.5.5-2.6-1.8-2.6zm7-20.4c0-1-.8-1.8-1.8-1.8s-1.8.8-1.8 1.8c0 .4.2.8.4 1.1v.1c-2.1 1.8-4.2 3.6-6.4 5.6-2-3.4-4-6.6-5.9-9.9.5-.3.9-.9.9-1.5 0-1-.8-1.8-1.8-1.8s-1.8.8-1.8 1.8c0 .7.4 1.2.9 1.6-2 3.2-3.9 6.5-5.9 9.9-1.9-1.7-3.6-3.3-5.4-4.9-.4-.3-.7-.6-.7-1.1.2-.3.3-.6.3-1 0-1-.8-1.8-1.8-1.8s-1.8.8-1.8 1.8.8 1.8 1.8 1.8h.4c.9 5.3 1.8 10.5 2.6 15.7.1.8.4 1.1 1.3 1.1H26c.7 0 1.1-.2 1.2-1 .8-4.7 1.7-9.5 2.5-14.2.1-.6.2-1.1.6-1.5.7-.1 1.5-.9 1.5-1.8zm6 5.6H89v3.1H37.8zm0 6.7h37.1v3.1H37.8zm0 6.6h23.5v3.1H37.8zm-95.9-13.3h51.2v3.1h-51.2zm14.1 6.7h37.1v3.1H-44zm13.5 6.6H-7v3.1h-23.5z"/></svg>