<svg version="1.1" id="Layer_1" xmlns="http://www.w3.org/2000/svg" x="0" y="0" viewBox="-145 302 320 190" xml:space="preserve"><style>.st0{fill:#333}</style><g id="XMLID_85_"><g id="XMLID_86_"><g id="XMLID_195_"><text id="XMLID_194_" transform="translate(-342.258 1026.508)" class="st0" font-family="BebasNeueBold" font-size="9.377">S</text></g><g id="XMLID_190_"><text id="XMLID_189_" transform="translate(-336.745 1026.508)" class="st0" font-family="BebasNeueBold" font-size="9.377">A</text></g><g id="XMLID_134_"><text id="XMLID_133_" transform="translate(-330.91 1026.508)" class="st0" font-family="BebasNeueBold" font-size="9.377">L</text></g><text transform="translate(-326.07 1026.508)" class="st0" font-family="BebasNeueBold" font-size="9.377" id="XMLID_129_">T</text><g id="XMLID_124_"><text id="XMLID_123_" transform="translate(-317.527 1026.508)" class="st0" font-family="BebasNeueBold" font-size="9.377">L</text></g><g id="XMLID_119_"><text transform="translate(-312.186 1026.508)" class="st0" font-family="BebasNeueBold" font-size="9.377" letter-spacing="1">A</text><text transform="translate(-306.386 1026.508)" class="st0" font-family="BebasNeueBold" font-size="9.377">K</text></g><g id="XMLID_114_"><text id="XMLID_113_" transform="translate(-300.447 1026.508)" class="st0" font-family="BebasNeueBold" font-size="9.377">E</text></g><text transform="translate(-295.054 1026.508)" class="st0" font-family="BebasNeueBold" font-size="9.377" id="XMLID_109_">,</text><g id="XMLID_104_"><text id="XMLID_103_" transform="translate(-288.106 1026.508)" class="st0" font-family="BebasNeueBold" font-size="9.377">U</text></g><g id="XMLID_99_"><text id="XMLID_98_" transform="translate(-282.318 1026.508)" class="st0" font-family="BebasNeueBold" font-size="9.377">T</text></g><g id="XMLID_94_"><text id="XMLID_93_" transform="translate(-277.238 1026.508)" class="st0" font-family="BebasNeueBold" font-size="9.377">A</text></g><g id="XMLID_89_"><text id="XMLID_88_" transform="translate(-271.401 1026.508)" class="st0" font-family="BebasNeueBold" font-size="9.377">H</text></g></g></g><g id="XMLID_19_"><g id="XMLID_32_"><text id="XMLID_31_" transform="translate(-360.73 957.295)" class="st0" font-family="GearedSlab-Bold" font-size="10.94">E</text></g><g id="XMLID_27_"><text id="XMLID_26_" transform="translate(-355.468 957.295)" class="st0" font-family="GearedSlab-Bold" font-size="10.94">S</text></g><g id="XMLID_22_"><text transform="translate(-350.108 957.295)" class="st0" font-family="GearedSlab-Bold" font-size="10.94">TD</text><text transform="translate(-338.908 957.295)" class="st0" font-family="GearedSlab-Bold" font-size="10.94">.</text></g></g><g id="XMLID_3_"><g id="XMLID_16_"><text id="XMLID_15_" transform="translate(-268.002 957.295)" class="st0" font-family="GearedSlab-Bold" font-size="10.94">1</text></g><g id="XMLID_11_"><text id="XMLID_10_" transform="translate(-263.692 957.295)" class="st0" font-family="GearedSlab-Bold" font-size="10.94">9</text></g><g id="XMLID_6_"><text transform="translate(-258.31 957.295)" class="st0" font-family="GearedSlab-Bold" font-size="10.94">5</text><text transform="translate(-252.81 957.295)" class="st0" font-family="GearedSlab-Bold" font-size="10.94">9</text></g></g><path class="st0" d="M-93.8 383c4.9 1.1 5.5 5.5 5.5 5.5 1.7 8.8-7.4 11.1-9.5 11.6-3.3.7-6.6 1.5-9.9 2.3-.6.1-1-.2-1.1-.5-2.3-9.8-4.7-19.5-7-29.3-.1-.4.2-.9.8-1l10.5-2.4s11.5-2.6 13.3 6.7c.5 3.3-.6 5.6-2.6 7.1zm-12.3-.7l4.2-.9s4.1-.9 3.5-3.8c-.7-3.2-4.8-2.3-4.8-2.3-1.4.3-2.8.6-4.3.9.4 2.1.9 4.1 1.4 6.1zm10.7 7.5c-.6-3.1-5.1-1.9-5.1-1.9l-4.2.9c.4 1.9.9 3.9 1.3 5.8 1.4-.3 2.7-.6 4.1-.9 1.8-.3 4.4-1.3 3.9-3.9zm27.6 1c-3 .5-6.1 1-9.1 1.5l-.6 3.3c0 .3-.4.6-.9.7-1.8.3-3.6.6-5.4 1-.8.1-1.2-.3-1.1-.9 2-10.5 4.4-22 6.9-32.5.2-.7 1.4-.9 1.9-.3 5.9 9.4 11.6 19 17 28.6.3.5 0 1.1-.7 1.2-1.8.3-3.7.5-5.5.8-.4.1-.8-.1-.9-.4-.4-1.1-1-2-1.6-3zm-8.2-4.2c1.8-.3 3.7-.6 5.5-.9-.8-1.5-1.6-2.9-2.4-4.4-.7-1.4-1.3-2.6-1.8-4.2-.1 1.7-.2 3.1-.4 4.5-.3 1.7-.6 3.4-.9 5zm27.8-7.5l-2.4.3c.5 3.9 1 7.8 1.4 11.7 0 .4-.3.8-.9.9-1.6.2-3.3.4-4.9.6-.5.1-1-.3-1-.6-1.3-9.8-2.7-19.7-4-29.5-.1-.4.3-.8.9-.9 3.5-.5 6.9-.9 10.4-1.3 2-.3 11.6-1.1 12.4 8.2.4 4.7-1.9 7.4-4.9 9 1.2 1.9 2.5 4.1 3.6 6 1.1 1.9 2.3 3.8 3.4 5.7.3.5 0 1.1-.7 1.2-1.8.2-3.6.4-5.5.5-.3 0-.8-.2-.9-.4-2.2-3.8-4.5-7.6-6.9-11.4zm-3.1-5.7c1.3-.2 2.7-.3 4-.5 1.2-.1 4.2-.7 3.8-3.6-.3-2.9-3.7-2.8-4.6-2.7-1.4.2-2.7.3-4.1.5.4 2.1.7 4.2.9 6.3zm29.3-9.7c.4 6.4.9 12.9 1.3 19.3.9-.1 1.8-.1 2.6-.2.6 0 1 .3 1 .7.1 1.5.2 3.1.3 4.6 0 .4-.4.8-.9.8-4.1.3-8.1.6-12.2.9-.5 0-1-.3-1-.7-.1-1.5-.3-3.1-.4-4.6 0-.4.3-.8.9-.9.9-.1 1.8-.1 2.7-.2-.5-6.4-1-12.9-1.6-19.3-.9.1-1.7.1-2.6.2-.6 0-1-.3-1.1-.7-.1-1.5-.3-3-.4-4.6 0-.4.4-.9.9-.9 4.2-.4 8.4-.7 12.5-.9.6 0 1 .3 1.1.8.1 1.5.2 3 .3 4.6 0 .4-.3.8-1 .8l-2.4.3zm7.1 4.9c-.4-6.5 5.2-12.2 12.4-12.5 7.1-.2 13 5.1 13.1 11.7 0 6.6-5.5 11.9-12.3 12.1-6.9.2-12.8-4.7-13.2-11.3zm24.2 18.6c0 .4-.4.8-1 .8-6.7.1-13.3.3-20 .6-.6 0-1-.4-1-.7-.1-1.7-.2-3.3-.3-5 0-.4.3-.8.9-.9 6.7-.3 13.5-.6 20.2-.6.6 0 1 .4 1 .8.2 1.7.2 3.4.2 5zm-16.9-18.9c.1 3 2.7 5.1 5.7 5.1 3-.1 5.3-2.4 5.3-5.4-.1-3-2.5-5.3-5.6-5.2-3.2 0-5.6 2.5-5.4 5.5zm51.2 19.6c0 .4-.4.7-1 .7-1.7-.1-3.4-.2-5.1-.2-.2 0-.6-.1-.8-.3-4.4-6.8-8.3-12.6-13-19.3l-.3 18.5c0 .4-.4.8-1 .8h-5.1c-.5 0-1-.4-1-.8 0-10 0-20.1.1-30.1 0-.4.4-.8 1-.8h5.5c.2 0 .6.1.8.3 4.7 6.6 8.9 12.5 13.4 19.3.2-6.1.5-12.3.7-18.4 0-.4.4-.8 1-.8 1.8.1 3.5.2 5.3.2.6 0 1 .5 1 .9-.4 10-1 20-1.5 30zm15.5-23.4c-.2 2-.3 4-.5 6.1 4 .3 8 .7 12.1 1.1.6.1.9.5.9.9-.2 1.6-.3 3.2-.5 4.9 0 .4-.5.7-1 .7-4-.4-7.9-.8-11.9-1.1-.2 2-.3 4-.5 6.1 4.8.4 9.5.8 14.3 1.3.6.1 1 .5.9.9-.2 1.7-.4 3.3-.5 5 0 .4-.5.7-1.1.7-6.7-.7-13.4-1.3-20.2-1.8-.6 0-.9-.5-.9-.8.7-10 1.3-20 2-30.1 0-.4.4-.8 1.1-.7 7 .5 14 1.1 21 1.8.6.1 1 .5.9.9-.2 1.6-.3 3.2-.5 4.8 0 .4-.5.8-1.1.7-4.8-.6-9.7-1.1-14.5-1.4zm38.7 3.3c-.1.4-.5.7-1.2.6-1.9-.3-3.7-.5-5.6-.8-1.1 8.2-2.2 16.4-3.4 24.5-.1.4-.5.7-1.1.6-1.7-.2-3.3-.4-5-.7-.5-.1-.9-.5-.9-.9l3-24.6c-1.9-.2-3.8-.5-5.7-.7-.6-.1-1-.5-.9-.9.2-1.5.3-3 .5-4.5 0-.4.5-.8 1.1-.7 6.3.7 12.5 1.5 18.7 2.4.6.1 1 .6.9 1 0 1.7-.2 3.2-.4 4.7zm21.2 3.6c-.1.4-.6.7-1.2.6-1.9-.3-3.7-.7-5.6-1-1.4 8.1-2.9 16.3-4.3 24.4-.1.4-.5.7-1.1.6-1.7-.3-3.3-.6-5-.8-.5-.1-.9-.6-.8-.9 1.3-8.2 2.7-16.3 4-24.5-1.9-.3-3.8-.6-5.6-.9-.6-.1-.9-.6-.9-.9.2-1.5.5-3 .7-4.5.1-.4.6-.7 1.1-.7 6.2 1 12.4 2 18.7 3.2.6.1 1 .6.9 1-.4 1.4-.6 2.9-.9 4.4zm10.5 3.2c-.4 2-.8 4-1.2 5.9 4 .8 7.9 1.7 11.9 2.6.6.1.8.6.7 1-.4 1.6-.7 3.2-1.1 4.8-.1.4-.5.7-1.1.5-3.9-.9-7.8-1.8-11.7-2.6-.4 2-.8 4-1.2 5.9 4.7 1 9.4 2 14.1 3.2.6.1.9.6.8 1-.4 1.6-.8 3.3-1.2 4.9-.1.4-.6.7-1.2.5-6.6-1.6-13.2-3-19.9-4.3-.6-.1-.9-.6-.8-.9 1.9-9.9 3.9-19.7 5.8-29.6.1-.4.5-.7 1.2-.6 6.9 1.4 13.8 2.9 20.7 4.5.6.1.9.6.8 1-.4 1.6-.8 3.1-1.1 4.7-.1.4-.6.7-1.2.6-4.8-1.1-9.6-2.1-14.3-3.1zm-213.7-24c2.8-5.2 5.7-10.4 8.7-15.6-4.9-3.5-9.8-6.9-14.9-10.3 11.3-2.7 22.6-5 34-6.8-4.9 2.7-9.7 5.6-14.5 8.4 1.3 6.8 2.7 13.6 4 20.4-5.8 1.3-11.6 2.6-17.3 3.9zm195.8 0c-5.8-1.4-11.5-2.6-17.3-3.8 1.3-6.8 2.7-13.6 4-20.4-4.7-2.9-9.6-5.7-14.5-8.4 11.4 1.8 22.7 4.1 34 6.8-5.1 3.3-10.1 6.8-14.9 10.3 3 5.1 5.9 10.3 8.7 15.5z"/><path class="st0" d="M91.4 352.2c-51.4-9.8-104.1-9.8-155.5 0-.8-4.4-3-15.9-4.7-24.7 10.1-2.1 46.3-8.2 82.5-7.7 36.2-.4 72.4 5.7 82.4 7.7-.8 4.4-3 15.7-4.7 24.7z"/><path d="M-51.5 339.6c-.8.1-1.5.2-2.3.4-.1.3-.1.5-.2.8 0 .1-.1.2-.2.2-.5.1-.9.1-1.4.2-.2 0-.3-.1-.3-.2.6-2.6 1.2-5.4 1.8-8 .1-.2.3-.2.5-.1 1.4 2.3 2.8 4.7 4.2 7 .1.1 0 .3-.2.3-.5.1-.9.1-1.4.2-.1 0-.2 0-.2-.1 0-.2-.1-.5-.3-.7zm-2-1c.5-.1.9-.1 1.4-.2-.2-.4-.4-.7-.6-1.1-.2-.3-.3-.6-.4-1 0 .4-.1.8-.1 1.1-.2.3-.2.8-.3 1.2zm6.4-1.3c-.2-1.6-.5-3.3-.7-4.9 0-.1.1-.2.2-.2.4-.1.8-.1 1.3-.2.1 0 .3.1.3.2.2 1.6.5 3.2.7 4.9.2.6.8.9 1.5.9.7-.1 1.3-.5 1.2-1.2-.2-1.6-.4-3.3-.7-4.9 0-.1.1-.2.2-.2.4-.1.9-.1 1.3-.2.1 0 .2.1.3.2.2 1.6.4 3.3.6 4.9.2 1.6-1 2.8-2.7 3-1.8.1-3.3-.7-3.5-2.3zm13.4-5.7c0 .1-.1.2-.2.2-.5.1-.9.1-1.4.2.2 2 .5 4 .7 6.1 0 .1-.1.2-.2.2-.4 0-.8.1-1.3.1-.1 0-.3-.1-.3-.2-.2-2-.5-4-.7-6.1-.5.1-.9.1-1.4.2-.1 0-.3-.1-.3-.2 0-.4-.1-.7-.1-1.1 0-.1.1-.2.2-.2 1.5-.2 3-.4 4.5-.5.2 0 .3.1.3.2.1.4.2.7.2 1.1zm8.6-2.2c.2 0 .3.1.3.2.2 2.5.4 4.9.7 7.4 0 .1-.1.2-.2.2-.4 0-.8.1-1.3.1-.1 0-.3-.1-.3-.2-.1-1-.2-1.9-.3-2.9l-2.7.3c.1 1 .2 1.9.3 2.9 0 .1-.1.2-.2.2-.4 0-.8.1-1.3.1-.1 0-.3-.1-.3-.2-.3-2.5-.5-4.9-.8-7.4 0-.1.1-.2.2-.2.4 0 .9-.1 1.3-.1.2 0 .3.1.3.2.1 1 .2 1.9.3 2.9l2.7-.3c-.1-1-.2-1.9-.3-2.9 0-.1.1-.2.2-.2.5 0 .9-.1 1.4-.1zm5.5 1.1c0 .5.1 1 .1 1.5 1-.1 2-.2 3-.2.1 0 .2.1.2.2 0 .4.1.8.1 1.2 0 .1-.1.2-.2.2-1 .1-2 .1-3 .2 0 .5.1 1 .1 1.5l3.6-.3c.2 0 .3.1.3.2 0 .4.1.8.1 1.2 0 .1-.1.2-.2.2-1.7.1-3.4.2-5.1.4-.1 0-.2-.1-.3-.2-.2-2.5-.4-4.9-.6-7.4 0-.1.1-.2.2-.2 1.7-.1 3.4-.3 5.1-.4.1 0 .3.1.3.2 0 .4.1.8.1 1.2 0 .1-.1.2-.2.2-1.2.2-2.4.2-3.6.3zm14.1 5.2c0 .1-.1.2-.2.2-.4 0-.9 0-1.3.1 0 0-.2 0-.2-.1-1.3-1.6-2.3-2.9-3.6-4.5l.3 4.5c0 .1-.1.2-.2.2-.4 0-.9.1-1.3.1-.1 0-.2-.1-.3-.2-.2-2.5-.3-4.9-.5-7.4 0-.1.1-.2.2-.2.4 0 .9-.1 1.3-.1 0 0 .2 0 .2.1 1.3 1.5 2.4 2.9 3.7 4.5-.1-1.5-.1-3-.2-4.5 0-.1.1-.2.2-.2.4 0 .9 0 1.3-.1.2 0 .3.1.3.2 0 2.5.2 4.9.3 7.4zm7.5-6.6c0 .1-.1.2-.3.2H.3c.1 2 .1 4.1.2 6.1 0 .1-.1.2-.2.2H-1c-.1 0-.2-.1-.2-.2-.1-2-.1-4.1-.2-6.1-.5 0-.9 0-1.4.1-.1 0-.2-.1-.3-.2v-1.1c0-.1.1-.2.2-.2 1.5-.1 3-.1 4.6-.2.2 0 .3.1.3.2v1.2zm4.8.1c0 1.6.1 3.2.1 4.8h.7c.1 0 .2.1.2.2v1.1c0 .1-.1.2-.2.2-1 0-2.1 0-3.1.1-.1 0-.2-.1-.2-.2v-1.1c0-.1.1-.2.2-.2h.7c0-1.6-.1-3.2-.1-4.8h-.6c-.1 0-.2-.1-.2-.2V328c0-.1.1-.2.2-.2 1 0 2 0 3-.1.2 0 .2.1.2.2v1.1c0 .1-.1.2-.2.2h-.7zm9.2 4.1c.1-.1.2-.1.4 0l.9.9c0 .1.1.2 0 .3-.7.7-1.8 1.1-2.9 1.1-2.2 0-4.1-1.5-4.1-4 0-2.4 1.7-4 4.1-4 1.1 0 2.2.5 2.9 1.2v.3l-.9.9c-.1.1-.2.1-.3 0-.4-.4-1-.7-1.7-.7-1.5 0-2.3 1-2.3 2.4 0 1.5 1 2.4 2.3 2.4.5-.2 1.1-.4 1.6-.8zm15.7-5.2c.2 0 .3.1.2.3-1.1 2.5-2.2 4.9-3.3 7.4-.1.1-.4.1-.4 0-.9-2.5-1.8-5.1-2.8-7.6-.1-.1 0-.3.2-.3H27c.1 0 .2.1.2.1.5 1.4.9 2.5 1.3 3.9.5-1.3 1.1-2.5 1.6-3.8 0-.1.1-.1.2-.1.5.1.9.1 1.4.1zm4.9 1.7l-.3 4.8h.7c.1 0 .2.1.2.2 0 .4 0 .8-.1 1.1 0 .1-.1.2-.3.2-1-.1-2.1-.1-3.1-.2-.1 0-.2-.1-.2-.2 0-.4 0-.8.1-1.1 0-.1.1-.2.3-.2h.7c.1-1.6.2-3.2.2-4.8h-.6c-.1 0-.2-.1-.2-.2 0-.4 0-.8.1-1.1 0-.1.1-.2.3-.2 1 0 2 .1 3 .2.2 0 .2.1.2.2 0 .4 0 .7-.1 1.1 0 .1-.1.2-.3.2h-.6zm10.2 6.8c0 .1-.1.2-.3.2-.4 0-.9-.1-1.3-.1 0 0-.1 0-.2-.1-1-1.7-2-3.2-3-4.9l-.3 4.5c0 .1-.1.2-.3.2-.4 0-.9-.1-1.3-.1-.1 0-.2-.1-.2-.2.2-2.5.3-4.9.5-7.4 0-.1.1-.2.3-.2.4 0 .9.1 1.3.1 0 0 .2 0 .2.1 1.1 1.7 2 3.2 3.1 4.9l.3-4.5c0-.1.1-.2.3-.2.4 0 .9.1 1.3.1.2 0 .2.1.2.2-.3 2.4-.5 4.9-.6 7.4zM55 331c0 .1-.1.2-.3.2-.5 0-.9-.1-1.4-.1-.2 2-.4 4-.6 6.1 0 .1-.1.2-.3.2-.4 0-.8-.1-1.3-.1-.1 0-.2-.1-.2-.2.2-2 .4-4.1.5-6.1-.5 0-.9-.1-1.4-.1-.1 0-.2-.1-.2-.2 0-.4.1-.7.1-1.1 0-.1.1-.2.3-.2 1.5.1 3 .3 4.5.4.2 0 .2.1.2.2.2.2.2.6.1 1zm5.7 6.2c-.8-.1-1.5-.2-2.3-.2-.1.2-.2.5-.4.7 0 .1-.1.1-.3.1-.5 0-.9-.1-1.4-.1-.2 0-.3-.2-.2-.3 1.2-2.3 2.6-4.9 3.9-7.2.1-.2.4-.1.5 0 .8 2.6 1.5 5.3 2.2 7.9 0 .1-.1.3-.2.2-.5-.1-.9-.1-1.4-.2-.1 0-.2-.1-.2-.2 0-.2-.1-.4-.2-.7zm-1.7-1.6c.5 0 .9.1 1.4.2l-.3-1.2c-.1-.4-.1-.7-.2-1.1-.1.4-.3.7-.4 1-.1.4-.3.8-.5 1.1zm13.8-.6c.1 0 .2.1.2.2l-.6 4.2c0 .1-.1.2-.3.2-.4-.1-.7-.1-1.1-.2-.1 0-.2-.1-.2-.2v-.4c-.6.4-1.3.5-2.1.4-2.2-.3-3.7-2-3.4-4.5.3-2.3 2.3-3.8 4.6-3.5 1.1.1 2.1.8 2.7 1.5 0 .1 0 .2-.1.3-.3.2-.7.5-1 .7-.1.1-.3 0-.3-.1-.4-.5-.9-.8-1.6-.9-1.3-.2-2.4.6-2.6 2.1-.2 1.7.7 2.5 2 2.7.6.1 1.3-.1 1.8-.5 0-.3.1-.6.1-.8-.4-.1-.8-.1-1.1-.2-.1 0-.2-.1-.2-.2.1-.4.1-.8.2-1.1 0-.1.1-.2.3-.2 1 .2 1.9.3 2.7.5zm5.6-.8c-.1.5-.2 1-.2 1.5 1 .1 2 .3 2.9.5.1 0 .2.1.2.2-.1.4-.1.8-.2 1.2 0 .1-.1.2-.3.1-1-.2-2-.3-2.9-.5-.1.5-.2 1-.2 1.5l3.6.6c.1 0 .2.1.2.2-.1.4-.1.8-.2 1.2 0 .1-.1.2-.3.1-1.7-.3-3.4-.5-5-.8-.1 0-.2-.1-.2-.2.4-2.4.7-4.9 1.1-7.3 0-.1.1-.2.3-.2 1.7.3 3.4.5 5 .8.1 0 .2.1.2.2-.1.4-.1.8-.2 1.2 0 .1-.1.2-.3.2-1.1-.2-2.3-.4-3.5-.5z" fill="#fff"/><path class="st0" d="M-12 415.4H1.2s3.2 11.4 11.7 6.3c8.5-5.1 19.9-15.4 41-14.5l-.5 6.6S34.3 409.5 9.2 436c0 0-3.9 4.8-11.7 4.8 0 0-13.2 1.4-13.2-11.7 0 0-.8-6 3.7-13.7zm67.9-2.1l-1.9-.1.4-5.3 1.8.1c.9 0 1.6.8 1.6 1.8l-.2 2c-.1.9-.8 1.6-1.7 1.5z"/><path class="st0" d="M-.1 412.5h-10.6c-.7 0-1.2.5-1.2 1.2v1.1h13v-1.1c0-.7-.5-1.2-1.2-1.2zm-67.5 49.9c4.6-3.9 9.1-8 13.4-12.1.8.2 1.5.4 2.3.6-2 1.9-4 3.9-6 5.8 1 2.1 4.5 2.8 7.1.2 5.7-5.8-2.2-11.4-7.2-6.6-1.2 1.2-1.8 2.3-1.8 2.3-.5-.2-1-.5-1.5-.7 0 0 .6-1.6 2-2.8 6.6-6.2 17 2 10.2 9-3.7 3.7-8.3 2.1-9.7-.6-2.1 1.9-4.2 3.8-6.4 5.7-.7-.3-1.5-.6-2.4-.8zm23-1.4c.4-.4.4-.9.1-1.3-.1-.2-.2-.3-.2-.5-3.3 2.7-7.7 6-9.2 7-.3-.3-.6-.7-.7-1 2.2-1.4 7-5.2 9.3-7.1 0-.1-.1-.2-.1-.3-.6-1.2-.2-2.5 1.4-3.3l.9 1.5c-.6.3-.7.8-.4 1.3.3.6.6 1.2 1 1.8.6 1 .8 1.9-.3 3.1-1.1 1.1-2.2 2.3-3.3 3.4-.8.8-.5 1.2 0 1.3 1.1.2 3.1-.9 5.2-2.4.1 0 .1-.1.2-.1.3.2.6.6.7 1-2.4 1.8-5.2 3.2-7.2 2.8-2-.4-2.3-2.1-.9-3.6 1.2-1.3 2.4-2.4 3.5-3.6z"/><path class="st0" d="M-38.6 465.2l-.3.3c-1.5 1.6-.8 2.6.7 2.9 1.7.3 4.2-.7 6.3-2.3.1 0 .1-.1.2-.1.3.2.7.6.8.9-2.4 1.8-5.5 3.3-8.3 2.8-2.9-.6-3.7-3.1-1.7-5.1 1.1-1.2 2.2-2.3 3.3-3.5 1.3-1.4 3-2.1 4.9-1.8 1.9.3 2.9 2.1 1.2 4-.1.2-.3.3-.4.5-2.3 2.6-5.3 2.3-6.7 1.4zm.9-.9c.8.5 2.4.8 3.9-.8.1-.2.3-.3.4-.5 1.8-2.1-.5-2.9-2.3-.9-.6.7-1.3 1.4-2 2.2z"/><path class="st0" d="M-14.2 468.5c.3.2.7.6.8.9-2.2 2-4.8 3.7-6.9 3.5-2-.3-2.5-1.9-1.3-3.4 1.3-1.6 2.5-3.1 3.8-4.7 1.3-1.8-.6-2.4-6 3-1.1 1.4-2.3 2.7-3.4 4-.8-.1-1.7-.3-2.5-.4 2.1-2.4 4.2-4.9 6.2-7.3 1.4-1.7-.6-2.4-6 2.7-1.2 1.4-2.4 2.7-3.6 4.1-.8-.1-1.6-.3-2.5-.4 2.9-3.2 5.8-6.4 8.5-9.7.8.1 1.6.2 2.4.4l-1.8 2.1c1.8-1.6 3.2-2.1 4.5-2 1.2.2 2.1 1.5 1 2.9 1.8-1.7 3.3-2.4 4.6-2.2 1.3.2 2.2 1.5.9 3.1-1.4 1.8-2.8 3.6-4.2 5.3-.7.8-.4 1.2.1 1.3 1.1.1 3-1.2 4.9-2.9.3-.2.4-.3.5-.3z"/><path class="st0" d="M-8.2 469c.3.2.7.5.8.9-2.2 2-4.7 3.8-6.8 3.6-2-.2-2.6-1.9-1.3-3.4 1.9-2.5 3.8-4.9 5.6-7.4.8.1 1.6.1 2.4.2-1.9 2.7-3.9 5.4-6 8-.7.8-.4 1.2.2 1.3 1.1.1 3-1.2 4.9-3 0-.1.1-.1.2-.2zm1.3-9.9c.8.1 1.3.7 1.3 1.4-.1.7-.7 1.3-1.5 1.2-.8-.1-1.3-.7-1.2-1.4 0-.7.7-1.3 1.4-1.2z"/><path class="st0" d="M3.2 469.8c.3.1.7.5.9.8-2.1 2.1-4.6 4-6.6 3.9-1.6-.1-2.3-1.1-2-2.3-1.3 1-2.9 2-4.2 1.9-1.6-.1-2.1-1.6-.6-3.5 1.8-2.4 3.6-4.9 5.3-7.4.8.1 1.6.1 2.4.2-1.7 2.5-3.5 5-5.3 7.4-.3.5-1 1.3-.4 1.6.5.2 2-.5 3.9-2 1.6-2.3 3.2-4.5 4.7-6.8.8 0 1.6.1 2.4.1-1.8 2.8-3.7 5.5-5.6 8.3-.6.9-.3 1.2.2 1.3 1.1.1 2.9-1.4 4.8-3.2 0-.2.1-.3.1-.3z"/><path class="st0" d="M20.8 470c.3.1.8.5.9.8-2 2.2-4.3 4.3-6.4 4.3-2 0-2.7-1.6-1.7-3.3 1.1-1.7 2.1-3.4 3.2-5.2 1.1-1.9-.9-2.3-5.6 3.7-.9 1.5-1.9 3-2.9 4.4-.8 0-1.7 0-2.5-.1 1.8-2.7 3.5-5.4 5.2-8.1 1.1-1.9-.9-2.3-5.6 3.4l-3 4.5c-.8 0-1.7-.1-2.5-.1 2.5-3.5 4.9-7.1 7.2-10.7.8 0 1.6 0 2.4.1-.5.8-1 1.6-1.5 2.3 1.6-1.8 2.9-2.5 4.2-2.5 1.3 0 2.2 1.2 1.4 2.8 1.6-1.9 3-2.8 4.3-2.8 1.3 0 2.3 1.2 1.3 3-1.1 1.9-2.3 3.9-3.5 5.8-.6.9-.3 1.3.3 1.3 1.1 0 2.8-1.5 4.5-3.5.2 0 .3-.1.3-.1zm12.5-.1c-4.1-.1-4.8-4.5-3.1-7.7 5.1-9.9 17.3-5.7 12.4 5.1-1.1 2.3-3 4.5-5.2 6 2.6 1.9 5.3 4 7.9 3.7 1.2-.1 2.3-.5 3.3-1.6.5.3.9.7 1.4 1 0 0-1.2 2-4.5 2.4-3.5.4-6.8-2.5-9.7-4.6-1.2.6-2.6 1-3.9 1.1-2.3.1-3.6-1-3.6-2.1-.1-1.2 1-2.4 3.2-2.5 1.4-.1 2.7.5 4.2 1.4 2-1.3 3.8-3.5 4.8-5.6 4.3-9.1-4.5-10.8-7.8-4.2-2.1 4-.7 5.7 1 6-.2.5-.3 1.1-.4 1.6zm.5 3.1c-.9-.5-1.8-.8-2.6-.8-.9 0-1.3.4-1.2.7 0 .4.5.7 1.4.6.8 0 1.6-.2 2.4-.5z"/><path class="st0" d="M56.2 467c.3.1.8.4 1 .6-1.7 2.5-3.7 4.8-5.8 5.1-1.6.2-2.5-.7-2.4-1.9-1 1.2-2.4 2.5-3.8 2.6-1.6.2-2.3-1.2-1.3-3.3 1.3-2.7 2.6-5.5 3.9-8.2l2.4-.3c-1.2 2.8-2.5 5.5-3.8 8.3-.3.5-.8 1.4-.1 1.6.5.1 1.8-.9 3.5-2.7 1.1-2.5 2.3-5.1 3.3-7.6l2.4-.3c-1.3 3.1-2.6 6.1-3.9 9.2-.4 1-.1 1.3.4 1.2 1.1-.1 2.6-1.9 4.1-4 0-.2 0-.2.1-.3z"/><path class="st0" d="M67.6 465.1c.3.1.8.3 1.1.6-1.6 2.5-3.5 5-5.6 5.3-1.3.2-2.1-.3-2.4-1.1-1 1.1-2.2 1.9-3.2 2-2 .3-2.9-1.1-2.1-3 .9-2 1.7-4 2.5-6 .7-1.8 2.4-3.1 3.6-3.3 1.5-.3 2.8.9 2.9 1.8.4-.1.9-.2 1.3-.2-.9 2.4-1.8 4.7-2.7 7.1-.4 1 0 1.3.5 1.2 1.1-.2 2.5-2 3.9-4.2.1-.1.1-.2.2-.2zm-10 4.1c-.4 1-.1 1.3.5 1.2 1-.2 2.3-1.4 3.4-3.8.5-1.1.9-2.3 1.3-3.4.8-2.2-1.8-2.3-2.7 0-.9 2-1.7 4-2.5 6z"/><path class="st0" d="M73.5 463.8c.3.1.8.3 1.1.6-1.5 2.6-3.4 5-5.5 5.4-2 .4-3-1-2.3-2.9 1.8-4.7 3.5-9.4 5.1-14.1.8-.2 1.5-.3 2.3-.5-1.6 4.9-3.3 9.9-5.2 14.8-.4 1 0 1.3.5 1.2 1.1-.2 2.5-2 3.8-4.3.1 0 .2-.1.2-.2z"/><path class="st0" d="M79.4 462.5c.4.1.8.3 1.1.6-1.5 2.6-3.3 5.1-5.3 5.6-2 .4-3-1-2.3-2.8C74 463 75 460 76 457.1c.8-.2 1.6-.4 2.3-.5-1 3.2-2.1 6.3-3.2 9.5-.4 1 0 1.3.5 1.2 1.1-.2 2.4-2.1 3.7-4.4 0-.2.1-.3.1-.4zm-1.8-9.9c.8-.2 1.5.2 1.7 1 .2.7-.3 1.4-1 1.6-.8.2-1.5-.2-1.6-1-.3-.7.1-1.4.9-1.6z"/><path class="st0" d="M79.9 454.9c.7-.2 1.4-.3 2.1-.5l1.2-4.2c.8-.2 1.5-.4 2.3-.6l-1.2 4.2c.6-.2 1.3-.3 1.9-.5-.1.4-.3.8-.4 1.2-.6.2-1.3.3-1.9.5-.9 3.2-1.9 6.4-3 9.6-.3 1 0 1.3.6 1.1 1.1-.3 2.4-2.2 3.6-4.5 0-.1.1-.1.1-.2.4 0 .9.3 1.1.5-1.4 2.6-3.2 5.2-5.2 5.7s-3-.9-2.4-2.8c1-3 2-5.9 2.9-8.9-.7.2-1.4.4-2.1.5.1-.3.3-.7.4-1.1z"/><path class="st0" d="M90.4 460.5c.8-2.7 1.5-5.3 2.2-8 .8-.2 1.5-.5 2.3-.7-1.1 4.1-2.2 8.1-3.4 12.2 1.7-1.3 3-3.1 4.3-5.8 0-.1.1-.1.1-.2.4 0 .9.2 1.1.5-1.7 3.6-3.7 5.9-6.1 7.3-.4 1.1-.7 2.3-1.1 3.4-1 3.2-4.8 3.7-5.3 1.5-.4-1.7 1.4-3.4 4.4-5.2.3-.8.5-1.6.8-2.4-.8 1.2-1.9 2.4-3.1 2.7-1.6.4-2.5-.8-1.8-3.1.9-2.9 1.8-5.8 2.6-8.7.8-.2 1.5-.4 2.3-.7-.8 2.9-1.6 5.8-2.5 8.8-.2.5-.6 1.5.1 1.6.5.2 1.7-1.1 3.1-3.2zm-2.7 8.9c.2-.7.4-1.4.7-2.1-1.7 1.2-2.1 2-2 2.5.1.7 1 .6 1.3-.4zm-176.5-44.9l1.5 4.8h5.1l-4.1 3 1.6 4.8-4.1-3-4.1 3 1.6-4.8-4.1-3h5zm206.6 0l1.6 4.8h5l-4 3 1.5 4.8-4.1-3-4 3 1.5-4.8-4.1-3h5.1zm-169.9-2.4v1.2h2.4c.1 0 .2.1.2.2v1c0 .1-.1.2-.2.2h-2.4v1.2h2.9c.1 0 .2.1.2.2v1c0 .1-.1.2-.2.2h-4.1c-.1 0-.2-.1-.2-.2V421c0-.1.1-.2.2-.2h4c.1 0 .2.1.2.2v1c0 .1-.1.2-.2.2h-2.8zm5.1 3.3c0-.1.1-.2.2-.2h1c.1 0 .2.1.2.2 0 .4.3.6.7.6.4 0 .7-.2.7-.6 0-.4-.4-.7-.7-.7-.1 0-.5 0-1-.2-.7-.3-1.1-.9-1.1-1.7 0-1.3 1-2 2.1-2 1.2 0 2.1.8 2.1 1.9 0 .1-.1.2-.2.2h-1c-.1 0-.2-.1-.2-.2 0-.4-.3-.6-.7-.6-.4 0-.7.2-.7.7 0 .4.3.6.7.6 0 0 .5 0 1 .2.7.3 1.1 1 1.1 1.8 0 1.3-1 2-2.1 2-1.1-.1-2.1-.8-2.1-2zm10.1-3.5c0 .1-.1.2-.2.2h-1.1v5c0 .1-.1.2-.2.2h-1c-.1 0-.2-.1-.2-.2v-5h-1.1c-.1 0-.2-.1-.2-.2v-.9c0-.1.1-.2.2-.2h3.6c.1 0 .2.1.2.2v.9zm3.3-1.1c1.6 0 3.8.4 3.8 3.2 0 2.8-2.2 3.2-3.8 3.2h-1c-.1 0-.2-.1-.2-.2v-6.1c0-.1.1-.2.2-.2h1zm.2 5.1c.7 0 2.2-.1 2.2-1.9 0-1.4-.9-1.9-2.2-1.9v3.8zm7.1.7c0 .4-.3.7-.7.7-.4 0-.7-.3-.7-.7 0-.4.3-.7.7-.7.3 0 .7.3.7.7zm88.8.5c0 .1-.1.2-.2.2h-1c-.1 0-.2-.1-.2-.2v-4.7c-.1 0-.3.1-.5.2l-.2.1c-.1 0-.2 0-.2-.1l-.3-.7c0-.1 0-.2.1-.2.5-.3 1-.5 1.4-.8h.9c.1 0 .2.1.2.2v6zm6-4.4c0 .2 0 .4-.1.7l-1.3 3.8c0 .1-.1.1-.2.1h-1.1c-.1 0-.2-.1-.2-.2l.9-2.4h-.2c-1.1 0-1.8-1-1.8-1.9 0-1.1.9-1.9 2-1.9 1.3-.2 2 .7 2 1.8zm-1.3-.1c0-.4-.3-.7-.6-.7s-.6.3-.6.7c0 .4.3.7.6.7s.6-.3.6-.7zm3.4 2.8c0-.1.1-.2.2-.2h1c.1 0 .2.1.2.2 0 .4.3.6.6.6.4 0 .7-.4.7-.8 0-.5-.2-.9-.7-.9h-1.7c-.1 0-.2-.1-.2-.2v-3.2c0-.1.1-.2.2-.2h3.3c.1 0 .2.1.2.2v1c0 .1-.1.2-.2.2H72v1h.5c1.4 0 2.1.9 2.1 2.2 0 1.3-1 2-2.1 2s-1.9-.7-1.9-1.9zm9.8-2.7c0 .2 0 .4-.1.7l-1.3 3.8c0 .1-.1.1-.2.1h-1.1c-.1 0-.2-.1-.2-.2l.9-2.4h-.2c-1.1 0-1.8-1-1.8-1.9 0-1.1.9-1.9 2-1.9 1.2-.2 2 .7 2 1.8zm-1.3-.1c0-.4-.3-.7-.6-.7s-.6.3-.6.7c0 .4.3.7.6.7s.6-.3.6-.7z"/></svg>