<svg version="1.1" id="Layer_1" xmlns="http://www.w3.org/2000/svg" x="0" y="0" viewBox="0 0 190.3 56.5" xml:space="preserve"><style>.st0{fill-rule:evenodd;clip-rule:evenodd}</style><path class="st0" d="M68.1 37.3c-1.4 1.4-2.2 3-2 4.8.2 3.1 3.7 4.4 6 5.1 8 1 15.3-2.8 21-9.4.4-.1.6.2.9.5-1.4 2.7-4.5 4.9-7 6.8-3 1.9-6.6 3.4-10.3 3.7-1.1.1-2.2.1-3.4 0-1.2-.1-2.3-.4-3.5-.8-2.5-.9-5.5-3.2-5.5-6.2.2-1.6.5-3.1 1.6-4.2l1.4-1.6c4.7-4.1 10.6-6.1 16.1-7.5-1.3-.8-3.2-1.4-3.6-3.1 0-5.3 5.5-7 9.2-9.2 8.2-3.8 18-5 27-4.5 1.8.5 3.5.6 4.7 2.3.4 2.6-2.8 4.1-4.4 5.7-6.8 4.7-15.2 7.7-24 6.8-1.1-.5-2.2-.9-2.5-2.2-.2-1.6 1.4-2.9 2.7-3.4 1.9-1.1 4.4-.2 6.2-.7.2.2.6.5.4.8l-.5.6c-2.6.2-5.5-.1-7.2 1.8-.4 1.3 1.1 1.5 1.8 1.8 8.5.4 19.4-2.8 26-10.1.1-1-1-1.4-1.7-1.6-12.8-.9-25.6.9-35.2 8.9-.8.9-1.2 2.3-.6 3.4 3.5 3.1 6.7 1 10.7 1.4l.3.3-1 .8c-7.6 1.4-15.2 2.7-21.4 7.4l-2.2 1.6zm114.9-.6v.8c-.1.3-.2.6-.4.8-18.3 11-40.6 1.2-60.8 5.7-.9.1-.5 2.4-1.7 1.2-.6-.5-.2-1-.2-1.5 4-2.7 8.1-2.3 12.9-2.7 15.4-.2 33.5 5.4 48.1-3.1.5-.4.7-1 .4-1.5-5.8-2.4-11.2-4.7-16.7-7.8-4.1 3-8 7.2-13.3 7.5-.9-.1-1.5-1.1-1.8-1.8-2.1 1.5-4.4 2.4-7.1 2.4-1.9-2.9-5.6 2.2-7-1.7-.1-1.7 1.7-3.1 2.8-3.9-.6 0-1.5-.8-1.8.1-2.5 2.7-5.3 6.2-9 5.2l-.7-1.1c-1.3 1-2.6 2.2-4.4 1.5-1.1-.5-1.4-1.9-.8-2.8 1.7-2.9 4.9-4.9 8.3-4.9.7.8 1.7-.5 2.3.3-.6 2.1-4 3.1-3.7 5.8 1.2.4 2.4-.7 3.5-1.1l5.2-5.5c.8-.2.2.8.7.9 1.6.3 2.9-.6 4.5.3-1.5 1.7-4.6 2.5-5.4 5.1 1.5.4 2.9-.8 4.1-1.2 1.8-3.4 5.5-4.1 8.7-4.5 2.1-4.4 6.6-8.4 11.1-10.1 3.6-4.7 8.6-8.5 14.4-7.6l.3 2.1c-.8 5.9-5.6 10-9.6 14 5.4 3.2 10.4 5.4 16.1 7.7.6.2.9.8 1 1.4zm-8.9-23c-1.2 5.2-5.5 9.4-9.5 12.8-1-.2-1.9-1.1-2.5-1.8 1.5-1.7 3.3-3.8 3.4-6.4-.3-.5-.9-.7-1.4-.7 2.8-2.4 6-5.1 9.8-4.9l.2 1zm-39.3.1c-6.8 2.1-13 6.7-17.2 12.6-2.8 2.9-3.7 7.8-8 8.8.5-1.8 2.3-3.1 2.8-4.8-1.2-2.7-3.7 1.1-4.8-1-2.6 1.8-4 5.7-7.5 6.1.5-2.1 2.2-3.7 3.7-5.4-1.9-.3-4.2-.5-6.1-.4-1.2 1.9-2.7 4.2-4.8 5.2-1 .2-2 1.5-2.9.6.9-1.8 2.6-2.8 3.4-4.5-.4-.6-1 0-1.5 0-3.2-1.5-6.8 0-9.4 2.5-.6.9-1.5 2.3-.5 3.4 2.1 1.1 4.8-.1 6.7-.7.2.5.9 1.1 1.5 1.1 2-.2 3.3-1.1 4.9-2.1 2.4-1 2.8-5.4 5.8-3.9-1.2 1.3-2.1 2.7-2.2 4.5.6 2.2 3.1.6 4.2.5l-.3.8c.1.4.5.5.9.6 2.2-2 3.2-6.9 7.1-6.5-1.1 1.7-3.4 3.5-2 5.5.9.8 1.9-.3 2.7-.2-.2.1-.2.3-.2.5.2.4.7.4 1.1.4 1.9-2.4 2.8-6.4 6.4-6.9.5.2 1 .6 1 1.3-1.4 2.9-3.8 4.9-6.1 7.5-1.5 1.9-4 4.4-2.5 7 1.7.9 3.1.5 5.1.4.8-.2 1.8-.5 1.8-1.4-1.6-.4-4.1.6-5.7.3-.8-.5-.2-1.2-.2-1.9 2.2-3.8 7.2-7 8.9-11.1.6-1.4-.5-2.6-1.3-3.2 6.8-3.8 16.5-5.5 18.7-14.3-.4-2.1-2.4-1-3.5-1.3zm1.7 1.6c-1.1 4.9-6.9 7.2-11 9.2l-7.2 3.4c4.9-6.3 10.6-11.6 18.2-12.6zm25 7.3c-.2-1.4.7-2.8 2-3.3-.4 1.3-.8 2.5-2 3.3zm-1.7 1.6c-2.8 2.5-6 5-8.9 6.8.9-4.6 5.3-7.9 9.1-10-.5.8-.4 2.2-.2 3.2zm3.1 3.4c-3 2.5-6.6 5.7-10.6 6.9-.8-.2-1.1-.8-1.1-1.5 3.3-2.1 6.3-4.9 9.5-7.4.9.6 1.1 1.8 2.2 2zm-33.8 2.6c-1.4 1.9-3.6 4.8-6.1 4.9-.4-1.9 2.2-3.2 3.5-4.1.8-.4 1.7-.6 2.6-.8zm17.6 3.9c-1.3.2-3.2 1.5-4.1.4 1.4-2.7 4-3.7 6.7-3.9.8 2-1.3 2.6-2.6 3.5zM90.4 32c-1.7 2.2-4.8 4.3-7.1 3.7.4-2.1 2.9-3.4 4.9-3.8l2.2.1z"/><path class="st0" d="M69.3 35.8c5.4.4 9.2.6 13.6 4.1.2.9-.9.9-1.4.7-3.9-2.9-9-3.8-14.3-3.1l-2.1.3c-2.4-.3-5.7 1.2-7.5-.7-1.8.3-3.8.2-5.2-1l-1.3-1.6c-2.7 1.4-5.5 4.1-8.8 2.4-1.4.6-3.2 1.2-4.8.6-1.2-1.2-.8-2.5-.3-3.9.2-.5.8-.9.5-1.3-3.5 3.8-8 6.2-13 5.5-2.1-.3-4.1-1.5-5.2-3.3-.2-.8-.7-1.6-.7-2.5L8.1 41c-.4-.1-.7-.4-.8-.7v-.4l14.4-12.5c-1.9-.2-3.6-1.1-4.8-2.5-1.8-2.5-1.4-6.3-.1-8.9 2.8-4.9 8.5-7.4 14-7.7 4.2.5 8.3 1.4 10.9 5 2 2.3 2.1 6.3 1.6 9.1 3.6-.4 8.4-1.2 12 .1 1.9-2.6 4.6-6 7.9-6.2.9.1 2.1.6 2.2 1.7-.4 5-5.1 8.5-8.7 12l-4.1 3.4c-.1.9.8 1.8 1.5 2.1 1.2.3 2.1.1 3.3.3-.1-2.1 1.5-4.1 3.2-5.4 1.4-1.1 3.5-1.1 5.1-.6.7 1.6-.4 3.1-1.2 4.2l-3.7 2.3 5.8-.2 2.7-.3zM36.2 11.2c-5.2-2.1-12-1-16 2.7-2.8 2.4-3.6 6.1-2.5 9.5 1.1 2.1 3.7 2.3 5.7 2.5l13-10.9 1.4-.1.3 1-11.7 9.7c5.4-.5 9.9-1.6 15-2.8.5-1.9 1-4.5.2-6.5-1.2-2.5-3.4-3.7-5.4-5.1zM63.4 18c-3.1.2-5.2 3.1-7 5.5l.6.6c.2.8 1.6 1.9.3 2.7-1.4.6-1.2-1.3-2-1.7-1.1 1.9-2.4 4.1-2.8 6.4 4.2-3.9 9.8-7.5 11.3-13l-.4-.5zm-20.7 6.4c-1.4 2.7-2.7 5.4-4.7 7.8 1.3-1.8 3-2.9 4.8-3.7 1.7-.5 4.2 0 5.5 1.6-1.1 1.6-2.5-.2-3.9 0-1.8.4-3.6 1.2-4.8 2.8-.2 1.1-1.9 2.1-1 3.4 4.1.5 4.9-4.4 8.2-5.2.2.3.6.5.7.9-.9 1.2-3.1 2.3-3.7 4.1 2.7 0 4.7-1.8 6.8-3.1-.2-3.4 1.7-6.2 3.4-9-3.6-1.2-7.8-.5-11.3.4zm-2.1.2l-7.9 1.9c-3.9 1.6-9.5-.8-12.1 4.1-.4 1.8.5 3 1.2 4.2 1.5 1.1 3.2 1.9 5.2 1.6 6.3-.5 11.4-6.3 13.6-11.8zm18.5 10.6c1.8-.7 4.7-1.6 5.1-4.2-2.3-.4-4.6 2-5.1 4.2z"/></svg>