<?xml version="1.0" encoding="UTF-8"?>
<svg xmlns="http://www.w3.org/2000/svg" xmlns:xlink="http://www.w3.org/1999/xlink" viewBox="0 0 1130.73 817.62">
  <defs>
    <style>
      .cls-1 {
        letter-spacing: 1.66em;
      }

      .cls-2 {
        letter-spacing: -.01em;
      }

      .cls-3 {
        fill: #f9a51a;
      }

      .cls-3, .cls-4, .cls-5, .cls-6, .cls-7, .cls-8, .cls-9, .cls-10 {
        stroke-width: 0px;
      }

      .cls-11 {
        letter-spacing: -.02em;
      }

      .cls-12 {
        letter-spacing: -.01em;
      }

      .cls-13 {
        letter-spacing: -.08em;
      }

      .cls-14 {
        letter-spacing: -.08em;
      }

      .cls-15 {
        letter-spacing: 0em;
      }

      .cls-16 {
        letter-spacing: -.02em;
      }

      .cls-17 {
        letter-spacing: -.02em;
      }

      .cls-18 {
        letter-spacing: -.03em;
      }

      .cls-19 {
        letter-spacing: -.03em;
      }

      .cls-20 {
        letter-spacing: -.03em;
      }

      .cls-21 {
        letter-spacing: 0em;
      }

      .cls-22 {
        letter-spacing: -.01em;
      }

      .cls-23 {
        letter-spacing: -.01em;
      }

      .cls-24 {
        font-family: Gridstar-Regular, Gridstar;
        font-size: 24px;
      }

      .cls-24, .cls-25, .cls-4, .cls-26 {
        fill: #000;
      }

      .cls-27 {
        letter-spacing: .01em;
      }

      .cls-28 {
        letter-spacing: -.02em;
      }

      .cls-29 {
        fill: #808285;
      }

      .cls-29, .cls-26, .cls-30, .cls-31, .cls-32, .cls-33 {
        font-family: Manrope-Medium, Manrope;
        font-weight: 500;
      }

      .cls-34 {
        letter-spacing: 0em;
      }

      .cls-25, .cls-26, .cls-35 {
        font-size: 12px;
      }

      .cls-36 {
        letter-spacing: 0em;
      }

      .cls-37 {
        font-family: Manrope-Bold, Manrope;
        font-weight: 700;
      }

      .cls-38 {
        letter-spacing: 0em;
      }

      .cls-39 {
        letter-spacing: 0em;
      }

      .cls-40 {
        letter-spacing: 0em;
      }

      .cls-5 {
        fill: url(#linear-gradient-5);
      }

      .cls-5, .cls-6, .cls-7, .cls-8, .cls-9 {
        mix-blend-mode: multiply;
        opacity: .55;
      }

      .cls-6 {
        fill: url(#linear-gradient-3);
      }

      .cls-7 {
        fill: url(#linear-gradient-2);
      }

      .cls-8 {
        fill: url(#linear-gradient-4);
      }

      .cls-41 {
        letter-spacing: -.02em;
      }

      .cls-42 {
        letter-spacing: -.02em;
      }

      .cls-43 {
        letter-spacing: -.05em;
      }

      .cls-44, .cls-31 {
        letter-spacing: -.02em;
      }

      .cls-45 {
        letter-spacing: 0em;
      }

      .cls-46 {
        letter-spacing: -.02em;
      }

      .cls-47 {
        isolation: isolate;
      }

      .cls-48 {
        letter-spacing: 0em;
      }

      .cls-49 {
        letter-spacing: 0em;
      }

      .cls-9 {
        fill: url(#linear-gradient);
      }

      .cls-50 {
        letter-spacing: -.02em;
      }

      .cls-51 {
        letter-spacing: -.02em;
      }

      .cls-52, .cls-32 {
        letter-spacing: -.02em;
      }

      .cls-10 {
        fill: #fff;
      }

      .cls-53, .cls-33 {
        letter-spacing: 0em;
      }

      .cls-54 {
        letter-spacing: 0em;
      }

      .cls-55 {
        letter-spacing: 3.04em;
      }

      .cls-56 {
        font-size: 11px;
      }

      .cls-57 {
        letter-spacing: 0em;
      }
    </style>
    <linearGradient id="linear-gradient" x1="790.25" y1="704.72" x2="790.25" y2="449.41" gradientTransform="translate(-767.49 473.12) rotate(-45)" gradientUnits="userSpaceOnUse">
      <stop offset="0" stop-color="#fff"/>
      <stop offset="1" stop-color="#ab4d4d"/>
    </linearGradient>
    <linearGradient id="linear-gradient-2" x1="1040.63" y1="955.1" x2="1040.63" y2="699.79" xlink:href="#linear-gradient"/>
    <linearGradient id="linear-gradient-3" x1="1291.01" y1="1205.47" x2="1291.01" y2="950.17" xlink:href="#linear-gradient"/>
    <linearGradient id="linear-gradient-4" x1="889.44" y1="855.91" x2="889.44" y2="600.6" xlink:href="#linear-gradient"/>
    <linearGradient id="linear-gradient-5" x1="1139.82" y1="1106.29" x2="1139.82" y2="850.98" xlink:href="#linear-gradient"/>
  </defs>
  <g class="cls-47">
    <g id="Layer_1" data-name="Layer 1">
      <g>
        <g>
          <g>
            <path class="cls-9" d="M283.61,310.01c25.92,25.92,25.32,68.58-1.37,95.26-26.69,26.69-69.34,27.3-95.26,1.37-8.55-8.55-11.97-11.97-20.52-20.52-25.92-25.92-25.32-68.58,1.37-95.26,26.69-26.69,69.34-27.3,95.26-1.37,8.55,8.55,11.97,11.97,20.52,20.52Z"/>
            <path class="cls-7" d="M637.69,310.01c25.92,25.92,25.32,68.58-1.37,95.26-26.69,26.69-69.34,27.3-95.26,1.37-8.55-8.55-11.97-11.97-20.52-20.52-25.92-25.92-25.32-68.58,1.37-95.26,26.69-26.69,69.34-27.3,95.26-1.37,8.55,8.55,11.97,11.97,20.52,20.52Z"/>
            <path class="cls-6" d="M991.77,310.01c25.92,25.92,25.32,68.58-1.37,95.26-26.69,26.69-69.34,27.3-95.26,1.37-8.55-8.55-11.97-11.97-20.52-20.52-25.92-25.92-25.32-68.58,1.37-95.26,26.69-26.69,69.34-27.3,95.26-1.37,8.55,8.55,11.97,11.97,20.52,20.52Z"/>
            <path class="cls-8" d="M460.65,346.78c25.92,25.92,25.32,68.58-1.37,95.26-26.69,26.69-69.34,27.3-95.26,1.37-8.55-8.55-11.97-11.97-20.52-20.52-25.92-25.92-25.32-68.58,1.37-95.26,26.69-26.69,69.34-27.3,95.26-1.37,8.55,8.55,11.97,11.97,20.52,20.52Z"/>
            <path class="cls-5" d="M814.73,346.78c25.92,25.92,25.32,68.58-1.37,95.26-26.69,26.69-69.34,27.3-95.26,1.37-8.55-8.55-11.97-11.97-20.52-20.52-25.92-25.92-25.32-68.58,1.37-95.26,26.69-26.69,69.34-27.3,95.26-1.37,8.55,8.55,11.97,11.97,20.52,20.52Z"/>
          </g>
          <ellipse class="cls-3" cx="391.23" cy="371.2" rx="69.22" ry="67.25"/>
          <ellipse class="cls-3" cx="214.17" cy="334.43" rx="69.22" ry="67.25"/>
          <ellipse class="cls-3" cx="568.29" cy="334.43" rx="69.22" ry="67.25"/>
          <ellipse class="cls-3" cx="745.36" cy="371.2" rx="69.22" ry="67.25"/>
          <path class="cls-3" d="M128.87,545.7c-.43-.41-.64-.94-.64-1.57v-53.38l-16.29,12.2c-.46.38-.95.57-1.47.57-.59,0-1.14-.32-1.67-.95l-2.55-3.15c-.33-.44-.49-.89-.49-1.33,0-.76.33-1.37.98-1.81l21.39-16.01c.72-.44,1.57-.67,2.55-.67h5c.65,0,1.19.21,1.62.62.43.41.64.94.64,1.57v62.34c0,.64-.21,1.16-.64,1.57-.42.41-.96.62-1.62.62h-5.2c-.65,0-1.19-.21-1.62-.62Z"/>
          <path class="cls-3" d="M285.72,226.09c-.43-.41-.64-.94-.64-1.57v-3.05c0-1.46.82-2.86,2.45-4.19l20.8-20.21c5.04-4.07,8.5-7.39,10.4-9.96,1.9-2.57,2.84-5.29,2.84-8.15,0-3.68-1.06-6.58-3.19-8.67-2.13-2.1-5.22-3.15-9.27-3.15-3.79,0-6.84,1.1-9.12,3.29-2.29,2.19-3.7,5.1-4.22,8.72-.13.76-.44,1.32-.93,1.67-.49.35-1.03.52-1.62.52h-5.1c-.59,0-1.08-.17-1.47-.52-.39-.35-.59-.78-.59-1.29.13-3.43,1.08-6.72,2.84-9.87,1.77-3.15,4.37-5.72,7.8-7.72,3.43-2,7.57-3,12.41-3,7.39,0,12.97,1.86,16.73,5.58,3.76,3.72,5.64,8.44,5.64,14.16,0,4-1.03,7.61-3.09,10.82-2.06,3.21-5.25,6.66-9.57,10.34l-18.84,18.59h30.61c.72,0,1.29.21,1.72.62.42.41.64.94.64,1.57v3.91c0,.64-.23,1.16-.69,1.57-.46.41-1.02.62-1.67.62h-43.27c-.65,0-1.19-.21-1.62-.62Z"/>
          <path class="cls-3" d="M661.81,226.09c-.43-.41-.64-.94-.64-1.57v-13.73h-31.79c-.65,0-1.19-.21-1.62-.62-.43-.41-.64-.94-.64-1.57v-3.81c0-.95.36-1.91,1.08-2.86l29.43-40.32c.33-.51.82-.91,1.47-1.19.65-.29,1.37-.43,2.16-.43h7.06c.65,0,1.19.21,1.62.62.42.41.64.94.64,1.57v40.32h8.83c.65,0,1.21.21,1.67.62.46.41.69.94.69,1.57v3.91c0,.64-.21,1.16-.64,1.57-.43.41-.97.62-1.62.62h-8.93v13.73c0,.64-.21,1.16-.64,1.57-.43.41-.97.62-1.62.62h-4.9c-.65,0-1.19-.21-1.62-.62ZM661.27,202.69v-32.7l-23.64,32.7h23.64Z"/>
          <path class="cls-3" d="M473.91,544.84c-3.76-1.62-6.61-3.73-8.54-6.34-1.93-2.6-2.96-5.34-3.09-8.2,0-.57.2-1.03.59-1.38.39-.35.88-.53,1.47-.53h4.81c1.37,0,2.29.7,2.75,2.1.85,3.18,2.68,5.42,5.49,6.72,2.81,1.3,6.11,1.95,9.91,1.95,4.64,0,8.34-1.06,11.09-3.19,2.75-2.13,4.12-5.19,4.12-9.2,0-7.69-4.81-11.53-14.42-11.53h-9.32c-.65,0-1.19-.21-1.62-.62-.43-.41-.64-.94-.64-1.57v-2.57c0-.89.36-1.75,1.08-2.57l19.03-20.21h-28.94c-.65,0-1.19-.21-1.62-.62-.43-.41-.64-.94-.64-1.57v-3.62c0-.63.21-1.17.64-1.62.42-.44.96-.67,1.62-.67h39.15c.72,0,1.29.21,1.72.62.43.41.64.97.64,1.67v3.43c0,.76-.36,1.49-1.08,2.19l-18.94,20.49,1.57.1c6.67.19,11.94,1.88,15.8,5.05,3.86,3.18,5.79,7.82,5.79,13.92,0,4.13-1.08,7.72-3.24,10.77-2.16,3.05-5.13,5.39-8.93,7.01-3.79,1.62-8.08,2.43-12.85,2.43-5.17,0-9.63-.81-13.39-2.43Z"/>
          <ellipse class="cls-3" cx="922.42" cy="334.43" rx="69.22" ry="67.25"/>
          <path class="cls-3" d="M823.55,544.7c-3.6-1.72-6.36-3.97-8.29-6.77-1.93-2.8-2.96-5.78-3.09-8.96v-.19c0-.51.2-.92.59-1.24.39-.32.85-.48,1.37-.48h5.3c1.37,0,2.26.7,2.65,2.1.92,3.37,2.68,5.88,5.3,7.53,2.62,1.65,5.62,2.48,9.03,2.48,4.38,0,8.03-1.29,10.94-3.86,2.91-2.57,4.37-6.15,4.37-10.72,0-4.13-1.46-7.47-4.37-10.01-2.91-2.54-6.56-3.81-10.94-3.81-2.35,0-4.25.3-5.69.91-1.44.6-2.88,1.45-4.32,2.52-.78.57-1.46,1-2.01,1.29-.56.29-1.16.43-1.81.43h-5.1c-.59,0-1.11-.21-1.57-.62-.46-.41-.65-.91-.59-1.48l3.14-31.84c.06-.76.31-1.35.74-1.76.42-.41,1-.62,1.72-.62h34.24c.65,0,1.19.21,1.62.62.42.41.64.94.64,1.57v3.72c0,.64-.21,1.16-.64,1.57-.43.41-.97.62-1.62.62h-28.25l-1.86,18.78c3.53-2.16,7.78-3.24,12.75-3.24,4.32,0,8.29.86,11.92,2.57,3.63,1.72,6.51,4.19,8.63,7.43,2.12,3.24,3.19,7.05,3.19,11.44,0,4.7-1.06,8.75-3.19,12.15-2.13,3.4-5.09,5.99-8.88,7.77-3.79,1.78-8.14,2.67-13.05,2.67s-9.26-.86-12.85-2.57Z"/>
          <g>
            <path class="cls-4" d="M1017.02,425.71c-.67,0-1.23-.54-1.24-1.22l-.02-1.24c-.01-.68.53-1.24,1.22-1.26.71,0,1.25.53,1.26,1.22l.02,1.24c.01.68-.53,1.24-1.22,1.26h-.02Z"/>
            <path class="cls-4" d="M751.39,457.03c-.66,0-1.21-.53-1.24-1.2-.02-.68.51-1.25,1.2-1.28.82-.03,1.63-.06,2.44-.11.65-.06,1.27.48,1.31,1.16.04.68-.48,1.27-1.16,1.31-.83.05-1.66.09-2.5.11-.01,0-.03,0-.04,0ZM394.87,457.03c-.66,0-1.21-.53-1.24-1.19-.02-.68.51-1.25,1.19-1.28.81-.03,1.63-.06,2.44-.11.69-.05,1.27.48,1.31,1.16.04.68-.48,1.27-1.16,1.31-.83.05-1.66.09-2.5.12-.01,0-.03,0-.04,0ZM388.69,457.03c-.88-.03-1.71-.07-2.54-.12-.68-.04-1.2-.63-1.16-1.31.04-.68.62-1.21,1.31-1.16.81.05,1.62.09,2.44.11.68.02,1.22.59,1.2,1.28-.02.67-.57,1.2-1.24,1.2ZM745.21,457.02c-.88-.03-1.71-.07-2.55-.12-.68-.04-1.2-.63-1.16-1.31.04-.68.63-1.2,1.31-1.16.81.05,1.62.09,2.44.11.68.02,1.22.59,1.19,1.28-.02.67-.57,1.19-1.23,1.19ZM760,456.35c-.61,0-1.15-.46-1.23-1.08-.09-.68.39-1.3,1.07-1.38.81-.1,1.61-.22,2.41-.34.68-.1,1.31.36,1.41,1.03.1.67-.36,1.31-1.03,1.41-.82.13-1.65.24-2.48.35-.05,0-.11,0-.16,0ZM380.08,456.34c-.05,0-.11,0-.16,0-.83-.11-1.66-.22-2.48-.35-.68-.1-1.14-.74-1.03-1.41.1-.68.74-1.13,1.41-1.03.8.12,1.61.24,2.41.34.68.09,1.16.71,1.07,1.38-.08.62-.61,1.08-1.23,1.08ZM403.48,456.34c-.61,0-1.15-.46-1.22-1.08-.09-.68.39-1.3,1.07-1.38.81-.1,1.61-.22,2.41-.34.68-.1,1.31.36,1.41,1.03.1.67-.36,1.31-1.03,1.41-.82.13-1.65.24-2.48.35-.05,0-.11.01-.16.01ZM736.59,456.33c-.05,0-.11,0-.16-.01-.83-.11-1.66-.22-2.48-.35-.67-.11-1.14-.74-1.03-1.41.11-.67.74-1.14,1.41-1.03.8.13,1.61.24,2.41.34.68.09,1.16.71,1.07,1.38-.08.62-.61,1.08-1.22,1.08ZM768.52,454.86c-.57,0-1.08-.39-1.21-.97-.15-.67.27-1.33.94-1.48.8-.18,1.59-.37,2.37-.57.66-.17,1.33.23,1.5.9.17.66-.23,1.33-.9,1.5-.81.2-1.62.4-2.44.58-.09.02-.18.03-.27.03ZM371.56,454.84c-.09,0-.18,0-.27-.03-.82-.18-1.63-.38-2.44-.58-.66-.17-1.06-.84-.89-1.5.17-.66.84-1.06,1.5-.89.78.2,1.57.39,2.37.57.67.15,1.08.81.94,1.48-.13.58-.64.97-1.21.97ZM412,454.84c-.57,0-1.08-.39-1.21-.96-.15-.67.27-1.33.93-1.48.79-.18,1.59-.37,2.37-.57.66-.17,1.33.23,1.5.89.17.66-.23,1.33-.89,1.5-.81.21-1.62.4-2.44.58-.09.02-.18.03-.27.03ZM728.08,454.82c-.09,0-.18,0-.27-.03-.82-.18-1.63-.38-2.44-.59-.66-.17-1.06-.84-.89-1.5.17-.66.84-1.06,1.5-.89.79.2,1.58.39,2.37.57.67.15,1.08.81.93,1.48-.13.57-.64.96-1.21.96ZM776.86,452.56c-.52,0-1-.33-1.17-.85-.21-.65.14-1.35.79-1.56.77-.25,1.54-.52,2.31-.79.64-.23,1.35.1,1.58.75.23.64-.1,1.35-.75,1.58-.78.28-1.57.55-2.37.81-.13.04-.26.06-.39.06ZM363.22,452.54c-.13,0-.26-.02-.39-.06-.8-.26-1.59-.53-2.37-.81-.64-.23-.98-.94-.75-1.58.23-.64.94-.98,1.58-.75.76.27,1.53.54,2.3.79.65.21,1,.91.79,1.56-.17.52-.66.85-1.17.85ZM420.33,452.54c-.52,0-1-.33-1.17-.85-.21-.65.14-1.35.79-1.56.77-.26,1.54-.52,2.31-.79.64-.23,1.35.1,1.58.75.23.64-.1,1.35-.75,1.58-.78.28-1.57.55-2.37.81-.13.04-.26.06-.39.06ZM719.75,452.51c-.13,0-.26-.02-.39-.06-.79-.26-1.58-.53-2.37-.82-.64-.23-.98-.94-.74-1.58.23-.64.94-.97,1.58-.74.76.28,1.53.54,2.3.79.65.21,1,.91.79,1.56-.17.52-.66.85-1.17.85ZM784.94,449.48c-.48,0-.93-.28-1.13-.74-.27-.63.01-1.35.64-1.63.75-.33,1.49-.66,2.22-1.01.62-.29,1.35-.03,1.65.59.29.62.03,1.35-.59,1.65-.75.35-1.52.7-2.28,1.04-.16.07-.33.1-.5.1ZM355.15,449.45c-.17,0-.33-.03-.5-.1-.77-.34-1.53-.68-2.29-1.04-.62-.29-.88-1.03-.59-1.65.29-.62,1.03-.88,1.65-.59.74.35,1.48.69,2.23,1.01.63.27.91,1,.64,1.63-.2.46-.66.74-1.13.74ZM428.41,449.45c-.48,0-.93-.28-1.13-.74-.27-.63,0-1.35.63-1.63.75-.33,1.49-.66,2.22-1.01.62-.29,1.35-.03,1.65.59.29.62.03,1.35-.59,1.65-.75.36-1.51.7-2.28,1.04-.16.07-.33.1-.5.1ZM711.67,449.42c-.17,0-.33-.03-.5-.11-.77-.34-1.53-.69-2.29-1.04-.62-.29-.88-1.03-.59-1.65.29-.62,1.03-.88,1.65-.59.74.35,1.48.69,2.22,1.01.63.27.91,1,.64,1.63-.2.46-.66.74-1.13.74ZM792.68,445.64c-.43,0-.85-.23-1.08-.63-.33-.6-.12-1.35.48-1.68.71-.39,1.41-.8,2.11-1.21.59-.35,1.35-.15,1.69.43.35.59.16,1.35-.43,1.69-.72.43-1.44.84-2.17,1.25-.19.11-.4.16-.6.16ZM436.15,445.6c-.43,0-.85-.23-1.08-.63-.33-.6-.12-1.35.48-1.68.71-.4,1.41-.8,2.11-1.22.59-.35,1.35-.16,1.69.43.35.59.16,1.35-.43,1.69-.71.42-1.44.84-2.16,1.25-.19.11-.4.16-.6.16ZM347.39,445.6c-.2,0-.41-.05-.6-.16-.73-.41-1.46-.83-2.18-1.26-.59-.35-.78-1.11-.43-1.7.35-.59,1.11-.78,1.7-.43.7.42,1.4.82,2.12,1.22.6.33.81,1.09.48,1.68-.23.41-.65.63-1.08.63ZM703.92,445.56c-.2,0-.41-.05-.6-.16-.73-.41-1.46-.83-2.17-1.26-.59-.35-.78-1.11-.43-1.7.35-.59,1.11-.78,1.7-.43.7.42,1.4.82,2.11,1.22.6.33.81,1.09.48,1.68-.23.41-.65.63-1.08.63ZM800.01,441.08c-.39,0-.78-.19-1.02-.53-.39-.56-.25-1.33.31-1.72.67-.46,1.33-.93,1.98-1.41.55-.4,1.32-.28,1.73.27.4.55.28,1.32-.27,1.73-.67.49-1.35.98-2.04,1.45-.21.15-.46.22-.7.22ZM443.47,441.03c-.39,0-.78-.19-1.02-.53-.39-.56-.25-1.33.31-1.72.67-.46,1.33-.93,1.98-1.41.55-.4,1.32-.28,1.73.27.4.55.29,1.32-.26,1.73-.67.49-1.35.98-2.04,1.45-.21.15-.46.22-.7.22ZM340.05,441.01c-.24,0-.49-.07-.7-.22-.69-.48-1.37-.96-2.04-1.46-.55-.4-.67-1.18-.26-1.73.4-.55,1.18-.67,1.73-.26.66.48,1.32.96,1.99,1.42.56.39.7,1.16.31,1.72-.24.35-.63.53-1.02.53ZM696.58,440.97c-.24,0-.49-.07-.7-.22-.69-.48-1.37-.96-2.04-1.46-.55-.41-.67-1.18-.26-1.73.4-.55,1.18-.67,1.73-.26.66.48,1.32.96,1.99,1.42.56.39.7,1.16.31,1.72-.24.35-.63.53-1.02.53ZM806.86,435.83c-.35,0-.7-.15-.94-.44-.44-.52-.38-1.3.15-1.74.62-.52,1.23-1.06,1.84-1.6.51-.46,1.29-.41,1.75.1.46.51.41,1.29-.1,1.75-.62.56-1.25,1.1-1.89,1.64-.23.2-.52.29-.8.29ZM450.33,435.78c-.35,0-.7-.15-.94-.44-.44-.52-.38-1.3.14-1.74.62-.52,1.23-1.06,1.83-1.6.51-.46,1.29-.41,1.75.1.46.51.41,1.29-.1,1.75-.62.56-1.25,1.1-1.89,1.64-.23.2-.52.29-.8.29ZM333.18,435.74c-.28,0-.57-.1-.8-.29-.64-.54-1.27-1.09-1.89-1.65-.51-.46-.55-1.24-.09-1.75.46-.51,1.24-.55,1.75-.09.6.54,1.22,1.08,1.84,1.6.52.44.59,1.22.14,1.74-.24.29-.59.44-.94.44ZM689.72,435.69c-.28,0-.57-.1-.8-.29-.64-.54-1.27-1.09-1.89-1.65-.51-.46-.55-1.24-.09-1.75.46-.51,1.24-.55,1.75-.09.6.54,1.22,1.08,1.84,1.61.52.44.58,1.22.14,1.74-.24.29-.59.44-.94.44ZM813.18,429.94c-.31,0-.62-.12-.86-.35-.49-.48-.5-1.26-.02-1.75.57-.58,1.12-1.17,1.67-1.77.46-.5,1.24-.53,1.75-.07.5.46.54,1.24.07,1.75-.56.61-1.14,1.22-1.72,1.82-.24.25-.56.37-.89.37ZM456.64,429.88c-.31,0-.62-.12-.86-.35-.49-.48-.5-1.26-.03-1.75.57-.58,1.12-1.17,1.67-1.77.46-.5,1.24-.54,1.75-.07.5.46.54,1.24.07,1.75-.56.61-1.14,1.22-1.72,1.82-.24.25-.57.38-.89.38ZM326.87,429.83c-.32,0-.65-.13-.89-.38-.58-.6-1.15-1.21-1.72-1.82-.46-.5-.43-1.29.07-1.75.5-.46,1.29-.43,1.75.07.55.6,1.11,1.19,1.67,1.78.48.49.46,1.27-.03,1.75-.24.23-.55.35-.86.35ZM683.41,429.78c-.32,0-.65-.13-.89-.38-.58-.6-1.15-1.21-1.72-1.83-.46-.5-.43-1.29.08-1.75.5-.46,1.29-.43,1.75.08.55.6,1.11,1.19,1.67,1.77.48.49.46,1.27-.03,1.75-.24.23-.55.35-.86.35ZM818.9,423.45c-.27,0-.54-.09-.77-.27-.53-.43-.62-1.2-.2-1.74.51-.64,1-1.28,1.49-1.93.41-.54,1.19-.65,1.73-.25.55.41.66,1.19.25,1.73-.5.67-1.01,1.33-1.53,1.98-.24.31-.6.47-.97.47ZM462.35,423.39c-.27,0-.54-.09-.77-.27-.53-.43-.62-1.2-.2-1.74.51-.64,1-1.28,1.49-1.93.41-.55,1.19-.66,1.73-.25.55.41.66,1.19.25,1.73-.5.67-1.01,1.33-1.53,1.98-.24.31-.6.47-.97.47ZM321.16,423.34c-.36,0-.72-.16-.97-.47-.52-.65-1.03-1.32-1.53-1.99-.41-.55-.3-1.32.25-1.73.55-.41,1.32-.3,1.73.25.49.65.98,1.29,1.49,1.93.43.54.34,1.31-.2,1.74-.23.18-.5.27-.77.27ZM677.71,423.27c-.36,0-.73-.16-.97-.47-.52-.66-1.03-1.32-1.53-1.99-.41-.55-.3-1.32.25-1.73.55-.41,1.32-.3,1.73.25.49.65.98,1.29,1.49,1.93.42.53.34,1.31-.2,1.74-.23.18-.5.27-.77.27ZM123.79,418.89c-.69,0-1.24-.56-1.24-1.24l.02-2.47c0-.68.56-1.23,1.24-1.23.69,0,1.24.56,1.24,1.24l-.02,2.47c0,.68-.56,1.23-1.24,1.23ZM1016.9,418.3c-.67,0-1.23-.54-1.24-1.22l-.04-2.47c-.01-.68.53-1.24,1.22-1.26.72,0,1.24.53,1.26,1.22l.04,2.47c.01.68-.53,1.24-1.22,1.26h-.02ZM823.94,416.44c-.23,0-.46-.06-.67-.2-.57-.37-.74-1.14-.37-1.71.44-.68.87-1.37,1.29-2.07.35-.58,1.11-.77,1.7-.42.58.35.77,1.11.42,1.7-.43.71-.88,1.42-1.33,2.13-.24.37-.63.57-1.04.57ZM467.39,416.37c-.23,0-.46-.06-.67-.2-.57-.37-.74-1.14-.37-1.71.44-.68.87-1.37,1.29-2.07.35-.58,1.11-.77,1.7-.42.58.35.77,1.11.42,1.7-.43.72-.88,1.43-1.33,2.13-.24.37-.63.57-1.04.57ZM316.13,416.31c-.41,0-.8-.2-1.04-.57-.45-.7-.89-1.41-1.32-2.13-.35-.58-.17-1.34.42-1.7.58-.35,1.35-.17,1.7.42.42.69.85,1.38,1.29,2.07.37.57.2,1.34-.37,1.71-.21.13-.44.2-.67.2ZM672.68,416.24c-.41,0-.81-.2-1.04-.57-.45-.7-.89-1.41-1.32-2.13-.35-.58-.16-1.34.42-1.7.58-.35,1.34-.16,1.7.42.42.69.85,1.38,1.29,2.07.37.57.2,1.34-.37,1.71-.21.13-.44.2-.67.2ZM123.85,410.24c-.69,0-1.24-.56-1.24-1.24l.02-2.47c0-.68.56-1.23,1.24-1.23.69,0,1.24.56,1.24,1.24l-.02,2.47c0,.68-.56,1.23-1.24,1.23ZM1016.77,409.65c-.67,0-1.23-.54-1.24-1.22l-.04-2.47c-.01-.68.53-1.24,1.22-1.26.67-.01,1.25.53,1.26,1.22l.04,2.47c.01.68-.53,1.24-1.22,1.26h-.02ZM828.26,408.94c-.19,0-.38-.04-.56-.14-.61-.31-.85-1.06-.54-1.66.37-.72.73-1.45,1.08-2.19.29-.62,1.03-.88,1.65-.59.62.29.88,1.03.59,1.65-.36.76-.73,1.51-1.11,2.25-.22.43-.65.67-1.1.67ZM471.7,408.87c-.19,0-.38-.04-.56-.14-.61-.31-.85-1.05-.54-1.66.37-.72.73-1.45,1.08-2.19.29-.62,1.03-.88,1.65-.59.62.29.88,1.03.59,1.65-.36.76-.73,1.51-1.11,2.25-.22.43-.65.67-1.1.67ZM311.82,408.82c-.45,0-.89-.25-1.1-.68-.38-.74-.75-1.49-1.1-2.25-.29-.62-.03-1.35.59-1.65.62-.29,1.35-.03,1.65.59.35.73.7,1.46,1.07,2.18.31.61.07,1.35-.54,1.66-.18.09-.37.13-.56.13ZM668.38,408.74c-.45,0-.89-.25-1.1-.68-.38-.74-.74-1.49-1.1-2.25-.29-.62-.03-1.35.59-1.65.62-.29,1.35-.03,1.65.59.35.73.7,1.46,1.07,2.18.31.61.07,1.35-.54,1.66-.18.09-.37.13-.56.13ZM123.9,401.59c-.69,0-1.24-.56-1.24-1.24l.02-2.47c0-.68.56-1.23,1.24-1.23.69,0,1.24.56,1.24,1.24l-.02,2.47c0,.68-.56,1.23-1.24,1.23ZM831.81,401.05c-.15,0-.3-.03-.45-.08-.64-.25-.95-.96-.7-1.6.29-.76.58-1.52.85-2.29.23-.64.94-.98,1.58-.75.64.23.98.94.75,1.58-.28.79-.57,1.58-.88,2.36-.19.49-.66.79-1.15.79ZM1016.63,401c-.67,0-1.23-.54-1.24-1.22l-.04-2.47c-.01-.68.53-1.24,1.22-1.26.73,0,1.25.53,1.26,1.22l.04,2.47c.01.68-.53,1.25-1.22,1.26h-.02ZM475.24,400.97c-.15,0-.3-.03-.45-.08-.64-.25-.95-.96-.71-1.6.29-.76.58-1.52.85-2.29.23-.64.94-.98,1.58-.75.64.23.98.93.75,1.58-.28.79-.57,1.58-.87,2.36-.19.49-.66.79-1.15.79ZM308.3,400.93c-.5,0-.96-.3-1.15-.79-.3-.78-.59-1.56-.87-2.34-.23-.64.11-1.35.75-1.58.64-.23,1.35.11,1.58.75.27.76.55,1.52.84,2.28.25.64-.07,1.35-.71,1.6-.15.06-.3.08-.45.08ZM664.87,400.86c-.5,0-.96-.3-1.15-.79-.3-.78-.59-1.56-.87-2.35-.23-.64.11-1.35.75-1.58.65-.23,1.35.11,1.58.76.27.76.55,1.52.84,2.28.25.64-.07,1.35-.71,1.6-.15.06-.3.08-.45.08ZM123.95,392.94c-.69,0-1.24-.56-1.24-1.24l.02-2.47c0-.68.6-1.26,1.24-1.23.68,0,1.23.56,1.23,1.24l-.02,2.47c0,.68-.56,1.23-1.24,1.23ZM834.52,392.83c-.11,0-.22-.01-.33-.04-.66-.18-1.05-.86-.87-1.52.21-.78.42-1.57.61-2.36.16-.66.83-1.07,1.49-.91.66.16,1.07.83.91,1.49-.2.81-.41,1.62-.63,2.43-.15.55-.65.91-1.19.91ZM477.95,392.75c-.11,0-.22-.01-.33-.04-.66-.18-1.05-.86-.87-1.52.21-.78.42-1.57.61-2.36.16-.66.83-1.07,1.49-.91.66.16,1.07.83.91,1.49-.2.81-.41,1.62-.63,2.43-.15.55-.65.91-1.19.91ZM305.6,392.73c-.54,0-1.04-.36-1.19-.91-.22-.81-.43-1.61-.62-2.43-.16-.66.25-1.33.91-1.49.66-.16,1.33.25,1.49.91.19.79.39,1.58.61,2.36.18.66-.21,1.34-.87,1.52-.11.03-.22.04-.33.04ZM662.18,392.65c-.54,0-1.04-.36-1.19-.91-.22-.8-.43-1.61-.62-2.43-.16-.66.25-1.33.91-1.49.66-.16,1.33.25,1.49.91.19.79.39,1.58.6,2.36.18.66-.21,1.34-.87,1.52-.11.03-.22.04-.32.04ZM1016.49,392.34c-.67,0-1.22-.54-1.24-1.22l-.04-2.47c-.01-.68.53-1.25,1.22-1.26.63.03,1.24.53,1.26,1.22l.04,2.47c.01.68-.53,1.25-1.22,1.26h-.02ZM836.38,384.38c-.07,0-.14,0-.2-.02-.67-.11-1.13-.75-1.02-1.42.13-.8.25-1.6.36-2.41.09-.68.72-1.15,1.39-1.06.68.09,1.15.72,1.06,1.39-.11.83-.24,1.66-.37,2.48-.1.61-.62,1.03-1.22,1.03ZM479.8,384.3c-.07,0-.13,0-.2-.02-.67-.11-1.13-.75-1.02-1.42.13-.8.25-1.6.36-2.41.09-.68.72-1.15,1.39-1.06.68.09,1.15.71,1.06,1.39-.11.83-.24,1.66-.37,2.48-.1.61-.62,1.03-1.22,1.03ZM124,384.29c-.69,0-1.24-.56-1.24-1.24l.02-2.47c0-.68.56-1.23,1.24-1.23.69,0,1.24.56,1.24,1.24l-.02,2.47c0,.68-.56,1.23-1.24,1.23ZM303.75,384.29c-.59,0-1.12-.43-1.22-1.03-.14-.82-.26-1.65-.37-2.48-.09-.68.38-1.3,1.06-1.39.67-.08,1.3.38,1.39,1.06.11.81.23,1.61.36,2.41.11.67-.34,1.31-1.02,1.42-.07.01-.14.02-.2.02ZM660.34,384.2c-.6,0-1.12-.43-1.22-1.04-.13-.82-.26-1.65-.37-2.48-.09-.68.38-1.3,1.06-1.39.68-.08,1.3.39,1.39,1.06.11.81.23,1.61.36,2.41.11.67-.35,1.31-1.02,1.42-.07.01-.13.02-.2.02ZM1016.36,383.69c-.67,0-1.23-.54-1.24-1.22l-.04-2.47c-.01-.68.53-1.24,1.22-1.26.71.02,1.24.53,1.26,1.22l.04,2.47c.01.68-.53,1.24-1.22,1.26h-.02ZM837.36,375.79s-.05,0-.08,0c-.68-.04-1.2-.63-1.16-1.31.05-.81.09-1.62.12-2.43.02-.68.58-1.24,1.28-1.19.68.02,1.22.59,1.19,1.28-.03.84-.07,1.67-.12,2.5-.04.65-.58,1.16-1.23,1.16ZM480.77,375.71s-.05,0-.08,0c-.68-.04-1.2-.63-1.16-1.31.05-.81.09-1.62.11-2.43.02-.68.55-1.22,1.28-1.2.68.02,1.22.59,1.2,1.28-.03.84-.07,1.67-.12,2.51-.04.66-.59,1.16-1.23,1.16ZM302.78,375.7c-.65,0-1.19-.51-1.23-1.16-.05-.83-.09-1.67-.12-2.5-.02-.68.51-1.25,1.2-1.28.68-.02,1.25.51,1.28,1.2.03.81.06,1.63.11,2.43.04.68-.48,1.27-1.16,1.31-.03,0-.05,0-.08,0ZM124.06,375.63c-.69,0-1.24-.56-1.24-1.24l.02-2.47c0-.68.56-1.23,1.24-1.23.69,0,1.24.56,1.24,1.24l-.02,2.47c0,.68-.56,1.23-1.24,1.23ZM659.38,375.61c-.65,0-1.19-.51-1.23-1.16-.05-.83-.09-1.67-.12-2.5-.02-.68.51-1.25,1.2-1.27.64-.01,1.25.51,1.27,1.2.03.81.06,1.62.11,2.43.04.68-.48,1.27-1.16,1.31-.03,0-.05,0-.08,0ZM1016.22,375.04c-.67,0-1.22-.54-1.24-1.22l-.04-2.47c-.01-.68.53-1.24,1.22-1.26.72,0,1.25.53,1.26,1.22l.04,2.47c.01.68-.53,1.24-1.22,1.26h-.02ZM837.51,367.15c-.68,0-1.23-.55-1.24-1.23v-2.47c-.02-.68.53-1.24,1.22-1.24.69,0,1.24.55,1.24,1.23v2.47c.02.68-.53,1.24-1.22,1.24h0ZM480.93,367.07c-.68,0-1.24-.55-1.24-1.24v-2.47c0-.68.55-1.24,1.24-1.24s1.24.55,1.24,1.24v2.47c0,.68-.55,1.24-1.24,1.24ZM302.62,367.05c-.68,0-1.24-.55-1.24-1.24v-2.47c0-.68.55-1.24,1.24-1.24s1.24.55,1.24,1.24v2.47c0,.68-.55,1.24-1.24,1.24ZM124.11,366.98c-.69,0-1.24-.56-1.24-1.24l.02-2.47c0-.68.56-1.23,1.24-1.23.69,0,1.24.56,1.24,1.24l-.02,2.47c0,.68-.56,1.23-1.24,1.23ZM659.23,366.97c-.68,0-1.24-.55-1.24-1.24v-2.47c0-.68.55-1.24,1.24-1.24s1.24.55,1.24,1.24v2.47c0,.68-.55,1.24-1.24,1.24ZM1016.09,366.39c-.67,0-1.23-.54-1.24-1.22l-.04-2.47c-.01-.68.53-1.24,1.22-1.26.67,0,1.25.53,1.26,1.22l.04,2.47c.01.68-.53,1.24-1.22,1.26h-.02ZM837.46,358.5c-.68,0-1.23-.55-1.24-1.23v-2.47c-.02-.68.53-1.24,1.22-1.24.69,0,1.24.55,1.24,1.23v2.47c.02.68-.53,1.24-1.22,1.24h0ZM480.93,358.41c-.68,0-1.24-.55-1.24-1.24v-2.47c0-.68.55-1.24,1.24-1.24s1.24.55,1.24,1.24v2.47c0,.68-.55,1.24-1.24,1.24ZM302.62,358.4c-.68,0-1.24-.55-1.24-1.24v-2.47c0-.68.55-1.24,1.24-1.24s1.24.55,1.24,1.24v2.47c0,.68-.55,1.24-1.24,1.24ZM124.16,358.33c-.69,0-1.24-.56-1.24-1.24l.02-2.47c0-.68.56-1.23,1.24-1.23.69,0,1.24.56,1.24,1.24l-.02,2.47c0,.68-.56,1.23-1.24,1.23ZM659.23,358.32c-.68,0-1.24-.55-1.24-1.24v-2.47c0-.68.55-1.24,1.24-1.24s1.24.55,1.24,1.24v2.47c0,.68-.55,1.24-1.24,1.24ZM1015.95,357.74c-.67,0-1.23-.54-1.24-1.22l-.04-2.47c-.01-.68.53-1.24,1.22-1.26.68-.01,1.25.53,1.26,1.22l.04,2.47c.01.68-.53,1.24-1.22,1.26h-.02ZM837.42,349.85c-.68,0-1.23-.55-1.24-1.23v-2.47c-.02-.68.53-1.24,1.22-1.24.69,0,1.24.55,1.24,1.23v2.47c.02.68-.53,1.24-1.22,1.24h0ZM480.93,349.76c-.68,0-1.24-.55-1.24-1.24v-2.47c0-.68.55-1.24,1.24-1.24s1.24.55,1.24,1.24v2.47c0,.68-.55,1.24-1.24,1.24ZM302.62,349.75c-.68,0-1.24-.55-1.24-1.24v-2.47c0-.68.55-1.24,1.24-1.24s1.24.55,1.24,1.24v2.47c0,.68-.55,1.24-1.24,1.24ZM124.22,349.68c-.69,0-1.24-.56-1.24-1.24l.02-2.47c0-.68.56-1.23,1.24-1.23.69,0,1.24.56,1.24,1.24l-.02,2.47c0,.68-.56,1.23-1.24,1.23ZM659.23,349.66c-.68,0-1.24-.55-1.24-1.24v-2.47c0-.68.55-1.24,1.24-1.24s1.24.55,1.24,1.24v2.47c0,.68-.55,1.24-1.24,1.24ZM1015.81,349.09c-.67,0-1.23-.54-1.24-1.22l-.04-2.47c-.01-.68.53-1.25,1.22-1.26.69,0,1.25.54,1.26,1.22l.04,2.47c.01.68-.53,1.24-1.22,1.26h-.02ZM837.37,341.19c-.68,0-1.23-.55-1.24-1.23v-1.92s0-.56,0-.56c0-.68.56-1.23,1.24-1.23.69,0,1.24.56,1.24,1.24v.54s0,1.91,0,1.91c0,.68-.55,1.24-1.23,1.24h0ZM480.93,341.11c-.68,0-1.24-.55-1.24-1.24v-2.48c.01-.68.53-1.26,1.25-1.22.68,0,1.23.57,1.22,1.25v2.46c0,.68-.56,1.24-1.24,1.24ZM302.62,341.09c-.68,0-1.24-.55-1.24-1.24v-2.46c-.01-.68.54-1.24,1.22-1.25.69,0,1.24.55,1.25,1.22v2.48c0,.68-.55,1.24-1.23,1.24ZM124.27,341.03c-.73-.02-1.26-.6-1.24-1.28l.05-1.52c0-.28,0-.6,0-.92,0-.68.56-1.22,1.24-1.22.7,0,1.24.57,1.24,1.25,0,.31,0,.62,0,.94l-.05,1.56c-.02.67-.57,1.19-1.24,1.19ZM659.23,341.01c-.68,0-1.24-.55-1.24-1.24v-2.46c-.01-.68.53-1.24,1.22-1.25.69,0,1.24.54,1.25,1.22v2.49c0,.68-.55,1.24-1.23,1.24ZM1015.68,340.44c-.67,0-1.23-.54-1.24-1.22l-.02-1.17c0-.45,0-.87,0-1.3-.01-.68.53-1.24,1.22-1.26.69,0,1.24.54,1.26,1.22,0,.44,0,.88,0,1.32l.02,1.15c.01.68-.53,1.25-1.22,1.26h-.02ZM837.63,332.55s-.07,0-.1,0c-.68-.05-1.19-.65-1.13-1.33.07-.84.14-1.67.23-2.5.07-.68.68-1.17,1.36-1.1.68.07,1.17.68,1.1,1.36-.09.8-.16,1.61-.23,2.42-.05.65-.59,1.14-1.23,1.14ZM481.22,332.47s-.07,0-.1,0c-.68-.06-1.19-.65-1.13-1.33.07-.84.15-1.67.24-2.5.08-.68.69-1.17,1.37-1.09.68.08,1.17.69,1.09,1.37-.09.8-.17,1.61-.24,2.42-.05.65-.59,1.13-1.23,1.13ZM302.33,332.45c-.64,0-1.18-.49-1.23-1.13-.07-.81-.15-1.62-.24-2.42-.08-.68.41-1.29,1.09-1.37.68-.08,1.29.41,1.37,1.09.09.83.17,1.66.24,2.5.06.68-.45,1.28-1.13,1.33-.03,0-.07,0-.1,0ZM124.62,332.39s-.07,0-.1,0c-.68-.06-1.19-.66-1.13-1.34.07-.84.15-1.67.25-2.49.08-.68.69-1.17,1.37-1.09.68.08,1.17.69,1.09,1.37-.09.8-.17,1.61-.24,2.42-.05.65-.59,1.13-1.23,1.13ZM658.93,332.37c-.64,0-1.18-.49-1.23-1.13-.07-.81-.15-1.62-.24-2.42-.08-.68.41-1.29,1.09-1.37.69-.08,1.29.41,1.37,1.09.09.83.18,1.66.25,2.5.06.68-.45,1.28-1.13,1.34-.04,0-.07,0-.1,0ZM1015.33,331.8c-.63,0-1.17-.48-1.23-1.13-.07-.81-.15-1.62-.25-2.42-.08-.68.41-1.29,1.08-1.37.69-.08,1.29.41,1.37,1.08.1.83.18,1.66.26,2.49.06.68-.44,1.28-1.12,1.34-.04,0-.07,0-.11,0ZM838.75,323.98c-.07,0-.15,0-.22-.02-.67-.12-1.12-.77-.99-1.44.15-.82.31-1.64.49-2.46.14-.67.8-1.09,1.47-.95.67.14,1.09.8.95,1.47-.17.79-.33,1.59-.47,2.39-.11.6-.63,1.01-1.22,1.01ZM482.37,323.9c-.08,0-.15,0-.23-.02-.67-.13-1.11-.77-.99-1.44.15-.82.32-1.64.5-2.46.15-.67.8-1.09,1.47-.94.67.15,1.09.8.94,1.47-.17.79-.33,1.59-.48,2.39-.11.59-.63,1.01-1.21,1.01ZM301.18,323.89c-.58,0-1.1-.41-1.21-1.01-.15-.8-.31-1.59-.48-2.38-.15-.67.28-1.33.94-1.47.67-.15,1.33.28,1.47.94.18.82.34,1.63.5,2.46.13.67-.32,1.32-.99,1.44-.08.01-.15.02-.23.02ZM125.78,323.82c-.08,0-.15,0-.23-.02-.67-.13-1.11-.77-.98-1.44.16-.82.32-1.64.5-2.46.15-.67.8-1.09,1.47-.94.67.15,1.09.81.94,1.47-.17.79-.34,1.59-.49,2.39-.11.59-.63,1.01-1.21,1.01ZM657.76,323.81c-.58,0-1.1-.41-1.21-1.01-.15-.8-.31-1.59-.49-2.38-.15-.67.28-1.33.94-1.47.67-.15,1.33.28,1.47.94.18.82.35,1.63.5,2.46.13.67-.32,1.32-.99,1.44-.08.01-.15.02-.23.02ZM1014.14,323.24c-.58,0-1.1-.41-1.21-1-.15-.8-.32-1.59-.5-2.38-.15-.67.27-1.33.94-1.48.67-.14,1.33.27,1.48.94.18.81.35,1.63.51,2.46.13.67-.31,1.32-.98,1.45-.08.02-.16.02-.23.02ZM840.74,315.57c-.12,0-.23-.02-.35-.05-.66-.19-1.03-.88-.84-1.53.24-.8.48-1.6.74-2.4.21-.65.91-1,1.56-.8.65.21,1.01.91.8,1.56-.25.77-.49,1.55-.72,2.33-.16.54-.65.89-1.19.89ZM484.4,315.5c-.12,0-.23-.02-.35-.05-.65-.19-1.03-.88-.83-1.54.24-.8.49-1.6.75-2.39.21-.65.91-1,1.56-.79.65.21,1,.91.79,1.56-.25.77-.5,1.54-.73,2.33-.16.54-.65.89-1.18.89ZM299.15,315.49c-.53,0-1.03-.35-1.18-.89-.23-.78-.48-1.56-.73-2.33-.21-.65.14-1.35.79-1.56.65-.21,1.35.14,1.56.79.26.8.51,1.6.75,2.4.19.66-.18,1.34-.83,1.54-.12.04-.24.05-.35.05ZM127.82,315.42c-.12,0-.24-.02-.35-.05-.65-.2-1.03-.88-.83-1.54.24-.8.49-1.6.75-2.39.21-.65.91-1,1.56-.79.65.21,1,.91.79,1.56-.25.77-.5,1.54-.73,2.32-.16.54-.65.88-1.18.88ZM655.73,315.41c-.53,0-1.02-.35-1.18-.88-.23-.78-.48-1.56-.73-2.33-.21-.65.14-1.35.79-1.56.65-.21,1.35.14,1.56.79.26.8.51,1.6.75,2.4.19.65-.18,1.34-.83,1.54-.12.03-.24.05-.35.05ZM1012.07,314.85c-.53,0-1.02-.35-1.18-.88-.24-.78-.48-1.56-.74-2.33-.22-.65.13-1.35.78-1.56.65-.22,1.35.13,1.57.78.26.79.52,1.59.76,2.4.2.65-.17,1.34-.83,1.54-.12.04-.24.05-.36.05ZM843.58,307.41c-.16,0-.31-.03-.47-.09-.63-.26-.94-.98-.68-1.61.32-.77.64-1.54.98-2.3.28-.62,1.01-.91,1.63-.63.62.28.91,1.01.63,1.63-.33.74-.64,1.49-.95,2.24-.2.48-.66.77-1.15.77ZM487.27,307.36c-.16,0-.32-.03-.47-.09-.63-.26-.93-.98-.67-1.61.32-.77.65-1.54.99-2.3.28-.62,1.01-.9,1.63-.63.62.28.9,1.01.63,1.63-.33.74-.65,1.48-.96,2.23-.2.48-.66.77-1.14.77ZM296.26,307.32c-.49,0-.95-.29-1.14-.77-.31-.75-.63-1.5-.96-2.24-.28-.62,0-1.35.62-1.63.62-.28,1.36,0,1.63.62.34.76.67,1.53.99,2.31.26.63-.04,1.35-.67,1.61-.15.06-.31.09-.47.09ZM130.7,307.28c-.16,0-.32-.03-.47-.09-.63-.26-.93-.98-.67-1.62.32-.77.65-1.54.99-2.3.28-.62,1.01-.9,1.63-.62.62.28.9,1.01.62,1.63-.33.74-.65,1.48-.96,2.23-.2.48-.66.76-1.14.76ZM652.83,307.25c-.49,0-.95-.29-1.14-.76-.31-.75-.63-1.5-.97-2.24-.28-.62,0-1.35.62-1.63.62-.28,1.35,0,1.63.62.34.76.67,1.53.99,2.31.26.63-.04,1.35-.67,1.62-.15.06-.31.09-.47.09ZM1009.14,306.7c-.48,0-.94-.29-1.14-.76-.31-.75-.64-1.5-.97-2.24-.28-.62,0-1.35.62-1.64.62-.28,1.35,0,1.64.62.34.76.68,1.53,1,2.3.26.63-.03,1.35-.66,1.62-.16.07-.32.1-.48.1ZM847.24,299.59c-.2,0-.39-.05-.58-.14-.6-.32-.83-1.07-.51-1.67.39-.74.79-1.47,1.21-2.19.34-.59,1.09-.8,1.69-.46.59.34.8,1.09.46,1.69-.4.7-.79,1.41-1.17,2.13-.22.42-.65.66-1.09.66ZM490.96,299.55c-.2,0-.4-.05-.58-.15-.6-.32-.83-1.07-.51-1.67.39-.74.8-1.47,1.21-2.19.34-.59,1.09-.8,1.69-.46.59.34.8,1.1.46,1.69-.4.7-.8,1.41-1.18,2.13-.22.42-.65.65-1.09.65ZM292.56,299.5c-.44,0-.87-.24-1.09-.65-.39-.72-.78-1.43-1.19-2.13-.34-.59-.14-1.35.46-1.69.59-.34,1.35-.14,1.69.46.42.72.82,1.46,1.22,2.19.32.6.1,1.35-.5,1.67-.19.1-.39.15-.58.15ZM134.4,299.48c-.2,0-.4-.05-.58-.15-.6-.32-.83-1.07-.5-1.67.4-.74.8-1.47,1.22-2.19.34-.59,1.1-.8,1.69-.45.59.34.8,1.1.46,1.69-.4.7-.8,1.41-1.18,2.13-.22.42-.65.65-1.09.65ZM649.13,299.43c-.44,0-.87-.24-1.09-.65-.39-.72-.78-1.43-1.19-2.13-.34-.59-.14-1.35.45-1.69.59-.34,1.35-.14,1.69.45.42.72.82,1.46,1.22,2.19.32.6.1,1.35-.5,1.67-.19.1-.39.15-.59.15ZM1005.41,298.9c-.44,0-.86-.23-1.09-.65-.39-.71-.79-1.42-1.19-2.12-.34-.59-.14-1.35.45-1.69.59-.34,1.35-.14,1.69.45.42.72.83,1.45,1.23,2.19.33.6.1,1.35-.5,1.68-.19.1-.39.15-.59.15ZM851.67,292.18c-.24,0-.47-.07-.69-.21-.57-.38-.72-1.15-.34-1.72.46-.69.94-1.38,1.42-2.06.39-.56,1.17-.69,1.72-.29.56.39.69,1.17.29,1.72-.47.66-.93,1.33-1.38,2.01-.24.36-.63.55-1.03.55ZM495.42,292.15c-.24,0-.48-.07-.69-.21-.57-.38-.72-1.15-.33-1.72.47-.69.94-1.38,1.43-2.06.4-.56,1.17-.69,1.72-.29.56.4.68,1.17.29,1.72-.47.66-.94,1.33-1.39,2-.24.35-.63.55-1.03.55ZM288.09,292.09c-.4,0-.79-.19-1.03-.55-.45-.67-.92-1.34-1.39-2-.4-.56-.27-1.33.28-1.73.56-.4,1.33-.27,1.73.28.49.68.96,1.37,1.43,2.06.38.57.23,1.33-.33,1.72-.21.14-.45.21-.69.21ZM138.87,292.08c-.24,0-.48-.07-.69-.21-.57-.38-.72-1.15-.33-1.72.47-.69.94-1.38,1.43-2.06.4-.55,1.17-.68,1.73-.28.55.4.68,1.17.28,1.73-.47.66-.94,1.33-1.39,2-.24.35-.63.55-1.03.55ZM644.65,292.03c-.4,0-.79-.19-1.03-.54-.45-.67-.92-1.34-1.39-2-.4-.55-.27-1.33.28-1.73.55-.4,1.33-.27,1.73.28.49.68.97,1.37,1.43,2.06.38.57.23,1.33-.33,1.72-.21.14-.45.21-.69.21ZM1000.9,291.51c-.4,0-.78-.19-1.02-.54-.46-.67-.93-1.34-1.4-1.99-.4-.55-.28-1.33.28-1.73.55-.4,1.33-.28,1.73.28.49.68.97,1.36,1.44,2.05.38.56.24,1.33-.32,1.72-.21.15-.46.21-.7.21ZM856.83,285.24c-.28,0-.55-.09-.78-.28-.53-.43-.6-1.21-.17-1.74.53-.65,1.07-1.28,1.62-1.91.45-.52,1.23-.57,1.74-.12.52.45.57,1.23.12,1.74-.53.61-1.06,1.23-1.57,1.86-.24.3-.6.45-.96.45ZM500.6,285.23c-.28,0-.56-.09-.79-.28-.53-.44-.6-1.22-.16-1.74.53-.64,1.08-1.28,1.63-1.91.45-.51,1.23-.56,1.75-.11.51.45.56,1.23.11,1.75-.54.61-1.06,1.23-1.58,1.85-.24.3-.6.45-.95.45ZM282.91,285.18c-.35,0-.71-.15-.95-.45-.52-.62-1.05-1.24-1.58-1.85-.45-.51-.4-1.29.11-1.74.51-.45,1.29-.4,1.74.11.55.63,1.09,1.26,1.63,1.9.44.53.36,1.3-.16,1.74-.23.19-.51.28-.79.28ZM144.05,285.17c-.28,0-.56-.09-.79-.29-.53-.44-.6-1.22-.16-1.74.53-.64,1.08-1.28,1.63-1.9.45-.51,1.23-.56,1.74-.11.51.45.56,1.23.11,1.74-.54.61-1.06,1.23-1.58,1.85-.24.29-.6.45-.95.45ZM639.45,285.11c-.35,0-.71-.15-.95-.45-.52-.62-1.05-1.24-1.58-1.85-.45-.51-.4-1.29.11-1.75.51-.45,1.29-.4,1.75.11.55.63,1.1,1.26,1.63,1.9.44.53.37,1.3-.16,1.74-.23.19-.51.29-.79.29ZM995.68,284.62c-.35,0-.7-.15-.95-.44-.52-.62-1.05-1.24-1.59-1.84-.45-.51-.41-1.29.1-1.75.51-.45,1.29-.41,1.75.1.55.62,1.1,1.26,1.64,1.9.44.52.37,1.3-.15,1.74-.23.19-.51.29-.79.29ZM506.44,278.85c-.32,0-.64-.12-.88-.37-.48-.49-.48-1.27,0-1.75.59-.59,1.2-1.17,1.81-1.74.5-.47,1.28-.44,1.75.06.47.5.44,1.28-.06,1.75-.59.56-1.18,1.12-1.76,1.69-.24.24-.56.36-.87.36ZM862.65,278.84c-.32,0-.63-.12-.88-.36-.48-.48-.48-1.27,0-1.75.59-.59,1.19-1.17,1.8-1.75.5-.47,1.28-.44,1.75.05.47.5.45,1.28-.05,1.75-.59.56-1.18,1.12-1.75,1.7-.24.24-.56.36-.87.36ZM277.06,278.81c-.31,0-.63-.12-.87-.36-.58-.57-1.16-1.13-1.75-1.69-.5-.47-.52-1.25-.06-1.75.47-.5,1.25-.52,1.75-.06.61.57,1.21,1.15,1.8,1.73.49.48.49,1.26,0,1.75-.24.24-.56.37-.88.37ZM149.9,278.79c-.32,0-.64-.12-.88-.37-.48-.49-.48-1.27.01-1.75.59-.59,1.2-1.17,1.81-1.74.5-.47,1.28-.44,1.75.06.47.5.44,1.28-.06,1.75-.59.56-1.18,1.12-1.76,1.69-.24.24-.55.36-.87.36ZM633.61,278.75c-.31,0-.63-.12-.87-.36-.58-.57-1.16-1.13-1.76-1.69-.5-.47-.53-1.25-.06-1.75.47-.5,1.25-.53,1.75-.06.61.57,1.21,1.15,1.81,1.73.49.48.49,1.26.01,1.75-.24.25-.56.37-.88.37ZM989.81,278.28c-.31,0-.62-.12-.87-.35-.58-.57-1.17-1.13-1.76-1.68-.5-.46-.53-1.25-.07-1.75.47-.5,1.25-.53,1.75-.07.61.57,1.22,1.14,1.81,1.73.49.48.5,1.26.02,1.75-.24.25-.56.37-.88.37ZM512.88,273.07c-.36,0-.72-.16-.96-.46-.43-.53-.35-1.31.18-1.74.65-.53,1.3-1.05,1.97-1.56.54-.42,1.32-.31,1.73.23.42.54.31,1.32-.23,1.73-.65.5-1.28,1-1.92,1.51-.23.19-.5.28-.78.28ZM270.63,273.04c-.27,0-.55-.09-.78-.28-.63-.51-1.27-1.01-1.91-1.51-.54-.42-.64-1.19-.23-1.73.42-.54,1.19-.64,1.73-.23.66.51,1.32,1.03,1.96,1.55.53.43.61,1.21.18,1.74-.24.3-.6.46-.96.46ZM869.06,273.03c-.36,0-.71-.15-.96-.45-.43-.53-.36-1.31.17-1.74.65-.53,1.3-1.05,1.96-1.56.54-.42,1.32-.32,1.73.22.42.54.32,1.32-.22,1.73-.64.5-1.28,1.01-1.91,1.52-.23.19-.51.28-.78.28ZM156.34,273.02c-.36,0-.72-.16-.96-.46-.43-.53-.35-1.31.18-1.74.65-.53,1.31-1.05,1.97-1.55.54-.42,1.32-.31,1.73.23.42.54.31,1.32-.23,1.73-.65.5-1.28,1-1.92,1.51-.23.19-.5.28-.78.28ZM627.17,272.99c-.27,0-.55-.09-.78-.28-.63-.51-1.27-1.01-1.91-1.51-.54-.42-.64-1.19-.23-1.73.42-.54,1.19-.64,1.73-.23.66.51,1.32,1.02,1.96,1.55.53.43.61,1.21.18,1.74-.24.3-.6.46-.96.46ZM983.35,272.54c-.27,0-.55-.09-.77-.27-.63-.51-1.27-1.01-1.92-1.5-.54-.41-.65-1.19-.23-1.73.41-.54,1.19-.65,1.73-.23.66.51,1.32,1.02,1.97,1.54.53.43.62,1.21.19,1.74-.24.3-.6.46-.96.46ZM519.85,267.94c-.4,0-.79-.19-1.03-.55-.38-.57-.22-1.34.35-1.71.7-.46,1.4-.92,2.11-1.36.58-.36,1.34-.19,1.7.39.36.58.19,1.34-.39,1.7-.69.43-1.38.87-2.05,1.32-.21.14-.45.21-.68.21ZM263.67,267.92c-.23,0-.47-.07-.68-.21-.67-.45-1.36-.89-2.04-1.32-.58-.36-.76-1.12-.39-1.7.36-.58,1.13-.76,1.7-.39.71.44,1.41.89,2.1,1.35.57.38.72,1.14.35,1.71-.24.36-.63.55-1.03.55ZM163.32,267.9c-.4,0-.79-.19-1.03-.55-.38-.57-.22-1.34.35-1.71.7-.46,1.4-.91,2.11-1.36.58-.36,1.34-.18,1.7.39.36.58.18,1.34-.39,1.7-.69.43-1.38.87-2.06,1.32-.21.14-.45.21-.68.21ZM876.01,267.88c-.4,0-.79-.19-1.03-.55-.38-.57-.23-1.34.34-1.72.69-.46,1.4-.92,2.11-1.37.58-.36,1.34-.19,1.7.39.36.58.19,1.34-.39,1.7-.69.43-1.37.88-2.05,1.33-.21.14-.45.21-.69.21ZM620.2,267.88c-.23,0-.47-.07-.68-.21-.68-.45-1.36-.89-2.04-1.31-.58-.36-.76-1.12-.4-1.7.36-.58,1.12-.76,1.7-.4.71.44,1.41.89,2.1,1.35.57.38.73,1.14.35,1.71-.24.36-.63.55-1.03.55ZM976.37,267.46c-.23,0-.47-.07-.68-.2-.68-.44-1.36-.88-2.05-1.31-.58-.36-.76-1.12-.4-1.7.36-.58,1.12-.76,1.7-.4.71.44,1.41.89,2.11,1.34.57.37.73,1.14.36,1.71-.24.36-.63.56-1.03.56ZM527.29,263.51c-.44,0-.87-.24-1.09-.65-.32-.6-.09-1.35.51-1.67.74-.39,1.48-.78,2.23-1.15.61-.31,1.35-.06,1.66.56.3.61.05,1.35-.56,1.66-.73.36-1.45.74-2.17,1.12-.19.1-.38.15-.58.15ZM256.25,263.5c-.2,0-.39-.05-.58-.14-.71-.38-1.43-.75-2.16-1.11-.61-.3-.86-1.05-.56-1.66.3-.61,1.05-.86,1.66-.56.75.37,1.49.75,2.22,1.14.6.32.83,1.07.51,1.67-.22.42-.65.66-1.09.66ZM170.76,263.47c-.44,0-.87-.24-1.09-.66-.32-.6-.09-1.35.51-1.67.74-.39,1.48-.78,2.24-1.15.61-.31,1.35-.05,1.66.56.3.61.05,1.35-.56,1.66-.73.36-1.45.73-2.17,1.12-.19.1-.38.15-.58.15ZM612.78,263.46c-.2,0-.39-.05-.58-.14-.71-.38-1.44-.75-2.16-1.11-.61-.3-.86-1.05-.56-1.66.3-.61,1.04-.86,1.66-.56.75.37,1.49.75,2.22,1.14.6.32.83,1.07.51,1.67-.22.42-.65.66-1.09.66ZM883.43,263.42c-.44,0-.87-.24-1.09-.65-.32-.6-.1-1.35.51-1.67.74-.39,1.48-.78,2.23-1.16.61-.31,1.35-.06,1.66.55.31.61.06,1.35-.55,1.66-.73.37-1.45.74-2.17,1.13-.19.1-.39.15-.58.15ZM968.93,263.07c-.19,0-.39-.05-.57-.14-.72-.38-1.44-.74-2.17-1.1-.61-.3-.86-1.04-.56-1.66.3-.61,1.04-.87,1.66-.56.75.37,1.49.75,2.22,1.13.6.32.84,1.07.52,1.67-.22.42-.65.66-1.1.66ZM248.45,259.82c-.16,0-.32-.03-.47-.09-.75-.31-1.5-.61-2.26-.9-.64-.24-.96-.96-.71-1.6.24-.64.96-.96,1.6-.71.78.3,1.56.61,2.33.93.63.26.93.99.67,1.62-.2.48-.66.76-1.14.76ZM535.12,259.81c-.49,0-.95-.29-1.14-.76-.26-.63.04-1.35.67-1.62.77-.32,1.55-.63,2.34-.93.64-.24,1.35.07,1.6.71.24.64-.08,1.35-.71,1.6-.76.29-1.52.59-2.27.91-.16.06-.32.09-.47.09ZM604.98,259.79c-.16,0-.32-.03-.47-.09-.75-.31-1.51-.61-2.27-.9-.64-.24-.96-.96-.71-1.6.24-.64.96-.96,1.6-.71.78.3,1.56.61,2.33.93.63.26.93.98.67,1.62-.2.48-.66.76-1.14.76ZM178.59,259.78c-.49,0-.95-.29-1.14-.76-.26-.63.04-1.35.67-1.62.77-.32,1.55-.63,2.34-.93.64-.24,1.35.08,1.6.71.24.64-.08,1.35-.71,1.6-.76.29-1.52.59-2.27.9-.15.06-.31.09-.47.09ZM891.25,259.69c-.48,0-.94-.29-1.14-.76-.26-.63.03-1.35.66-1.62.77-.32,1.55-.64,2.33-.94.64-.25,1.35.07,1.6.71.25.64-.07,1.35-.71,1.6-.76.29-1.52.6-2.27.91-.16.07-.32.1-.48.1ZM961.11,259.42c-.16,0-.31-.03-.47-.09-.75-.31-1.51-.6-2.27-.89-.64-.24-.96-.96-.72-1.59.24-.64.96-.96,1.59-.72.78.3,1.56.6,2.33.92.63.26.93.98.68,1.61-.2.48-.66.77-1.14.77ZM240.32,256.89c-.12,0-.24-.02-.36-.05-.78-.24-1.56-.46-2.34-.68-.66-.18-1.04-.86-.86-1.52.18-.66.87-1.04,1.52-.86.81.22,1.61.46,2.4.7.65.2,1.02.89.82,1.54-.16.53-.65.87-1.18.87ZM543.26,256.88c-.53,0-1.02-.34-1.18-.87-.2-.65.17-1.34.82-1.54.8-.24,1.6-.48,2.41-.7.66-.18,1.34.2,1.52.86.18.66-.2,1.34-.86,1.52-.78.22-1.56.44-2.34.68-.12.04-.24.05-.36.05ZM596.84,256.87c-.12,0-.24-.02-.36-.05-.78-.24-1.56-.46-2.34-.68-.66-.18-1.05-.86-.86-1.52.18-.66.86-1.05,1.52-.86.81.22,1.61.46,2.41.7.65.2,1.02.89.82,1.54-.16.53-.65.88-1.18.88ZM186.74,256.86c-.53,0-1.02-.34-1.18-.88-.2-.65.17-1.34.82-1.54.8-.24,1.6-.48,2.41-.7.66-.18,1.34.21,1.52.86.18.66-.21,1.34-.86,1.52-.78.22-1.56.44-2.34.68-.12.04-.24.05-.36.05ZM899.39,256.74c-.53,0-1.02-.34-1.18-.87-.2-.65.16-1.34.81-1.55.8-.25,1.6-.48,2.4-.71.66-.19,1.34.2,1.52.86.18.66-.2,1.34-.86,1.52-.78.22-1.56.45-2.34.69-.12.04-.25.06-.37.06ZM952.96,256.53c-.12,0-.24-.02-.36-.05-.78-.23-1.56-.46-2.34-.67-.66-.18-1.05-.86-.87-1.52.18-.66.86-1.04,1.52-.87.81.22,1.61.45,2.41.69.65.2,1.02.89.83,1.54-.16.53-.65.88-1.18.88ZM231.94,254.76c-.08,0-.17,0-.25-.03-.79-.16-1.59-.31-2.4-.46-.67-.12-1.12-.76-1-1.43.12-.67.76-1.13,1.43-1,.82.15,1.64.3,2.46.47.67.14,1.1.79.96,1.46-.12.59-.63.99-1.21.99ZM551.64,254.75c-.58,0-1.09-.4-1.21-.99-.14-.67.29-1.32.96-1.46.82-.17,1.64-.32,2.46-.47.67-.12,1.31.33,1.43,1,.12.67-.33,1.31-1,1.43-.8.14-1.6.29-2.39.46-.08.02-.17.03-.25.03ZM588.46,254.74c-.08,0-.16,0-.25-.02-.79-.16-1.59-.31-2.4-.45-.67-.12-1.12-.76-1-1.43.12-.67.76-1.12,1.43-1,.82.14,1.64.3,2.46.47.67.14,1.1.79.96,1.46-.12.59-.64.99-1.21.99ZM195.12,254.73c-.58,0-1.09-.4-1.21-.99-.14-.67.3-1.32.97-1.46.82-.17,1.64-.32,2.46-.47.68-.12,1.31.33,1.43,1,.12.67-.33,1.31-1,1.43-.8.14-1.6.29-2.4.45-.08.02-.17.02-.25.02ZM907.76,254.57c-.57,0-1.09-.4-1.21-.98-.14-.67.29-1.32.96-1.46.82-.17,1.64-.33,2.46-.48.67-.12,1.31.33,1.44,1,.12.67-.33,1.31-1,1.44-.8.14-1.6.3-2.39.46-.09.02-.17.03-.25.03ZM944.58,254.43c-.08,0-.16,0-.24-.02-.8-.16-1.59-.31-2.4-.45-.67-.12-1.12-.75-1.01-1.43.12-.67.75-1.13,1.43-1.01.83.14,1.65.29,2.46.46.67.13,1.1.79.97,1.45-.12.59-.63.99-1.21.99ZM223.4,253.43s-.09,0-.13,0c-.81-.09-1.61-.16-2.43-.23-.68-.05-1.19-.65-1.13-1.33.05-.68.65-1.2,1.33-1.13.84.07,1.67.15,2.49.23.68.07,1.17.68,1.1,1.36-.07.63-.6,1.1-1.23,1.1ZM560.18,253.42c-.62,0-1.16-.47-1.23-1.1-.07-.68.42-1.29,1.1-1.36.83-.09,1.66-.17,2.49-.23.68-.07,1.28.45,1.33,1.13.05.68-.45,1.28-1.13,1.33-.81.06-1.62.14-2.43.23-.05,0-.09,0-.13,0ZM579.92,253.42s-.09,0-.13,0c-.81-.09-1.61-.16-2.43-.23-.68-.05-1.19-.65-1.13-1.33.05-.68.64-1.19,1.33-1.13.83.07,1.67.14,2.49.23.68.07,1.17.68,1.1,1.36-.07.63-.6,1.11-1.23,1.11ZM203.66,253.42c-.62,0-1.16-.47-1.23-1.11-.07-.68.42-1.29,1.1-1.36.83-.09,1.66-.17,2.49-.23.68-.05,1.28.46,1.33,1.14.05.68-.45,1.28-1.14,1.33-.81.06-1.62.14-2.43.22-.04,0-.09,0-.13,0ZM916.29,253.22c-.62,0-1.16-.47-1.23-1.1-.07-.68.41-1.29,1.09-1.37.83-.09,1.66-.17,2.49-.24.67-.06,1.28.45,1.34,1.13.06.68-.45,1.28-1.13,1.34-.81.07-1.62.15-2.43.24-.05,0-.09,0-.14,0ZM936.03,253.14s-.09,0-.13,0c-.81-.08-1.62-.16-2.43-.22-.68-.05-1.19-.65-1.14-1.33.05-.68.64-1.19,1.33-1.14.83.06,1.67.14,2.49.22.68.07,1.17.68,1.1,1.36-.07.64-.6,1.11-1.23,1.11ZM214.76,252.91c-.83-.01-1.65-.01-2.46,0-.69,0-1.24-.54-1.25-1.22,0-.68.54-1.24,1.22-1.25.83-.01,1.67,0,2.5,0,.68,0,1.23.57,1.22,1.25,0,.68-.56,1.22-1.24,1.22ZM568.81,252.91c-.68,0-1.23-.54-1.24-1.22,0-.68.54-1.24,1.22-1.25.83-.01,1.67-.01,2.5,0,.68,0,1.23.57,1.22,1.25,0,.68-.56,1.21-1.25,1.22-.81-.01-1.63-.01-2.44,0h-.02ZM924.92,252.67c-.67,0-1.22-.54-1.24-1.22-.01-.68.53-1.25,1.22-1.26.54,0,1.07-.01,1.61-.01h.9c.68.01,1.23.57,1.22,1.25,0,.68-.56,1.22-1.24,1.22-.01,0-.88,0-.88,0-.52,0-1.05,0-1.57.01h-.02Z"/>
            <path class="cls-4" d="M123.74,426.79c-.69,0-1.24-.56-1.24-1.24v-1.24c.01-.68.57-1.23,1.24-1.23.69,0,1.24.56,1.24,1.24v1.24c-.01.68-.57,1.23-1.24,1.23Z"/>
          </g>
          <g>
            <path class="cls-10" d="M935.31,362.7h-25.64c-8.64,0-15.67-7.03-15.67-15.68v-23.05c0-8.64,7.03-15.67,15.67-15.67h25.64c4.97,0,9.54,2.28,12.53,6.26.62.82.45,1.98-.37,2.6-.82.61-1.98.45-2.6-.37-2.28-3.04-5.77-4.78-9.57-4.78h-25.64c-6.59,0-11.96,5.36-11.96,11.96v23.05c0,6.6,5.36,11.97,11.96,11.97h25.64c6.59,0,11.96-5.37,11.96-11.97v-9.87c0-1.02.83-1.85,1.85-1.85s1.85.83,1.85,1.85v9.87c0,8.64-7.03,15.68-15.67,15.68Z"/>
            <path class="cls-10" d="M926.59,347.28c-1.8,0-3.59-.68-4.96-2.05l-9.09-9.09c-.72-.72-.72-1.9,0-2.62.72-.72,1.9-.72,2.62,0l9.09,9.09c1.29,1.29,3.39,1.29,4.67,0l26.22-26.22c.72-.72,1.9-.72,2.62,0,.72.72.72,1.9,0,2.62l-26.22,26.22c-1.37,1.37-3.16,2.05-4.96,2.05Z"/>
          </g>
          <path class="cls-3" d="M131.68,443.8c0,4.38-3.55,7.94-7.94,7.94s-7.94-3.55-7.94-7.94,3.55-7.94,7.94-7.94,7.94,3.55,7.94,7.94Z"/>
          <circle class="cls-3" cx="1017.02" cy="443.8" r="7.94" transform="translate(102.59 1072.37) rotate(-58.08)"/>
        </g>
        <text class="cls-25" transform="translate(151.78 486.34)"><tspan class="cls-30"><tspan x="0" y="0" xml:space="preserve"> P</tspan><tspan class="cls-2" x="9.79" y="0">r</tspan><tspan class="cls-51" x="14.15" y="0">o</tspan><tspan x="21.11" y="0">vide the insu</tspan><tspan class="cls-2" x="92.61" y="0">r</tspan><tspan x="96.97" y="0">ed with a </tspan></tspan><tspan class="cls-30"><tspan x="0" y="14.4">wri</tspan><tspan class="cls-28" x="16.82" y="14.4">t</tspan><tspan x="21.49" y="14.4">e-up on the p</tspan><tspan class="cls-2" x="96.21" y="14.4">r</tspan><tspan x="100.57" y="14.4">elimina</tspan><tspan class="cls-2" x="141" y="14.4">r</tspan><tspan class="cls-14" x="145.36" y="14.4">y</tspan><tspan x="150.86" y="14.4">, </tspan></tspan><tspan class="cls-30"><tspan class="cls-28" x="0" y="28.8">t</tspan><tspan x="4.67" y="28.8">echni</tspan><tspan class="cls-15" x="35.98" y="28.8">c</tspan><tspan x="42.65" y="28.8">al a</tspan><tspan class="cls-53" x="61.54" y="28.8">n</tspan><tspan x="68.74" y="28.8">d physi</tspan><tspan class="cls-53" x="108.61" y="28.8">c</tspan><tspan x="115.28" y="28.8">al </tspan></tspan><tspan class="cls-30"><tspan x="0" y="43.2">p</tspan><tspan class="cls-2" x="7.2" y="43.2">r</tspan><tspan x="11.56" y="43.2">o</tspan><tspan class="cls-23" x="18.77" y="43.2">c</tspan><tspan x="25.32" y="43.2">edu</tspan><tspan class="cls-2" x="46.87" y="43.2">r</tspan><tspan x="51.23" y="43.2">e </tspan><tspan class="cls-28" x="60.71" y="43.2">t</tspan><tspan x="65.38" y="43.2">o </tspan><tspan class="cls-11" x="74.99" y="43.2">f</tspan><tspan x="79.1" y="43.2">oll</tspan><tspan class="cls-11" x="92.28" y="43.2">o</tspan><tspan x="99.25" y="43.2">w on </tspan></tspan><tspan class="cls-30"><tspan class="cls-23" x="0" y="57.6">c</tspan><tspan x="6.55" y="57.6">laims u</tspan><tspan class="cls-15" x="45.68" y="57.6">n</tspan><tspan x="52.87" y="57.6">der </tspan><tspan class="cls-49" x="74.05" y="57.6">e</tspan><tspan x="81.01" y="57.6">ach of the </tspan></tspan><tspan class="cls-30"><tspan x="0" y="72">di</tspan><tspan class="cls-11" x="10.19" y="72">ff</tspan><tspan x="18.11" y="72">e</tspan><tspan class="cls-49" x="25.2" y="72">r</tspan><tspan class="cls-44" x="29.56" y="72">e</tspan><tspan x="36.47" y="72">nt </tspan><tspan class="cls-23" x="51.06" y="72">c</tspan><tspan x="57.61" y="72">lasses of </tspan></tspan><tspan class="cls-30" x="0" y="86.4">insu</tspan><tspan class="cls-32" x="23.86" y="86.4">r</tspan><tspan class="cls-30" x="28.13" y="86.4">a</tspan><tspan class="cls-33" x="34.88" y="86.4">n</tspan><tspan class="cls-31" x="42.08" y="86.4">c</tspan><tspan class="cls-30" x="48.63" y="86.4">e</tspan><tspan class="cls-37" x="55.71" y="86.4">.</tspan></text>
        <text class="cls-26" transform="translate(350.01 168.62)"><tspan x="0" y="0">*Upon the happ</tspan><tspan class="cls-23" x="87.99" y="0">e</tspan><tspan x="94.9" y="0">ning of the </tspan><tspan x="0" y="14.4">l</tspan><tspan class="cls-38" x="2.99" y="14.4">o</tspan><tspan x="10.1" y="14.4">ss or damage a</tspan><tspan class="cls-53" x="93.85" y="14.4">n</tspan><tspan x="101.04" y="14.4">d on </tspan><tspan class="cls-2" x="0" y="28.8">r</tspan><tspan x="4.36" y="28.8">e</tspan><tspan class="cls-23" x="11.45" y="28.8">c</tspan><tspan x="18" y="28.8">eiving </tspan><tspan class="cls-53" x="54.19" y="28.8">n</tspan><tspan x="61.39" y="28.8">otifi</tspan><tspan class="cls-15" x="84.04" y="28.8">c</tspan><tspan x="90.71" y="28.8">ation.</tspan></text>
        <text class="cls-26" transform="translate(526.24 487.2)"><tspan x="0" y="0">In g</tspan><tspan class="cls-23" x="19.84" y="0">e</tspan><tspan class="cls-15" x="26.75" y="0">n</tspan><tspan x="33.94" y="0">e</tspan><tspan class="cls-52" x="41.03" y="0">r</tspan><tspan x="45.3" y="0">al, </tspan><tspan class="cls-53" x="60.77" y="0">n</tspan><tspan x="67.97" y="0">egotia</tspan><tspan class="cls-28" x="104.14" y="0">t</tspan><tspan x="108.81" y="0">e all </tspan><tspan class="cls-23" x="0" y="14.4">c</tspan><tspan x="6.55" y="14.4">laims with the Insu</tspan><tspan class="cls-52" x="110.89" y="14.4">r</tspan><tspan x="115.16" y="14.4">a</tspan><tspan class="cls-53" x="121.91" y="14.4">n</tspan><tspan class="cls-44" x="129.11" y="14.4">c</tspan><tspan x="135.66" y="14.4">e </tspan><tspan x="0" y="28.8">Compa</tspan><tspan class="cls-11" x="40.21" y="28.8">n</tspan><tspan x="47.23" y="28.8">y </tspan><tspan class="cls-28" x="56.08" y="28.8">t</tspan><tspan x="60.75" y="28.8">o a satis</tspan><tspan class="cls-23" x="106.92" y="28.8">f</tspan><tspan x="111.09" y="28.8">ac</tspan><tspan class="cls-41" x="124.57" y="28.8">t</tspan><tspan x="129.23" y="28.8">o</tspan><tspan class="cls-2" x="136.44" y="28.8">r</tspan><tspan class="cls-36" x="140.8" y="28.8">y </tspan><tspan class="cls-23" x="0" y="43.2">c</tspan><tspan x="6.55" y="43.2">o</tspan><tspan class="cls-15" x="13.76" y="43.2">n</tspan><tspan class="cls-23" x="20.95" y="43.2">c</tspan><tspan x="27.5" y="43.2">lusion in the best </tspan><tspan x="0" y="57.6">p</tspan><tspan class="cls-38" x="7.2" y="57.6">o</tspan><tspan x="14.32" y="57.6">ssible in</tspan><tspan class="cls-28" x="59.95" y="57.6">t</tspan><tspan x="64.62" y="57.6">e</tspan><tspan class="cls-2" x="71.71" y="57.6">r</tspan><tspan x="76.07" y="57.6">est of the </tspan><tspan x="0" y="72">insu</tspan><tspan class="cls-2" x="23.86" y="72">r</tspan><tspan x="28.22" y="72">ed.</tspan></text>
        <text class="cls-26" transform="translate(702.77 166.41)"><tspan x="0" y="0" xml:space="preserve"> Maintain a </tspan><tspan class="cls-2" x="63.02" y="0">r</tspan><tspan x="67.38" y="0">e</tspan><tspan class="cls-23" x="74.47" y="0">c</tspan><tspan x="81.02" y="0">o</tspan><tspan class="cls-2" x="88.22" y="0">r</tspan><tspan x="92.58" y="0">d of </tspan><tspan class="cls-23" x="0" y="14.4">c</tspan><tspan x="6.55" y="14.4">laims, in the </tspan><tspan class="cls-11" x="76.08" y="14.4">f</tspan><tspan x="80.19" y="14.4">orm of a </tspan><tspan class="cls-2" x="0" y="28.8">r</tspan><tspan x="4.36" y="28.8">egis</tspan><tspan class="cls-28" x="28" y="28.8">t</tspan><tspan x="32.67" y="28.8">er which </tspan><tspan class="cls-11" x="82.61" y="28.8">w</tspan><tspan x="91.72" y="28.8">ould be </tspan><tspan class="cls-2" x="0" y="43.2">r</tspan><tspan x="4.36" y="43.2">egularly </tspan><tspan class="cls-2" x="51.97" y="43.2">r</tspan><tspan class="cls-51" x="56.33" y="43.2">e</tspan><tspan x="63.17" y="43.2">vi</tspan><tspan class="cls-11" x="72.44" y="43.2">ew</tspan><tspan x="88.39" y="43.2">ed with </tspan><tspan x="0" y="57.6">the Insu</tspan><tspan class="cls-2" x="45.54" y="57.6">r</tspan><tspan x="49.9" y="57.6">ed.</tspan></text>
        <text class="cls-26" transform="translate(881.71 485.69)"><tspan x="0" y="0">Regularly app</tspan><tspan class="cls-52" x="76.44" y="0">r</tspan><tspan x="80.71" y="0">aise the </tspan><tspan x="0" y="14.4">insu</tspan><tspan class="cls-2" x="23.86" y="14.4">r</tspan><tspan x="28.22" y="14.4">ed of changes in </tspan><tspan x="0" y="28.8">a</tspan><tspan class="cls-11" x="6.75" y="28.8">n</tspan><tspan x="13.76" y="28.8">y </tspan><tspan class="cls-49" x="22.62" y="28.8">r</tspan><tspan x="26.98" y="28.8">el</tspan><tspan class="cls-11" x="37.06" y="28.8">e</tspan><tspan class="cls-19" x="43.9" y="28.8">v</tspan><tspan x="49.82" y="28.8">ant legislation </tspan><tspan x="0" y="43.2">a</tspan><tspan class="cls-53" x="6.75" y="43.2">n</tspan><tspan x="13.94" y="43.2">d p</tspan><tspan class="cls-2" x="30.75" y="43.2">r</tspan><tspan x="35.11" y="43.2">o</tspan><tspan class="cls-23" x="42.32" y="43.2">c</tspan><tspan x="48.87" y="43.2">edu</tspan><tspan class="cls-2" x="70.42" y="43.2">r</tspan><tspan x="74.78" y="43.2">es</tspan></text>
        <g>
          <path class="cls-10" d="M231.92,367.39h-42.48c-.55,0-1-.45-1-1s.45-1,1-1h42.48c2.76,0,5-2.24,5-5v-25.9c0-.55.45-1,1-1s1,.45,1,1v25.9c0,3.86-3.14,7-7,7Z"/>
          <path class="cls-10" d="M194.11,323.97c-.55,0-1-.45-1-1v-14.25c0-.55.45-1,1-1h43.82c.55,0,1,.45,1,1v12.11c0,.55-.45,1-1,1s-1-.45-1-1v-11.11h-41.82v13.25c0,.55-.45,1-1,1Z"/>
          <path class="cls-10" d="M189.44,367.39c-3.12,0-5.65-2.54-5.65-5.65v-38.77c0-.55.45-1,1-1h9.3c.55,0,1,.45,1,1v38.77c0,3.12-2.54,5.65-5.65,5.65ZM185.79,323.98v37.77c0,2.01,1.64,3.65,3.65,3.65s3.65-1.64,3.65-3.65v-37.77h-7.3Z"/>
          <g>
            <path class="cls-10" d="M229.94,350.8c-.16,0-.31-.04-.46-.11l-5.6-2.92c-.49-.26-.68-.86-.42-1.35l14.96-28.71c1.05-2.02,3.57-2.82,5.61-1.77,2.04,1.06,2.83,3.58,1.78,5.62l-14.97,28.71c-.18.34-.53.54-.89.54ZM225.69,346.46l3.83,1.99,14.51-27.82c.55-1.06.14-2.36-.92-2.92-1.06-.54-2.37-.13-2.92.92l-14.5,27.82Z"/>
            <path class="cls-10" d="M224.18,355.01c-.16,0-.32-.04-.46-.11-.34-.18-.55-.53-.54-.91l.15-7.13c.01-.54.46-.98,1-.98h.02c.55.01.99.47.98,1.02l-.11,5.11,4.13-3.02c.45-.33,1.07-.23,1.4.22.33.45.23,1.07-.22,1.4l-5.76,4.21c-.17.13-.38.19-.59.19Z"/>
            <path class="cls-10" d="M242.24,334.4c-.16,0-.31-.04-.46-.11-.49-.26-.68-.86-.42-1.35l4.07-7.82c.59-1.13.14-2.54-.99-3.13-.49-.26-.68-.86-.42-1.35s.86-.68,1.35-.42c2.1,1.1,2.93,3.71,1.83,5.82l-4.07,7.82c-.18.34-.53.54-.89.54Z"/>
          </g>
          <path class="cls-10" d="M229.94,319.03h-28.03c-.55,0-1-.45-1-1s.45-1,1-1h28.03c.55,0,1,.45,1,1s-.45,1-1,1Z"/>
          <path class="cls-10" d="M225.83,325.57h-23.92c-.55,0-1-.45-1-1s.45-1,1-1h23.92c.55,0,1,.45,1,1s-.45,1-1,1Z"/>
          <path class="cls-10" d="M224.18,332.22h-22.27c-.55,0-1-.45-1-1s.45-1,1-1h22.27c.55,0,1,.45,1,1s-.45,1-1,1Z"/>
          <path class="cls-10" d="M222.03,338.76h-20.12c-.55,0-1-.45-1-1s.45-1,1-1h20.12c.55,0,1,.45,1,1s-.45,1-1,1Z"/>
          <path class="cls-10" d="M219.4,345.67h-17.49c-.55,0-1-.45-1-1s.45-1,1-1h17.49c.55,0,1,.45,1,1s-.45,1-1,1Z"/>
          <path class="cls-10" d="M219.4,352.6h-17.49c-.55,0-1-.45-1-1s.45-1,1-1h17.49c.55,0,1,.45,1,1s-.45,1-1,1Z"/>
          <path class="cls-10" d="M228.11,359.91h-26.2c-.55,0-1-.45-1-1s.45-1,1-1h26.2c.55,0,1,.45,1,1s-.45,1-1,1Z"/>
        </g>
        <g>
          <path class="cls-10" d="M389.33,402.56c-.36,0-.73-.06-1.09-.19-1.34-.46-2.2-1.67-2.2-3.09v-10.25h-12.62c-6.59,0-11.95-5.36-11.95-11.96v-17.61c0-6.59,5.36-11.95,11.95-11.95h33.66c6.59,0,11.95,5.36,11.95,11.95v17.61c0,6.59-5.36,11.96-11.95,11.96h-8.25l-6.84,12.09c-.03.06-.07.12-.12.18-.64.81-1.57,1.25-2.55,1.25ZM373.42,350.33c-5.04,0-9.14,4.1-9.14,9.14v17.61c0,5.05,4.1,9.15,9.14,9.15h14.03c.78,0,1.4.63,1.4,1.4v11.66c0,.27.17.38.31.43.13.04.3.06.46-.09l7.17-12.69c.25-.44.72-.71,1.22-.71h9.07c5.04,0,9.14-4.11,9.14-9.15v-17.61c0-5.04-4.1-9.14-9.14-9.14h-33.66Z"/>
          <g>
            <circle class="cls-10" cx="377.46" cy="367.76" r="2.29" transform="translate(-112 172.44) rotate(-22.5)"/>
            <circle class="cls-10" cx="390.25" cy="367.76" r="2.29"/>
            <circle class="cls-10" cx="403.04" cy="367.76" r="2.29" transform="translate(-110.06 182.23) rotate(-22.5)"/>
          </g>
        </g>
        <g id="_Слой_2" data-name="Слой 2">
          <g id="Layer_1-2" data-name="Layer 1">
            <path class="cls-10" d="M756.36,351h-17.39c-.43,0-.77-.36-.77-.78v-7.39c0-.43.34-.77.77-.77h17.39c.42-.01.77.31.78.73,0,.01,0,.03,0,.04v7.45c-.03.41-.37.72-.78.72ZM739.75,349.45h15.84v-5.9h-15.84v5.9Z"/>
            <path class="cls-10" d="M761.32,351c-.43,0-.77-.36-.77-.78v-9.94c0-.94-.77-1.7-1.71-1.7h-22.36c-.94,0-1.7.76-1.7,1.7v9.94c.05.43-.25.82-.68.87-.43.05-.82-.25-.87-.68,0-.07,0-.13,0-.2v-9.94c0-1.79,1.46-3.25,3.25-3.25h22.36c1.8,0,3.26,1.46,3.27,3.25v9.94c0,.43-.35.78-.78.78h0Z"/>
            <path class="cls-10" d="M767.54,393.24c-.09.02-.19.02-.29,0-.63-.31-15.39-6.4-15.39-14.51v-16.32c0-.34.22-.63.55-.73l14.91-4.73c.15-.05.31-.05.46,0l14.91,4.73c.32.1.54.4.55.73v16.32c0,8.11-14.76,14.2-15.39,14.45-.09.04-.2.06-.3.06ZM753.41,362.97v15.75c0,6.51,12.09,12,14.13,12.9,2.05-.89,14.14-6.39,14.14-12.9v-15.75l-14.14-4.48-14.13,4.48Z"/>
            <path class="cls-10" d="M748.9,368.39h-31.06c-.43,0-.77-.36-.77-.78v-14.91c0-1.79,1.46-3.25,3.25-3.25h52.18c1.8,0,3.26,1.46,3.27,3.25v3.73c.05.43-.25.82-.68.87-.43.05-.82-.25-.87-.68,0-.07,0-.13,0-.2v-3.73c0-.94-.77-1.7-1.71-1.7h-52.18c-.94,0-1.7.76-1.7,1.7v14.14h30.28c.43-.05.82.25.87.68.05.43-.25.82-.68.87-.07,0-.13,0-.2,0Z"/>
            <path class="cls-10" d="M772.51,398.21h-52.18c-1.7.08-3.15-1.21-3.25-2.91v-27.69c.05-.43.45-.73.87-.68.35.04.63.32.68.68v27.69c.11.84.86,1.43,1.7,1.35h52.18c.84.09,1.6-.51,1.71-1.35v-2.84c.05-.43.45-.73.87-.68.35.04.63.32.68.68v2.84c-.11,1.7-1.56,3-3.27,2.91Z"/>
            <path class="cls-10" d="M732.33,403.18h-9.04c-.64,0-1.18-.49-1.24-1.13v-4.62c0-.43.34-.77.77-.77h9.94c.43,0,.78.34.78.77v4.62c-.06.63-.57,1.11-1.21,1.13ZM723.6,401.62h8.39v-3.42h-8.39v3.42Z"/>
            <path class="cls-10" d="M769.6,403.18h-9.04c-.64,0-1.18-.49-1.24-1.13v-4.62c0-.43.34-.77.77-.77h9.94c.43,0,.78.34.78.77v4.62c-.06.63-.57,1.11-1.21,1.13ZM760.9,401.62h8.35v-3.42h-8.39l.04,3.42Z"/>
            <path class="cls-10" d="M765.45,380.26c-.2,0-.4-.08-.55-.22l-4.65-4.63c-.29-.32-.27-.81.05-1.11.3-.27.76-.27,1.05,0l4.09,4.09,8.27-8.27c.32-.29.81-.27,1.11.05.27.3.27.76,0,1.05l-8.83,8.82c-.15.14-.34.22-.55.22Z"/>
          </g>
        </g>
        <g>
          <circle class="cls-10" cx="560.88" cy="331.8" r="1.04"/>
          <circle class="cls-10" cx="565.17" cy="331.8" r="1.04"/>
          <circle class="cls-10" cx="569.47" cy="331.8" r="1.04"/>
          <circle class="cls-10" cx="573.76" cy="331.8" r="1.04"/>
          <path class="cls-10" d="M536.23,348.98v8.59c0,.57.46,1.04,1.04,1.04s1.04-.46,1.04-1.04v-8.59c0-.57-.46-1.04-1.04-1.04s-1.04.46-1.04,1.04Z"/>
          <path class="cls-10" d="M600.63,300.71h-2.5c-.36,0-.69-.19-.88-.49-1.46-2.38-3.99-3.81-6.79-3.81-16.2,0-14.41,0-18.92,0-1.71,0-3.11,1.4-3.11,3.11v2.29c0,.4.08.78.21,1.13-1.35.34-2.36,1.56-2.36,3.02v2.29c0,.8.3,1.52.79,2.07-.49.55-.79,1.28-.79,2.07v2.29c0,.8.3,1.52.79,2.07-.28.32-.51.69-.64,1.11h-7.95c-.57,0-1.04.46-1.04,1.04s.46,1.04,1.04,1.04h7.8v1.18c0,1.71,1.4,3.11,3.11,3.11h12.12c.53,0,.8.35.89.5.09.15.27.56.02,1.02l-2.55,4.73c-.76,1.41-.72,3.06.1,4.43.75,1.26,2.04,2.05,3.48,2.17v4.8c0,.95-.78,1.73-1.73,1.73h-1.53c-.57,0-1.04.46-1.04,1.04v2.36l-4.83-3.22c-.17-.11-.37-.17-.58-.17h-5.4v-1.18c0-1.71-1.4-3.11-3.11-3.11h-5.81c-.57,0-1.04.46-1.04,1.04s.46,1.04,1.04,1.04h5.81c.57,0,1.04.46,1.04,1.04v2.29c0,.57-.46,1.04-1.04,1.04h-6.51c-.57,0-1.04.46-1.04,1.04s.46,1.04,1.04,1.04h6.51c.57,0,1.04.46,1.04,1.04v2.29c0,.57-.46,1.04-1.04,1.04h-6.51c-.57,0-1.04.46-1.04,1.04s.46,1.04,1.04,1.04h6.51c.57,0,1.04.46,1.04,1.04v2.29c0,.57-.46,1.04-1.04,1.04h-6.51c-.57,0-1.04.46-1.04,1.04s.46,1.04,1.04,1.04h4.37c.57,0,1.04.46,1.04,1.04v2.29c0,.57-.46,1.04-1.04,1.04h-18.92c-2.06,0-3.94-1.05-5.02-2.82-.56-.91-1.57-1.48-2.65-1.48h-2.5v-15.1h1.44c2.93,0,5.61-1.6,7-4.18l6.99-12.99h1.38c.86,0,1.64.44,2.08,1.18s.46,1.63.05,2.39l-2.55,4.73c-.42.79-.49,1.69-.19,2.51h-2.2c-.57,0-1.04.46-1.04,1.04s.46,1.04,1.04,1.04h6.6c.57,0,1.04-.46,1.04-1.04s-.46-1.04-1.04-1.04h-1.47c-.53,0-.8-.35-.89-.5s-.27-.56-.02-1.02l2.55-4.73c.76-1.41.72-3.06-.1-4.43-.75-1.26-2.03-2.05-3.48-2.17v-4.8c0-.95.78-1.73,1.73-1.73h.73c.57,0,1.04-.46,1.04-1.04s-.46-1.04-1.04-1.04h-.73c-2.1,0-3.8,1.71-3.8,3.8v4.78h-.3c-.38,0-.73.21-.91.55l-7.28,13.54c-1.03,1.91-3.01,3.09-5.17,3.09h-1.44c-1.14,0-2.07.93-2.07,2.07v15.1c0,1.14.93,2.07,2.07,2.07h2.5c.36,0,.69.19.88.49,1.46,2.38,3.99,3.81,6.79,3.81h18.92c1.71,0,3.11-1.4,3.11-3.11v-2.29c0-.4-.08-.78-.21-1.13,1.35-.34,2.36-1.56,2.36-3.02v-2.29c0-.8-.3-1.52-.79-2.07.49-.55.79-1.28.79-2.07v-2.29c0-.8-.3-1.52-.79-2.07.28-.32.51-.69.64-1.11h5.24l6.18,4.12c.32.21.73.23,1.06.05.34-.18.55-.53.55-.91v-3.26h.49c2.1,0,3.8-1.71,3.8-3.8v-4.79h.3c.38,0,.73-.21.91-.55l1.26-2.35c.27-.5.08-1.13-.42-1.4-.5-.27-1.13-.08-1.4.42l-.97,1.8h-1.38c-.86,0-1.64-.44-2.08-1.18s-.46-1.63-.05-2.39l2.55-4.73c.42-.79.49-1.69.19-2.51h2.2c.57,0,1.04-.46,1.04-1.04s-.46-1.04-1.04-1.04h-17.25c-.57,0-1.04-.46-1.04-1.04v-2.29c0-.57.46-1.04,1.04-1.04h6.51c.57,0,1.04-.46,1.04-1.04s-.46-1.04-1.04-1.04h-6.51c-.57,0-1.04-.46-1.04-1.04v-2.29c0-.57.46-1.04,1.04-1.04h6.51c.57,0,1.04-.46,1.04-1.04s-.46-1.04-1.04-1.04h-6.51c-.57,0-1.04-.46-1.04-1.04v-2.29c0-.57.46-1.04,1.04-1.04h6.51c.57,0,1.04-.46,1.04-1.04s-.46-1.04-1.04-1.04h-4.37c-.57,0-1.04-.46-1.04-1.04v-2.29c0-.57.46-1.04,1.04-1.04h4.37s.02,0,.03,0h14.52c2.06,0,3.94,1.05,5.02,2.82.56.91,1.57,1.48,2.65,1.48h2.5v15.1h-1.44c-2.93,0-5.61,1.6-7,4.18l-3.6,6.69c-.27.5-.08,1.13.42,1.4.5.27,1.13.08,1.4-.42l3.6-6.69c1.03-1.91,3.01-3.09,5.17-3.09h1.44c1.14,0,2.07-.93,2.07-2.07v-15.1c0-1.14-.93-2.07-2.07-2.07Z"/>
          <path class="cls-10" d="M598.41,314.63v-8.59c0-.57-.46-1.04-1.04-1.04s-1.04.46-1.04,1.04v8.59c0,.57.46,1.04,1.04,1.04s1.04-.46,1.04-1.04Z"/>
        </g>
      </g>
      <text class="cls-29" transform="translate(91.01 642.68)"><tspan class="cls-35"><tspan x="0" y="0">*STEP 2</tspan></tspan><tspan class="cls-56"><tspan x="0" y="13.2">• P</tspan><tspan class="cls-12" x="16.34" y="13.2">r</tspan><tspan x="20.34" y="13.2">omptly </tspan><tspan class="cls-48" x="58.44" y="13.2">r</tspan><tspan class="cls-46" x="62.44" y="13.2">e</tspan><tspan x="68.77" y="13.2">port the </tspan><tspan class="cls-46" x="112.68" y="13.2">c</tspan><tspan x="118.69" y="13.2">laim </tspan><tspan class="cls-28" x="142.07" y="13.2">t</tspan><tspan x="146.35" y="13.2">o the Insu</tspan><tspan class="cls-50" x="196.9" y="13.2">r</tspan><tspan x="200.81" y="13.2">a</tspan><tspan class="cls-21" x="207" y="13.2">n</tspan><tspan class="cls-46" x="213.6" y="13.2">c</tspan><tspan x="219.6" y="13.2">e Compa</tspan><tspan class="cls-16" x="265.16" y="13.2">n</tspan><tspan class="cls-13" x="271.59" y="13.2">y</tspan><tspan x="276.62" y="13.2">.</tspan></tspan><tspan class="cls-56"><tspan x="0" y="26.4">• Ensu</tspan><tspan class="cls-12" x="35.03" y="26.4">r</tspan><tspan x="39.03" y="26.4">e the p</tspan><tspan class="cls-48" x="74.19" y="26.4">r</tspan><tspan x="78.19" y="26.4">ompt appoint</tspan><tspan class="cls-54" x="147.55" y="26.4">m</tspan><tspan class="cls-46" x="157.01" y="26.4">e</tspan><tspan x="163.34" y="26.4">nt of a l</tspan><tspan class="cls-57" x="200.63" y="26.4">o</tspan><tspan x="207.15" y="26.4">ss adjus</tspan><tspan class="cls-28" x="249.19" y="26.4">t</tspan><tspan x="253.47" y="26.4">er or assessor whe</tspan><tspan class="cls-12" x="349.84" y="26.4">r</tspan><tspan x="353.84" y="26.4">e o</tspan><tspan class="cls-54" x="369.14" y="26.4">n</tspan><tspan x="375.74" y="26.4">e is </tspan><tspan class="cls-48" x="395.21" y="26.4">r</tspan><tspan x="399.2" y="26.4">equi</tspan><tspan class="cls-12" x="421.69" y="26.4">r</tspan><tspan x="425.69" y="26.4">ed a</tspan><tspan class="cls-54" x="447.18" y="26.4">n</tspan><tspan x="453.77" y="26.4">d </tspan><tspan class="cls-16" x="462.58" y="26.4">f</tspan><tspan x="466.35" y="26.4">oll</tspan><tspan class="cls-16" x="478.43" y="26.4">o</tspan><tspan x="484.82" y="26.4">w up </tspan><tspan class="cls-42" x="511.04" y="26.4">t</tspan><tspan x="515.31" y="26.4">o as</tspan><tspan class="cls-46" x="536.14" y="26.4">c</tspan><tspan x="542.15" y="26.4">ertain that the l</tspan><tspan class="cls-39" x="621.75" y="26.4">o</tspan><tspan x="628.28" y="26.4">ss adjus</tspan><tspan class="cls-42" x="670.32" y="26.4">t</tspan><tspan x="674.6" y="26.4">er or assessor p</tspan><tspan class="cls-48" x="755.85" y="26.4">r</tspan><tspan x="759.85" y="26.4">o</tspan><tspan class="cls-46" x="766.46" y="26.4">c</tspan><tspan x="772.46" y="26.4">eeds </tspan><tspan class="cls-42" x="800.09" y="26.4">t</tspan><tspan x="804.37" y="26.4">o visit the si</tspan><tspan class="cls-28" x="865.41" y="26.4">t</tspan><tspan x="869.69" y="26.4">e of the l</tspan><tspan class="cls-39" x="913.79" y="26.4">o</tspan><tspan x="920.32" y="26.4" xml:space="preserve">ss or   </tspan><tspan class="cls-1" x="951.5" y="26.4">	</tspan></tspan><tspan class="cls-56"><tspan x="0" y="39.6" xml:space="preserve">    damage </tspan><tspan class="cls-16" x="52.59" y="39.6">f</tspan><tspan x="56.36" y="39.6">or in</tspan><tspan class="cls-16" x="78.66" y="39.6">v</tspan><tspan x="84.19" y="39.6">estigation.</tspan></tspan><tspan class="cls-56"><tspan x="0" y="52.8">• D</tspan><tspan class="cls-46" x="17.06" y="52.8">e</tspan><tspan x="23.39" y="52.8">p</tspan><tspan class="cls-46" x="29.99" y="52.8">e</tspan><tspan class="cls-54" x="36.32" y="52.8">n</tspan><tspan x="42.92" y="52.8">ding on the natu</tspan><tspan class="cls-12" x="127.05" y="52.8">r</tspan><tspan class="cls-16" x="131.05" y="52.8">e</tspan><tspan x="137.32" y="52.8">, magnitude or serious</tspan><tspan class="cls-54" x="251.93" y="52.8">n</tspan><tspan x="258.52" y="52.8">ess of the l</tspan><tspan class="cls-39" x="314.29" y="52.8">o</tspan><tspan x="320.82" y="52.8">ss or damag</tspan><tspan class="cls-17" x="382.69" y="52.8">e</tspan><tspan x="388.97" y="52.8">, </tspan><tspan class="cls-16" x="394.23" y="52.8">w</tspan><tspan x="402.58" y="52.8">e s</tspan><tspan class="cls-46" x="417.11" y="52.8">e</tspan><tspan class="cls-54" x="423.44" y="52.8">n</tspan><tspan x="430.03" y="52.8">d a </tspan><tspan class="cls-48" x="447.22" y="52.8">r</tspan><tspan class="cls-46" x="451.22" y="52.8">e</tspan><tspan x="457.55" y="52.8">p</tspan><tspan class="cls-12" x="464.15" y="52.8">r</tspan><tspan x="468.15" y="52.8">es</tspan><tspan class="cls-46" x="480.48" y="52.8">e</tspan><tspan x="486.81" y="52.8">ntati</tspan><tspan class="cls-16" x="511.44" y="52.8">v</tspan><tspan x="516.97" y="52.8">e </tspan><tspan class="cls-28" x="525.67" y="52.8">t</tspan><tspan x="529.95" y="52.8">o the si</tspan><tspan class="cls-42" x="567.2" y="52.8">t</tspan><tspan class="cls-16" x="571.48" y="52.8">e</tspan><tspan x="577.75" y="52.8">.</tspan></tspan><tspan class="cls-56"><tspan x="0" y="66">• Maintain a </tspan><tspan class="cls-46" x="65.14" y="66">c</tspan><tspan x="71.14" y="66">onstant t</tspan><tspan class="cls-50" x="118.85" y="66">r</tspan><tspan x="122.77" y="66">ack of the Adjus</tspan><tspan class="cls-28" x="204.69" y="66">t</tspan><tspan x="208.97" y="66">er in</tspan><tspan class="cls-16" x="231.16" y="66">v</tspan><tspan x="236.69" y="66">estigation or adjust</tspan><tspan class="cls-21" x="337.41" y="66">m</tspan><tspan class="cls-46" x="346.87" y="66">e</tspan><tspan x="353.2" y="66">nt of the l</tspan><tspan class="cls-39" x="401.97" y="66">o</tspan><tspan x="408.5" y="66">ss.</tspan></tspan><tspan class="cls-56"><tspan x="0" y="79.2">• Gi</tspan><tspan class="cls-16" x="20.16" y="79.2">v</tspan><tspan x="25.7" y="79.2">e advi</tspan><tspan class="cls-46" x="55.68" y="79.2">c</tspan><tspan x="61.68" y="79.2">e a</tspan><tspan class="cls-54" x="76.57" y="79.2">n</tspan><tspan x="83.16" y="79.2">d assist in the </tspan><tspan class="cls-46" x="156.58" y="79.2">c</tspan><tspan x="162.59" y="79.2">ompletion of </tspan><tspan class="cls-46" x="230.06" y="79.2">c</tspan><tspan x="236.06" y="79.2">laim </tspan><tspan class="cls-16" x="259.44" y="79.2">f</tspan><tspan x="263.21" y="79.2">orms, whe</tspan><tspan class="cls-12" x="316.25" y="79.2">r</tspan><tspan x="320.25" y="79.2">e </tspan><tspan class="cls-54" x="328.94" y="79.2">n</tspan><tspan x="335.54" y="79.2">e</tspan><tspan class="cls-46" x="342.03" y="79.2">c</tspan><tspan x="348.04" y="79.2">essa</tspan><tspan class="cls-48" x="372.39" y="79.2">r</tspan><tspan class="cls-13" x="376.39" y="79.2">y</tspan><tspan x="381.43" y="79.2">, a</tspan><tspan class="cls-21" x="392.87" y="79.2">n</tspan><tspan x="399.46" y="79.2">d the </tspan><tspan class="cls-46" x="428.14" y="79.2">c</tspan><tspan x="434.15" y="79.2">ompiling of the </tspan><tspan class="cls-12" x="513.2" y="79.2">r</tspan><tspan x="517.2" y="79.2">equi</tspan><tspan class="cls-48" x="539.69" y="79.2">r</tspan><tspan x="543.68" y="79.2">ed </tspan><tspan class="cls-46" x="558.99" y="79.2">c</tspan><tspan x="564.99" y="79.2">laims supporting docu</tspan><tspan class="cls-54" x="679.35" y="79.2">m</tspan><tspan class="cls-46" x="688.81" y="79.2">e</tspan><tspan x="695.14" y="79.2">nts a</tspan><tspan class="cls-54" x="720.54" y="79.2">n</tspan><tspan x="727.13" y="79.2">d</tspan><tspan class="cls-43" x="733.74" y="79.2">/</tspan><tspan x="737.62" y="79.2">or a</tspan><tspan class="cls-16" x="756.72" y="79.2">n</tspan><tspan x="763.15" y="79.2">y other details.</tspan></tspan><tspan class="cls-56"><tspan x="0" y="92.4">• </tspan><tspan class="cls-46" x="9.57" y="92.4">F</tspan><tspan x="15.02" y="92.4">oll</tspan><tspan class="cls-16" x="27.1" y="92.4">o</tspan><tspan x="33.49" y="92.4">w up the Insu</tspan><tspan class="cls-50" x="101.45" y="92.4">r</tspan><tspan x="105.36" y="92.4">a</tspan><tspan class="cls-54" x="111.55" y="92.4">n</tspan><tspan class="cls-46" x="118.15" y="92.4">c</tspan><tspan x="124.15" y="92.4">e Compa</tspan><tspan class="cls-16" x="169.71" y="92.4">n</tspan><tspan x="176.14" y="92.4">y </tspan><tspan class="cls-42" x="184.26" y="92.4">t</tspan><tspan x="188.53" y="92.4">o </tspan><tspan class="cls-46" x="197.34" y="92.4">e</tspan><tspan x="203.67" y="92.4">nsu</tspan><tspan class="cls-48" x="222.8" y="92.4">r</tspan><tspan x="226.8" y="92.4">e that whe</tspan><tspan class="cls-12" x="281.3" y="92.4">r</tspan><tspan x="285.3" y="92.4">e a </tspan><tspan class="cls-46" x="302.38" y="92.4">c</tspan><tspan x="308.39" y="92.4">laim has be</tspan><tspan class="cls-22" x="365.74" y="92.4">e</tspan><tspan x="372.07" y="92.4">n fully docu</tspan><tspan class="cls-21" x="431.18" y="92.4">m</tspan><tspan class="cls-46" x="440.64" y="92.4">e</tspan><tspan x="446.97" y="92.4">n</tspan><tspan class="cls-28" x="453.62" y="92.4">t</tspan><tspan x="457.9" y="92.4">ed, it is p</tspan><tspan class="cls-12" x="503.1" y="92.4">r</tspan><tspan x="507.1" y="92.4">omptly settled.</tspan></tspan><tspan class="cls-56"><tspan x="0" y="105.6">• In the </tspan><tspan class="cls-54" x="41.03" y="105.6">c</tspan><tspan x="47.15" y="105.6">ase of </tspan><tspan class="cls-54" x="80.66" y="105.6">m</tspan><tspan x="90.12" y="105.6">o</tspan><tspan class="cls-42" x="96.72" y="105.6">t</tspan><tspan x="101" y="105.6">or </tspan><tspan class="cls-16" x="113.92" y="105.6">v</tspan><tspan x="119.45" y="105.6">ehi</tspan><tspan class="cls-46" x="135.33" y="105.6">c</tspan><tspan x="141.34" y="105.6">le </tspan><tspan class="cls-46" x="152.77" y="105.6">c</tspan><tspan x="158.78" y="105.6">laims, </tspan><tspan class="cls-16" x="191.05" y="105.6">w</tspan><tspan x="199.4" y="105.6">e </tspan><tspan class="cls-46" x="208.1" y="105.6">c</tspan><tspan x="214.1" y="105.6">onstantly check with the </tspan><tspan class="cls-54" x="343.79" y="105.6">m</tspan><tspan x="353.25" y="105.6">o</tspan><tspan class="cls-42" x="359.86" y="105.6">t</tspan><tspan x="364.14" y="105.6">or </tspan><tspan class="cls-16" x="377.05" y="105.6">v</tspan><tspan x="382.58" y="105.6">ehi</tspan><tspan class="cls-46" x="398.47" y="105.6">c</tspan><tspan x="404.47" y="105.6">le </tspan><tspan class="cls-16" x="415.91" y="105.6">w</tspan><tspan x="424.26" y="105.6">or</tspan><tspan class="cls-48" x="434.97" y="105.6">k</tspan><tspan x="440.47" y="105.6">sho</tspan><tspan class="cls-57" x="459.56" y="105.6">p</tspan><tspan x="466.08" y="105.6">s a</tspan><tspan class="cls-54" x="480.3" y="105.6">n</tspan><tspan x="486.9" y="105.6">d </tspan><tspan class="cls-46" x="495.7" y="105.6">e</tspan><tspan x="502.03" y="105.6">nsu</tspan><tspan class="cls-12" x="521.17" y="105.6">r</tspan><tspan x="525.16" y="105.6">e that </tspan><tspan class="cls-48" x="557.95" y="105.6">r</tspan><tspan class="cls-46" x="561.95" y="105.6">e</tspan><tspan x="568.28" y="105.6">pai</tspan><tspan class="cls-16" x="583.8" y="105.6">r</tspan><tspan x="587.69" y="105.6">s a</tspan><tspan class="cls-12" x="601.92" y="105.6">r</tspan><tspan x="605.91" y="105.6">e </tspan><tspan class="cls-54" x="614.61" y="105.6">c</tspan><tspan x="620.72" y="105.6">arried out without u</tspan><tspan class="cls-54" x="722.27" y="105.6">n</tspan><tspan x="728.86" y="105.6">due del</tspan><tspan class="cls-20" x="766.65" y="105.6">a</tspan><tspan class="cls-13" x="772.51" y="105.6">y</tspan><tspan x="777.55" y="105.6">.</tspan></tspan><tspan class="cls-56"><tspan x="0" y="118.8">• In </tspan><tspan class="cls-12" x="21.16" y="118.8">r</tspan><tspan x="25.16" y="118.8">espect of legal liabili</tspan><tspan class="cls-46" x="129.72" y="118.8">t</tspan><tspan x="134.08" y="118.8">y </tspan><tspan class="cls-22" x="142.2" y="118.8">c</tspan><tspan x="148.2" y="118.8">laims, </tspan><tspan class="cls-17" x="180.48" y="118.8">w</tspan><tspan x="188.83" y="118.8">e </tspan><tspan class="cls-46" x="197.52" y="118.8">e</tspan><tspan x="203.85" y="118.8">nsu</tspan><tspan class="cls-48" x="222.98" y="118.8">r</tspan><tspan x="226.98" y="118.8">e that p</tspan><tspan class="cls-12" x="266.37" y="118.8">r</tspan><tspan x="270.37" y="118.8">ompt att</tspan><tspan class="cls-46" x="314.39" y="118.8">e</tspan><tspan x="320.72" y="118.8">ntion is a</tspan><tspan class="cls-22" x="367.05" y="118.8">cc</tspan><tspan x="379.07" y="118.8">o</tspan><tspan class="cls-12" x="385.67" y="118.8">r</tspan><tspan x="389.67" y="118.8">ded </tspan><tspan class="cls-28" x="411.58" y="118.8">t</tspan><tspan x="415.86" y="118.8">o legal p</tspan><tspan class="cls-12" x="458.22" y="118.8">r</tspan><tspan x="462.22" y="118.8">o</tspan><tspan class="cls-46" x="468.83" y="118.8">c</tspan><tspan x="474.83" y="118.8">edu</tspan><tspan class="cls-48" x="494.58" y="118.8">r</tspan><tspan x="498.58" y="118.8">es </tspan><tspan class="cls-16" x="513.11" y="118.8">f</tspan><tspan x="516.88" y="118.8">or insta</tspan><tspan class="cls-54" x="555.73" y="118.8">n</tspan><tspan class="cls-46" x="562.33" y="118.8">c</tspan><tspan class="cls-16" x="568.33" y="118.8">e</tspan><tspan x="574.61" y="118.8">, sum</tspan><tspan class="cls-21" x="601.86" y="118.8">m</tspan><tspan x="611.32" y="118.8">ons </tspan><tspan class="cls-28" x="632.61" y="118.8">t</tspan><tspan x="636.89" y="118.8">o </tspan><tspan class="cls-46" x="645.7" y="118.8">e</tspan><tspan x="652.03" y="118.8">n</tspan><tspan class="cls-28" x="658.68" y="118.8">t</tspan><tspan x="662.96" y="118.8">er app</tspan><tspan class="cls-12" x="695.15" y="118.8">e</tspan><tspan x="701.53" y="118.8">a</tspan><tspan class="cls-50" x="707.72" y="118.8">r</tspan><tspan x="711.63" y="118.8">a</tspan><tspan class="cls-54" x="717.82" y="118.8">n</tspan><tspan class="cls-46" x="724.42" y="118.8">c</tspan><tspan x="730.42" y="118.8">e in </tspan><tspan class="cls-46" x="750.71" y="118.8">c</tspan><tspan x="756.71" y="118.8">ourt a</tspan><tspan class="cls-12" x="786.99" y="118.8">r</tspan><tspan x="790.99" y="118.8">e passed on </tspan><tspan class="cls-28" x="854.9" y="118.8">t</tspan><tspan x="859.18" y="118.8">o or advised </tspan><tspan class="cls-28" x="923.32" y="118.8">t</tspan><tspan x="927.6" y="118.8">o </tspan><tspan class="cls-55" x="936.4" y="118.8">	</tspan></tspan><tspan class="cls-56"><tspan x="0" y="132" xml:space="preserve">    the Insu</tspan><tspan class="cls-50" x="50.54" y="132">r</tspan><tspan x="54.46" y="132">a</tspan><tspan class="cls-54" x="60.65" y="132">n</tspan><tspan class="cls-46" x="67.24" y="132">c</tspan><tspan x="73.25" y="132">e Compa</tspan><tspan class="cls-16" x="118.8" y="132">n</tspan><tspan x="125.23" y="132">y </tspan><tspan class="cls-16" x="133.35" y="132">f</tspan><tspan x="137.12" y="132">or Im</tspan><tspan class="cls-21" x="162.29" y="132">m</tspan><tspan x="171.75" y="132">edia</tspan><tspan class="cls-28" x="193.77" y="132">t</tspan><tspan x="198.05" y="132">e action.</tspan></tspan></text>
      <g>
        <path class="cls-3" d="M449.43,101.83h-120.62c-10.16,0-18.4-8.24-18.4-18.4s8.24-18.4,18.4-18.4h120.62c10.16,0,18.4,8.24,18.4,18.4s-8.24,18.4-18.4,18.4Z"/>
        <text class="cls-24" transform="translate(96.38 92.15)"><tspan x="0" y="0">GENE</tspan><tspan class="cls-45" x="66.38" y="0">R</tspan><tspan class="cls-19" x="82.7" y="0">A</tspan><tspan class="cls-34" x="101.57" y="0">L </tspan><tspan class="cls-40" x="121.22" y="0">C</tspan><tspan x="137.37" y="0">L</tspan><tspan class="cls-18" x="152.23" y="0">A</tspan><tspan x="171.09" y="0">I</tspan><tspan class="cls-2" x="177" y="0">M</tspan><tspan class="cls-34" x="196.87" y="0">S PRO</tspan><tspan class="cls-40" x="268.72" y="0">C</tspan><tspan x="284.88" y="0">EDU</tspan><tspan class="cls-27" x="333.57" y="0">R</tspan><tspan x="350.37" y="0">E</tspan></text>
      </g>
    </g>
  </g>
</svg>