<?xml version="1.0" encoding="UTF-8"?>
<svg id="Layer_1" data-name="Layer 1" xmlns="http://www.w3.org/2000/svg" viewBox="0 0 100 100">
  <defs>
    <style>
      .cls-1 {
        fill: #f9a51a;
      }

      .cls-1, .cls-2, .cls-3 {
        stroke-width: 0px;
      }

      .cls-2 {
        fill: #000;
      }

      .cls-3 {
        fill: #fff;
      }
    </style>
  </defs>
  <rect class="cls-1" x="7.77" y="12.41" width="84.46" height="84.46" rx="12" ry="12"/>
  <path class="cls-2" d="M47.51,21.25c-.12-.11-.17-.26-.17-.43V6.18l-4.46,3.34c-.13.1-.26.16-.4.16-.16,0-.31-.09-.46-.26l-.7-.86c-.09-.12-.13-.24-.13-.37,0-.21.09-.37.27-.5l5.86-4.39c.2-.12.43-.18.7-.18h1.37c.18,0,.33.06.44.17.12.11.17.26.17.43v17.09c0,.17-.06.32-.17.43-.12.11-.26.17-.44.17h-1.43c-.18,0-.33-.06-.44-.17Z"/>
  <path class="cls-3" d="M60.62,41.01c-1.03,0-1.96.36-2.72.95-.62-1.72-2.25-2.96-4.18-2.96-1.4,0-2.63.66-3.45,1.67-.82-1.01-2.05-1.67-3.45-1.67s-2.63.66-3.45,1.67c-.82-1.01-2.05-1.67-3.45-1.67-2.46,0-4.46,2-4.46,4.46v4.74h-1.51c-2.97,0-5.38,2.41-5.38,5.38v9.31c0,4.78,1.86,9.28,5.25,12.67l1.14,1.14c2.19,2.19,5.1,3.39,8.2,3.39h10.64c3.89,0,7.49-1.93,9.64-5.16,1.06-1.6,1.63-3.45,1.63-5.37v-24.09c0-2.46-2-4.46-4.46-4.46ZM60.62,43.03c1.34,0,2.44,1.09,2.44,2.44v7.18c0,1.34-1.09,2.44-2.44,2.44s-2.44-1.09-2.44-2.44v-7.18c0-1.34,1.09-2.44,2.44-2.44ZM53.73,41.01c1.35,0,2.44,1.09,2.44,2.44v9.19c0,1.34-1.09,2.44-2.44,2.44s-2.44-1.09-2.44-2.44v-9.19c0-1.34,1.09-2.44,2.44-2.44ZM46.83,41.01c1.35,0,2.44,1.09,2.44,2.44v9.19c0,1.34-1.09,2.44-2.44,2.44-.54,0-1.06-.18-1.48-.51.83-1.08,1.34-2.41,1.34-3.88,0-1.31-1.02-2.36-2.3-2.47v-4.78c0-1.34,1.09-2.44,2.44-2.44ZM37.5,43.45c0-1.34,1.09-2.44,2.44-2.44s2.44,1.09,2.44,2.44v4.74h-4.87v-4.74ZM61.77,73.8c-1.78,2.67-4.75,4.26-7.96,4.26h-10.64c-2.56,0-4.96-1-6.77-2.8l-1.14-1.14c-3-3-4.65-6.99-4.65-11.24v-9.31c0-1.85,1.51-3.36,3.36-3.36h10.22c.27,0,.49.22.49.49,0,2.42-1.97,4.38-4.38,4.38h-1.48c-1.84,0-3.33,1.49-3.33,3.33v4.57c0,.56.45,1.01,1.01,1.01,3.24,0,5.88,2.64,5.88,5.89,0,.56.45,1.01,1.01,1.01s1.01-.45,1.01-1.01c0-4.02-3.01-7.34-6.89-7.84v-3.63c0-.72.59-1.31,1.31-1.31h1.48c1.34,0,2.58-.42,3.61-1.13.81.71,1.84,1.13,2.93,1.13,1.4,0,2.63-.66,3.45-1.67.82,1.01,2.05,1.67,3.45,1.67s2.63-.66,3.45-1.67c.82,1.01,2.05,1.67,3.45,1.67.9,0,1.74-.27,2.44-.73v13.19c0,1.51-.44,2.98-1.29,4.25Z"/>
</svg>