<?xml version="1.0" encoding="UTF-8"?>
<svg id="Layer_1" data-name="Layer 1" xmlns="http://www.w3.org/2000/svg" viewBox="0 0 100 100">
  <defs>
    <style>
      .cls-1 {
        fill: #f9a51a;
      }

      .cls-1, .cls-2, .cls-3 {
        stroke-width: 0px;
      }

      .cls-2 {
        fill: #000;
      }

      .cls-3 {
        fill: #fff;
      }
    </style>
  </defs>
  <rect class="cls-1" x="7.77" y="12.41" width="84.46" height="84.46" rx="12" ry="12"/>
  <path class="cls-2" d="M52.02,21.25c-.12-.11-.17-.26-.17-.43v-3.76h-8.71c-.18,0-.33-.06-.44-.17-.12-.11-.17-.26-.17-.43v-1.05c0-.26.1-.52.3-.78l8.07-11.05c.09-.14.22-.25.4-.33.18-.08.38-.12.59-.12h1.94c.18,0,.33.06.44.17.12.11.17.26.17.43v11.05h2.42c.18,0,.33.06.46.17.13.11.19.26.19.43v1.07c0,.17-.06.32-.17.43-.12.11-.26.17-.44.17h-2.45v3.76c0,.17-.06.32-.17.43-.12.11-.26.17-.44.17h-1.34c-.18,0-.33-.06-.44-.17ZM51.87,14.83V5.87l-6.48,8.96h6.48Z"/>
  <g>
    <path class="cls-3" d="M65.08,63.77c.36-.68.57-1.45.57-2.26v-2.31c0-1.04.01-1.53.15-1.86.14-.33.47-.69,1.21-1.43l1.64-1.64c1.88-1.88,1.88-4.93,0-6.81l-1.64-1.64c-.73-.73-1.07-1.09-1.21-1.42-.14-.33-.15-.82-.15-1.86v-2.31c0-2.65-2.16-4.81-4.81-4.81h-2.31c-1.04,0-1.53-.01-1.86-.15-.33-.14-.69-.47-1.43-1.21l-1.64-1.64c-.91-.91-2.11-1.41-3.4-1.41s-2.5.5-3.4,1.41l-1.64,1.64c-.73.73-1.09,1.07-1.42,1.21-.33.14-.82.15-1.86.15h-2.31c-2.65,0-4.81,2.16-4.81,4.81,0,.52.42.95.95.95s.95-.42.95-.95c0-1.61,1.31-2.92,2.92-2.92h2.31c2.5,0,2.85-.14,4.62-1.91l1.64-1.64c.55-.55,1.28-.85,2.07-.85s1.52.3,2.07.85l1.64,1.64c1.77,1.77,2.12,1.91,4.62,1.91h2.31c1.61,0,2.92,1.31,2.92,2.92v2.31c0,2.5.14,2.85,1.91,4.62l1.64,1.64c1.14,1.14,1.14,2.99,0,4.13l-1.64,1.64c-1.77,1.77-1.91,2.12-1.91,4.62v2.31c0,1.61-1.31,2.92-2.92,2.92h-2.31c-2.5,0-2.85.14-4.62,1.91l-1.64,1.64c-1.14,1.14-2.99,1.14-4.13,0l-1.64-1.64c-1.77-1.77-2.12-1.91-4.62-1.91h-2.31c-1.61,0-2.92-1.31-2.92-2.92v-2.31c0-2.5-.14-2.85-1.91-4.62l-1.64-1.64c-1.14-1.14-1.14-2.99,0-4.13.37-.37.37-.97,0-1.34-.37-.37-.97-.37-1.34,0-1.88,1.88-1.88,4.93,0,6.81l1.64,1.64c.73.73,1.07,1.09,1.21,1.42.14.33.15.82.15,1.86v2.31c0,.82.21,1.59.57,2.26l-4.71,8.16c-.38.65-.34,1.45.1,2.07.44.62,1.17.92,1.92.78l4.34-.81,1.44,4.07c.22.73.84,1.26,1.6,1.36.08.01.17.02.25.02.68,0,1.31-.36,1.66-.96l5.14-8.91c.9.78,2.02,1.17,3.15,1.17,1.12,0,2.25-.39,3.15-1.17l5.14,8.91c.35.6.98.96,1.66.96.08,0,.16,0,.25-.02.76-.1,1.39-.63,1.6-1.36l1.44-4.07,4.34.81c.74.14,1.48-.16,1.92-.78.44-.62.48-1.42.1-2.07l-4.71-8.16ZM40.27,77.51s0,.01,0,.01c-.01,0-.04,0-.05,0,0,0,0,0,0-.01,0-.02-.01-.04-.02-.06l-1.72-4.86c-.16-.44-.61-.7-1.06-.61l-5.13.95s-.01,0-.01,0c-.01,0-.03-.03-.02-.05l4.37-7.57c.82.63,1.84,1.01,2.95,1.01h2.31c1.04,0,1.53.01,1.86.15.33.14.69.47,1.43,1.21l.5.5-5.39,9.33ZM68.13,72.92s0,0-.01,0l-5.13-.95c-.46-.08-.91.18-1.06.61l-1.72,4.86s-.01.04-.02.06c0,0,0,.01,0,.01,0,0-.04.01-.05,0,0,0,0,0-.01-.02l-5.39-9.33.5-.5c.73-.73,1.09-1.07,1.42-1.21.33-.14.82-.15,1.86-.15h2.31c1.11,0,2.13-.38,2.95-1.01l4.37,7.58s-.02.04-.02.04h0Z"/>
    <path class="cls-3" d="M57.67,46.08c0-1.48-1.21-2.69-2.69-2.69h-1.04c-.21,0-.57,0-.64-.03-.07-.03-.33-.29-.47-.43l-.74-.74c-.51-.51-1.18-.78-1.9-.78s-1.39.28-1.9.78l-.74.74c-.15.15-.4.4-.47.43-.07.03-.44.03-.64.03h-1.04c-1.48,0-2.69,1.21-2.69,2.69v1.04c0,.21,0,.57-.03.64-.03.07-.29.33-.43.47l-.74.74c-.51.51-.78,1.18-.78,1.9s.28,1.39.78,1.9l.74.74c.15.15.4.4.43.47.03.07.03.44.03.64v1.04c0,1.48,1.21,2.69,2.69,2.69h1.04c.21,0,.57,0,.64.03.07.03.33.29.47.43l.74.74c.52.52,1.21.79,1.9.79.69,0,1.38-.26,1.9-.79l.74-.74c.15-.15.4-.4.47-.43.07-.03.44-.03.64-.03h1.04c1.48,0,2.69-1.2,2.69-2.69v-1.04c0-.21,0-.57.03-.64.03-.07.29-.33.43-.47l.74-.74c.51-.51.78-1.18.78-1.9s-.28-1.39-.78-1.9l-.74-.74c-.15-.15-.4-.4-.43-.47-.03-.07-.03-.44-.03-.64v-1.04s0,0,0,0h0ZM57.53,51.43l-.74.74c-.89.89-1.01,1.19-1.01,2.45v1.04c0,.44-.36.8-.8.8h-1.04c-1.26,0-1.56.12-2.45,1.01l-.74.74c-.31.31-.81.31-1.12,0l-.74-.74c-.89-.89-1.19-1.01-2.45-1.01h-1.04c-.44,0-.8-.36-.8-.8v-1.04c0-1.26-.12-1.56-1.01-2.45l-.74-.74c-.15-.15-.23-.35-.23-.56s.08-.41.23-.56l.74-.74c.89-.89,1.01-1.19,1.01-2.45v-1.04c0-.44.36-.8.8-.8h1.04c1.26,0,1.56-.12,2.45-1.01l.74-.74c.15-.15.35-.23.56-.23s.41.08.56.23l.74.74c.89.89,1.19,1.01,2.45,1.01h1.04c.44,0,.8.36.8.8v1.04c0,1.26.12,1.56,1.01,2.45l.74.74c.31.31.31.81,0,1.12h0Z"/>
    <path class="cls-3" d="M35.47,45.71c.52,0,.95-.42.95-.95s-.42-.95-.95-.95h0c-.52,0-.94.42-.94.95s.42.95.95.95Z"/>
  </g>
</svg>