<?xml version="1.0" encoding="UTF-8"?>
<svg id="Layer_1" data-name="Layer 1" xmlns="http://www.w3.org/2000/svg" viewBox="0 0 100 100">
  <defs>
    <style>
      .cls-1 {
        fill: #f9a51a;
      }

      .cls-1, .cls-2, .cls-3 {
        stroke-width: 0px;
      }

      .cls-2 {
        fill: #000;
      }

      .cls-3 {
        fill: #fff;
      }
    </style>
  </defs>
  <rect class="cls-1" x="7.77" y="11.33" width="84.46" height="84.46" rx="12" ry="12"/>
  <g>
    <path class="cls-3" d="M57.41,79.34h-19.74c-6.62,0-12.01-5.39-12.01-12.02v-17.75c0-6.62,5.39-12.01,12.01-12.01h19.74c3.81,0,7.31,1.75,9.61,4.8.46.61.33,1.47-.27,1.93-.61.46-1.47.33-1.93-.27-1.77-2.35-4.47-3.7-7.41-3.7h-19.74c-5.1,0-9.26,4.15-9.26,9.26v17.75c0,5.11,4.15,9.27,9.26,9.27h19.74c5.1,0,9.26-4.16,9.26-9.27v-7.6c0-.76.62-1.38,1.38-1.38s1.38.62,1.38,1.38v7.6c0,6.63-5.39,12.02-12.01,12.02Z"/>
    <path class="cls-3" d="M50.7,67.47c-1.43,0-2.77-.56-3.78-1.57l-7-7c-.54-.54-.54-1.41,0-1.95.54-.54,1.41-.54,1.95,0l7,7c.98.98,2.69.98,3.67,0l20.19-20.19c.54-.54,1.41-.54,1.95,0,.54.54.54,1.41,0,1.95l-20.19,20.19c-1.01,1.01-2.35,1.57-3.78,1.57Z"/>
  </g>
  <path class="cls-2" d="M46.47,21.41c-.99-.43-1.74-.98-2.25-1.67-.51-.69-.78-1.41-.81-2.16,0-.15.05-.27.16-.36.1-.09.23-.14.39-.14h1.27c.36,0,.6.18.72.55.22.84.71,1.43,1.45,1.77.74.34,1.61.51,2.61.51,1.22,0,2.2-.28,2.92-.84.72-.56,1.09-1.37,1.09-2.42,0-2.03-1.27-3.04-3.8-3.04h-2.46c-.17,0-.31-.05-.43-.16-.11-.11-.17-.25-.17-.41v-.68c0-.23.09-.46.28-.68l5.02-5.33h-7.63c-.17,0-.31-.05-.43-.16-.11-.11-.17-.25-.17-.41v-.95c0-.17.06-.31.17-.43.11-.12.25-.18.43-.18h10.32c.19,0,.34.05.45.16.11.11.17.26.17.44v.9c0,.2-.09.39-.28.58l-4.99,5.4.41.03c1.76.05,3.15.49,4.16,1.33,1.02.84,1.53,2.06,1.53,3.67,0,1.09-.28,2.03-.85,2.84-.57.8-1.35,1.42-2.35,1.85-1,.43-2.13.64-3.39.64-1.36,0-2.54-.21-3.53-.64Z"/>
</svg>