<?xml version="1.0" encoding="UTF-8"?>
<svg id="Layer_1" data-name="Layer 1" xmlns="http://www.w3.org/2000/svg" viewBox="0 0 100 100">
  <defs>
    <style>
      .cls-1 {
        fill: #f9a51a;
      }

      .cls-1, .cls-2, .cls-3 {
        stroke-width: 0px;
      }

      .cls-2 {
        fill: #000;
      }

      .cls-3 {
        fill: #fff;
      }
    </style>
  </defs>
  <rect class="cls-1" x="7.77" y="12.41" width="84.46" height="84.46" rx="12" ry="12"/>
  <path class="cls-2" d="M39.68,21.53c-.12-.11-.17-.26-.17-.43v-.84c0-.4.22-.78.67-1.15l5.7-5.54c1.38-1.11,2.33-2.02,2.85-2.73.52-.71.78-1.45.78-2.23,0-1.01-.29-1.8-.87-2.38-.58-.57-1.43-.86-2.54-.86-1.04,0-1.87.3-2.5.9-.63.6-1.01,1.4-1.16,2.39-.04.21-.12.36-.26.46-.13.1-.28.14-.44.14h-1.4c-.16,0-.3-.05-.4-.14-.11-.1-.16-.21-.16-.35.04-.94.3-1.84.78-2.7.48-.86,1.2-1.57,2.14-2.12.94-.55,2.07-.82,3.4-.82,2.03,0,3.55.51,4.58,1.53,1.03,1.02,1.55,2.31,1.55,3.88,0,1.1-.28,2.09-.85,2.97-.56.88-1.44,1.82-2.62,2.83l-5.16,5.09h8.39c.2,0,.35.06.47.17.12.11.17.26.17.43v1.07c0,.17-.06.32-.19.43-.13.11-.28.17-.46.17h-11.86c-.18,0-.33-.06-.44-.17Z"/>
  <g>
    <path class="cls-3" d="M72.48,81.48H21.67c-.49,0-.88-.39-.88-.88v-2.84c0-1.77,1.44-3.2,3.2-3.2h46.17c1.77,0,3.2,1.44,3.2,3.2v2.84c0,.49-.39.88-.88.88ZM22.55,79.72h49.05v-1.96c0-.8-.65-1.44-1.44-1.44H23.99c-.8,0-1.44.65-1.44,1.44v1.96Z"/>
    <path class="cls-3" d="M67.81,76.32H26.33c-.49,0-.88-.39-.88-.88v-2.6c0-2.09,1.7-3.79,3.79-3.79h35.67c2.09,0,3.79,1.7,3.79,3.79v2.6c0,.49-.39.88-.88.88ZM27.21,74.56h39.72v-1.72c0-1.12-.91-2.03-2.03-2.03H29.24c-1.12,0-2.03.91-2.03,2.03v1.72Z"/>
    <path class="cls-3" d="M53.84,64.88c-.9,0-1.77-.26-2.54-.77l-7.43-4.95c-1.02-.68-1.72-1.72-1.96-2.92-.24-1.2,0-2.43.68-3.45l8.37-12.57c.68-1.02,1.72-1.72,2.92-1.96,1.21-.24,2.43,0,3.45.68l7.43,4.95c1.02.68,1.72,1.72,1.96,2.92.24,1.2,0,2.43-.68,3.45l-8.37,12.57c-.68,1.02-1.72,1.72-2.92,1.96-.3.06-.61.09-.91.09ZM54.8,39.93c-.19,0-.38.02-.56.06-.74.15-1.38.58-1.8,1.21l-8.37,12.57h0c-.42.63-.57,1.39-.42,2.13s.58,1.38,1.21,1.8l7.43,4.95c.63.42,1.39.57,2.13.42.74-.15,1.38-.58,1.8-1.21l8.37-12.57c.42-.63.57-1.39.42-2.13-.15-.74-.58-1.38-1.21-1.8l-7.43-4.95c-.47-.31-1.01-.48-1.57-.48ZM43.33,53.27h0,0Z"/>
    <path class="cls-3" d="M46.56,49.31c-.17,0-.34-.05-.49-.15l-8.71-5.8c-.4-.27-.51-.82-.24-1.22.27-.4.81-.51,1.22-.24l7.98,5.31.94-1.42-7.98-5.31c-.4-.27-.51-.82-.24-1.22.27-.4.81-.51,1.22-.24l8.71,5.8c.4.27.51.81.25,1.22l-1.92,2.89c-.13.19-.33.33-.56.38-.06.01-.12.02-.17.02Z"/>
    <path class="cls-3" d="M36.69,43.92c-.53,0-1.05-.16-1.5-.46h0s-8.52-5.67-8.52-5.67c-1.25-.83-1.59-2.53-.76-3.78l1.31-1.97c.83-1.25,2.52-1.59,3.78-.76l8.52,5.67c.61.4,1.02,1.02,1.16,1.73.14.71,0,1.44-.4,2.04l-1.31,1.97c-.4.61-1.02,1.02-1.73,1.16-.18.04-.36.05-.54.05ZM36.16,42c.44.29,1.04.17,1.34-.27l1.31-1.97c.14-.21.19-.47.14-.72s-.2-.47-.41-.61l-8.52-5.67c-.44-.29-1.04-.17-1.34.27l-1.31,1.97c-.29.44-.17,1.04.27,1.34l8.52,5.67Z"/>
    <path class="cls-3" d="M38.96,66.94c-.19,0-.38-.06-.54-.19l-5.25-4.13c-.38-.3-.45-.85-.15-1.24.3-.38.85-.45,1.24-.15l5.25,4.13c.38.3.45.85.15,1.24-.17.22-.43.34-.69.34Z"/>
    <path class="cls-3" d="M57.66,62.14c-.17,0-.34-.05-.49-.15l-13.6-9.08c-.4-.27-.51-.82-.24-1.22.27-.41.82-.51,1.22-.24l13.6,9.08c.4.27.51.82.24,1.22-.17.25-.45.39-.73.39Z"/>
    <path class="cls-3" d="M64.88,51.31c-.17,0-.34-.05-.49-.15l-13.55-9.15c-.4-.27-.51-.82-.24-1.22.27-.4.82-.51,1.22-.24l13.55,9.15c.4.27.51.82.24,1.22-.17.25-.45.39-.73.39Z"/>
    <path class="cls-3" d="M39.6,58.01c-.3,0-.59-.15-.76-.43l-1.84-3.08c-.25-.42-.11-.96.31-1.21.42-.25.96-.11,1.21.31l1.84,3.08c.25.42.11.96-.31,1.21-.14.08-.3.12-.45.12Z"/>
    <path class="cls-3" d="M60.73,66.94c-.21,0-.41-.07-.58-.22-.36-.32-.4-.88-.08-1.24l1.82-2.07c.32-.36.88-.4,1.24-.08.36.32.4.88.08,1.24l-1.82,2.07c-.17.2-.42.3-.66.3Z"/>
  </g>
</svg>