<?xml version="1.0" encoding="UTF-8"?>
<svg id="Layer_1" data-name="Layer 1" xmlns="http://www.w3.org/2000/svg" viewBox="0 0 100 100">
  <defs>
    <style>
      .cls-1 {
        fill: #f9a51a;
      }

      .cls-1, .cls-2, .cls-3 {
        stroke-width: 0px;
      }

      .cls-2 {
        fill: #000;
      }

      .cls-3 {
        fill: #fff;
      }
    </style>
  </defs>
  <rect class="cls-1" x="7.77" y="12.41" width="84.46" height="84.46" rx="12" ry="12"/>
  <path class="cls-2" d="M49.67,20.97c-.99-.47-1.74-1.09-2.27-1.85-.53-.77-.81-1.59-.85-2.46v-.05c0-.14.05-.25.16-.34.11-.09.23-.13.38-.13h1.45c.38,0,.62.19.73.57.25.92.73,1.61,1.45,2.06.72.45,1.54.68,2.47.68,1.2,0,2.2-.35,3-1.06.8-.71,1.2-1.69,1.2-2.94,0-1.13-.4-2.05-1.2-2.74-.8-.7-1.8-1.04-3-1.04-.65,0-1.17.08-1.56.25-.39.17-.79.4-1.18.69-.22.16-.4.27-.55.35-.15.08-.32.12-.5.12h-1.4c-.16,0-.31-.06-.43-.17-.13-.11-.18-.25-.16-.4l.86-8.73c.02-.21.08-.37.2-.48.12-.11.27-.17.47-.17h9.39c.18,0,.33.06.44.17.12.11.18.26.18.43v1.02c0,.17-.06.32-.18.43-.12.11-.26.17-.44.17h-7.74l-.51,5.15c.97-.59,2.13-.89,3.5-.89,1.18,0,2.27.23,3.27.71,1,.47,1.78,1.15,2.37,2.04.58.89.87,1.93.87,3.14,0,1.29-.29,2.4-.87,3.33-.58.93-1.39,1.64-2.43,2.13-1.04.49-2.23.73-3.58.73s-2.54-.24-3.52-.71Z"/>
  <path class="cls-3" d="M36.76,32.73c-3.04,0-5.52,2.48-5.52,5.52s2.48,5.52,5.52,5.52c1.12,0,2.18-.34,3.05-.92.37-.23.49-.71.26-1.08s-.71-.49-1.08-.26c-.02.01-.03.02-.05.03-.62.42-1.37.66-2.18.66-2.19,0-3.94-1.76-3.94-3.94s1.76-3.94,3.94-3.94c1.47,0,2.73.79,3.42,1.97.2.39.68.53,1.06.33.39-.2.53-.68.33-1.06,0-.02-.02-.04-.03-.05-.95-1.65-2.74-2.76-4.78-2.76ZM51.74,32.73c-2.8,0-5.12,2.11-5.47,4.82-.03,0-.61-.12-1.35-.09-.76.03-1.74.19-2.49.94-.75.75-.91,1.73-.94,2.49-.03.76.09,1.37.09,1.37l.77-.94-.15,1.56s.14,0,.15.01h0s.08,0,.08,0c.16.03.51.1,1.13.08.76-.03,1.74-.19,2.49-.94.39-.39.62-.85.75-1.31.91,1.8,2.77,3.04,4.92,3.04,3.04,0,5.52-2.48,5.52-5.52v-.79h-.16c-.4-2.65-2.6-4.73-5.36-4.73ZM66.71,32.73c-3.04,0-5.52,2.48-5.52,5.52s2.48,5.52,5.52,5.52,5.52-2.48,5.52-5.52-2.48-5.52-5.52-5.52ZM51.74,34.31c2.19,0,3.94,1.76,3.94,3.94s-1.76,3.94-3.94,3.94-3.94-1.76-3.94-3.94c0-2.19,1.76-3.94,3.94-3.94ZM66.71,34.31c2.19,0,3.94,1.76,3.94,3.94s-1.76,3.94-3.94,3.94-3.94-1.76-3.94-3.94,1.76-3.94,3.94-3.94ZM44.98,39.05c.23,0,.25.01.41.03.01.17.04.18.03.41-.02.56-.18,1.14-.48,1.44-.3.3-.88.45-1.44.48-.23,0-.25-.01-.41-.03-.01-.17-.04-.18-.03-.41.02-.56.18-1.14.48-1.44.3-.3.88-.45,1.44-.48ZM33.6,45.35c-3.47,0-6.31,2.83-6.31,6.31v11.83c0,1.73,1.42,3.15,3.15,3.15h.79v10.25c0,1.73,1.42,3.15,3.15,3.15h4.73c.44,0,.79-.34.8-.78s-.34-.79-.78-.8c0,0-.01,0-.02,0h-4.73c-.88,0-1.58-.7-1.58-1.58v-11.83h-2.37c-.88,0-1.58-.7-1.58-1.58v-11.83c0-2.62,2.11-4.73,4.73-4.73h6.31c.47,0,.93.07,1.35.2.41.14.86-.08,1-.5.14-.41-.08-.86-.5-1-.02,0-.03-.01-.05-.01-.57-.17-1.18-.26-1.8-.26h-6.31ZM53.39,45.35v1.58l-.55-1.36-1.08,1.03-.96-1c-.15-.16-.36-.24-.57-.24-2.14,0-3.97.76-5.34,2.08-1.38,1.32-2.32,3.16-2.91,5.33v-.02s-2.79,9.37-2.79,9.37c0,.01,0,.03-.01.04-.3,1.26.49,2.55,1.75,2.85,0,0,0,0,0,0,.22.05.45.07.67.06,1.02-.05,1.93-.78,2.17-1.81l-.02.08,1.41-3.99-.53,11.21c-.02.43.32.8.75.82.01,0,.02,0,.04,0h1.58v5.52c0,1.73,1.42,3.15,3.15,3.15h3.15c1.73,0,3.15-1.42,3.15-3.15v-5.52h1.58c.44,0,.79-.35.79-.79,0-.01,0-.02,0-.04l-.27-5.59c1.48-.26,2.63-1.5,2.63-3.05v-8.75c0-4.34-3.47-7.81-7.81-7.81ZM63.56,45.35c-.62,0-1.23.09-1.8.26-.42.11-.67.54-.56.96.11.42.54.67.96.56.02,0,.03,0,.05-.01.43-.13.88-.2,1.35-.2h6.31c2.62,0,4.73,2.11,4.73,4.73v11.83c0,.88-.7,1.58-1.58,1.58h-2.37v11.83c0,.88-.7,1.58-1.58,1.58h-4.73c-.88,0-1.58-.7-1.58-1.58v-10.25c0-.44-.34-.79-.78-.8-.44,0-.79.34-.8.78,0,0,0,.01,0,.02v10.25c0,1.73,1.42,3.15,3.15,3.15h4.73c1.73,0,3.15-1.42,3.15-3.15v-10.25h.79c1.73,0,3.15-1.42,3.15-3.15v-11.83c0-3.47-2.83-6.31-6.31-6.31h-6.31ZM53.65,46.98c3.38.14,5.97,2.75,5.97,6.18v8.75c0,.88-.7,1.58-1.58,1.58h-.3c-.44,0-.79.35-.79.79,0,.01,0,.02,0,.04l.26,5.48h-1.54c-.14,0-.27.04-.39.11-.12-.07-.26-.11-.39-.11-.44,0-.79.35-.79.79s.35.79.79.79v5.52c0,.88-.7,1.58-1.58,1.58h-3.15c-.88,0-1.58-.7-1.58-1.58v-5.52c.44,0,.79-.35.79-.79s-.35-.79-.79-.79c-.14,0-.27.04-.39.11-.12-.07-.26-.11-.39-.11h-1.54l.75-15.73c.02-.43-.32-.8-.75-.82-.35-.02-.66.2-.78.52l-3.2,9.04s-.02.05-.02.08c-.09.36-.39.59-.72.61h0c-.07,0-.14,0-.22-.02-.43-.1-.68-.52-.59-.95l2.78-9.33s0-.01,0-.02c.53-1.97,1.37-3.54,2.47-4.6,1.04-.99,2.34-1.52,3.97-1.59l1.22,1.28c.3.31.8.33,1.11.03l1.37-1.31ZM51.72,49.28c-.43,0-.78.36-.78.8v7.1c0,.44.34.79.78.8.44,0,.79-.34.8-.78,0,0,0-.01,0-.02v-7.1c0-.44-.34-.79-.78-.8,0,0-.02,0-.02,0ZM32.03,52.44c-.44,0-.79.35-.79.79s.35.79.79.79.79-.35.79-.79-.35-.79-.79-.79ZM71.45,52.44c-.44,0-.79.35-.79.79s.35.79.79.79.79-.35.79-.79-.35-.79-.79-.79ZM56.47,54.02c-.44,0-.79.35-.79.79s.35.79.79.79.79-.35.79-.79-.35-.79-.79-.79ZM32.03,55.6c-.44,0-.79.35-.79.79s.35.79.79.79.79-.35.79-.79-.35-.79-.79-.79ZM71.45,55.6c-.44,0-.79.35-.79.79s.35.79.79.79.79-.35.79-.79-.35-.79-.79-.79ZM56.47,57.17c-.44,0-.79.35-.79.79s.35.79.79.79.79-.35.79-.79-.35-.79-.79-.79ZM32.03,58.75c-.44,0-.79.35-.79.79s.35.79.79.79.79-.35.79-.79-.35-.79-.79-.79ZM71.45,58.75c-.44,0-.79.35-.79.79s.35.79.79.79.79-.35.79-.79-.35-.79-.79-.79ZM56.47,60.33c-.44,0-.79.35-.79.79s.35.79.79.79.79-.35.79-.79-.35-.79-.79-.79ZM32.03,61.91c-.44,0-.79.35-.79.79s.35.79.79.79.79-.35.79-.79-.35-.79-.79-.79ZM71.45,61.91c-.44,0-.79.35-.79.79s.35.79.79.79.79-.35.79-.79-.35-.79-.79-.79ZM39.11,66.64c-.44,0-.79.35-.79.79v7.88c0,.44.35.79.79.79h3.15c.44,0,.79-.35.79-.79v-7.88c0-.44-.35-.79-.79-.79h-3.15ZM39.9,68.21h1.58v6.31h-1.58v-6.31ZM51.74,69.79c-.44,0-.79.35-.79.79s.35.79.79.79.79-.35.79-.79-.35-.79-.79-.79Z"/>
</svg>