<?xml version="1.0" encoding="UTF-8"?>
<svg xmlns="http://www.w3.org/2000/svg" xmlns:xlink="http://www.w3.org/1999/xlink" viewBox="0 0 100 100">
  <defs>
    <style>
      .cls-1 {
        fill: #f9a51a;
      }

      .cls-1, .cls-2, .cls-3 {
        stroke-width: 0px;
      }

      .cls-4 {
        isolation: isolate;
      }

      .cls-2 {
        fill: url(#linear-gradient);
        mix-blend-mode: multiply;
        opacity: .55;
      }

      .cls-3 {
        fill: #fff;
      }
    </style>
    <linearGradient id="linear-gradient" x1="252.08" y1="-217.23" x2="252.08" y2="-341.46" gradientTransform="translate(57.47 414.63) rotate(-45)" gradientUnits="userSpaceOnUse">
      <stop offset="0" stop-color="#fff"/>
      <stop offset="1" stop-color="#ab4d4d"/>
    </linearGradient>
  </defs>
  <g class="cls-4">
    <g id="Layer_1" data-name="Layer 1">
      <g>
        <path class="cls-2" d="M79.19,32.84c12.61,12.61,12.32,33.37-.67,46.35-12.99,12.99-33.74,13.28-46.35.67-4.16-4.16-5.82-5.82-9.98-9.98-12.61-12.61-12.32-33.37.67-46.35,12.99-12.99,33.74-13.28,46.35-.67,4.16,4.16,5.82,5.82,9.98,9.98Z"/>
        <ellipse class="cls-1" cx="45.43" cy="44.72" rx="33.68" ry="32.72"/>
        <g>
          <path class="cls-3" d="M52.79,44.99h-8.92c-.44,0-.8-.36-.8-.8s.36-.8.8-.8h8.92c.44,0,.8.36.8.8s-.36.8-.8.8Z"/>
          <path class="cls-3" d="M43.87,58.73c-8.02,0-14.54-6.52-14.54-14.54s6.52-14.54,14.54-14.54c6.17,0,11.68,3.91,13.72,9.72.15.42-.07.87-.49,1.02-.42.15-.87-.07-1.02-.49-1.81-5.18-6.72-8.65-12.21-8.65-7.13,0-12.94,5.8-12.94,12.94s5.8,12.94,12.94,12.94c5.49,0,10.4-3.48,12.21-8.66.15-.42.6-.64,1.02-.49.42.15.64.6.49,1.02-2.04,5.82-7.55,9.73-13.72,9.73Z"/>
          <path class="cls-3" d="M43.87,53.91c-5.36,0-9.72-4.36-9.72-9.72s4.36-9.72,9.72-9.72,9.72,4.36,9.72,9.72-4.36,9.72-9.72,9.72ZM43.87,36.07c-4.48,0-8.12,3.64-8.12,8.12s3.64,8.12,8.12,8.12,8.12-3.64,8.12-8.12-3.64-8.12-8.12-8.12Z"/>
          <path class="cls-3" d="M43.87,49.03c-2.67,0-4.84-2.17-4.84-4.84s2.17-4.84,4.84-4.84,4.84,2.17,4.84,4.84-2.17,4.84-4.84,4.84ZM43.87,40.95c-1.79,0-3.24,1.45-3.24,3.24s1.45,3.24,3.24,3.24,3.24-1.45,3.24-3.24-1.45-3.24-3.24-3.24Z"/>
          <path class="cls-3" d="M61.52,49.53h-4.73c-.21,0-.42-.08-.57-.23l-4.54-4.54c-.31-.31-.31-.82,0-1.13l4.55-4.55c.15-.15.35-.23.57-.23h4.73c.7,0,1.35.38,1.69,1,.34.62.31,1.37-.06,1.96l-1.52,2.4,1.51,2.38c.38.59.4,1.34.06,1.96-.34.62-.98,1-1.69,1ZM57.13,47.93h4.4c.17,0,.25-.11.28-.17.03-.06.08-.19-.01-.33l-1.79-2.81c-.18-.29-.16-.65.04-.91l1.76-2.77c.09-.14.04-.27.01-.33-.03-.06-.12-.17-.28-.17h-4.4l-3.75,3.75,3.74,3.74Z"/>
          <g>
            <path class="cls-3" d="M32.43,60.54c-.2,0-.41-.08-.57-.23-.31-.31-.31-.82,0-1.13l4-4c.31-.31.82-.31,1.13,0,.31.31.31.82,0,1.13l-4,4c-.16.16-.36.23-.57.23Z"/>
            <path class="cls-3" d="M55.31,60.54c-.2,0-.41-.08-.57-.23l-4-4c-.31-.31-.31-.82,0-1.13.31-.31.82-.31,1.13,0l4,4c.31.31.31.82,0,1.13-.16.16-.36.23-.57.23Z"/>
          </g>
        </g>
      </g>
    </g>
  </g>
</svg>