<?xml version="1.0" encoding="UTF-8"?>
<svg xmlns="http://www.w3.org/2000/svg" xmlns:xlink="http://www.w3.org/1999/xlink" viewBox="0 0 100 100">
  <defs>
    <style>
      .cls-1 {
        fill: #f9a51a;
      }

      .cls-1, .cls-2, .cls-3 {
        stroke-width: 0px;
      }

      .cls-4 {
        isolation: isolate;
      }

      .cls-2 {
        fill: url(#linear-gradient);
        mix-blend-mode: multiply;
        opacity: .55;
      }

      .cls-3 {
        fill: #fff;
      }
    </style>
    <linearGradient id="linear-gradient" x1="311.21" y1="-367.1" x2="311.21" y2="-491.33" gradientTransform="translate(118.69 562.41) rotate(-45)" gradientUnits="userSpaceOnUse">
      <stop offset="0" stop-color="#fff"/>
      <stop offset="1" stop-color="#ab4d4d"/>
    </linearGradient>
  </defs>
  <g class="cls-4">
    <g id="Layer_1" data-name="Layer 1">
      <g>
        <path class="cls-2" d="M76.25,32.84c12.61,12.61,12.32,33.37-.67,46.35-12.99,12.99-33.74,13.28-46.35.67-4.16-4.16-5.82-5.82-9.98-9.98-12.61-12.61-12.32-33.37.67-46.35,12.99-12.99,33.74-13.28,46.35-.67,4.16,4.16,5.82,5.82,9.98,9.98Z"/>
        <ellipse class="cls-1" cx="42.46" cy="44.72" rx="33.68" ry="32.72"/>
        <g>
          <path class="cls-3" d="M46.85,57.81h-3.47c-.4,0-.72-.32-.72-.72s.32-.72.72-.72h3.47c4.32,0,7.84-3.51,7.84-7.84v-8.67c0-.66-.08-1.31-.24-1.94-.1-.39.13-.78.52-.88.39-.1.78.13.88.52.19.75.29,1.52.29,2.3v8.67c0,5.12-4.16,9.28-9.28,9.28ZM29.33,53.02c-.27,0-.52-.15-.65-.4-.63-1.28-.95-2.66-.95-4.09v-8.67c0-5.12,4.16-9.28,9.28-9.28h4.13c.4,0,.72.32.72.72s-.32.72-.72.72h-4.13c-4.32,0-7.84,3.52-7.84,7.84v8.67c0,1.21.27,2.37.8,3.45.18.36.03.79-.33.97-.1.05-.21.07-.32.07ZM46.85,50.73h-3.19c-.4,0-.72-.32-.72-.72s.32-.72.72-.72h3.19c.42,0,.76-.34.76-.76v-5.35c0-.4.32-.72.72-.72s.72.32.72.72v5.35c0,1.21-.99,2.2-2.2,2.2ZM35.61,49.73c-.3,0-.58-.19-.68-.49-.08-.23-.12-.47-.12-.72v-.28c0-.4.32-.72.72-.72s.72.32.72.72v.28c0,.08.01.17.04.25.13.38-.07.79-.45.92-.08.03-.16.04-.24.04ZM35.53,45.16c-.4,0-.72-.32-.72-.72v-4.58c0-1.22.99-2.2,2.2-2.2h4.8c.4,0,.72.32.72.72s-.32.72-.72.72h-4.8c-.42,0-.76.34-.76.76v4.58c0,.4-.32.72-.72.72Z"/>
          <g>
            <path class="cls-3" d="M50.07,44.94c-.87,0-2.73-1.58-4.15-2.91-.36-.34-.67-.67-.97-.99-1.07-1.15-1.84-1.97-3.81-1.97-.4,0-.72-.32-.72-.72v-7.05c0-.3.19-.57.47-.68,1.85-.68,3.79-1.03,5.76-1.03h4.63c4.08,0,5.66,2.37,5.77,4.6.13,2.55-1.69,5.49-4.6,5.79-.16.02-1.62.02-2.29.03,1.69,2.14,1.23,3.7.47,4.67-.13.16-.32.26-.53.28-.01,0-.03,0-.04,0ZM41.87,37.65c2.1.21,3.14,1.32,4.14,2.4.28.31.58.62.9.93,1.52,1.43,2.39,2.06,2.84,2.33.33-.91-.21-2.04-1.63-3.39-.08-.08-.14-.13-.16-.16-.19-.21-.24-.52-.12-.78.12-.26.38-.43.66-.43h1.32c.27,0,2.29,0,2.5-.02,2.08-.21,3.38-2.38,3.28-4.27-.1-2.05-1.68-3.22-4.32-3.22h-4.63c-1.63,0-3.24.26-4.79.77v5.85Z"/>
            <path class="cls-3" d="M56.1,36.71h-6.03c-.4,0-.72-.32-.72-.72s.32-.72.72-.72h6.03c.4,0,.72.32.72.72s-.32.72-.72.72Z"/>
            <path class="cls-3" d="M56.17,33.95h-6.1c-.4,0-.72-.32-.72-.72s.32-.72.72-.72h6.1c.4,0,.72.32.72.72s-.32.72-.72.72Z"/>
          </g>
          <g>
            <path class="cls-3" d="M38.14,58.69h-4.63c-4.08,0-5.66-2.37-5.77-4.6-.13-2.56,1.69-5.49,4.6-5.79.16-.02,1.62-.02,2.29-.03-1.69-2.14-1.23-3.7-.47-4.67.13-.16.32-.26.53-.28.85-.04,2.75,1.55,4.18,2.91.36.34.67.67.97.99,1.07,1.15,1.84,1.97,3.81,1.97.4,0,.72.32.72.72v7.05c0,.3-.19.57-.47.68-1.85.68-3.79,1.03-5.76,1.03ZM34.96,49.73c-.26,0-2.3,0-2.5.02-2.08.21-3.38,2.38-3.28,4.27.1,2.05,1.68,3.22,4.32,3.22h4.63c1.63,0,3.24-.26,4.79-.77v-5.85c-2.1-.21-3.14-1.32-4.14-2.4-.28-.31-.58-.62-.9-.93-1.52-1.43-2.39-2.06-2.84-2.33-.33.91.21,2.04,1.63,3.39.08.08.14.13.16.16.19.21.24.52.12.78-.12.26-.38.43-.66.43h-1.32Z"/>
            <path class="cls-3" d="M34.73,53.02h-6.03c-.4,0-.72-.32-.72-.72s.32-.72.72-.72h6.03c.4,0,.72.32.72.72s-.32.72-.72.72Z"/>
            <path class="cls-3" d="M34.73,55.77h-6.1c-.4,0-.72-.32-.72-.72s.32-.72.72-.72h6.1c.4,0,.72.32.72.72s-.32.72-.72.72Z"/>
          </g>
        </g>
      </g>
    </g>
  </g>
</svg>