<?xml version="1.0" encoding="UTF-8"?>
<svg id="Layer_1" data-name="Layer 1" xmlns="http://www.w3.org/2000/svg" version="1.1" viewBox="0 0 100 100">
  <defs>
    <style>
      .cls-1 {
        fill: #f9a51a;
      }

      .cls-1, .cls-2 {
        stroke-width: 0px;
      }

      .cls-2 {
        fill: #fff;
      }
    </style>
  </defs>
  <rect class="cls-1" x="15.8" y="15.8" width="68.4" height="68.4" rx="5.7" ry="5.7"/>
  <g>
    <path class="cls-2" d="M50,58.2c-10,0-10.8-8.2-11.9-20.5-.1-1.6-.3-3.2-.5-5,0-.3,0-.6.3-.8.2-.2.5-.3.8-.3h22.7c.3,0,.6.1.8.3.2.2.3.5.3.8-.2,1.7-.3,3.3-.5,4.9-1.1,12-1.8,20.7-11.9,20.7ZM39.8,33.6c.1,1.3.2,2.6.4,3.9,1.2,13.3,2,18.7,9.9,18.7s8.8-6.1,9.9-18.8c.1-1.2.2-2.5.3-3.8h-20.5Z"/>
    <path class="cls-2" d="M56.6,68.4h-13.3c-.7,0-1.4-.4-1.7-1-.4-.6-.4-1.4,0-2,1.8-3.5,4.6-5.2,8.4-5.2s6.7,1.7,8.5,5.2c.3.6.3,1.4,0,2-.4.6-1,1-1.7,1ZM50,62.3c-3,0-5.1,1.3-6.6,4.1h13.3c-1.4-2.8-3.6-4.1-6.7-4.1Z"/>
    <g>
      <path class="cls-2" d="M59.9,47.2c-.4,0-.8-.2-1-.7-.2-.5,0-1.1.6-1.3,6.3-2.4,7.6-3.8,8.9-9.1.1-.6,0-1.3-.4-1.8-.4-.5-1-.8-1.6-.8h-8.9c-.6,0-1-.5-1-1s.5-1,1-1h8.9c1.3,0,2.4.6,3.2,1.6.8,1,1.1,2.3.8,3.5-1.4,6-3.2,7.8-10.1,10.5-.1,0-.2,0-.4,0Z"/>
      <path class="cls-2" d="M40.1,47.2c-.1,0-.2,0-.4,0-6.9-2.7-8.7-4.5-10.1-10.5-.3-1.2,0-2.5.8-3.5.8-1,2-1.6,3.2-1.6h8.9c.6,0,1,.5,1,1s-.5,1-1,1h-8.9c-.6,0-1.2.3-1.6.8-.4.5-.5,1.1-.4,1.8,1.3,5.3,2.6,6.7,8.9,9.1.5.2.8.8.6,1.3-.2.4-.5.7-1,.7Z"/>
    </g>
    <path class="cls-2" d="M50,62.3c-.6,0-1-.5-1-1v-4.1c0-.6.5-1,1-1s1,.5,1,1v4.1c0,.6-.5,1-1,1Z"/>
    <path class="cls-2" d="M50,48.5c-.6,0-1-.5-1-1v-5.6h0c-.4.5-1,.5-1.4,0-.4-.4-.4-1,0-1.4l1.8-1.8c.3-.3.7-.4,1.1-.2.4.2.6.5.6.9v8.1c0,.6-.5,1-1,1Z"/>
  </g>
</svg>