<?xml version="1.0" encoding="UTF-8"?>
<svg id="Layer_1" data-name="Layer 1" xmlns="http://www.w3.org/2000/svg" version="1.1" viewBox="0 0 100 100">
  <defs>
    <style>
      .cls-1 {
        fill: #f9a51a;
      }

      .cls-1, .cls-2 {
        stroke-width: 0px;
      }

      .cls-2 {
        fill: #fff;
      }
    </style>
  </defs>
  <rect class="cls-1" x="15.4" y="18.8" width="68.4" height="68.4" rx="5.7" ry="5.7"/>
  <g>
    <path class="cls-2" d="M59.3,61.2l.9-1,1,.9-.9,1-1-.9Z"/>
    <path class="cls-2" d="M33.9,38.2l-5.5,12.2,21.3,23.1,9.5-10.4-1-.9-6.7,7.3,7.4-18.6h9.6l-7.4,8.1,1,.9,8.7-9.5-5.5-12.2h-31.5ZM69,49.7h-10l-2.6-10.1h8.1l4.5,10.1ZM40.4,51l7.4,18.4-17-18.4h9.7ZM49.7,70.6l-7.8-19.6h10.5v-1.3h-10.6l1-3.9-1.3-.3-1.1,4.2h-10.1l4.5-10.1h8.2l-1.1,4.5,1.3.3,1.2-4.8h10.7l2.6,10.1h-4v1.3h3.8l-7.8,19.6Z"/>
    <path class="cls-2" d="M32.7,66.1v-.9h-1.3v.9c0,2.1-1.7,3.8-3.8,3.8h-.9v1.3h.9c2.1,0,3.8,1.7,3.8,3.8v.9h1.3v-.9c0-2.1,1.7-3.8,3.8-3.8h.9v-1.3h-.9c-2.1,0-3.8-1.7-3.8-3.8ZM32,72.6c-.5-.8-1.1-1.5-2-2,.8-.5,1.5-1.1,2-2,.5.8,1.1,1.5,2,2-.8.5-1.5,1.1-2,2Z"/>
    <path class="cls-2" d="M71.9,33.4c-1.4,0-2.6-1.2-2.6-2.6v-.7h-1.3v.7c0,1.4-1.2,2.6-2.6,2.6h-.7v1.3h.7c1.4,0,2.6,1.2,2.6,2.6v.7h1.3v-.7c0-1.4,1.2-2.6,2.6-2.6h.7v-1.3h-.7ZM68.6,35.1c-.3-.4-.7-.8-1.1-1.1.4-.3.8-.7,1.1-1.1.3.4.7.8,1.1,1.1-.4.3-.8.7-1.1,1.1Z"/>
    <path class="cls-2" d="M35.5,40.9h1.3v1.3h-1.3v-1.3Z"/>
    <path class="cls-2" d="M38.2,40.9h1.3v1.3h-1.3v-1.3Z"/>
    <path class="cls-2" d="M44.9,52.3h1.3v1.3h-1.3v-1.3Z"/>
  </g>
</svg>