<?xml version="1.0" encoding="UTF-8"?>
<svg id="Layer_1" data-name="Layer 1" xmlns="http://www.w3.org/2000/svg" version="1.1" viewBox="0 0 100 100">
  <defs>
    <style>
      .cls-1 {
        fill: #f9a51a;
      }

      .cls-1, .cls-2 {
        stroke-width: 0px;
      }

      .cls-2 {
        fill: #fff;
      }
    </style>
  </defs>
  <rect class="cls-1" x="16" y="18.6" width="68.4" height="68.4" rx="5.7" ry="5.7"/>
  <g>
    <path class="cls-2" d="M64.5,32.7h-27.2c-2,0-3.6,1.6-3.6,3.6v33c0,2,1.6,3.6,3.6,3.6h27.2c1.2,0,2.2-1,2.2-2.2v-35.9c0-1.2-1-2.2-2.2-2.2h0ZM35.3,69.3c0-1.1.9-2,2-2h24.7v4.1h-24.7c-1.1,0-2-.9-2-2h0ZM65.2,70.7c0,.3-.3.6-.6.6h-1v-4.1h1c.2,0,.4,0,.6,0v3.5ZM65.2,65.1c0,.3-.3.6-.6.6h-26.1v-22c0-.4-.4-.8-.8-.8s-.8.4-.8.8v22c-.6,0-1.1.3-1.6.6v-30.1c0-1,.7-1.8,1.6-2v2.3c0,.4.4.8.8.8s.8-.4.8-.8v-2.4h26.1c.3,0,.6.3.6.6v30.2Z"/>
    <path class="cls-2" d="M37.6,39.4c-.4,0-.8.4-.8.8s.4.8.8.8.8-.4.8-.8h0c0-.4-.4-.8-.8-.8Z"/>
  </g>
</svg>