<?xml version="1.0" encoding="UTF-8"?>
<svg id="Layer_1" data-name="Layer 1" xmlns="http://www.w3.org/2000/svg" version="1.1" viewBox="0 0 100 100">
  <defs>
    <style>
      .cls-1 {
        fill: #f9a51a;
      }

      .cls-1, .cls-2 {
        stroke-width: 0px;
      }

      .cls-2 {
        fill: #fff;
      }
    </style>
  </defs>
  <rect class="cls-1" x="16" y="15.4" width="68.4" height="68.4" rx="5.7" ry="5.7"/>
  <g>
    <path class="cls-2" d="M55.3,51.8h-6.1c-.6,0-1.1-.5-1.1-1.1v-11.3c0-.6.5-1.1,1.1-1.1s1.1.5,1.1,1.1v10.2h5.1c.6,0,1.1.5,1.1,1.1s-.5,1.1-1.1,1.1Z"/>
    <path class="cls-2" d="M49.8,65.4c-4.1,0-8.2-1.6-11.3-4.7-6.2-6.2-6.2-16.4,0-22.6,6.2-6.2,16.4-6.2,22.6,0,6.2,6.2,6.2,16.4,0,22.6-3.1,3.1-7.2,4.7-11.3,4.7ZM49.8,35.6c-3.5,0-7.1,1.4-9.8,4.1-5.4,5.4-5.4,14.2,0,19.6,5.4,5.4,14.2,5.4,19.6,0,5.4-5.4,5.4-14.2,0-19.6-2.7-2.7-6.2-4.1-9.8-4.1Z"/>
    <path class="cls-2" d="M49.8,70.8c-5.7,0-11.1-2.2-15.2-6.3-8.4-8.4-8.4-22,0-30.3,4.1-4.1,9.4-6.3,15.2-6.3s11.1,2.2,15.2,6.3c4.1,4.1,6.3,9.4,6.3,15.2s-2.2,11.1-6.3,15.2c-4.1,4.1-9.4,6.3-15.2,6.3ZM49.8,30.1c-5.2,0-10,2-13.6,5.6-7.5,7.5-7.5,19.8,0,27.3,3.6,3.6,8.5,5.6,13.6,5.6s10-2,13.6-5.6c3.6-3.6,5.7-8.5,5.7-13.6s-2-10-5.7-13.6c-3.6-3.6-8.5-5.6-13.6-5.6Z"/>
  </g>
</svg>