<?xml version="1.0" encoding="UTF-8"?>
<svg id="Layer_1" data-name="Layer 1" xmlns="http://www.w3.org/2000/svg" version="1.1" viewBox="0 0 100 100">
  <defs>
    <style>
      .cls-1 {
        fill: #f9a51a;
      }

      .cls-1, .cls-2 {
        stroke-width: 0px;
      }

      .cls-2 {
        fill: #fff;
      }
    </style>
  </defs>
  <rect class="cls-1" x="15" y="19.3" width="68.4" height="68.4" rx="5.7" ry="5.7"/>
  <g>
    <path class="cls-2" d="M34.2,56.7c-.3,0-.6.3-.6.6v.7s0,0,0,0c-.3,0-.6.3-.6.6s.3.6.6.6c.7,0,1.3-.6,1.3-1.3v-.7c0-.3-.3-.6-.6-.6Z"/>
    <path class="cls-2" d="M33.7,51.7c-1.1,0-2.2.5-2.9,1.3-.7.8-1.1,1.9-1,3l.3,2.8c.2,1.9,1.7,3.3,3.6,3.3s3.4-1.4,3.6-3.3l.3-2.8c.1-1.1-.3-2.2-1-3-.7-.8-1.8-1.3-2.9-1.3h0ZM36.4,55.9l-.3,2.8c-.1,1.2-1.1,2.1-2.4,2.1s-2.2-.9-2.4-2.1l-.3-2.8c0-.8.2-1.5.7-2,.5-.6,1.2-.9,2-.9s1.5.3,2,.9c.5.6.7,1.3.7,2h0Z"/>
    <path class="cls-2" d="M61.8,56.7c-.3,0-.6.3-.6.6v.7s0,0,0,0c-.3,0-.6.3-.6.6s.3.6.6.6c.7,0,1.3-.6,1.3-1.3v-.7c0-.3-.3-.6-.6-.6Z"/>
    <path class="cls-2" d="M61.4,51.7c-1.1,0-2.2.5-2.9,1.3-.7.8-1.1,1.9-1,3l.3,2.8c.2,1.9,1.7,3.3,3.6,3.3s3.4-1.4,3.6-3.3l.3-2.8c.1-1.1-.3-2.2-1-3-.7-.8-1.8-1.3-2.9-1.3h0ZM64,55.9l-.3,2.8c-.1,1.2-1.1,2.1-2.4,2.1s-2.2-.9-2.4-2.1l-.3-2.8c0-.8.2-1.5.7-2s1.2-.9,2-.9,1.5.3,2,.9.7,1.3.7,2Z"/>
    <path class="cls-2" d="M47.2,56.9c.7,0,1.3-.6,1.3-1.3v-.7c0-.3-.3-.6-.6-.6s-.6.3-.6.6v.7c-.3,0-.6.3-.6.6s.3.6.6.6Z"/>
    <path class="cls-2" d="M52.8,38.7c-.1-.4-.4-.6-.8-.7l-2.4-.6-1.2-2.1c-.2-.3-.5-.5-.9-.5s-.7.2-.9.5l-1.2,2.1-2.4.6c-.4,0-.6.4-.8.7-.1.4,0,.7.2,1l1.6,1.7-.3,2.5c0,.4.1.7.4,1,.3.2.7.3,1,0l2.2-1,2.2,1c.3.2.7.1,1,0,.3-.2.5-.6.4-1l-.3-2.5,1.6-1.7c.3-.3.3-.7.2-1h0ZM50,40.7c-.2.2-.3.5-.3.8l.2,2.2-2-.9c-.3-.1-.6-.1-.9,0l-2,.9.2-2.2c0-.3,0-.6-.3-.8l-1.4-1.5,2.1-.5c.3,0,.5-.2.7-.5l1.1-1.8,1.1,1.8c.1.2.4.4.7.5l2.1.5-1.4,1.5Z"/>
    <path class="cls-2" d="M35.4,34.9c-.4,0-.7.2-.9.5l-1.2,2.1-2.4.6c-.4,0-.6.4-.8.7-.1.4,0,.7.2,1l1.6,1.7-.3,2.5c0,.4.1.7.4,1,.3.2.7.3,1,0l2.2-1,2.2,1c.3.2.7.1,1,0,.3-.2.5-.6.4-1l-.3-2.5,1.6-1.7c.3-.3.3-.7.2-1-.1-.4-.4-.6-.8-.7l-2.4-.6-1.2-2.1c-.2-.3-.5-.5-.9-.5h0ZM35.2,36h0s0,0,0,0ZM36.5,38.2c.1.2.4.4.7.5l2.1.5-1.4,1.5c-.2.2-.3.5-.3.8l.2,2.2-2-.9c-.3-.1-.6-.1-.9,0l-2,.9.2-2.2c0-.3,0-.6-.3-.8l-1.4-1.5,2.1-.5c.3,0,.5-.2.7-.5l1.1-1.8,1.1,1.8Z"/>
    <path class="cls-2" d="M65,38.7c-.1-.4-.4-.6-.8-.7l-2.4-.6-1.2-2.1c-.2-.3-.5-.5-.9-.5s-.7.2-.9.5l-1.2,2.1-2.4.6c-.4,0-.6.4-.8.7-.1.4,0,.7.2,1l1.6,1.7-.3,2.5c0,.4.1.7.4,1,.3.2.7.3,1,0l2.2-1,2.2,1c.3.2.7.1,1,0,.3-.2.5-.6.4-1l-.3-2.5,1.6-1.7c.3-.3.3-.7.2-1h0ZM59.9,36s0,0,0,0h0ZM62.1,40.7c-.2.2-.3.5-.3.8l.2,2.2-2-.9c-.3-.1-.6-.1-.9,0l-2,.9.2-2.2c0-.3,0-.6-.3-.8l-1.4-1.5,2.1-.5c.3,0,.5-.2.7-.5l1.1-1.8,1.1,1.8c.1.2.4.4.7.5l2.1.5-1.4,1.5Z"/>
    <path class="cls-2" d="M31,49.1h12c-.6,1-.9,2.1-.8,3.3l.4,3.9c.3,2.5,2.4,4.4,4.9,4.4s4.6-1.9,4.9-4.4l.4-3.9c.1-1.2-.2-2.3-.8-3.3h12c2,0,3.5-1.6,3.5-3.5v-9.7c0-2-1.6-3.5-3.5-3.5H31c-2,0-3.5,1.6-3.5,3.5v4.9c0,.3.3.6.6.6s.6-.3.6-.6v-4.9c0-1.3,1-2.3,2.3-2.3h33c1.3,0,2.3,1,2.3,2.3v9.7c0,1.3-1,2.3-2.3,2.3h-13c-1-.8-2.2-1.3-3.5-1.3s-2.5.5-3.5,1.3h-13c-1.3,0-2.3-1-2.3-2.3v-1.9c0-.3-.3-.6-.6-.6s-.6.3-.6.6v1.9c0,2,1.6,3.5,3.5,3.5h0ZM47.5,47.8c2.4,0,4.3,2.1,4,4.5l-.4,3.9c-.2,1.9-1.8,3.3-3.7,3.3s-3.5-1.4-3.7-3.3l-.4-3.9c-.2-2.4,1.6-4.5,4-4.5h0Z"/>
    <path class="cls-2" d="M65.4,63.4h-8c-.1,0-.2,0-.3,0-.9-.8-2-1.4-3.3-1.4h-2.2c-.3,0-.6.3-.6.6s.3.6.6.6h2.2c2,0,3.5,1.6,3.5,3.5v6.9h-2.6v-4.6c0-.3-.3-.6-.6-.6s-.6.3-.6.6v4.6h-11.7v-4.6c0-.3-.3-.6-.6-.6s-.6.3-.6.6v4.6h-2.6v-6.9c0-2,1.6-3.5,3.5-3.5h7.3c.3,0,.6-.3.6-.6s-.3-.6-.6-.6h-7.3c-1.3,0-2.5.5-3.3,1.4,0,0-.2,0-.3,0h-8c-2,0-3.5,1.6-3.5,3.5v3.6c0,.3.3.6.6.6h6.1c.3,0,.6-.3.6-.6s-.3-.6-.6-.6h-2.5v-2c0-.3-.3-.6-.6-.6s-.6.3-.6.6v2h-1.8v-2.9c0-1.3,1-2.3,2.3-2.3h7.4c-.4.7-.6,1.4-.6,2.2v3h-.7c-.3,0-.6.3-.6.6s.3.6.6.6h.7v2.6c0,.7.6,1.3,1.3,1.3h19.5c.7,0,1.3-.6,1.3-1.3v-2.6h9.7c.3,0,.6-.3.6-.6v-3.6c0-2-1.6-3.5-3.5-3.5h0ZM67.6,69.9h-1.8v-2c0-.3-.3-.6-.6-.6s-.6.3-.6.6v2h-6.1v-3c0-.8-.2-1.6-.6-2.2h7.4c1.3,0,2.3,1,2.3,2.3v2.9Z"/>
  </g>
</svg>