<?xml version="1.0" encoding="UTF-8"?>
<svg id="Layer_1" data-name="Layer 1" xmlns="http://www.w3.org/2000/svg" version="1.1" viewBox="0 0 100 100">
  <defs>
    <style>
      .cls-1 {
        fill: #f9a51a;
      }

      .cls-1, .cls-2 {
        stroke-width: 0px;
      }

      .cls-2 {
        fill: #fff;
      }
    </style>
  </defs>
  <rect class="cls-1" x="16" y="16.1" width="68.4" height="68.4" rx="5.7" ry="5.7"/>
  <g>
    <path class="cls-2" d="M60,62.9l-1.8-8.5c1.1-.5,1.9-1.6,1.9-2.9s-1.4-3.1-3.1-3.1h0l-3.8-17.3c0-.1,0-.2,0-.3l1.7-2.7c.6-.9.6-2.1.1-3.1-.5-.9-1.5-1.5-2.6-1.5h-7.2c-1.1,0-2.1.5-2.6,1.5-.5,1-.5,2.1.1,3.1l1.7,2.7c0,.2,0,.3-.1.5l-6.9,31.6s0,0,0,0c-.1.8,0,1.6.6,2.2l8.8,10.9c.5.6,1.2,1,2,1h0c.8,0,1.5-.4,2-1l8.8-11c.5-.6.7-1.4.5-2.1,0,0,0,0,0,0h0ZM42.6,67.9l13.2-13.2h.3l.8,3.7-12.1,12.1-2.1-2.7ZM57.9,51.6c0,.6-.5,1-1,1h-5.2c-.6,0-1-.5-1-1s.5-1,1-1h5.2c.6,0,1,.5,1,1ZM48.6,51.2l-8.7,8.7,1.3-6.2,3.8-3.8c.4-.4.4-1.1,0-1.5-.4-.4-1.1-.4-1.5,0l-1.5,1.5,1.3-6.2,8.4-8.4.9,3.9-2.5,2.5c-.4.4-.4,1.1,0,1.5.2.2.5.3.7.3s.5-.1.7-.3l1.5-1.5.9,3.9-2.8,2.8c-1.4.2-2.6,1.3-2.7,2.7h0ZM45.7,33.3c.4.4,1,.8,1.8.8h2.1c.3,0,.5,0,.7-.1l-6.1,6.1,1.5-6.7ZM54.3,48.5l.3-.3v.3c0,0-.3,0-.3,0ZM44.2,26.1c.1-.3.4-.4.8-.4h7.2c.4,0,.7.1.8.4.2.3.1.7,0,1l-2.1,3.3c-.1.2-.3.4-.4.6-.4.8-.6,1-.8,1h-2.1c-.3,0-.4-.2-.8-1-.1-.2-.2-.4-.4-.6l-2.1-3.3c-.2-.3-.2-.7,0-1ZM39.3,63.8c0,0,0-.1-.1-.2l10-10c.6.7,1.5,1.2,2.5,1.2h1.2l-11.5,11.5-2-2.4s0,0,0,0ZM57.8,63.8l-8.9,11s0,0,0,0c-.1.2-.3.2-.4.2,0,0-.3,0-.4-.2l-2.1-2.6,11.3-11.3.5,2.5c0,.1,0,.3-.1.4h0Z"/>
    <path class="cls-2" d="M47.6,44.9h0c-.6,0-1,.5-1,1s.5,1,1,1,1-.5,1-1-.5-1-1-1h0Z"/>
  </g>
</svg>