<svg version="1.1" id="Layer_1" xmlns="http://www.w3.org/2000/svg" x="0" y="0" viewBox="1 295 515 147" xml:space="preserve"><style>.st0{fill:#231f20}</style><path class="st0" d="M48.5 332v41.5L86.3 332H48.5zm38.8 31.8l28.9-31.8h-14.3l-53.4 58.6v20.3h17.7v-22.7l10.2-12.7 22.8 34.6h17.1v-1.5l-29-44.8z"/><path class="st0" d="M516 442H1V295h515v147zM9 434h499V303H9v131z"/><path d="M182 410v-78h32c3.4 0 6.6 1.4 9.6 2.8 2.7 1.4 5.1 3 7.2 5.4 2 2.4 3.4 4.8 4.8 7.8 1 2.7 1.7 5.8 1.7 8.5s-.3 5.4-1.4 8.2-2 5.1-3.7 7.1c-1.7 2-3.4 3.7-5.8 5.1-2.4 1.4-4.8 2.3-7.5 2.6l19.8 29.9h-6.5L213 381h-25v29m-.2-33.8h27.3c2.4 0 4.8-.8 6.8-1.9 2-1 3.7-2.5 5.1-4.5 1.4-1.7 2.7-3.8 3.4-6.2.7-2.4 1-4.8 1-7.2s-.3-4.8-1.4-7.2c-1-2.4-2-4.4-3.7-6.1-1.7-1.7-3.4-3.2-5.4-4.2-2-1-4.4-1.8-6.8-1.8h-26.3v39.1zm157.5 34.5c-5.4 0-10.2-1-14.6-3.4s-8.5-5.1-11.9-8.9c-3.1-3.7-5.8-7.8-7.5-12.6-1.7-4.8-2.7-9.5-2.7-14.6s1-10.2 2.7-15 4.4-8.9 7.5-12.6c3.1-3.7 7.2-6.5 11.6-8.5 4.4-2 9.2-3.1 14.3-3.1 5.4 0 10.2 1 14.6 3.4s8.2 5.4 11.6 8.9c3.1 3.7 5.4 7.8 7.5 12.6 1.7 4.8 2.7 9.5 2.7 14.3 0 5.1-1 10.2-2.7 15-1.7 4.8-4.4 8.9-7.5 12.6-3.1 3.7-6.8 6.5-11.2 8.5-4.6 2.3-9.3 3.4-14.4 3.4zm-31.1-39.2c0 4.4.7 8.9 2.4 12.9 1.4 4.1 3.7 7.8 6.5 10.9 2.7 3.1 6.1 5.8 9.9 7.5 3.7 1.7 8.2 2.7 12.6 2.7 4.8 0 8.5-1 12.2-3.1s6.8-4.4 9.5-7.8c2.7-3.1 4.8-6.8 6.1-10.9 1.4-4.1 2-8.2 2-12.3 0-4.4-.7-8.9-2.4-12.9-1.4-4.1-3.7-7.8-6.5-10.9-2.7-3.1-5.8-5.8-9.5-7.5-3.7-2-7.8-2.7-12.3-2.7-4.8 0-8.9 1-12.6 3.1-3.7 2-7.2 4.4-9.5 7.8-2.7 3.4-4.8 6.8-6.1 10.9-1.6 3.8-2.3 7.9-2.3 12.3zm99.9-28.3L414 410h-5v-78h4l54.5 68.8v-68h5.2v77.4H468l-53.9-67zM139 332h6v79h-6zm132 0h6v79h-6z"/><path d="M42.5 434h67.8v8H42.5v-8z" fill="#ff2b42"/></svg>