<svg xmlns="http://www.w3.org/2000/svg" width="143.333" height="37.603"><path fill="#010101" d="M13.432 16.768V1.493h3.798V18.3s7.477-9.53 9.307-12.338c2.128.681 3.106.681 3.106.681s-3.021 5.531-9.743 11.828c6.084-1.021 11.19-1.745 11.19-1.745s.978 1.745-.511 2.128c-1.49.383-10.467 1.277-10.467 1.277s-.638 6.893.128 9.913 2.383 4.51 4.383 4.51h5.83s-.638-2.935.723-3.19c1.361-.255 2.935 2.595 2.978 4.51H22.496s-3.787.085-5.02-5.489c-.704-5.275-.511-8.978-.511-8.978s-2.033-.166-3.036.773c.194 3.238.162 11.982-11.561 14.378 0 0-.486.162-.534-.421-.049-.582.745-.777 2.445-1.49 1.7-.713 6.131-5.268 6.607-10.837-1.079-.561-6.045 1.598-9.326 2.958C.07 25.624-.469 24.393.459 23.983c.929-.411 10.147-3.325 10.643-3.649-.194-.561-8.052-9.391-8.96-9.996 1.316-1.663 2.656-2.44 3.26-2.375.926 1.554 4.771 6.947 8.03 8.805zm30.655-7.984c2.093 0 3.139.396 3.139 1.19 0 .216-.053.391-.161.526-.108.136-.312.286-.613.453-.261.147-.428.34-.499.582-.07.24-.105.726-.105 1.458 0 .431.087.695.262.794.1.062.253.099.457.11.204.012.686.018 1.444.018.691 0 1.12-.034 1.288-.101.168-.068.251-.236.251-.508 0-.812-.04-1.379-.121-1.7-.081-.32-.239-.538-.473-.655-.295-.153-.49-.285-.583-.392a.626.626 0 01-.142-.429c0-.253.104-.482.312-.687.208-.207.479-.347.815-.42.696-.153 1.574-.231 2.626-.231 1.234 0 2.145.103 2.733.309.587.207.88.528.88.965 0 .369-.208.647-.624.832-.261.11-.433.217-.513.318-.081.101-.144.291-.191.568-.027.153-.061.837-.101 2.049s-.06 2.177-.06 2.89c0 1.25.049 2.044.151 2.382.053.185.114.308.181.369.068.061.278.185.634.369.255.13.382.327.382.591 0 .468-.303.808-.911 1.02-.607.212-1.592.317-2.954.317-1.194 0-2.076-.107-2.647-.322-.517-.198-.774-.503-.774-.915 0-.351.198-.625.594-.821.195-.099.327-.198.398-.295.07-.097.139-.279.207-.544.121-.517.181-1.151.181-1.902 0-.389-.062-.628-.186-.721-.125-.092-.448-.138-.971-.138-1.201 0-1.966.061-2.295.185-.134.049-.218.195-.251.434a8.29 8.29 0 00-.061 1.089c0 .702.108 1.206.322 1.514.073.099.248.225.522.379.282.147.424.391.424.729 0 .43-.325.76-.976.989-.651.226-1.58.34-2.787.34-1.101 0-2-.104-2.698-.313-.301-.092-.538-.224-.709-.392-.172-.168-.256-.355-.256-.557 0-.203.053-.36.161-.47.107-.11.342-.253.704-.425.188-.086.321-.196.398-.333.078-.135.136-.363.177-.683.1-.721.151-1.662.151-2.825 0-.214-.004-.47-.01-.767-.027-1.477-.04-2.321-.04-2.53.006-.529-.042-.878-.146-1.049-.104-.169-.377-.355-.82-.559-.295-.13-.443-.324-.443-.582 0-.621.658-1.053 1.973-1.293.765-.14 1.548-.21 2.354-.21zM61.86 13.03v5.365c0 .425.042.735.126.932.084.198.253.379.508.544.208.135.347.251.417.346.07.096.107.217.107.365 0 .795-1.097 1.19-3.291 1.19-1.181 0-2.117-.086-2.808-.257a1.15 1.15 0 01-.569-.324.749.749 0 01-.217-.528c0-.165.036-.295.11-.387.073-.092.261-.24.563-.443.208-.142.356-.373.443-.693.087-.32.131-.797.131-1.431 0-.203-.016-.583-.045-1.14-.03-.557-.052-.882-.065-.975-.04-.253-.227-.447-.563-.582-.416-.166-.624-.412-.624-.738 0-.389.272-.677.815-.868a19.828 19.828 0 012.416-.674c.859-.185 1.523-.277 1.993-.277.369.003.553.194.553.575zm-1.992-4.044c.583 0 1.047.1 1.389.3.343.2.513.469.513.808 0 .474-.259.85-.774 1.127-.819.437-1.809.655-2.969.655-.489 0-.878-.086-1.167-.259-.39-.221-.583-.529-.583-.923 0-.53.413-.945 1.238-1.247.836-.306 1.622-.461 2.353-.461zm9.571.452l-.091 2.89c-.006.288-.01.715-.01 1.273 0 .621.01.988.03 1.099.047.253.188.379.424.379.201 0 .509-.12.925-.356.416-.236.625-.413.625-.53 0-.068-.074-.191-.221-.369-.108-.129-.161-.252-.161-.369 0-.665.893-.998 2.678-.998.925 0 1.657.086 2.193.259.216.068.394.185.534.351.14.166.211.344.211.535 0 .277-.144.47-.433.582-.06.025-.255.065-.583.12-.295.049-.677.217-1.146.503-.469.286-.704.494-.704.624 0 .087.283.491.85 1.214a32.297 32.297 0 001.584 1.888c.316.351.563.598.741.738.178.142.425.292.739.453.483.24.725.515.725.821 0 .325-.152.582-.459.765-.305.185-.722.278-1.251.278h-3.262c-.409-.006-.728-.146-.955-.416l-1.671-1.966c-.443-.517-.713-.825-.811-.924s-.179-.147-.247-.147c-.081 0-.135.055-.161.166-.027.11-.04.321-.04.628 0 .277.034.478.1.604.068.126.221.278.463.457.174.129.262.32.262.573 0 .431-.248.741-.745.932-.496.191-1.315.286-2.456.286-1.341 0-2.214-.053-2.616-.157a1.139 1.139 0 01-.583-.374c-.161-.188-.242-.386-.242-.595 0-.234.142-.437.422-.609.242-.142.396-.249.464-.324a.81.81 0 00.161-.351c.153-.862.227-2.191.221-3.988v-2.022c0-.689-.039-1.129-.116-1.32-.077-.191-.266-.305-.568-.342-.551-.068-.825-.277-.825-.628 0-.234.121-.444.361-.633.242-.188.638-.374 1.188-.559 1.758-.598 3.06-.895 3.905-.895.379.002.564.153.551.454zm15.146 2.946c1.168 0 2.157.272 2.969.813.429.288.729.62.902.991.172.373.256.885.256 1.537l-.019 1.376c0 .954.073 1.574.221 1.857.074.135.144.221.211.259.068.036.208.07.424.101.214.031.322.16.322.389 0 .295-.129.603-.387.923a3.131 3.131 0 01-1.001.804 3.293 3.293 0 01-1.579.405c-.706 0-1.262-.222-1.671-.665-.142-.16-.272-.24-.392-.24-.134 0-.312.078-.533.233-.672.448-1.433.673-2.286.673-.878 0-1.589-.173-2.134-.517a2.514 2.514 0 01-.845-.891 2.296 2.296 0 01-.312-1.15c0-.641.281-1.206.845-1.698.878-.776 2.195-1.167 3.945-1.173.389 0 .635-.035.735-.107.101-.071.151-.235.151-.494 0-.652-.074-1.125-.221-1.418-.148-.292-.39-.439-.725-.439a.915.915 0 00-.538.166c-.159.11-.355.314-.59.609-.596.782-1.22 1.173-1.871 1.173-.329 0-.596-.09-.804-.268a.88.88 0 01-.312-.702c0-.295.129-.591.387-.886.257-.295.608-.554 1.051-.776a8.577 8.577 0 013.801-.885zm-.675 5.346c-.295 0-.552.11-.771.333a1.09 1.09 0 00-.326.794c0 .295.077.534.231.716a.762.762 0 00.613.272c.537 0 .806-.415.806-1.246 0-.338-.04-.567-.117-.683-.074-.118-.22-.179-.436-.186zm12.711-9.002c.691 0 1.597.157 2.717.47.134.036.242.056.322.056.068 0 .269-.056.604-.166.108-.036.222-.055.343-.055.448 0 .924.326 1.424.978.499.652.75 1.273.75 1.865 0 .346-.113.635-.338.873s-.499.355-.82.355c-.268 0-.486-.049-.654-.148-.168-.099-.537-.39-1.107-.877-.806-.689-1.598-1.034-2.375-1.034-.376 0-.677.083-.902.249a.782.782 0 00-.337.656c0 .535.513.938 1.54 1.21 1.389.376 2.278.65 2.668.821 1.71.763 2.566 1.887 2.566 3.369 0 1.311-.583 2.383-1.752 3.213-1.195.85-2.755 1.273-4.679 1.273a14.04 14.04 0 01-2.717-.282c-.952-.188-1.641-.407-2.063-.659-.322-.198-.612-.626-.871-1.288a5.327 5.327 0 01-.387-1.935c0-.301.068-.529.201-.683a.795.795 0 01.635-.295c.255 0 .499.12.733.36.142.136.474.569.997 1.302.248.344.642.632 1.182.859s1.099.34 1.676.34c.498 0 .899-.084 1.207-.253.309-.169.463-.387.463-.651 0-.247-.121-.459-.361-.637-.242-.179-.635-.344-1.177-.499-.96-.277-1.691-.531-2.195-.761a6.733 6.733 0 01-1.409-.872c-1.062-.862-1.59-1.841-1.59-2.937 0-.541.138-1.069.413-1.583a4.034 4.034 0 011.168-1.335c1.126-.865 2.502-1.299 4.125-1.299zm12.793.71l-.131 3.868c-.013.461.142.693.463.693.161 0 .32-.101.473-.305.651-.868 1.519-1.302 2.607-1.302 1.068 0 1.915.299 2.548.895.282.265.481.58.598.942.117.363.182.884.196 1.561l.091 3.333c.005.288.048.502.125.637s.256.305.538.508c.194.142.291.311.291.507 0 .665-1.094.997-3.28.997-1.945 0-2.92-.311-2.92-.932a.46.46 0 01.051-.24c.032-.055.151-.203.352-.443.282-.338.424-1.185.424-2.539 0-.819-.084-1.415-.252-1.791-.221-.511-.617-.767-1.188-.767-.409 0-.711.135-.906.405-.142.198-.211.567-.211 1.108v1.783c.047.787.087 1.234.121 1.338.032.105.188.299.463.582a.624.624 0 01.191.452c0 .695-.985 1.042-2.957 1.042-2.309 0-3.462-.359-3.462-1.08 0-.166.035-.294.109-.383s.255-.226.544-.411c.255-.166.431-.613.529-1.344.097-.73.146-1.937.146-3.624 0-1.323-.04-2.24-.12-2.751-.027-.191-.075-.33-.147-.42-.07-.09-.203-.181-.398-.272-.416-.198-.624-.425-.624-.683 0-.308.157-.557.473-.747.314-.191.919-.398 1.811-.619 1.207-.308 2.17-.461 2.889-.461.388.002.576.155.563.463zm14.624 2.946c1.228 0 2.304.292 3.23.877a4.852 4.852 0 011.601 1.635c.416.702.624 1.435.624 2.197 0 1.336-.668 2.472-2.002 3.407-1.275.891-2.734 1.338-4.378 1.338-1.603 0-2.903-.418-3.896-1.257-.967-.812-1.45-1.871-1.45-3.176 0-1.453.591-2.64 1.771-3.564 1.234-.971 2.735-1.457 4.5-1.457zm-.807 2.134c-.295 0-.531.1-.709.3-.178.2-.266.466-.266.799 0 .369.075.872.226 1.51.151.637.33 1.202.538 1.694.208.505.547.758 1.017.758.596 0 .895-.347.895-1.043 0-.517-.075-1.105-.226-1.763-.151-.659-.335-1.194-.548-1.607-.222-.421-.531-.636-.927-.648zm11.918-2.079c.411 0 .665.032.765.097.101.065.151.226.151.485 0 .227.081.342.242.342.068 0 .292-.117.673-.351.288-.178.656-.327 1.102-.448.446-.12.85-.181 1.214-.181.851 0 1.614.272 2.284.813.509.412.906.932 1.188 1.561.295.659.443 1.351.443 2.078 0 1.552-.57 2.829-1.711 3.831-.878.782-1.879 1.173-2.999 1.173a4.644 4.644 0 01-1.761-.37.848.848 0 00-.292-.073c-.203 0-.301.183-.301.554 0 .486.178.836.533 1.053.329.203.525.339.59.411.062.071.095.19.095.356 0 .369-.225.654-.676.854-.448.201-1.082.3-1.901.3-1.457 0-2.731-.268-3.825-.803-.557-.27-.834-.607-.834-1.007 0-.183.042-.325.125-.42.084-.095.247-.195.489-.299.35-.148.563-.416.639-.803.077-.389.135-1.502.175-3.342-.047-1.514-.107-2.364-.181-2.548a.208.208 0 00-.116-.12 4.942 4.942 0 00-.499-.101.886.886 0 01-.522-.272.74.74 0 01-.203-.522c0-.247.094-.463.282-.651.188-.188.492-.372.916-.55 1.642-.686 2.95-1.034 3.915-1.047zm.997 3.491l-.151 2.539c-.006.105-.01.207-.01.305 0 .191.09.344.272.463.181.117.421.175.724.175.928 0 1.39-.699 1.39-2.096 0-.906-.195-1.542-.583-1.911a1.222 1.222 0 00-.865-.34c-.48-.003-.737.286-.777.865z"/><path d="M43.934 29.594h-2.967a1.74 1.74 0 00-.004.107c0 .292.083.526.25.705a.798.798 0 00.608.268c.393 0 .699-.203.919-.609l1.06.177c-.206.426-.481.745-.827.958-.345.214-.731.32-1.16.32-.588 0-1.066-.187-1.434-.559-.369-.373-.552-.865-.552-1.478 0-.6.166-1.133.499-1.6.453-.632 1.101-.948 1.941-.948.536 0 .961.166 1.277.497.316.331.474.795.474 1.391a3.403 3.403 0 01-.084.771zm-.997-.721l.004-.12c0-.323-.073-.567-.218-.729-.146-.162-.341-.243-.585-.243s-.464.093-.657.276c-.194.185-.325.456-.394.816h1.85zm2.669-.206h2.296l-.239 1.142h-2.296l.239-1.142zm6.565 1.1l1.15.186c-.189.511-.47.899-.841 1.166s-.801.4-1.29.4c-.558 0-1-.167-1.327-.499-.327-.333-.491-.79-.491-1.373 0-.475.099-.924.297-1.348.198-.423.496-.756.895-.999s.835-.365 1.311-.365c.517 0 .929.135 1.236.404.308.27.481.624.52 1.063l-1.125.119c-.028-.244-.103-.425-.225-.54a.675.675 0 00-.48-.173.96.96 0 00-.639.256c-.198.17-.35.425-.456.765a3.205 3.205 0 00-.159.954c0 .258.063.457.189.598.126.14.285.21.474.21s.373-.068.548-.206.314-.343.413-.618zm2.913-.169c0-.811.229-1.457.686-1.939s1.059-.724 1.803-.724c.646 0 1.15.178 1.513.534.363.355.544.834.544 1.437 0 .709-.227 1.321-.68 1.838-.454.517-1.061.775-1.822.775-.413 0-.778-.083-1.097-.248s-.556-.398-.713-.7a2.107 2.107 0 01-.234-.973zm3.372-.845c0-.28-.082-.505-.246-.674s-.374-.253-.632-.253c-.256 0-.482.079-.68.237-.198.157-.352.387-.462.688s-.165.578-.165.831c0 .313.085.562.255.746.17.184.385.276.643.276.324 0 .596-.14.816-.417.314-.392.471-.871.471-1.434zm3.502-1.714h1.113l-.111.531c.434-.423.889-.635 1.367-.635.33 0 .584.069.764.206a.934.934 0 01.342.569c.15-.22.367-.404.65-.553s.578-.223.883-.223c.348 0 .621.094.816.28.195.188.291.435.291.742 0 .151-.037.412-.115.783l-.561 2.675h-1.182l.561-2.675a6.08 6.08 0 00.102-.569.38.38 0 00-.107-.286c-.074-.07-.184-.105-.328-.105-.295 0-.557.155-.787.466-.168.223-.311.617-.43 1.184l-.416 1.986h-1.184l.553-2.646c.064-.305.096-.503.096-.593 0-.116-.039-.211-.117-.285s-.188-.111-.324-.111a.82.82 0 00-.4.116 1.148 1.148 0 00-.359.317 1.811 1.811 0 00-.266.519c-.033.1-.088.323-.162.672l-.42 2.012h-1.183l.914-4.377zm8.518 0h1.113l-.111.531c.434-.423.89-.635 1.368-.635.33 0 .584.069.763.206a.925.925 0 01.342.569c.151-.22.368-.404.651-.553s.577-.223.882-.223c.349 0 .621.094.816.28.195.188.292.435.292.742 0 .151-.038.412-.115.783l-.561 2.675h-1.183l.561-2.675c.068-.335.103-.525.103-.569a.381.381 0 00-.108-.286c-.073-.07-.183-.105-.328-.105-.294 0-.557.155-.787.466-.168.223-.311.617-.429 1.184l-.416 1.986h-1.184l.553-2.646c.063-.305.095-.503.095-.593 0-.116-.039-.211-.117-.285s-.187-.111-.324-.111a.814.814 0 00-.399.116 1.152 1.152 0 00-.36.317 1.837 1.837 0 00-.266.519c-.033.1-.087.323-.161.672l-.421 2.012h-1.183l.914-4.377zm11.902 2.555H79.41l-.004.107c0 .292.083.526.249.705a.8.8 0 00.608.268c.393 0 .699-.203.919-.609l1.06.177c-.206.426-.481.745-.826.958-.345.214-.731.32-1.16.32-.589 0-1.066-.187-1.435-.559-.368-.373-.553-.865-.553-1.478 0-.6.166-1.133.499-1.6.453-.632 1.101-.948 1.941-.948.536 0 .962.166 1.277.497.316.331.475.795.475 1.391.001.286-.027.543-.082.771zm-.997-.721c.003-.053.004-.092.004-.12 0-.323-.073-.567-.219-.729s-.341-.243-.585-.243-.464.093-.657.276c-.194.185-.325.456-.394.816h1.851zm3.293-1.834h1.104l-.178.849c.412-.635.858-.952 1.34-.952.17 0 .353.043.548.128l-.453.969a1.02 1.02 0 00-.342-.058c-.204 0-.41.077-.621.23-.21.154-.374.359-.492.616s-.235.664-.351 1.223l-.288 1.372h-1.183l.916-4.377zm6.416 2.728l1.149.186c-.189.511-.47.899-.841 1.166-.37.267-.801.4-1.29.4-.558 0-1-.167-1.327-.499-.326-.333-.49-.79-.49-1.373 0-.475.099-.924.297-1.348.198-.423.496-.756.895-.999s.835-.365 1.311-.365c.517 0 .929.135 1.236.404s.481.624.52 1.063l-1.125.119c-.027-.244-.103-.425-.225-.54s-.282-.173-.48-.173a.958.958 0 00-.639.256c-.198.17-.35.425-.455.765a3.205 3.205 0 00-.159.954c0 .258.063.457.189.598.127.14.284.21.475.21.189 0 .372-.068.548-.206s.313-.343.411-.618zm7.002-.173h-2.968l-.004.107c0 .292.083.526.249.705a.8.8 0 00.608.268c.393 0 .699-.203.919-.609l1.06.177c-.206.426-.481.745-.826.958-.345.214-.731.32-1.16.32-.589 0-1.066-.187-1.435-.559-.368-.373-.553-.865-.553-1.478 0-.6.166-1.133.499-1.6.453-.632 1.101-.948 1.941-.948.536 0 .962.166 1.277.497.316.331.475.795.475 1.391.001.286-.027.543-.082.771zm-.997-.721c.003-.053.004-.092.004-.12 0-.323-.073-.567-.219-.729s-.341-.243-.585-.243-.464.093-.657.276c-.194.185-.325.456-.394.816h1.851zm5.649 1.318l1.146-.181c.102.241.229.413.38.513.15.101.356.15.618.15.269 0 .484-.061.646-.181.113-.083.169-.184.169-.302a.31.31 0 00-.086-.214c-.061-.061-.225-.135-.491-.223-.714-.236-1.156-.423-1.327-.561a1.024 1.024 0 01-.399-.841c0-.346.129-.645.388-.895.359-.349.895-.523 1.604-.523.563 0 .989.104 1.277.31s.471.484.548.837l-1.092.189a.68.68 0 00-.28-.359c-.176-.106-.388-.16-.635-.16s-.426.041-.534.123c-.108.083-.162.178-.162.285 0 .109.055.2.164.271.069.044.29.121.664.231.577.167.963.332 1.158.494.274.229.412.503.412.824 0 .415-.175.775-.523 1.08s-.841.458-1.476.458c-.632 0-1.12-.116-1.465-.349a1.701 1.701 0 01-.704-.976zm6.032-.593c0-.811.229-1.457.687-1.939.458-.482 1.059-.724 1.804-.724.646 0 1.149.178 1.513.534.362.355.544.834.544 1.437 0 .709-.227 1.321-.681 1.838-.453.517-1.061.775-1.821.775-.412 0-.778-.083-1.097-.248s-.557-.398-.713-.7a2.084 2.084 0 01-.236-.973zm3.372-.845c0-.28-.082-.505-.245-.674a.843.843 0 00-.633-.253c-.256 0-.482.079-.681.237-.197.157-.352.387-.461.688-.11.301-.165.578-.165.831 0 .313.085.562.256.746.17.184.384.276.643.276.324 0 .597-.14.816-.417.313-.392.47-.871.47-1.434zm2.617 2.663l1.265-6.042h1.179l-1.261 6.042h-1.183zm4.273-4.377h1.183l-.54 2.592c-.065.311-.099.505-.099.582a.44.44 0 00.14.325.493.493 0 00.358.136c.104 0 .208-.02.31-.06s.206-.101.313-.182c.106-.081.203-.174.288-.278a1.75 1.75 0 00.239-.412c.052-.126.108-.332.169-.618l.437-2.085h1.184l-.915 4.377H121l.123-.594c-.483.465-1.01.697-1.578.697-.36 0-.644-.104-.85-.31s-.309-.482-.309-.828c0-.151.047-.452.14-.903l.512-2.439zm5.559.878l.182-.878h.577l.144-.701 1.356-.815-.317 1.517h.721l-.181.878h-.726l-.384 1.834a5.982 5.982 0 00-.103.568c0 .091.028.162.087.213.058.051.162.076.313.076.053 0 .183-.01.392-.029l-.186.878a3.157 3.157 0 01-.626.063c-.418 0-.722-.081-.911-.241-.189-.161-.284-.385-.284-.67 0-.135.051-.445.152-.932l.367-1.76h-.573zm4.442-.878h1.183l-.915 4.377h-1.183l.915-4.377zm.346-1.665h1.183l-.223 1.071h-1.183l.223-1.071zm2.27 4.224c0-.811.229-1.457.687-1.939.458-.482 1.059-.724 1.804-.724.646 0 1.149.178 1.513.534.362.355.544.834.544 1.437 0 .709-.227 1.321-.681 1.838-.453.517-1.061.775-1.821.775-.412 0-.778-.083-1.097-.248s-.557-.398-.713-.7a2.084 2.084 0 01-.236-.973zm3.372-.845c0-.28-.082-.505-.245-.674a.843.843 0 00-.633-.253c-.256 0-.482.079-.681.237-.197.157-.352.387-.461.688-.11.301-.165.578-.165.831 0 .313.085.562.256.746.17.184.384.276.643.276.324 0 .597-.14.816-.417.313-.392.47-.871.47-1.434zm3.556-1.714h1.121l-.115.568c.28-.241.542-.414.785-.518.243-.103.499-.154.769-.154.36 0 .644.104.852.31.207.206.311.479.311.82 0 .153-.045.444-.136.873l-.516 2.478h-1.183l.52-2.485c.077-.371.115-.592.115-.664 0-.15-.045-.27-.134-.356a.518.518 0 00-.373-.13c-.173 0-.365.073-.577.219s-.378.338-.499.577c-.088.17-.187.518-.297 1.043l-.375 1.797h-1.183l.915-4.378z"/></svg>