<svg xmlns="http://www.w3.org/2000/svg" width="88.5" height="37.603"><path d="M43.801 2.743h4.118v15.384h.142a79.747 79.747 0 012.509-3.408l9.75-11.976h5.113L53.883 16.28l12.449 18.366h-4.875L50.948 18.978l-3.03 3.503v12.165H43.8V2.743zm24.185 31.903V32.09l3.266-3.172c7.857-7.479 11.408-11.455 11.455-16.093 0-3.125-1.515-6.012-6.106-6.012-2.792 0-5.112 1.42-6.532 2.604l-1.325-2.935c2.13-1.799 5.159-3.124 8.71-3.124 6.627 0 9.42 4.545 9.42 8.947 0 5.68-4.118 10.271-10.603 16.519l-2.462 2.272v.094h13.822v3.456H67.986zM0 2.656v32.238h38.099V2.656H0zm3.678 28.847l10.113-15.802 2.758 4.428 4.828-9.542 12.93 20.918-30.629-.002z" fill="#010101"/></svg>