<svg version="1.0" xmlns="http://www.w3.org/2000/svg" width="88" height="37.603"><path d="M3.623 12.862h.058a29.7 29.7 0 011.243-1.589l4.104-4.826h3.063l-5.404 5.751 6.156 8.236H9.75l-4.827-6.705-1.3 1.445v5.26H1.109V-.086h2.514v12.948zM26.48 16.62c0 1.444.029 2.716.115 3.814h-2.254l-.145-2.283h-.058c-.665 1.127-2.138 2.602-4.624 2.602-2.196 0-4.826-1.214-4.826-6.127V6.447h2.543v7.745c0 2.658.809 4.45 3.121 4.45 1.705 0 2.89-1.185 3.353-2.312.145-.376.231-.839.231-1.301V6.447h2.543V16.62zm4.215-6.388c0-1.444-.029-2.63-.116-3.785h2.254l.145 2.312h.058c.693-1.329 2.312-2.63 4.624-2.63 1.936 0 4.942 1.156 4.942 5.953v8.353h-2.543v-8.063c0-2.254-.838-4.133-3.237-4.133-1.676 0-2.977 1.186-3.41 2.602-.115.317-.173.751-.173 1.185v8.41h-2.543V10.232zm17.452 3.671c.058 3.438 2.254 4.855 4.797 4.855 1.821 0 2.919-.318 3.873-.723l.434 1.82c-.896.404-2.428.867-4.653.867-4.306 0-6.878-2.832-6.878-7.052s2.485-7.543 6.561-7.543c4.565 0 5.779 4.018 5.779 6.589 0 .521-.058.925-.086 1.186h-9.827zm7.457-1.821c.028-1.618-.665-4.132-3.526-4.132-2.571 0-3.699 2.369-3.901 4.132h7.427zm5.602-1.85c0-1.444-.029-2.63-.116-3.785h2.255l.145 2.312h.058c.693-1.329 2.312-2.63 4.624-2.63 1.937 0 4.941 1.156 4.941 5.953v8.353H70.57v-8.063c0-2.254-.838-4.133-3.236-4.133-1.677 0-2.977 1.186-3.41 2.602-.116.317-.174.751-.174 1.185v8.41h-2.543V10.232zm23.78 10.202l-.202-1.763h-.086c-.781 1.098-2.283 2.081-4.277 2.081-2.833 0-4.277-1.994-4.277-4.018 0-3.381 3.006-5.23 8.41-5.202v-.289c0-1.156-.318-3.236-3.18-3.236-1.3 0-2.658.404-3.642 1.04l-.577-1.676c1.155-.752 2.832-1.243 4.595-1.243 4.277 0 5.317 2.919 5.317 5.723v5.23c0 1.214.058 2.398.231 3.353h-2.312zm-.375-7.138c-2.774-.058-5.925.434-5.925 3.15 0 1.647 1.099 2.428 2.398 2.428 1.821 0 2.977-1.156 3.382-2.341.087-.261.145-.549.145-.81v-2.427zM11.229 37.48l2.116-11.26H.456v-1.783h15.038l-1.746 9.291 14.373-9.291h59.681v1.783H28.646z" fill="#010101"/></svg>