<svg xmlns="http://www.w3.org/2000/svg" width="168.873" height="37.603"><path fill="#010101" d="M36.873 35.135c0 1.1-.9 2-2 2H2.54c-1.1 0-2-.9-2-2V2.802c0-1.1.9-2 2-2h32.333c1.1 0 2 .9 2 2v32.333z"/><text transform="translate(4.863 25.764)" fill="#FFF" font-family="'MyriadPro-Bold'" font-size="24.649">Sp</text><path d="M44.001 10.024c1.088-.223 2.646-.347 4.131-.347 2.3 0 3.784.421 4.823 1.36.841.742 1.311 1.88 1.311 3.166 0 2.202-1.385 3.661-3.142 4.254v.074c1.287.445 2.054 1.633 2.449 3.364.544 2.325.939 3.933 1.286 4.576h-2.227c-.271-.47-.643-1.904-1.112-3.982-.495-2.3-1.386-3.166-3.34-3.24h-2.028v7.223h-2.151V10.024zm2.152 7.593h2.202c2.3 0 3.76-1.261 3.76-3.166 0-2.152-1.559-3.092-3.834-3.117-1.039 0-1.781.099-2.128.198v6.085zm22.012 2.77c0 4.428-3.067 6.357-5.961 6.357-3.24 0-5.739-2.375-5.739-6.159 0-4.007 2.622-6.357 5.937-6.357 3.438.001 5.763 2.499 5.763 6.159zm-9.498.124c0 2.622 1.509 4.601 3.636 4.601 2.077 0 3.636-1.954 3.636-4.65 0-2.028-1.014-4.601-3.586-4.601-2.573 0-3.686 2.375-3.686 4.65zm14.395-.519h.049c.297-.42.718-.94 1.063-1.36l3.513-4.131h2.622l-4.626 4.923 5.269 7.049h-2.646l-4.131-5.738-1.112 1.236v4.502H70.91V8.911h2.152v11.081zm9.149 4.254c.644.421 1.781.866 2.869.866 1.583 0 2.325-.792 2.325-1.781 0-1.038-.618-1.607-2.227-2.201-2.151-.767-3.166-1.954-3.166-3.389 0-1.929 1.559-3.512 4.131-3.512 1.212 0 2.275.346 2.943.742l-.544 1.583a4.657 4.657 0 00-2.448-.693c-1.287 0-2.004.742-2.004 1.633 0 .989.717 1.435 2.275 2.028 2.078.791 3.142 1.83 3.142 3.611 0 2.103-1.633 3.586-4.478 3.586-1.311 0-2.522-.321-3.363-.816l.545-1.657zm10.091-5.837c0-1.534-.05-2.77-.099-3.908h1.954l.099 2.053h.05c.89-1.459 2.3-2.325 4.254-2.325 2.894 0 5.07 2.449 5.07 6.084 0 4.304-2.622 6.432-5.441 6.432-1.583 0-2.968-.693-3.686-1.88h-.049v6.505h-2.152V18.409zm2.153 3.19c0 .322.049.619.099.891.396 1.509 1.706 2.548 3.265 2.548 2.301 0 3.636-1.88 3.636-4.625 0-2.399-1.261-4.453-3.562-4.453-1.484 0-2.869 1.063-3.29 2.696-.074.272-.147.593-.147.89v2.053zm11.918-3.363c0-1.41-.024-2.622-.099-3.735h1.904l.074 2.35h.099c.544-1.608 1.855-2.622 3.314-2.622.247 0 .421.025.618.074v2.053a3.238 3.238 0 00-.741-.074c-1.534 0-2.622 1.162-2.919 2.795-.05.297-.1.644-.1 1.015v6.381h-2.151v-8.237zm18.674 2.151c0 4.428-3.067 6.357-5.961 6.357-3.24 0-5.739-2.375-5.739-6.159 0-4.007 2.622-6.357 5.937-6.357 3.438.001 5.763 2.499 5.763 6.159zm-9.498.124c0 2.622 1.509 4.601 3.636 4.601 2.077 0 3.636-1.954 3.636-4.65 0-2.028-1.014-4.601-3.586-4.601-2.573 0-3.686 2.375-3.686 4.65zm20.776 5.516c-.568.297-1.83.692-3.438.692-3.611 0-5.962-2.448-5.962-6.109 0-3.685 2.523-6.356 6.432-6.356 1.286 0 2.424.321 3.018.618l-.495 1.682c-.52-.297-1.335-.569-2.522-.569-2.746 0-4.229 2.028-4.229 4.526 0 2.771 1.78 4.477 4.155 4.477 1.236 0 2.053-.321 2.671-.594l.37 1.633zm4.698-6.035h.05c.297-.42.718-.94 1.063-1.36l3.513-4.131h2.622l-4.626 4.923 5.269 7.049h-2.646l-4.131-5.738-1.113 1.236v4.502h-2.151V8.911h2.151v11.081zm10.659.891c.05 2.943 1.93 4.155 4.106 4.155 1.558 0 2.498-.272 3.313-.618l.371 1.558c-.767.347-2.077.742-3.981.742-3.686 0-5.888-2.424-5.888-6.035s2.128-6.456 5.615-6.456c3.908 0 4.947 3.438 4.947 5.64 0 .444-.05.791-.074 1.014h-8.409zm6.382-1.559c.024-1.385-.569-3.537-3.018-3.537-2.202 0-3.166 2.028-3.34 3.537h6.358zm7.419-8.261v3.438h3.116v1.657h-3.116v6.456c0 1.484.42 2.325 1.632 2.325.569 0 .99-.074 1.262-.148l.099 1.632c-.42.174-1.088.297-1.929.297-1.015 0-1.83-.321-2.35-.915-.619-.643-.841-1.706-.841-3.116v-6.53H161.5v-1.657h1.855v-2.869l2.128-.57z"/></svg>