<svg xmlns="http://www.w3.org/2000/svg" width="160.956" height="37.603"><path fill="#231F20" d="M5.221 6.977l12.904-.005L20.707 2.5H0v32.564h5.323l2.543-4.471H5.244zm27.662-4.459L30.301 6.99h2.661v23.62H20.626l-2.582 4.472h20.162V2.518zM25.931 2.5L7.116 35.088h5.19L31.121 2.5zm20.592 27.684c.302 0 .57-.051.808-.152s.438-.244.603-.427c.164-.183.289-.401.375-.655a2.57 2.57 0 00.13-.838v-4.425h.98v4.425c0 .42-.067.81-.201 1.168-.134.359-.324.67-.573.933a2.632 2.632 0 01-.912.617c-.358.148-.762.223-1.209.223s-.85-.074-1.209-.223a2.668 2.668 0 01-.914-.617 2.69 2.69 0 01-.576-.933 3.309 3.309 0 01-.201-1.168v-4.425h.98v4.42c0 .305.043.584.13.838.086.254.211.473.376.655.164.183.365.326.604.429.238.104.508.155.809.155zm7.4-.046h3.149v.828h-4.135v-7.279h.985v6.451zm10.15-6.451v.828H61.72v6.451h-.985v-6.451h-2.361v-.828h5.699zm4.032 7.28h-.985v-7.279h.985v7.279zm7.484-2.375c.036.09.07.181.104.272a3.46 3.46 0 01.233-.533l2.464-4.476c.044-.078.09-.125.137-.143a.633.633 0 01.203-.025h.727v7.279h-.863v-5.349a6.33 6.33 0 01.021-.478l-2.494 4.551c-.085.153-.203.229-.355.229h-.143c-.152 0-.271-.076-.355-.229l-2.55-4.566c.01.089.018.175.022.26.006.084.008.162.008.233v5.349h-.863v-7.279h.727c.088 0 .155.009.203.025.047.018.093.064.137.143l2.515 4.48c.045.082.087.168.122.257zm13.458 2.375h-.762a.327.327 0 01-.213-.066.4.4 0 01-.122-.167l-.681-1.758h-3.267l-.68 1.758a.392.392 0 01-.122.162.323.323 0 01-.214.071h-.762l2.91-7.279h1.001l2.912 7.279zm-4.769-2.703h2.718l-1.143-2.961a5.643 5.643 0 01-.219-.687 9.97 9.97 0 01-.109.384c-.035.117-.07.22-.104.308l-1.143 2.956zm11.805-4.577v.828H93.73v6.451h-.985v-6.451h-2.361v-.828h5.699zm7.35 0v.803h-3.495v2.418h2.829v.772h-2.829v2.483h3.495v.803h-4.485v-7.279h4.485zm9.773 4.765c0 .406-.051.771-.15 1.093-.1.321-.247.593-.441.814a1.917 1.917 0 01-.719.511 2.523 2.523 0 01-.98.178c-.329 0-.671-.047-1.026-.142.007-.099.016-.196.025-.292l.03-.287a.233.233 0 01.063-.14c.036-.036.089-.054.16-.054.062 0 .143.016.244.046s.236.046.406.046c.224 0 .422-.034.597-.102a1.09 1.09 0 00.442-.315c.12-.143.211-.324.273-.546.063-.222.095-.485.095-.79v-4.785h.98v4.765zm10.361-1.122c0 .545-.086 1.046-.259 1.501s-.417.848-.731 1.176a3.282 3.282 0 01-1.136.765c-.441.181-.93.271-1.465.271s-1.023-.091-1.463-.271a3.298 3.298 0 01-1.133-.765c-.315-.328-.559-.721-.731-1.176s-.259-.956-.259-1.501.086-1.046.259-1.501.416-.849.731-1.179c.314-.33.692-.587 1.133-.77.439-.183.928-.274 1.463-.274s1.023.092 1.465.274c.442.183.82.439 1.136.77.314.33.559.724.731 1.179s.259.956.259 1.501zm-1.011 0c0-.447-.061-.849-.183-1.204s-.295-.656-.519-.901-.494-.435-.813-.566-.674-.198-1.066-.198c-.39 0-.744.066-1.062.198a2.269 2.269 0 00-.815.566 2.513 2.513 0 00-.521.901c-.122.355-.184.757-.184 1.204s.062.848.184 1.201c.121.354.295.653.521.899.225.245.497.433.815.563.317.13.672.195 1.062.195.393 0 .748-.065 1.066-.195.318-.131.589-.318.813-.563.224-.246.396-.546.519-.899s.183-.754.183-1.201zm10.946 0c0 .545-.086 1.046-.259 1.501s-.417.848-.731 1.176a3.282 3.282 0 01-1.136.765c-.441.181-.93.271-1.465.271s-1.023-.091-1.463-.271a3.298 3.298 0 01-1.133-.765c-.315-.328-.559-.721-.731-1.176s-.259-.956-.259-1.501.086-1.046.259-1.501.416-.849.731-1.179c.314-.33.692-.587 1.133-.77.439-.183.928-.274 1.463-.274s1.023.092 1.465.274c.442.183.82.439 1.136.77.314.33.559.724.731 1.179s.259.956.259 1.501zm-1.01 0c0-.447-.061-.849-.183-1.204s-.295-.656-.519-.901-.494-.435-.813-.566-.674-.198-1.066-.198c-.39 0-.744.066-1.062.198a2.269 2.269 0 00-.815.566 2.513 2.513 0 00-.521.901c-.122.355-.184.757-.184 1.204s.062.848.184 1.201c.121.354.295.653.521.899.225.245.497.433.815.563.317.13.672.195 1.062.195.393 0 .748-.065 1.066-.195.318-.131.589-.318.813-.563.224-.246.396-.546.519-.899s.183-.754.183-1.201zm7.89 1.262c.036.09.07.181.104.272a3.46 3.46 0 01.233-.533l2.464-4.476c.044-.078.09-.125.137-.143a.633.633 0 01.203-.025h.727v7.279h-.863v-5.349a6.33 6.33 0 01.021-.478l-2.494 4.551c-.085.153-.203.229-.355.229h-.143c-.152 0-.271-.076-.355-.229l-2.55-4.566c.01.089.018.175.022.26.006.084.008.162.008.233v5.349h-.863v-7.279h.727c.088 0 .155.009.203.025.047.018.093.064.137.143l2.515 4.48c.045.082.087.168.122.257zm8.455 1.546h3.149v.828h-4.135v-7.279h.985v6.451zm12.053.829h-.762a.327.327 0 01-.213-.066.4.4 0 01-.122-.167l-.681-1.758h-3.267l-.68 1.758a.392.392 0 01-.122.162.323.323 0 01-.214.071h-.762l2.91-7.279h1.001l2.912 7.279zm-4.769-2.703h2.718l-1.143-2.961a5.643 5.643 0 01-.219-.687 9.97 9.97 0 01-.109.384c-.035.117-.07.22-.104.308l-1.143 2.956zM51.909 10.528c-.098.156-.2.273-.308.352s-.246.117-.415.117c-.149 0-.311-.047-.483-.142l-.585-.317a4.92 4.92 0 00-.747-.317 3 3 0 00-.957-.142c-.618 0-1.078.132-1.381.395-.303.264-.454.62-.454 1.069 0 .286.091.524.273.712.182.189.421.352.717.488.297.137.635.262 1.016.376s.77.241 1.167.38c.396.14.785.305 1.166.493.381.189.72.43 1.016.723.296.292.535.649.718 1.069.182.42.273.926.273 1.518 0 .657-.114 1.272-.342 1.845a4.35 4.35 0 01-.991 1.498 4.596 4.596 0 01-1.601 1.006c-.635.244-1.355.366-2.163.366-.442 0-.893-.046-1.352-.137-.459-.092-.903-.22-1.333-.386s-.833-.363-1.21-.591a5.067 5.067 0 01-.986-.762l.977-1.542a.862.862 0 01.722-.39c.195 0 .393.062.591.186.198.124.423.261.674.41.25.15.538.287.864.41.325.123.709.186 1.151.186.599 0 1.064-.132 1.396-.396s.498-.682.498-1.254c0-.332-.092-.602-.273-.811a2.116 2.116 0 00-.718-.517 6.547 6.547 0 00-1.011-.361c-.377-.104-.765-.22-1.161-.347a8.478 8.478 0 01-1.162-.469 3.692 3.692 0 01-1.011-.732 3.429 3.429 0 01-.717-1.132c-.183-.453-.273-1.011-.273-1.674a4.036 4.036 0 011.268-2.919 4.673 4.673 0 011.533-.952c.605-.237 1.298-.356 2.079-.356.437 0 .86.034 1.274.103a6.599 6.599 0 012.216.782c.322.186.61.396.864.629l-.819 1.533zm15.073 11.334h-3.319v-6.014h-5.779v6.014h-3.319V7.638h3.319v5.945h5.779V7.638h3.319v14.224zm16.382-7.117c0 1.028-.178 1.985-.532 2.87s-.854 1.655-1.498 2.308a6.883 6.883 0 01-2.329 1.538c-.907.371-1.915.557-3.021.557s-2.115-.186-3.026-.557-1.69-.884-2.338-1.538a6.88 6.88 0 01-1.503-2.308c-.355-.885-.532-1.842-.532-2.87s.177-1.985.532-2.87c.354-.885.855-1.653 1.503-2.304s1.427-1.162 2.338-1.533 1.92-.557 3.026-.557 2.114.188 3.021.562a6.978 6.978 0 012.329 1.538 6.86 6.86 0 011.498 2.304c.354.885.532 1.838.532 2.86zm-3.378 0c0-.703-.091-1.336-.273-1.899a4.008 4.008 0 00-.786-1.43 3.378 3.378 0 00-1.254-.898c-.495-.208-1.058-.312-1.689-.312-.638 0-1.205.104-1.703.312a3.387 3.387 0 00-1.26.898 4.015 4.015 0 00-.785 1.43c-.183.563-.273 1.196-.273 1.899 0 .709.091 1.346.273 1.908.182.563.444 1.04.785 1.43.342.391.762.688 1.26.894s1.065.308 1.703.308c.632 0 1.194-.103 1.689-.308a3.335 3.335 0 001.254-.894c.342-.39.604-.867.786-1.43.182-.562.273-1.198.273-1.908zm8.259 1.855v5.262h-3.3V7.638h4.627c1.028 0 1.905.106 2.631.317s1.318.506 1.777.883c.459.378.792.824 1 1.338.209.514.313 1.074.313 1.679 0 .462-.062.898-.186 1.308-.123.41-.308.789-.552 1.137a4.25 4.25 0 01-.897.932 4.8 4.8 0 01-1.226.674c.222.111.428.248.62.41.191.163.359.361.503.595l3.026 4.95h-2.987c-.554 0-.95-.208-1.191-.625l-2.362-4.129c-.104-.182-.227-.313-.366-.391s-.338-.116-.592-.116h-.838zm0-2.275h1.327c.449 0 .831-.057 1.147-.171.315-.114.574-.271.775-.474a1.79 1.79 0 00.439-.708c.092-.27.137-.562.137-.874 0-.625-.203-1.113-.61-1.464-.406-.351-1.036-.527-1.889-.527h-1.327v4.218zm19.426-6.687v2.617h-4.002v11.607h-3.3V10.255h-4.003V7.638h11.305zm10.339 10.543a.646.646 0 01.458.195l1.309 1.376a5.431 5.431 0 01-2.152 1.694c-.863.381-1.883.571-3.061.571-1.081 0-2.049-.185-2.904-.552a6.29 6.29 0 01-2.178-1.523 6.678 6.678 0 01-1.371-2.303c-.319-.889-.479-1.854-.479-2.895 0-1.061.182-2.036.547-2.924.364-.889.873-1.655 1.527-2.299s1.437-1.146 2.348-1.503 1.917-.537 3.017-.537c.534 0 1.037.047 1.509.142.472.095.913.225 1.323.391.409.166.787.365 1.132.596s.651.486.918.766l-1.113 1.494c-.071.091-.156.174-.254.249s-.234.112-.41.112a.726.726 0 01-.331-.078 3.855 3.855 0 01-.332-.19l-.386-.244a3.042 3.042 0 00-.498-.244 4.102 4.102 0 00-.674-.19 4.6 4.6 0 00-.903-.078c-.599 0-1.146.105-1.64.317a3.598 3.598 0 00-1.274.908 4.22 4.22 0 00-.829 1.43c-.199.56-.298 1.188-.298 1.884 0 .729.099 1.376.298 1.942.198.566.469 1.043.81 1.43.342.388.74.682 1.196.884.455.202.943.303 1.465.303.299 0 .572-.015.819-.044s.477-.08.688-.151.413-.165.605-.278c.191-.114.386-.255.581-.425.078-.065.162-.119.254-.161a.658.658 0 01.283-.065zm17.309-3.436c0 1.028-.178 1.985-.532 2.87s-.854 1.655-1.498 2.308a6.883 6.883 0 01-2.329 1.538c-.907.371-1.915.557-3.021.557s-2.115-.186-3.026-.557-1.69-.884-2.338-1.538a6.88 6.88 0 01-1.503-2.308c-.355-.885-.532-1.842-.532-2.87s.177-1.985.532-2.87c.354-.885.855-1.653 1.503-2.304s1.427-1.162 2.338-1.533 1.92-.557 3.026-.557 2.114.188 3.021.562a6.978 6.978 0 012.329 1.538 6.86 6.86 0 011.498 2.304c.354.885.532 1.838.532 2.86zm-3.378 0c0-.703-.091-1.336-.273-1.899a4.008 4.008 0 00-.786-1.43 3.378 3.378 0 00-1.254-.898c-.495-.208-1.058-.312-1.689-.312-.638 0-1.205.104-1.703.312a3.387 3.387 0 00-1.26.898 4.015 4.015 0 00-.785 1.43c-.183.563-.273 1.196-.273 1.899 0 .709.091 1.346.273 1.908.182.563.444 1.04.785 1.43.342.391.762.688 1.26.894s1.065.308 1.703.308c.632 0 1.194-.103 1.689-.308a3.335 3.335 0 001.254-.894c.342-.39.604-.867.786-1.43.182-.562.273-1.198.273-1.908zm17.865 0c0 1.028-.177 1.977-.531 2.846a6.632 6.632 0 01-1.499 2.254c-.645.635-1.42 1.13-2.328 1.484s-1.915.532-3.021.532h-5.525V7.638h5.525c1.106 0 2.113.179 3.021.537s1.684.853 2.328 1.484 1.144 1.381 1.499 2.25c.354.869.531 1.814.531 2.836zm-3.377 0a6.24 6.24 0 00-.273-1.904c-.183-.566-.444-1.046-.786-1.44s-.76-.696-1.255-.908c-.494-.211-1.058-.317-1.688-.317h-2.206v9.147h2.206c.631 0 1.194-.106 1.688-.317a3.406 3.406 0 001.255-.908c.342-.394.604-.874.786-1.44.181-.565.273-1.203.273-1.913zm14.116-7.107v2.539h-5.838v3.319h4.471v2.441h-4.471v3.388h5.838v2.538h-9.157V7.638h9.157z"/></svg>