<svg xmlns="http://www.w3.org/2000/svg" width="612" height="792"><path d="M307.695 212.234c0 33.799-3.622 63.172-10.864 88.118-7.243 24.947-17.26 45.561-30.043 61.831-12.788 16.274-27.897 28.392-45.333 36.348-17.436 7.955-36.259 11.937-56.466 11.937-20.21 0-38.941-3.981-56.197-11.937-17.26-7.956-32.236-20.073-44.931-36.348-12.7-16.271-22.625-36.884-29.775-61.831-7.155-24.946-10.73-54.319-10.73-88.118 0-33.976 3.575-63.395 10.73-88.253 7.15-24.854 17.076-45.422 29.775-61.696 12.695-16.271 27.671-28.389 44.931-36.348C126.046 17.982 144.777 14 164.988 14c20.207 0 39.03 3.982 56.466 11.938C238.89 33.896 254 46.014 266.787 62.285c12.784 16.274 22.801 36.842 30.043 61.696 7.243 24.859 10.865 54.278 10.865 88.253zm-68.403 0c0-28.074-2.058-51.323-6.169-69.744-4.116-18.417-9.615-33.082-16.497-43.992-6.887-10.906-14.8-18.551-23.74-22.936-8.944-4.38-18.24-6.571-27.897-6.571-9.48 0-18.643 2.191-27.495 6.571-8.852 4.385-16.677 12.029-23.471 22.936-6.799 10.91-12.206 25.575-16.229 43.992-4.024 18.421-6.036 41.67-6.036 69.744 0 28.077 2.012 51.327 6.036 69.743 4.023 18.422 9.43 33.087 16.229 43.993 6.794 10.909 14.619 18.555 23.471 22.935 8.852 4.384 18.015 6.572 27.495 6.572 9.657 0 18.954-2.188 27.897-6.572 8.94-4.38 16.854-12.025 23.74-22.935 6.882-10.906 12.381-25.571 16.497-43.993 4.111-18.415 6.169-41.665 6.169-69.743zm359.443 144.317v49.625H384.139v-49.625h78.596V130.419c0-8.94.269-18.148.805-27.629l-55.795 46.675c-3.219 2.506-6.396 4.069-9.522 4.694-3.132.628-6.082.67-8.853.134-2.774-.536-5.23-1.476-7.377-2.816-2.146-1.342-3.755-2.816-4.828-4.426l-20.923-28.703L474.537 17.756h54.454v338.795h69.744z" fill="#DFDFE0"/></svg>