<svg xmlns="http://www.w3.org/2000/svg" width="612" height="792"><path d="M297.753 213.234c0 33.799-3.622 63.172-10.864 88.118-7.243 24.947-17.26 45.561-30.043 61.831-12.788 16.274-27.897 28.392-45.333 36.348-17.436 7.955-36.259 11.937-56.466 11.937-20.21 0-38.941-3.981-56.197-11.937-17.26-7.956-32.236-20.073-44.931-36.348-12.7-16.271-22.625-36.884-29.775-61.831-7.155-24.946-10.73-54.319-10.73-88.118 0-33.976 3.575-63.395 10.73-88.253 7.15-24.854 17.076-45.422 29.775-61.696C66.614 47.014 81.59 34.896 98.85 26.937 116.104 18.982 134.835 15 155.046 15c20.207 0 39.03 3.982 56.466 11.938 17.436 7.959 32.546 20.076 45.333 36.348 12.784 16.274 22.801 36.842 30.043 61.696 7.243 24.858 10.865 54.277 10.865 88.252zm-68.403 0c0-28.074-2.058-51.323-6.169-69.744-4.116-18.417-9.615-33.082-16.497-43.992-6.887-10.906-14.8-18.551-23.74-22.936-8.944-4.38-18.24-6.571-27.897-6.571-9.48 0-18.643 2.191-27.495 6.571-8.852 4.385-16.677 12.029-23.471 22.936-6.799 10.91-12.206 25.575-16.229 43.992-4.024 18.421-6.036 41.67-6.036 69.744 0 28.077 2.012 51.327 6.036 69.743 4.023 18.422 9.43 33.087 16.229 43.993 6.794 10.909 14.619 18.555 23.471 22.935 8.852 4.384 18.015 6.572 27.495 6.572 9.657 0 18.954-2.188 27.897-6.572 8.94-4.38 16.854-12.025 23.74-22.935 6.882-10.906 12.381-25.571 16.497-43.993 4.111-18.415 6.169-41.665 6.169-69.743zm190.716-53.113c8.583-1.785 16.807-3.085 24.678-3.89 7.867-.805 15.467-1.207 22.802-1.207 20.387 0 38.358 3.043 53.917 9.121 15.559 6.081 28.61 14.485 39.164 25.215 10.55 10.729 18.509 23.295 23.874 37.688 5.364 14.397 8.047 29.909 8.047 46.541 0 20.566-3.621 39.344-10.864 56.331-7.242 16.992-17.302 31.519-30.177 43.59-12.876 12.071-28.124 21.418-45.736 28.032-17.616 6.613-36.796 9.925-57.539 9.925-12.163 0-23.697-1.253-34.604-3.756-10.91-2.502-21.149-5.854-30.714-10.059-9.569-4.2-18.421-9.028-26.557-14.485-8.14-5.453-15.424-11.221-21.862-17.302l20.387-28.166c4.292-6.077 9.926-9.12 16.9-9.12 4.468 0 9.027 1.434 13.68 4.292 4.648 2.862 9.968 5.993 15.961 9.389 5.989 3.398 13.052 6.529 21.191 9.388 8.136 2.863 17.927 4.292 29.373 4.292 12.159 0 22.889-1.965 32.189-5.901 9.296-3.931 17.033-9.43 23.203-16.497 6.17-7.063 10.818-15.466 13.949-25.215 3.126-9.745 4.694-20.341 4.694-31.787 0-21.1-6.128-37.597-18.375-49.491-12.252-11.891-30.358-17.839-54.32-17.839-18.421 0-37.286 3.399-56.6 10.193l-41.31-11.803 32.189-188.309h191.527v28.166c0 9.481-2.951 17.168-8.853 23.069s-15.918 8.853-30.043 8.853H433.746l-13.68 80.742z" fill="#DFDFE0"/></svg>