<svg xmlns="http://www.w3.org/2000/svg" width="612" height="792"><path fill="#A752EF" d="M381.789 281.391c113.152 45.01 120.303 102.554 131.13 189.658 1.031 8.293 2.098 16.867 3.296 25.777.918 6.835-3.877 13.121-10.712 14.042-.565.076-1.127.112-1.68.112-6.158 0-11.518-4.554-12.362-10.824-1.214-9.033-2.289-17.671-3.326-26.025-10.417-83.814-16.156-129.984-115.577-169.533-6.409-2.549-9.537-9.81-6.987-16.218 2.549-6.41 9.816-9.536 16.218-6.989zm-17.146 164.066c5.811 3.712 13.533 2.011 17.247-3.802 3.712-5.813 2.011-13.533-3.802-17.247l-50.978-32.563a12.488 12.488 0 00-19.21 10.523v104.6c0 32.757 12.633 56.264 35.575 66.189a12.445 12.445 0 004.952 1.03c4.827 0 9.427-2.818 11.466-7.532 2.739-6.33-.171-13.68-6.503-16.42-16.956-7.335-20.516-27.578-20.516-43.267V425.16l31.769 20.297zm-54.86-228.988a12.445 12.445 0 008.278 3.141 12.46 12.46 0 009.351-4.206c14.597-16.476 23.08-18.705 25.334-18.996 6.841-.884 11.667-7.145 10.784-13.986-.885-6.841-7.145-11.667-13.985-10.783-12.53 1.619-26.266 10.772-40.826 27.202-4.572 5.162-4.095 13.054 1.064 17.628zm-57.096 174.95a12.49 12.49 0 00-12.722.428L188.98 424.41c-5.811 3.711-7.514 11.433-3.802 17.246 3.711 5.813 11.431 7.516 17.247 3.803l31.775-20.293v81.808c0 15.688-3.56 35.929-20.524 43.267-44.845 19.405-76.302 34.553-103.857 67.019-8.996 10.6-20.864 14.877-30.238 10.906-11.81-5.008-17.486-21.939-15.184-45.29 1.808-18.298 4.597-37.207 7.293-55.495 1.69-11.463 3.438-23.318 4.933-34.937a3270.44 3270.44 0 002.31-18.314c10.422-83.816 16.16-129.984 115.579-169.531 6.409-2.549 9.537-9.81 6.987-16.218-2.548-6.408-9.807-9.537-16.217-6.987C72.134 326.401 64.98 383.946 54.15 471.049a3363.385 3363.385 0 01-2.296 18.196c-1.468 11.402-3.198 23.14-4.872 34.492-2.74 18.578-5.573 37.79-7.437 56.685-3.433 34.796 7.891 61.238 30.287 70.734a43.678 43.678 0 0017.126 3.468c14.964 0 30.233-7.459 41.899-21.205 24.105-28.401 51.871-41.712 94.733-60.26 22.945-9.925 35.582-33.431 35.582-66.189V402.371a12.48 12.48 0 00-6.485-10.952zm104.891-163.096c-27.86 9.79-49.682 41.66-49.682 72.557l.003 34.206c0 4.261 2.173 8.229 5.766 10.522l51.481 32.884a12.423 12.423 0 006.71 1.967c4.121 0 8.154-2.037 10.536-5.767 3.712-5.811 2.011-13.532-3.802-17.246l-45.715-29.203-.003-27.366c0-20.273 15.106-42.711 32.984-48.993 6.507-2.287 9.927-9.415 7.643-15.922-2.287-6.504-9.419-9.924-15.921-7.639zm179.149 315.06a306.797 306.797 0 01-12.95 7.795c.452 3.526.924 6.964 1.385 10.324.91 6.648 1.77 12.927 2.363 18.921 3.432 34.8-7.892 61.242-30.29 70.738a43.687 43.687 0 01-17.125 3.468c-14.964 0-30.231-7.459-41.897-21.206-10.756-12.672-22.271-22.565-37.075-31.808-17.858 5.136-34.608 8.955-49.234 11.171-21.573 3.27-51.05 5.475-57.997-13.026-1.661-4.437-2.43-11.577 3.326-20.46 3.749-5.786 11.478-7.441 17.269-3.688 4.768 3.091 6.73 8.88 5.174 14.06 14.175 1.95 56.452-3.362 118.92-26.817 61.324-23.03 96.492-46.416 106.634-57.473-5.968-1.739-9.841-7.693-8.817-13.987 1.104-6.808 7.517-11.428 14.326-10.325 13.818 2.242 19.089 9.038 21.077 14.343 6.948 18.491-16.698 36.233-35.089 47.97zm-34.056 39.49c-.546-5.521-1.373-11.573-2.253-17.982l-.179-1.312c-16.109 7.886-34.038 15.588-52.86 22.655a658.242 658.242 0 01-16.274 5.869c9.619 7.51 18.171 15.754 26.15 25.155 8.995 10.598 20.862 14.879 30.233 10.907 11.808-5.008 17.486-21.94 15.183-45.292zm-206.65-433.009c0-6.898-5.59-12.487-12.487-12.487s-12.487 5.59-12.487 12.487v30.655c0 6.898 5.59 12.487 12.487 12.487s12.487-5.59 12.487-12.487v-30.655zm-78.495 21.775c-6.839-.883-13.101 3.943-13.985 10.783-.884 6.841 3.945 13.101 10.783 13.985 2.251.292 10.735 2.521 25.334 18.996a12.453 12.453 0 009.351 4.207c2.945 0 5.901-1.035 8.278-3.141 5.162-4.574 5.637-12.465 1.066-17.628-14.559-16.431-28.296-25.584-40.827-27.202zm-8.032 56.684c-6.501-2.284-13.633 1.135-15.922 7.641-2.285 6.507 1.135 13.635 7.643 15.922 17.879 6.283 32.984 28.719 32.984 48.993v27.366l-45.722 29.203c-5.811 3.712-7.514 11.433-3.802 17.246a12.481 12.481 0 0010.536 5.768c2.299 0 4.628-.635 6.709-1.965l51.487-32.884a12.487 12.487 0 005.766-10.524v-34.208c.001-30.897-21.82-62.768-49.679-72.558z"/></svg>