<svg xmlns="http://www.w3.org/2000/svg" width="612" height="792"><g fill="#00A651"><path d="M174.04 433.996c5.007.656 10.059.903 15.105.935 50.141-.312 96.796-29.443 118.459-74.807 21.026-44.033 14.999-96.222-13.32-134.723 46.959 1.378 93.113 15.274 131.203 43.614 18.927 14.082 34.799 32.39 45.891 53.193 2.793 5.238 4.798 10.867 8.369 15.65 4.326 5.795 9.919 10.432 16.595 13.275 14.298 6.087 30.536 3.973 42.682-5.818 10.274-8.283 15.866-21.463 15.024-34.596-.868-13.532-9.183-26.704-15.956-38.1-14.386-24.204-33.537-45.551-55.315-63.312-48.546-39.59-109.339-61.148-171.476-65.752-70.723-5.239-142.626 12.778-200.255 54.599-.59.429-1.153.931-1.679 1.481-21.423 16.928-37.236 39.051-45.62 65.191-8.203 25.582-7.668 54.045.593 79.522 15.809 48.761 59.357 83.062 109.7 89.648zm-53.067-218.883c.334-.256.659-.539.978-.834 48.206-34.635 105.14-51.519 164.329-52.003 61.845-.504 123.323 17.682 173.632 53.917 22.318 16.075 41.872 36.359 56.97 59.341 6.802 10.354 15.046 22.609 17.591 34.887 2.147 10.358-5.561 20.532-14.974 23.728-12.088 4.103-22.685-3.457-27.492-14.142-4.892-10.871-11.253-21.04-18.495-30.489-15.573-20.317-35.207-36.973-57.184-50.03-42.871-25.47-93.787-35.881-143.294-33.405-8.227.411-13.3 10.481-6.907 16.674 34.302 33.231 44.704 85.431 23.988 128.808-18.506 38.752-58.149 63.567-100.969 63.832-44.785-.278-86.525-27.671-103.481-69.423-18.675-45.977-4.213-100.59 35.308-130.861z"/><path d="M189.144 371.986c25.797-.328 49.659-14.822 61.207-38.029 11.846-23.802 8.353-52.727-8.249-73.33-16.494-20.468-43.315-28.99-68.762-23.436-24.872 5.428-44.695 26.252-50.668 50.668-10.417 42.59 23.398 83.581 66.472 84.127zm-20.433-112.662c19.788-9.847 45.61-3.078 58.908 14.255 13.869 18.078 13.683 43.976-1.121 61.476-9.357 11.062-22.936 17.213-37.354 17.396-22.971-.292-42.2-15.958-47.635-38.177-5.499-22.481 7.115-44.954 27.202-54.95zm-43.434 346.06c47.581 40.442 107.92 62.897 169.725 68.585 72.5 6.674 146.812-11.199 205.987-54.14a12.517 12.517 0 001.679-1.481c21.423-16.928 37.236-39.051 45.62-65.189 8.204-25.582 7.668-54.045-.593-79.522-15.81-48.765-59.359-83.066-109.701-89.652-5.007-.656-10.059-.903-15.105-.935-50.141.312-96.795 29.444-118.457 74.807-21.026 44.033-14.999 96.221 13.319 134.722-46.959-1.377-93.113-15.272-131.203-43.613-18.927-14.082-34.799-32.39-45.889-53.193-2.738-5.135-4.708-10.663-8.162-15.381-4.12-5.634-9.485-10.19-15.831-13.137-12.705-5.901-27.247-4.952-39.25 2.193-11.893 7.081-18.503 19.995-19.505 33.486-1.005 13.557 7.155 26.836 13.561 38.192 13.781 24.436 32.474 46.13 53.805 64.258zM91.769 484.08c10.137-3.659 20.924.83 26.316 9.888 2.923 4.909 4.959 10.41 7.753 15.419 3.021 5.419 6.446 10.605 10.088 15.625 14.97 20.641 34.251 37.631 55.835 51.099 43.608 27.209 96.257 38.339 147.243 35.789 8.227-.411 13.299-10.481 6.907-16.674-34.304-33.231-44.702-85.431-23.988-128.808 18.506-38.752 58.149-63.567 100.969-63.832 44.786.278 86.526 27.67 103.483 69.423 18.673 45.976 4.211 100.588-35.31 130.86a13.98 13.98 0 00-.978.834c-48.206 34.635-105.141 51.52-164.33 52.003-61.845.504-123.323-17.682-173.632-53.917-22.318-16.075-41.872-36.359-56.97-59.341-6.802-10.354-15.046-22.609-17.59-34.887-2.054-9.912 5.132-20.207 14.204-23.481z"/><path d="M438.693 580.792c24.872-5.428 44.695-26.252 50.668-50.668 10.419-42.592-23.398-83.581-66.472-84.128-25.797.328-49.658 14.823-61.207 38.031-11.846 23.802-8.352 52.726 8.249 73.33 16.494 20.47 43.317 28.99 68.762 23.435zm-53.157-97.865c9.356-11.062 22.936-17.213 37.354-17.396 22.972.292 42.201 15.958 47.637 38.179 5.499 22.481-7.115 44.955-27.202 54.95-19.79 9.847-45.609 3.08-58.908-14.256-13.87-18.078-13.684-43.976 1.119-61.477z"/></g></svg>