<svg xmlns="http://www.w3.org/2000/svg" width="506.667" height="542.667"><path fill="#31A64A" d="M164.188 463.276c-47.14 0-59.731-103.682-59.731-164.942 0-12.458-5.913-28.736-12.209-45.978-13.654-37.523-30.679-84.199-1.046-127.402 18.836-27.44 39.201-40.23 64.133-40.23 16.129 0 31.692 5.199 48.187 10.731 16.361 5.465 33.287 11.112 50.612 11.112 17.607 0 34.433-5.531 50.712-10.897 16.245-5.349 31.576-10.398 47.639-10.398 24.899 0 45.828 12.541 65.86 39.5 31.062 41.776 14.069 89.647.399 128.15-6.096 17.159-11.843 33.387-11.843 45.413 0 27.424-2.89 164.228-59.748 164.228-39.284 0-48.502-40.646-56.608-76.491-8.255-36.443-14.75-58.569-35.131-58.569-23.437 0-31.71 31.144-40.48 64.133-9.336 35.197-19.019 71.64-50.746 71.64zm-8.869-365.248c-20.414 0-36.826 10.63-53.17 34.45-25.763 37.539-10.713 78.867 2.575 115.31 6.694 18.371 13.023 35.729 13.023 50.529 0 74.531 17.358 151.637 46.426 151.637 21.51 0 29.467-29.999 37.905-61.774 9.219-34.683 19.667-74.016 53.32-74.016 32.473 0 40.414 35.048 48.104 68.933 9.053 39.949 16.959 66.126 43.653 66.126 31.909 0 46.443-78.236 46.443-150.923 0-14.318 6.129-31.593 12.624-49.864 13.255-37.357 28.271-79.697 1.445-115.792-17.54-23.604-34.55-34.135-55.18-34.135-13.92 0-28.288 4.717-43.486 9.733-17.275 5.697-35.115 11.577-54.864 11.577-19.484 0-37.44-5.996-54.831-11.81-15.434-5.113-30.018-9.981-43.987-9.981z"/></svg>