<svg xmlns="http://www.w3.org/2000/svg" width="612" height="792"><path fill="#DA1F43" d="M600.702 293.102c-3.157-88.542-76.171-159.601-165.471-159.601-50.422 0-97.894 23.032-129.231 62.154-31.336-39.123-78.809-62.154-129.231-62.154-89.3 0-162.314 71.058-165.471 159.601a8.84 8.84 0 00-.106 1.36c0 .796.005 1.594.015 2.393-.011.738-.015 1.481-.015 2.222 0 .42.03.831.088 1.236.792 26.508 6.957 53.783 18.389 81.558-.004.095-.015.188-.015.284a8.618 8.618 0 002.876 6.428c6.686 15.167 14.928 30.475 24.727 45.884 24.145 37.972 57.736 76.679 99.839 115.046 71.396 65.063 143.837 107.399 144.561 107.819a8.649 8.649 0 008.69 0c.724-.42 73.164-42.756 144.561-107.819 42.103-38.366 75.693-77.075 99.839-115.046 29.239-45.98 44.689-91.079 45.976-134.153.058-.404.088-.817.088-1.236v-4.616a9.358 9.358 0 00-.109-1.36zm-60.477 131.942c-23.286 36.652-55.836 74.154-96.748 111.466-60.108 54.819-120.971 93.201-137.478 103.246-16.505-10.046-77.369-48.426-137.477-103.246-40.912-37.311-73.462-74.815-96.748-111.466-7.308-11.501-13.689-22.92-19.156-34.237h91.109l16.07 32.139a8.653 8.653 0 0016.061-1.492l27.117-94.909 29.923 149.613a8.654 8.654 0 0016.972 0l17.071-85.353h61.403l16.07 32.139a8.654 8.654 0 0016.101-1.641l29.22-109.573 37.235 119.155a8.657 8.657 0 007.924 6.066 8.63 8.63 0 008.37-5.433l16.288-40.714h99.83c-5.468 11.321-11.85 22.739-19.157 34.24zm26.684-51.187a8.674 8.674 0 00-2.447-.356h-110.77a8.651 8.651 0 00-8.034 5.439l-9.424 23.561-38.896-124.467c-1.149-3.677-4.552-6.119-8.442-6.071a8.654 8.654 0 00-8.178 6.422L349.68 394.774l-8.245-16.491a8.651 8.651 0 00-7.74-4.783h-73.846a8.653 8.653 0 00-8.486 6.957l-9.976 49.878-28.439-142.185a8.653 8.653 0 00-16.807-.68l-30.812 107.84-8.512-17.024a8.651 8.651 0 00-7.74-4.783H44.947c-10.584-26.248-16.096-51.88-16.43-76.638 1.186-80.741 67.235-146.056 148.252-146.056 48.718 0 94.366 24.018 122.107 64.251a8.652 8.652 0 0014.248 0c27.741-40.233 73.388-64.251 122.107-64.251 81.017 0 147.066 65.315 148.252 146.056-.335 24.869-5.897 50.621-16.574 76.992z"/></svg>