<svg xmlns="http://www.w3.org/2000/svg" width="612" height="792"><g fill="#EB9B22"><path d="M233.085 277.764c3.633 28.418-35.573 62.104-50.999 72.672l8.766 12.808c2.59-1.766 63.239-43.815 57.612-87.466l-15.379 1.986z"/><path d="M528.311 435.37c20.669-68.308-44.135-168.884-46.898-173.148l-1.547-2.352-2.7-.824c-33.505-10.292-46.724-16.99-51.847-20.411 3.385-.962 8.344-1.802 12.892-2.097l6.468-.401.777-6.432c3.495-29.589-2.122-52.918-16.724-69.341-15.841-17.823-41.338-26.863-75.739-26.863-21.354 0-39.799 3.558-47 5.151-7.191-1.593-25.654-5.151-46.98-5.151-34.42 0-59.9 9.04-75.747 26.863-14.602 16.422-20.219 39.745-16.724 69.341l.769 6.432 6.45.401c4.548.294 9.533 1.135 12.928 2.097-5.123 3.43-18.353 10.118-51.886 20.411l-2.671.824-1.547 2.352c-2.781 4.254-67.585 104.84-46.89 173.148 5.481 18.079 16.369 32.242 32.461 42.325-12.013 8.344-28.215 23.624-29.351 45.819-1.536 30.557 26.367 62.653 82.964 95.417 5.673 4.704 49.013 39.571 88.829 39.571 14.794 0 33.697-4.967 47.391-25.948 13.715 20.978 32.618 25.948 47.412 25.948 39.817 0 83.156-34.878 88.801-39.571 56.598-32.763 84.501-64.857 82.954-95.417-1.097-22.195-17.327-37.475-29.341-45.819 16.099-10.086 27.005-24.256 32.496-42.325zM258.593 642.971c-25.232-.01-53.734-17.604-68.745-28.308 19.424-10.047 58.829-33.303 60.997-57.804l-15.454-1.362c-1.401 15.911-36.396 37.858-59.708 48.885-49.13-28.773-74.528-56.405-73.375-80.027 1.217-25.252 32.707-39.853 33.037-39.991l16.093-7.245-1.071-.475c20.439-9.561 51.847-20.733 69.844-13.303 6.616 2.746 10.906 7.961 13.055 15.976l14.986-4.045c-3.441-12.79-10.906-21.628-22.124-26.268-30.422-12.57-80.321 12.105-94.236 19.58-17.192-8.263-28.162-20.585-33.366-37.695-17.001-56.066 34.136-142.581 43.595-157.85 53.862-16.753 64.034-26.551 62.817-36.833-1.107-9.231-12.314-13.045-23.585-14.539-1.565-21.986 2.945-39.114 13.503-50.97 15.891-17.913 43.669-21.655 64.144-21.655 15.436 0 29.425 2.058 37.94 3.641v461.261l.468 1.317c.054.11.081.202.138.302-8.421 18.35-21.147 27.408-38.953 27.408zm221.493-174.419c-13.915-7.447-63.789-32.114-94.236-19.562-11.243 4.637-18.673 13.478-22.124 26.268l14.968 4.045c2.168-8.015 6.442-13.219 13.055-15.976 17.969-7.429 49.406 3.743 69.88 13.303l-.989.448 16.011 7.273c.302.138 31.82 14.74 33.029 39.991 1.135 23.451-23.916 50.878-72.353 79.414-23.284-11.208-56.998-32.654-58.39-48.26l-15.454 1.362c2.122 23.952 39.788 46.707 59.634 57.101-14.713 10.604-43.925 29.013-69.706 29.013-17.796 0-30.557-9.075-38.966-27.438.028-.1.082-.192.12-.302l.493-1.317V152.66c8.49-1.583 22.517-3.641 37.94-3.641 20.467 0 48.235 3.75 64.144 21.655 10.548 11.857 15.06 28.985 13.503 50.97-11.271 1.49-22.489 5.307-23.585 14.539-1.217 10.292 8.958 20.084 62.817 36.833 9.423 15.262 60.557 101.785 43.567 157.85-5.198 17.119-16.196 29.434-33.358 37.686z"/><path d="M378.915 277.764l-15.397-1.987c-5.591 43.651 55.051 85.7 57.64 87.466l8.766-12.808c-15.438-10.564-54.68-44.253-51.009-72.671z"/></g></svg>