<svg xmlns="http://www.w3.org/2000/svg" width="612" height="792"><path fill="#A344D7" d="M294.195 123.875v-11.863c0-6.91 5.601-12.512 12.512-12.512s12.512 5.601 12.512 12.512v11.863c0 6.91-5.601 12.512-12.512 12.512s-12.512-5.601-12.512-12.512zm150.795 69.789a12.48 12.48 0 008.848-3.664l8.388-8.388c4.886-4.886 4.886-12.81 0-17.696-4.887-4.885-12.808-4.885-17.696 0l-8.388 8.388c-4.886 4.886-4.886 12.81 0 17.696a12.482 12.482 0 008.848 3.664zm57.282 138.284h11.861c6.91 0 12.512-5.601 12.512-12.512 0-6.91-5.601-12.512-12.512-12.512h-11.861c-6.91 0-12.512 5.601-12.512 12.512 0 6.911 5.601 12.512 12.512 12.512zm-402.992 0h11.865c6.91 0 12.512-5.601 12.512-12.512 0-6.91-5.601-12.512-12.512-12.512H99.28c-6.91 0-12.512 5.601-12.512 12.512.002 6.911 5.602 12.512 12.512 12.512zm367.267 116.286c-43.065-28.592-100.083-44.341-160.548-44.341s-117.485 15.747-160.546 44.341c-44.64 29.64-69.226 69.567-69.226 112.427 0 6.91 5.601 12.512 12.512 12.512h90.862a12.51 12.51 0 0010.368-5.51 12.505 12.505 0 001.238-11.675l-14.567-36.183c-2.58-6.411-9.872-9.514-16.28-6.933-6.41 2.58-9.514 9.871-6.933 16.28l7.65 19h-58.904c4.39-29.562 24.285-57.267 57.118-79.068 39.007-25.9 91.106-40.164 146.705-40.164s107.698 14.263 146.705 40.164c32.835 21.801 52.73 49.506 57.12 79.068H450.92l7.651-18.999c2.58-6.41-.522-13.699-6.932-16.28-6.415-2.581-13.699.522-16.28 6.932l-14.57 36.183a12.515 12.515 0 0011.607 17.186h90.865c6.91 0 12.512-5.601 12.512-12.512 0-42.861-24.585-82.786-69.226-112.428zm-89.738 115.55c17.806 17.045 15.67 51.792 6.156 76.866-11.938 31.452-34.37 50.811-60.008 51.786-4.551.176-10.745.098-16.954-1.835-4.918 1.532-9.83 1.896-13.92 1.896-1.072 0-2.089-.025-3.034-.061-25.641-.976-48.076-20.337-60.013-51.79-9.517-25.072-11.65-59.82 6.155-76.861 13.056-12.497 32.797-16.276 50.936-10.259a68.337 68.337 0 01-.339-4.386c-5.538-11.403-13.622-21.615-23.488-29.65-5.357-4.366-6.165-12.245-1.8-17.602 4.366-5.36 12.247-6.162 17.603-1.8a112.766 112.766 0 0114.433 14.098 89.45 89.45 0 016.873-12.852c16.788-26.043 44.991-40.472 70.195-35.879a12.524 12.524 0 018.046 5.186c14.579 21.052 13.097 52.698-3.69 78.747a89.693 89.693 0 01-5.776 7.967 44.786 44.786 0 018.625 6.429zm-66.084-18.129c.014.335-.294 9.476 2.925 15.436 13.898-.171 29.388-9.923 39.276-25.261 9.884-15.337 12.369-33.471 6.788-46.2-13.898.171-29.388 9.924-39.274 25.263-6.338 9.824-9.633 20.798-9.715 30.762zm48.779 36.206c-3.193-3.056-7.638-5.1-12.535-5.824-13.194 8.052-27.963 11.618-41.895 9.451-7.65-.007-14.793-2.68-23.034-6.67-4.455-2.157-8.868-3.06-12.952-3.06-6.945 0-12.942 2.609-16.594 6.105-6.703 6.417-8.634 27.322-.063 49.906 3.093 8.148 14.941 34.802 37.568 35.664 4.784.182 8.049-.246 9.978-1.305a12.516 12.516 0 0112.048 0c1.928 1.061 5.192 1.482 9.982 1.305 22.622-.862 34.471-27.514 37.565-35.661 8.568-22.586 6.638-43.493-.068-49.911zm-199.929-391.86c2.443 2.443 5.645 3.664 8.848 3.664s6.403-1.222 8.848-3.664c4.886-4.886 4.886-12.81 0-17.696l-8.388-8.388c-4.887-4.885-12.808-4.885-17.696 0-4.886 4.886-4.886 12.81 0 17.696l8.388 8.388zm87.96 98.256c0-34.784 22.254-65.244 55.377-75.797a12.518 12.518 0 017.597 0c33.122 10.554 55.377 41.015 55.377 75.797 0 34.781-22.256 65.244-55.377 75.797a12.54 12.54 0 01-3.799.591 12.54 12.54 0 01-3.799-.591c-33.122-10.552-55.376-41.012-55.376-75.797zm25.022 0c0 22.488 13.567 42.338 34.151 50.591 20.586-8.253 34.152-28.104 34.152-50.591 0-22.488-13.568-42.338-34.152-50.591-20.584 8.254-34.151 28.106-34.151 50.591z"/></svg>