<svg xmlns="http://www.w3.org/2000/svg" width="666" height="589"><path fill="#D1009D" d="M575.745 286.341c-25.879-45.26-64.213-82.254-111.086-107.284l61.669-61.669a7.575 7.575 0 000-10.714 7.575 7.575 0 00-10.714 0L287.408 334.879c-6.104-8.338-9.405-18.368-9.405-28.876 0-27.017 21.98-48.998 48.998-48.998 4.768 0 9.477.682 13.997 2.026a7.575 7.575 0 009.422-5.102 7.576 7.576 0 00-5.102-9.422A64.202 64.202 0 00327 241.851c-35.373 0-64.152 28.779-64.152 64.152 0 14.559 4.847 28.411 13.754 39.683l-23.678 23.678c-15.129-17.654-23.414-39.936-23.414-63.36 0-53.756 43.734-97.49 97.49-97.49 15.87 0 30.998 3.69 44.967 10.966a7.577 7.577 0 0010.221-3.221 7.576 7.576 0 00-3.221-10.22c-15.924-8.296-33.894-12.681-51.966-12.681-62.111 0-112.644 50.532-112.644 112.644 0 27.461 9.84 53.577 27.816 74.113l-41.601 41.601c-46.214-23.693-83.953-59.495-109.161-103.576-4.281-7.485-4.285-16.78-.01-24.257 47.204-82.57 137.478-133.864 235.601-133.864 29.634 0 58.742 4.594 86.524 13.654a7.577 7.577 0 004.699-14.407c-29.299-9.555-59.99-14.4-91.221-14.4-103.544 0-198.862 54.218-248.757 141.497-6.925 12.116-6.922 27.173.011 39.301 25.879 45.26 64.214 82.254 111.086 107.284l-61.669 61.667a7.575 7.575 0 005.358 12.933 7.553 7.553 0 005.358-2.219l228.205-228.205c6.104 8.338 9.405 18.368 9.405 28.876 0 27.017-21.98 48.998-48.998 48.998-4.778 0-9.495-.685-14.024-2.035a7.577 7.577 0 10-4.329 14.523 64.236 64.236 0 0018.353 2.667c35.373 0 64.152-28.779 64.152-64.152 0-14.56-4.847-28.411-13.753-39.683l23.678-23.678c15.129 17.655 23.414 39.938 23.414 63.362 0 53.756-43.734 97.49-97.49 97.49-15.868 0-30.998-3.69-44.967-10.966a7.576 7.576 0 00-10.22 3.221 7.576 7.576 0 003.221 10.22c15.926 8.294 33.896 12.68 51.968 12.68 62.112 0 112.644-50.533 112.644-112.644 0-27.461-9.841-53.577-27.815-74.113l41.601-41.601c46.215 23.693 83.954 59.495 109.159 103.577 4.281 7.486 4.285 16.781.01 24.257-47.203 82.569-137.479 133.864-235.601 133.864-31.864 0-63.042-5.294-92.662-15.737a7.576 7.576 0 00-9.664 4.627 7.575 7.575 0 004.627 9.665c31.246 11.013 64.115 16.599 97.701 16.599 103.544 0 198.863-54.219 248.757-141.497 6.92-12.118 6.915-27.178-.018-39.303z"/></svg>