<svg xmlns="http://www.w3.org/2000/svg" width="612" height="792"><g fill="#45BD9B"><path d="M438.368 264.183h-17.647a8.274 8.274 0 000 16.546h17.647a8.274 8.274 0 000-16.546z"/><path d="M517.239 254.807c0-14.294-11.629-25.923-25.923-25.923H191.28c-14.294 0-25.923 11.629-25.923 25.923 0 7.774 3.444 14.755 8.883 19.512.058.251.127.502.208.753 21.198 63.667 76.081 108.856 140.927 118.465v29.094c-3.37-.956-6.763-1.915-10.182-2.886-38.789-10.988-78.899-22.352-104.464-30.467-25.823-8.2-48.064-24.504-64.319-47.15-16.424-22.882-25.104-50.025-25.104-78.496 0-73.293 59.628-132.921 132.921-132.921 23.813 0 46.842 6.274 67.158 18.201a34.53 34.53 0 00-4.834 17.649c0 19.16 15.587 34.747 34.747 34.747s34.747-15.587 34.747-34.747-15.587-34.747-34.747-34.747c-6.56 0-12.701 1.83-17.941 5.001-23.713-14.833-50.939-22.651-79.13-22.651-82.417 0-149.467 67.05-149.467 149.467 0 31.952 9.754 62.432 28.207 88.142 18.349 25.566 43.507 43.987 72.755 53.273 25.812 8.196 66.05 19.595 104.961 30.618 4.952 1.402 9.851 2.79 14.692 4.163v159.69h-47.984c-7.604 0-13.789 6.184-13.789 13.789v56.257a8.272 8.272 0 008.273 8.273h158.843a8.272 8.272 0 008.273-8.273v-56.257c0-7.603-6.184-13.789-13.789-13.789h-47.983v-18.779c.184.012.365.028.552.028 38.624 0 70.046-31.422 70.046-70.046 0-30.497-19.808-57.866-48.168-66.558a1818.614 1818.614 0 00-22.429-6.686v-43.943c64.845-9.61 119.728-54.798 140.926-118.466.083-.249.15-.501.208-.753 5.441-4.752 8.885-11.733 8.885-19.507zM359.5 166.559c0 10.036-8.165 18.201-18.201 18.201s-18.201-8.165-18.201-18.201c0-4.883 1.943-9.313 5.084-12.585a8.215 8.215 0 002.046-1.828c3.072-2.364 6.904-3.787 11.071-3.787 10.035 0 18.201 8.165 18.201 18.2zm52.946 494.732H270.149v-45.226h142.297v45.226zm-80.523-61.773V444.532a6333.725 6333.725 0 0118.753 5.374v149.612h-18.753zm52.879-139.535c21.473 6.579 36.47 27.443 36.47 50.737 0 29.5-24 53.5-53.5 53.5-.186 0-.368.016-.552.028V454.719a1671.991 1671.991 0 0117.582 5.264zm-34.127-27.295a7373.995 7373.995 0 00-18.753-5.359v-32.135c3.109.164 6.235.256 9.376.256 3.142 0 6.267-.091 9.376-.256v37.494zm-9.376-53.786c-64.791 0-122.507-39-147.076-98.174h191.2a8.273 8.273 0 000-16.546H191.28c-5.17 0-9.376-4.207-9.376-9.376 0-5.17 4.207-9.376 9.376-9.376h300.037c5.17 0 9.376 4.207 9.376 9.376 0 5.17-4.207 9.376-9.376 9.376h-17.649a8.273 8.273 0 000 16.546h14.706c-24.568 59.174-82.284 98.174-147.075 98.174z"/></g></svg>