<svg xmlns="http://www.w3.org/2000/svg" width="612" height="792"><g fill="#01ABC9"><path d="M253.32 497.505c-16.843 0-30.538 13.706-30.538 30.547 0 16.802 13.706 30.508 30.538 30.508 16.794 0 30.478-13.706 30.478-30.508-.001-16.841-13.684-30.547-30.478-30.547zm0 47.775c-9.508 0-17.236-7.728-17.236-17.217 0-9.498 7.739-17.225 17.236-17.225 9.478 0 17.176 7.728 17.176 17.225-.001 9.478-7.699 17.217-17.176 17.217zm102.105 13.283c16.843 0 30.538-13.706 30.538-30.508 0-16.851-13.706-30.547-30.538-30.547-16.813 0-30.52 13.706-30.52 30.547.011 16.813 13.707 30.508 30.52 30.508zm0-47.726c9.489 0 17.225 7.728 17.225 17.225 0 9.489-7.739 17.217-17.225 17.217-9.498 0-17.225-7.728-17.225-17.217-.001-9.497 7.738-17.225 17.225-17.225z"/><path d="M455.87 267.465H332.686v-35.376h52.091c14.698 0 26.674-11.975 26.674-26.714 0-14.709-11.975-26.714-26.674-26.714h-52.16c-.973-13.855-12.525-24.827-26.615-24.827-14.089 0-25.642 10.973-26.626 24.816h-52.14c-14.72 0-26.696 12.013-26.696 26.714 0 14.739 11.975 26.714 26.696 26.714h52.061v35.376H156.118c-14.739 0-26.696 11.975-26.696 26.684 0 14.739 11.965 26.714 26.696 26.714h123.166v35.385h-96.913c-14.739 0-26.714 11.975-26.714 26.714 0 14.709 11.975 26.684 26.714 26.684h96.915v49.19a66.282 66.282 0 01-10.767-4.454l-.935-.453c-3.884-1.899-7.179-2.939-9.211-3.077-5.319-1.347-10.305-1.997-15.308-1.997-33.821 0-61.371 27.512-61.371 61.363 0 11.876 3.45 23.44 9.627 32.861 14.709 28.583 55.1 95.098 112.193 95.098 38.748 0 77.063-30.52 113.443-89.916 3.519-4.424 6.421-9.28 8.327-13.874l6.97-13.883h-2.86c.59-3.382.895-6.825.895-10.283 0-33.851-27.55-61.363-61.371-61.363a61.359 61.359 0 00-29.781 7.728c-.786.305-3.077 1.102-6.451 1.997v-48.946h96.954c14.698 0 26.674-11.975 26.674-26.684 0-14.739-11.975-26.714-26.674-26.714h-96.955v-35.385H455.87c14.739 0 26.714-11.975 26.714-26.714 0-14.689-11.977-26.664-26.714-26.664zm0 40.066H319.391v61.992H429.64c7.384 0 13.39 6.009 13.39 13.421 0 7.384-6.009 13.39-13.39 13.39H319.391v78.657l7.904-1.545c9.803-1.899 15.083-3.481 17.943-5.044 7.247-4.11 15.425-6.284 23.676-6.284 26.508 0 48.05 21.561 48.05 48.08 0 5.044-.786 10.039-2.378 14.847l-1.278 3.549c-1.72 4.071-4.002 7.904-7.206 12.014-34.237 55.885-68.755 84.213-102.569 84.213-49.762 0-86.777-61.432-100.721-88.459a47.662 47.662 0 01-7.797-26.163c0-26.508 21.572-48.08 48.058-48.08 3.863 0 7.797.521 13.027 1.8.826.069 2.723.442 6.507 2.341 6.695 3.481 14.119 6.035 22.044 7.62l7.953 1.594v-79.149H182.372c-7.404 0-13.412-6.009-13.412-13.39 0-7.412 6.009-13.421 13.412-13.421h110.229V307.52H156.118c-7.384 0-13.412-6.009-13.412-13.39 0-7.384 6.028-13.39 13.412-13.39h136.479v-61.992h-65.371c-7.384 0-13.39-6.009-13.39-13.39 0-7.382 6.009-13.39 13.39-13.39H292.6v-11.426c0-7.384 6.009-13.39 13.39-13.39s13.401 6.009 13.401 13.39v11.426h65.374c7.384 0 13.382 6.009 13.382 13.39 0 7.382-5.997 13.39-13.382 13.39h-65.374v61.992H455.87c7.384 0 13.39 6.009 13.39 13.39 0 7.403-6.007 13.401-13.39 13.401z"/><path d="M524.46 125.499H87.51c-28.671 0-51.981 23.371-51.981 52.05v436.899c0 28.689 23.322 52.05 51.981 52.05h436.949c28.682 0 52.011-23.36 52.011-52.05V177.549c.001-28.679-23.332-52.05-52.01-52.05zm38.717 488.949c0 21.374-17.363 38.728-38.72 38.728H87.51c-21.335 0-38.699-17.362-38.699-38.728V177.549c0-21.365 17.362-38.728 38.699-38.728h436.949c21.365 0 38.72 17.362 38.72 38.728v436.899h-.002z"/></g></svg>