<svg xmlns="http://www.w3.org/2000/svg" width="320" height="150"><path d="M170.207 11.935s8.109 15.84-14.332 46.578c-20.749 28.42-30.856 37.494-32.263 38.701h7.996c2.046-2.059 25.621-26.056 36.661-49.403 11.546-24.415 4.356-33.265 1.938-35.876z"/><path d="M150.783 53.422c19.235-26.401 17.349-37.338 10.56-46.39 3.018 4.714 4.148 16.028-12.257 40.167-15.329 22.553-41.519 46.913-44.894 50.017h7.553c2.835-2.547 21.336-19.496 39.038-43.794zm36.007 16.549a347.02 347.02 0 01-7.746-9.113 227.032 227.032 0 01-2.017-2.498c-.256-.325-.437-.553-.546-.693 1.485-3.034 2.816-6.083 3.908-9.083 8.423-23.133-1.777-28.795-1.777-28.795s7.457 11.546-6.976 36.444c-12.962 22.358-27.084 38.021-29.83 40.984h8.135c1.178-1.395 4.64-5.565 8.921-11.349a593.993 593.993 0 004.527 5.886 449.406 449.406 0 004.325 5.464h7.317c-2.329-2.782-4.922-6.041-7.181-8.942a582.346 582.346 0 01-5.525-7.204 227.653 227.653 0 004.022-5.904 473.921 473.921 0 007.268 8.629c3.771 4.366 8.192 9.314 12.284 13.421h7.718l.219-.246c-4.661-4.143-10.921-11.054-15.939-16.87a465.883 465.883 0 01-8.35-9.956c1.4-2.274 2.771-4.612 4.075-6.984 4.124 5.106 15.323 18.523 31.219 34.058h8.155a424.697 424.697 0 01-26.206-27.249zM34.055 106.009a23.778 23.778 0 013.661-.268c.595 0 1.176.022 1.741.067a38.2 38.2 0 011.875.201l10.046 32.102a24.606 24.606 0 01-3.572.268c-1.131 0-2.232-.089-3.304-.268l-1.786-6.43H32.091l-1.831 6.43a18.716 18.716 0 01-3.081.268c-1.102 0-2.188-.089-3.259-.268l10.135-32.102zm7.144 20.27l-3.706-13.483-3.884 13.483h7.59zm34.869 6.385c.357.596.655 1.288.893 2.076.238.789.357 1.719.357 2.791-1.19.476-2.307.781-3.348.915-1.042.133-2.129.2-3.259.2-1.935 0-3.617-.305-5.045-.915-1.429-.609-2.612-1.451-3.55-2.522-.937-1.072-1.645-2.344-2.121-3.817-.476-1.474-.714-3.074-.714-4.8 0-1.697.23-3.274.692-4.733.461-1.458 1.161-2.737 2.099-3.839.937-1.102 2.105-1.965 3.505-2.589 1.399-.626 3.021-.938 4.867-.938.654 0 1.257.015 1.808.045a13.17 13.17 0 013.103.536c.506.149 1.071.343 1.697.58 0 .685-.089 1.452-.268 2.3a10.022 10.022 0 01-.848 2.433c-.893-.297-1.674-.498-2.344-.602a15.126 15.126 0 00-2.299-.156c-1.846 0-3.237.602-4.175 1.808-.938 1.205-1.407 2.924-1.407 5.157 0 2.411.506 4.168 1.518 5.268 1.012 1.102 2.381 1.652 4.108 1.652.446 0 .855-.006 1.228-.022a8.533 8.533 0 001.094-.112 7.764 7.764 0 001.094-.267c.37-.121.809-.27 1.315-.449zm12.591-12.813h-2.902l-.223-.893 8.349-10.671h1.027v6.741h5.402c.089.446.149.848.179 1.206.029.357.045.729.045 1.115 0 .417-.015.82-.045 1.206-.03.387-.089.82-.179 1.295H94.91v9.063c0 .924.074 1.668.224 2.233.148.565.364 1.012.648 1.339.282.328.632.551 1.049.671.417.119.908.178 1.474.178.446 0 .885-.036 1.317-.111.431-.075.81-.142 1.138-.201.208.565.358 1.154.446 1.764a11.437 11.437 0 01.112 2.455c-.015.223-.038.44-.067.647a18.141 18.141 0 01-4.241.492c-2.709 0-4.777-.632-6.206-1.898s-2.143-3.326-2.143-6.184v-10.447zm23.976 0h-2.991a10.186 10.186 0 01-.201-1.228 11.851 11.851 0 01-.067-1.228c0-.804.089-1.591.268-2.366h9.197v23.083a18.957 18.957 0 01-3.125.268c-.982 0-2.009-.089-3.081-.268v-18.261zm-.938-8.708a17.228 17.228 0 01-.268-2.991c0-.953.089-1.95.268-2.992a17.006 17.006 0 011.63-.201c.58-.045 1.108-.067 1.585-.067.506 0 1.056.022 1.652.067.595.045 1.146.112 1.652.201.089.507.148 1.005.178 1.495a24.902 24.902 0 010 2.969c-.03.507-.089 1.012-.178 1.518-.507.089-1.049.15-1.63.179-.58.03-1.124.045-1.629.045-.476 0-1.012-.015-1.607-.045a12.725 12.725 0 01-1.653-.178zm16.742 3.93a12.89 12.89 0 011.987-.268c.61-.029 1.138-.045 1.585-.045.595 0 1.19.016 1.786.045.595.03 1.146.105 1.652.224l5.045 17.19 4.956-17.19a17.087 17.087 0 011.608-.201 21.372 21.372 0 011.697-.067c.446 0 .96.016 1.54.045.581.03 1.243.119 1.987.268l-8.751 23.038c-.566.089-1.161.149-1.786.179a35.08 35.08 0 01-1.563.045c-.446 0-.953-.016-1.518-.045a9.21 9.21 0 01-1.607-.223l-8.618-22.995zm37.595 13.439c.118 1.786.744 3.08 1.875 3.884 1.13.805 2.618 1.206 4.465 1.206 1.011 0 2.046-.096 3.102-.291a17.476 17.476 0 003.014-.826c.327.596.61 1.31.848 2.144.237.833.371 1.726.401 2.679-2.321.893-4.941 1.339-7.858 1.339-2.142 0-3.982-.297-5.514-.893-1.533-.595-2.783-1.421-3.75-2.478-.967-1.056-1.682-2.314-2.144-3.773-.462-1.457-.692-3.05-.692-4.777 0-1.697.238-3.289.714-4.778.476-1.488 1.184-2.782 2.121-3.884.938-1.102 2.098-1.972 3.482-2.612 1.384-.641 2.998-.96 4.844-.96 1.607 0 3.036.283 4.286.848a9.435 9.435 0 013.193 2.321c.877.982 1.54 2.151 1.987 3.505.446 1.355.669 2.806.669 4.353 0 .566-.022 1.124-.067 1.674-.045.551-.097.99-.156 1.318h-14.82zm9.063-4.42c-.061-1.429-.454-2.582-1.184-3.46-.73-.878-1.749-1.318-3.059-1.318-1.488 0-2.619.417-3.393 1.251-.774.833-1.236 2.008-1.384 3.527h9.02zm18.037-18.083c.327-.06.676-.104 1.048-.134a15.243 15.243 0 012.345 0c.386.03.759.075 1.115.134v28.084h12.591c.06.328.097.669.112 1.026.015.358.022.685.022.982 0 .714-.045 1.385-.134 2.009h-17.099v-32.101zm28.887 12.68h-2.901a5.362 5.362 0 01-.134-.826 9.575 9.575 0 010-1.83c.029-.313.073-.588.134-.826h7.233v22.904c-.328.06-.693.104-1.094.134-.402.029-.767.045-1.094.045-.298 0-.647-.016-1.049-.045-.401-.03-.766-.075-1.094-.134v-19.422zm-.981-8.528a8.614 8.614 0 01-.112-1.16 29.095 29.095 0 010-2.232c.014-.416.051-.788.112-1.115.386-.06.804-.104 1.249-.134.447-.03.833-.045 1.161-.045.327 0 .714.015 1.161.045.446.03.848.075 1.205.134a7.8 7.8 0 01.112 1.115c.015.417.022.79.022 1.116 0 .328-.007.699-.022 1.116a8.935 8.935 0 01-.112 1.16c-.357.061-.751.105-1.182.134-.432.031-.812.045-1.139.045-.358 0-.759-.014-1.206-.045a13.754 13.754 0 01-1.249-.134zm18.751 5.046c.327-.06.647-.104.96-.134a10.043 10.043 0 011.875 0c.282.03.588.075.915.134.089.446.179 1.049.267 1.808.089.759.134 1.391.134 1.898a9.168 9.168 0 011.139-1.519 8.71 8.71 0 011.585-1.361 8.18 8.18 0 014.599-1.362c2.619 0 4.554.752 5.805 2.255 1.25 1.503 1.874 3.728 1.874 6.674v14.511c-.328.06-.699.104-1.115.134-.417.029-.79.045-1.116.045-.328 0-.692-.016-1.094-.045-.401-.03-.766-.075-1.094-.134v-13.305c0-2.113-.328-3.668-.982-4.666-.655-.996-1.697-1.495-3.125-1.495a6.32 6.32 0 00-2.366.446c-.745.298-1.4.76-1.965 1.385-.566.625-1.02 1.436-1.362 2.433-.342.997-.513 2.196-.513 3.594v11.609c-.328.06-.692.104-1.094.134-.401.029-.766.045-1.094.045s-.699-.016-1.115-.045c-.417-.03-.79-.075-1.116-.134v-22.905zm35.361 12.546c.06 2.5.707 4.331 1.942 5.491 1.235 1.161 3.059 1.742 5.47 1.742a16.44 16.44 0 006.027-1.116c.238.446.431.99.58 1.629.149.641.238 1.273.268 1.898a14.97 14.97 0 01-3.237.938c-1.176.208-2.478.312-3.907.312-2.084 0-3.87-.289-5.358-.871-1.489-.58-2.716-1.399-3.684-2.455-.967-1.056-1.674-2.306-2.12-3.751-.447-1.443-.669-3.028-.669-4.754 0-1.697.215-3.282.647-4.755.431-1.473 1.094-2.752 1.987-3.84.893-1.086 2.016-1.949 3.371-2.589 1.354-.64 2.953-.96 4.799-.96 1.577 0 2.962.268 4.153.804 1.19.536 2.187 1.273 2.991 2.211.804.938 1.413 2.054 1.831 3.348.417 1.295.626 2.701.626 4.219 0 .417-.016.857-.045 1.318-.031.462-.061.856-.089 1.184h-15.583zm11.34-3.305c0-.832-.111-1.629-.334-2.388a6.067 6.067 0 00-.982-1.987 4.781 4.781 0 00-1.652-1.361c-.669-.342-1.467-.514-2.388-.514-1.817 0-3.208.551-4.175 1.653-.967 1.102-1.555 2.634-1.764 4.598h11.295z"/></svg>