<svg xmlns="http://www.w3.org/2000/svg" width="320" height="150"><path d="M50.009 109.784v4.159H37.551v8.319h10.515v4.178H37.551v11.447h-5.266v-28.103h17.724zm25.947 28.104h-4.043c-.454 0-.826-.114-1.117-.34a1.94 1.94 0 01-.632-.845l-2.099-5.733H56.424l-2.099 5.733c-.104.298-.309.57-.613.816-.305.246-.677.368-1.118.368h-4.062l11.04-28.103h5.345l11.039 28.104zm-18.192-10.612h8.959l-3.421-9.348a44.816 44.816 0 01-.515-1.467 35.074 35.074 0 01-.554-1.838c-.182.661-.36 1.276-.534 1.847-.175.571-.347 1.07-.515 1.497l-3.42 9.309zm36.149-12.381c-.143.286-.307.486-.495.602-.189.117-.411.175-.671.175s-.552-.1-.874-.302a30.472 30.472 0 00-1.147-.671 9.517 9.517 0 00-1.545-.67c-.59-.2-1.286-.302-2.09-.302-.725 0-1.357.088-1.895.264a3.985 3.985 0 00-1.361.729c-.37.311-.645.684-.826 1.118-.182.434-.272.91-.272 1.428 0 .661.184 1.212.554 1.652.37.441.859.816 1.467 1.127.609.311 1.302.59 2.079.836.777.246 1.571.508 2.381.788.809.279 1.604.602 2.381.972.777.37 1.47.836 2.079 1.4a6.334 6.334 0 011.467 2.07c.37.815.554 1.807.554 2.973 0 1.27-.218 2.459-.651 3.567a8.241 8.241 0 01-1.904 2.896c-.836.823-1.856 1.47-3.062 1.944-1.204.472-2.585.709-4.139.709-.893 0-1.775-.088-2.644-.264a13.889 13.889 0 01-2.497-.747 13.067 13.067 0 01-2.235-1.166 11.039 11.039 0 01-1.856-1.516L78.227 132a1.91 1.91 0 01.515-.456c.2-.123.425-.185.671-.185.324 0 .674.134 1.049.4.377.265.82.56 1.331.884.512.324 1.115.619 1.808.885.693.266 1.526.398 2.497.398 1.49 0 2.644-.353 3.46-1.059s1.224-1.72 1.224-3.042c0-.739-.185-1.341-.554-1.808-.368-.465-.859-.858-1.467-1.176a10.906 10.906 0 00-2.079-.807 67.205 67.205 0 01-2.372-.718c-.804-.26-1.594-.57-2.371-.934a7.67 7.67 0 01-2.079-1.419c-.609-.583-1.098-1.311-1.467-2.185s-.554-1.953-.554-3.237c0-1.024.204-2.022.611-2.994a7.662 7.662 0 011.788-2.585c.784-.751 1.746-1.354 2.885-1.807 1.14-.452 2.442-.68 3.907-.68 1.658 0 3.187.259 4.586.777 1.399.518 2.591 1.244 3.576 2.177l-1.279 2.466zm29.502 22.993h-5.268v-12.283H104.97v12.283h-5.266v-28.103h5.266v12.088h13.177v-12.088h5.268v28.103zm11.564 0h-5.248v-28.103h5.248v28.103zm33.273-14.052c0 2.06-.343 3.968-1.031 5.725-.687 1.755-1.652 3.275-2.896 4.557-1.245 1.283-2.74 2.283-4.489 3.002-1.749.72-3.687 1.08-5.811 1.08-2.125 0-4.066-.36-5.821-1.08-1.756-.718-3.258-1.719-4.509-3.002-1.25-1.283-2.219-2.803-2.905-4.557-.686-1.756-1.031-3.665-1.031-5.725s.343-3.968 1.031-5.724c.687-1.755 1.656-3.276 2.905-4.557 1.25-1.283 2.753-2.283 4.509-3.003 1.756-.718 3.696-1.079 5.821-1.079 2.124 0 4.062.363 5.811 1.088 1.749.725 3.246 1.726 4.489 3.002 1.243 1.276 2.208 2.793 2.896 4.548.686 1.757 1.031 3.665 1.031 5.725zm-5.365 0c0-1.542-.204-2.925-.613-4.15-.409-1.225-.995-2.265-1.759-3.119a7.56 7.56 0 00-2.789-1.963c-1.095-.454-2.328-.68-3.702-.68s-2.611.227-3.712.68a7.646 7.646 0 00-2.808 1.963c-.77.854-1.364 1.895-1.778 3.119-.415 1.224-.622 2.608-.622 4.15 0 1.543.207 2.926.622 4.15s1.007 2.261 1.778 3.11c.77.849 1.706 1.5 2.808 1.953 1.102.455 2.338.68 3.712.68s2.608-.226 3.702-.68a7.63 7.63 0 002.789-1.953c.765-.849 1.351-1.886 1.759-3.11.409-1.224.613-2.607.613-4.15zm12.808-14.023c.157.021.295.059.418.117.122.059.243.143.36.253.116.111.245.256.388.438l14.752 18.793a20.288 20.288 0 01-.107-1.331c-.02-.434-.029-.839-.029-1.215v-17.084h4.607v28.103h-2.702c-.415 0-.758-.066-1.031-.195-.273-.129-.538-.362-.796-.699l-14.694-18.716a26.285 26.285 0 01.117 2.351v17.258h-4.606v-28.103h2.74c.233.001.428.012.583.03zm58.265 28.075h-4.043c-.454 0-.826-.114-1.118-.34a1.937 1.937 0 01-.631-.845l-2.099-5.733h-11.642l-2.098 5.733c-.105.298-.309.57-.613.816s-.677.368-1.118.368h-4.061l11.038-28.103h5.346l11.039 28.104zm-18.19-10.612h8.959l-3.421-9.348a44.816 44.816 0 01-.515-1.467 36.06 36.06 0 01-.554-1.838 63.995 63.995 0 01-.534 1.847c-.175.571-.347 1.07-.515 1.497l-3.42 9.309zm46.041-3.44c0 2.06-.343 3.953-1.031 5.675-.687 1.724-1.652 3.207-2.896 4.451-1.245 1.244-2.741 2.208-4.489 2.896-1.75.687-3.687 1.031-5.811 1.031h-10.728v-28.103h10.728c2.124 0 4.061.348 5.811 1.04 1.749.694 3.245 1.658 4.489 2.897 1.244 1.237 2.208 2.717 2.896 4.44.688 1.721 1.031 3.613 1.031 5.673zm-5.344 0c0-1.542-.208-2.925-.622-4.15-.415-1.224-1.004-2.261-1.769-3.11a7.658 7.658 0 00-2.79-1.953c-1.094-.454-2.328-.68-3.702-.68h-5.461v19.786h5.461c1.372 0 2.608-.226 3.702-.68a7.634 7.634 0 002.79-1.953c.765-.849 1.354-1.886 1.769-3.11.413-1.224.622-2.607.622-4.15zm34.399 0c0 2.06-.343 3.953-1.03 5.675-.687 1.724-1.652 3.207-2.896 4.451-1.245 1.244-2.741 2.208-4.489 2.896-1.75.687-3.687 1.031-5.811 1.031h-10.728v-28.103h10.728c2.124 0 4.061.348 5.811 1.04 1.749.694 3.245 1.658 4.489 2.897 1.243 1.237 2.208 2.717 2.896 4.44.687 1.721 1.03 3.613 1.03 5.673zm-5.345 0c0-1.542-.208-2.925-.622-4.15-.414-1.224-1.004-2.261-1.769-3.11a7.658 7.658 0 00-2.79-1.953c-1.094-.454-2.328-.68-3.702-.68h-5.461v19.786h5.461c1.372 0 2.608-.226 3.702-.68a7.634 7.634 0 002.79-1.953c.765-.849 1.354-1.886 1.769-3.11.415-1.224.622-2.607.622-4.15zm-94.307-38.368l-.007.006-.014.013z"/><path d="M221.694 44.185L193.79 16.281a10.894 10.894 0 00-7.718-3.195 10.877 10.877 0 00-7.715 3.197l-2.667 2.667 1.801 1.8.514.516 1.801 1.799 2.667-2.667a5.059 5.059 0 013.6-1.492 5.07 5.07 0 013.604 1.493l27.904 27.904a5.06 5.06 0 011.489 3.599 5.068 5.068 0 01-1.493 3.604l-28.159 28.16a5.066 5.066 0 01-3.603 1.49 5.055 5.055 0 01-3.598-1.49l-6.271-6.27-.514-.515-1.8-1.8-1.801-1.801-4.47-4.47-1.801 1.801-.514.514-1.801 1.801 6.271 6.27 1.801 1.8 4.114 4.114 2.668 3.182c2.124 2.125 4.934 3.71 7.715 3.71h.007c2.781 0 5.59-1.585 7.711-3.71l28.162-28.418c2.124-2.124 3.199-5.062 3.196-7.844.002-2.784-1.072-5.722-3.196-7.845zm-30.501 41.302l.014-.013.007-.007-.021.02zM170.288 28.98l-2.316-2.314-4.468 4.468-3.601 3.6-.515.515-1.8 1.801-1.801 1.8-5.593 5.593a10.884 10.884 0 00-3.197 7.717 10.897 10.897 0 003.197 7.716l5.337 5.336 1.8-1.8.514-.515 1.801-1.8-5.335-5.336a5.05 5.05 0 01-1.491-3.601 5.041 5.041 0 011.488-3.599l17.78-17.779-1.8-1.802z"/><path d="M161.438 82.608h.014l-.008-.001-.006.001zm6.346-30.708v.005-.011.006zm-30.45-30.449h.005-.013.008zm-.25 61.157l-.005-.001-.008.001h.013zm18.704-47.359l1.801-1.801.514-.514 1.801-1.8-4.469-4.47-1.799-1.799-1.802-1.802-.514-.515-3.6-3.6-2.669-2.668a10.898 10.898 0 00-7.718-3.195 10.877 10.877 0 00-7.715 3.197l-28.162 28.16a10.891 10.891 0 00-3.196 7.717 10.9 10.9 0 003.196 7.716l27.906 28.416c2.124 2.125 4.934 3.71 7.715 3.71h.007c2.779 0 5.588-1.585 7.71-3.71l2.668-2.925-2.314-2.442-1.801-1.865-2.669 2.637c-1.002.999-2.287 1.471-3.601 1.474a5.064 5.064 0 01-3.6-1.498l-27.904-27.909a5.05 5.05 0 01-1.492-3.603 5.045 5.045 0 011.489-3.6l28.163-28.164a5.066 5.066 0 013.601-1.492 5.067 5.067 0 013.603 1.493l2.667 2.666 1.8 1.802 1.801 1.801.514.514 1.801 1.801 1.8 1.8 4.468 4.468zm17.167 8.936l-5.335-5.335-1.801 1.8-.515.514-1.8 1.801 5.337 5.336a5.05 5.05 0 011.488 3.599 5.063 5.063 0 01-1.492 3.604l-5.591 5.591-1.8 1.8-4.115 4.115-1.8 1.801-4.469 4.468 1.801 1.801.514.514 1.799 1.801 4.469-4.469 1.801-1.8 1.8-1.801.515-.516 1.801-1.8 1.8-1.799 5.593-5.594a10.901 10.901 0 003.197-7.716 10.901 10.901 0 00-3.197-7.715z"/><path d="M169.517 82.796l-1.801-1.801-2.668 2.669a5.064 5.064 0 01-3.602 1.49 5.053 5.053 0 01-3.598-1.49l-6.27-6.27-.514-.515-1.801-1.8-19.321-19.32a5.056 5.056 0 01-1.492-3.601 5.048 5.048 0 011.49-3.599l17.778-17.779-1.801-1.8-.514-.515-1.8-1.799-17.778 17.776a10.884 10.884 0 00-3.197 7.717 10.893 10.893 0 003.197 7.716l17.522 17.52 1.799 1.801 1.802 1.8 4.115 4.114 2.668 3.182c2.124 2.125 4.933 3.71 7.714 3.71h.008c2.779 0 5.588-1.585 7.709-3.71l2.669-2.925-1.801-1.928-.513-.643zm27.807-38.611l-17.519-17.521-1.801-1.799-1.8-1.802-.515-.515-3.6-3.6-2.669-2.668a10.896 10.896 0 00-7.718-3.195 10.877 10.877 0 00-7.715 3.197l-2.667 2.667 1.8 1.8.516.516 1.799 1.799 2.668-2.667a5.06 5.06 0 013.6-1.492 5.065 5.065 0 013.603 1.493l2.667 2.666 1.802 1.802 1.799 1.801.514.514 1.801 1.801 19.321 19.321a5.056 5.056 0 011.49 3.599 5.07 5.07 0 01-1.494 3.604l-17.774 17.773 1.801 1.801.514.514 1.8 1.801 17.778-17.779a10.91 10.91 0 00-.001-15.431z"/></svg>