<svg xmlns="http://www.w3.org/2000/svg" width="320" height="150"><path d="M66.469 121.084c0 1.986-.331 3.825-.993 5.517-.662 1.692-1.592 3.157-2.791 4.394s-2.641 2.201-4.327 2.894c-1.686.693-3.553 1.04-5.601 1.04s-3.918-.347-5.61-1.04c-1.692-.692-3.141-1.657-4.346-2.894s-2.139-2.701-2.8-4.394c-.662-1.691-.993-3.53-.993-5.517 0-1.985.331-3.824.993-5.517.662-1.692 1.595-3.156 2.8-4.393s2.654-2.201 4.346-2.895c1.692-.692 3.562-1.039 5.61-1.039 2.048 0 3.915.35 5.601 1.049s3.128 1.664 4.327 2.895c1.199 1.229 2.129 2.69 2.791 4.383s.993 3.532.993 5.517zm-5.17 0c0-1.485-.197-2.819-.59-3.999-.393-1.181-.958-2.183-1.695-3.007-.737-.824-1.633-1.454-2.688-1.892s-2.245-.656-3.568-.656c-1.324 0-2.517.219-3.578.656s-1.964 1.067-2.707 1.892c-.743.824-1.315 1.826-1.714 3.007-.4 1.18-.599 2.514-.599 3.999 0 1.486.199 2.819.599 4 .399 1.18.971 2.179 1.714 2.997a7.427 7.427 0 002.707 1.883c1.062.437 2.254.655 3.578.655 1.323 0 2.513-.219 3.568-.655a7.353 7.353 0 002.688-1.883c.736-.818 1.302-1.817 1.695-2.997.394-1.181.59-2.514.59-4zm14.349 4.009v9.535h-5.039v-27.087h8.823c1.811 0 3.378.212 4.702.637 1.323.425 2.417 1.018 3.278 1.779.862.762 1.499 1.674 1.911 2.735s.618 2.223.618 3.484c0 1.311-.218 2.513-.655 3.605-.438 1.093-1.093 2.032-1.967 2.819s-1.967 1.398-3.278 1.836c-1.312.438-2.848.655-4.608.655h-3.785zm0-3.934h3.784c.924 0 1.729-.115 2.417-.347.687-.23 1.255-.562 1.705-.992.45-.432.787-.956 1.012-1.574s.337-1.308.337-2.069c0-.725-.112-1.38-.337-1.968-.225-.586-.562-1.086-1.012-1.498s-1.018-.728-1.705-.946c-.687-.218-1.492-.328-2.417-.328h-3.784v9.722zm35.292-13.618v4.009H98.933v7.512h9.46v3.877h-9.46v7.662h12.007v4.027H93.856v-27.087h17.084zm7.568.027c.15.02.284.057.403.112.119.057.234.138.347.244s.237.246.375.421l14.218 18.115a18.85 18.85 0 01-.103-1.283 25.906 25.906 0 01-.028-1.171V107.54h4.44v27.087h-2.604c-.4 0-.73-.063-.993-.188s-.519-.35-.768-.674l-14.162-18.04a24.343 24.343 0 01.112 2.266v16.635h-4.44v-27.087h2.642c.224.002.412.011.561.029zm50.971 20.672c.274 0 .512.106.712.318l1.985 2.154a10.911 10.911 0 01-4.056 3.128c-1.604.725-3.531 1.087-5.779 1.087-2.011 0-3.818-.344-5.423-1.03-1.605-.687-2.976-1.643-4.112-2.866-1.137-1.224-2.007-2.685-2.613-4.384-.606-1.698-.908-3.553-.908-5.563 0-2.035.337-3.899 1.011-5.592.674-1.691 1.624-3.149 2.848-4.374 1.224-1.224 2.688-2.176 4.393-2.856s3.587-1.021 5.647-1.021c2.011 0 3.769.321 5.273.965 1.505.643 2.794 1.495 3.868 2.557l-1.686 2.342a1.61 1.61 0 01-.384.394c-.156.112-.372.168-.646.168-.287 0-.581-.112-.881-.337s-.681-.469-1.143-.73c-.462-.263-1.046-.506-1.751-.73-.706-.226-1.602-.338-2.688-.338-1.273 0-2.444.223-3.512.665-1.068.443-1.986 1.077-2.754 1.901s-1.367 1.827-1.798 3.007c-.431 1.181-.646 2.508-.646 3.98 0 1.524.215 2.879.646 4.065.431 1.187 1.015 2.186 1.751 2.997s1.605 1.433 2.604 1.864a8.045 8.045 0 003.222.646c.688 0 1.309-.037 1.864-.112a7.877 7.877 0 001.536-.355 6.828 6.828 0 001.33-.628 8.352 8.352 0 001.245-.945 1.76 1.76 0 01.394-.272.972.972 0 01.451-.105zm11.708-4.196v10.584h-5.039v-27.087h8.262c1.848 0 3.431.19 4.748.571s2.398.915 3.241 1.602 1.461 1.508 1.854 2.463.59 2.008.59 3.156c0 .912-.135 1.773-.402 2.586-.27.812-.656 1.548-1.162 2.21s-1.13 1.243-1.873 1.742c-.743.5-1.589.899-2.538 1.199.637.362 1.187.88 1.648 1.555l6.781 10.003h-4.533c-.438 0-.809-.087-1.115-.263a2.272 2.272 0 01-.777-.749l-5.694-8.673c-.213-.325-.446-.556-.702-.693-.257-.137-.634-.206-1.134-.206h-2.155zm0-3.615h3.147c.949 0 1.776-.118 2.481-.356.706-.236 1.286-.564 1.742-.983a3.931 3.931 0 001.021-1.489 5.143 5.143 0 00.337-1.892c0-1.374-.453-2.429-1.358-3.166-.905-.736-2.288-1.105-4.148-1.105h-3.223v8.991zm43.14 14.199h-3.896c-.438 0-.796-.109-1.077-.328a1.863 1.863 0 01-.608-.814l-2.023-5.526h-11.221l-2.023 5.526c-.1.287-.297.55-.59.787s-.652.355-1.077.355h-3.915l10.641-27.087h5.151l10.638 27.087zM206.794 124.4h8.636l-3.297-9.011c-.15-.399-.316-.871-.497-1.414a33.994 33.994 0 01-.533-1.771 64.21 64.21 0 01-.516 1.779c-.169.55-.334 1.03-.496 1.442l-3.297 8.975zm37.409-16.859v4.009h-12.008v8.018h10.135v4.027h-10.135v11.033h-5.076v-27.087h17.084zm23.04 0v4.14h-8.148v22.947h-5.039v-22.947h-8.187v-4.14h21.374z" fill="#231F20"/><g fill="#231F20"><path d="M169.78 59.721l5.206-.913 1.566-.275V40.665l-37.746-6.621-1.562-.275-1.567-.275-5.205-.91-1.558-.275-1.566-.275-18.499-3.244v64.774l67.703-11.875V70.166l-1.566.276-5.206.913-1.564.275v3.059l-51.038 8.951V38.71l10.17 1.785 1.566.275 1.558.272 5.205.913 1.567.275 1.562.275 29.41 5.156v12.333z"/><path d="M128.914 12.166v18.555l1.558.272 5.205.913 1.567.275V22.087l51.037 8.951v27.027l-10.168 1.785-1.561.272-1.566.275-5.206.913-1.564.275-1.566.275-29.406 5.156V43.81l-1.567-.275-5.205-.913-1.558-.272v34.591l37.736-6.62 1.566-.274 1.564-.274 5.206-.914 1.566-.274 1.558-.273 18.507-3.246V24.042z"/></g></svg>