<svg xmlns="http://www.w3.org/2000/svg" width="320" height="150"><path d="M58.652 130.892v7.635h-4.035v-21.69h7.065c1.45 0 2.705.171 3.765.511s1.935.814 2.625 1.425c.69.61 1.2 1.34 1.53 2.189.33.851.495 1.78.495 2.79 0 1.051-.175 2.013-.525 2.888s-.875 1.628-1.575 2.258c-.7.63-1.575 1.12-2.625 1.47-1.05.351-2.28.525-3.69.525h-3.03zm0-3.151h3.03c.74 0 1.385-.092 1.935-.277.55-.185 1.005-.45 1.365-.795s.63-.765.81-1.26.27-1.048.27-1.658c0-.579-.09-1.104-.27-1.574-.18-.471-.45-.87-.81-1.2s-.815-.583-1.365-.758c-.55-.175-1.195-.263-1.935-.263h-3.03v7.785zm35.386-.059c0 1.59-.265 3.063-.795 4.417-.53 1.355-1.275 2.527-2.235 3.518s-2.115 1.763-3.465 2.317c-1.35.556-2.845.833-4.485.833-1.64 0-3.138-.277-4.493-.833-1.355-.555-2.515-1.327-3.48-2.317-.965-.99-1.712-2.162-2.243-3.518-.53-1.354-.795-2.827-.795-4.417s.265-3.063.795-4.418c.53-1.354 1.277-2.527 2.243-3.518.965-.989 2.125-1.763 3.48-2.317s2.853-.832 4.493-.832c1.64 0 3.135.279 4.485.84 1.35.56 2.505 1.332 3.465 2.317s1.705 2.155 2.235 3.51c.529 1.355.795 2.828.795 4.418zm-4.141 0c0-1.19-.158-2.258-.473-3.203-.315-.944-.768-1.747-1.357-2.407s-1.308-1.165-2.152-1.515c-.845-.351-1.798-.525-2.857-.525-1.06 0-2.015.175-2.865.525-.85.35-1.573.854-2.167 1.515-.595.66-1.053 1.463-1.373 2.407-.32.945-.48 2.013-.48 3.203 0 1.189.16 2.257.48 3.202s.777 1.745 1.373 2.4a5.95 5.95 0 002.167 1.507c.85.351 1.805.525 2.865.525 1.06 0 2.012-.175 2.857-.525a5.886 5.886 0 002.152-1.507c.59-.655 1.042-1.455 1.357-2.4s.473-2.013.473-3.202zm11.355 7.514h8.685v3.33h-12.72v-21.69h4.035v18.36zm17.715-5.099v8.43h-4.035v-8.43l-7.905-13.261h3.555c.35 0 .627.086.833.256.205.17.377.385.517.645l3.975 7.245c.23.43.43.838.6 1.223s.325.763.465 1.132c.13-.38.278-.762.443-1.147.165-.385.362-.787.592-1.207l3.945-7.245c.11-.22.275-.425.495-.615.22-.189.5-.285.84-.285h3.57l-7.89 13.259zm18.751 5.46c.91 0 1.703-.083 2.377-.248a9.977 9.977 0 001.928-.683v-3.944h-2.715c-.26 0-.465-.072-.615-.218a.711.711 0 01-.225-.532v-2.28h7.215v8.775c-.55.399-1.123.747-1.718 1.042-.595.295-1.23.538-1.905.728-.675.19-1.398.332-2.167.428-.771.095-1.6.143-2.49.143-1.58 0-3.035-.275-4.365-.825a10.356 10.356 0 01-3.45-2.295c-.97-.98-1.728-2.15-2.272-3.51-.545-1.36-.817-2.845-.817-4.455 0-1.63.265-3.125.795-4.485.53-1.359 1.282-2.529 2.257-3.51s2.158-1.74 3.547-2.28c1.39-.54 2.95-.81 4.68-.81 1.77 0 3.302.262 4.598.787 1.295.525 2.393 1.208 3.292 2.048l-1.17 1.83c-.23.37-.535.555-.915.555-.24 0-.485-.08-.735-.24-.32-.189-.647-.38-.982-.569a6.647 6.647 0 00-1.11-.495 9.045 9.045 0 00-1.365-.346 10.045 10.045 0 00-1.747-.135c-1.07 0-2.038.18-2.903.54s-1.603.875-2.212 1.545-1.08 1.476-1.41 2.415c-.33.94-.495 1.99-.495 3.15 0 1.25.175 2.362.525 3.337.35.976.84 1.798 1.47 2.468a6.32 6.32 0 002.25 1.537c.869.354 1.819.532 2.849.532zm32.534-7.875c0 1.59-.265 3.063-.795 4.417a10.475 10.475 0 01-2.234 3.518c-.961.99-2.115 1.763-3.465 2.317-1.351.556-2.846.833-4.485.833-1.64 0-3.138-.277-4.493-.833-1.355-.555-2.515-1.327-3.48-2.317-.965-.99-1.712-2.162-2.243-3.518-.53-1.354-.795-2.827-.795-4.417s.265-3.063.795-4.418c.53-1.354 1.277-2.527 2.243-3.518.965-.989 2.125-1.763 3.48-2.317s2.853-.832 4.493-.832c1.64 0 3.135.279 4.485.84 1.35.56 2.504 1.332 3.465 2.317.959.985 1.705 2.155 2.234 3.51.53 1.355.795 2.828.795 4.418zm-4.14 0c0-1.19-.157-2.258-.473-3.203-.315-.944-.768-1.747-1.357-2.407s-1.308-1.165-2.152-1.515c-.845-.351-1.798-.525-2.857-.525-1.06 0-2.015.175-2.865.525-.85.35-1.573.854-2.167 1.515-.595.66-1.053 1.463-1.373 2.407-.32.945-.48 2.013-.48 3.203 0 1.189.16 2.257.48 3.202s.777 1.745 1.373 2.4a5.95 5.95 0 002.167 1.507c.85.351 1.805.525 2.865.525 1.06 0 2.013-.175 2.857-.525a5.886 5.886 0 002.152-1.507c.59-.655 1.042-1.455 1.357-2.4s.473-2.013.473-3.202zm9.885-10.824c.12.016.228.046.323.091.094.045.188.109.277.194s.189.198.299.338l11.386 14.505c-.04-.35-.067-.692-.083-1.027a20.918 20.918 0 01-.021-.938v-13.186h3.555v21.69h-2.086c-.319 0-.584-.05-.795-.15-.209-.1-.414-.279-.614-.54l-11.341-14.444a19.552 19.552 0 01.09 1.814v13.32h-3.556v-21.69h2.115c.181.001.331.009.451.023zm25.905 21.668v-21.69h7.484c1.42 0 2.633.136 3.638.405 1.005.271 1.83.655 2.476 1.155a4.477 4.477 0 011.417 1.814c.3.711.45 1.511.45 2.4 0 .51-.075.997-.225 1.463-.15.465-.383.899-.698 1.305s-.715.772-1.2 1.103c-.484.33-1.063.61-1.732.84 2.98.67 4.471 2.28 4.471 4.83 0 .92-.176 1.77-.525 2.55s-.86 1.453-1.53 2.018c-.67.565-1.495 1.008-2.475 1.327-.98.32-2.101.48-3.36.48h-8.191zm4.036-12.299h3.225c1.369 0 2.41-.25 3.119-.75.711-.5 1.065-1.295 1.065-2.385 0-1.13-.319-1.936-.96-2.415-.64-.48-1.641-.721-3-.721h-3.449v6.271zm0 2.79v6.359h4.094c.75 0 1.378-.09 1.883-.27.506-.18.91-.42 1.215-.72a2.63 2.63 0 00.66-1.051 3.95 3.95 0 00.203-1.274c0-.47-.075-.893-.225-1.268a2.386 2.386 0 00-.705-.96c-.32-.265-.73-.468-1.23-.607s-1.105-.21-1.814-.21h-4.081zm36.314-1.335c0 1.59-.266 3.063-.795 4.417-.53 1.355-1.275 2.527-2.235 3.518s-2.114 1.763-3.465 2.317c-1.351.556-2.845.833-4.485.833-1.64 0-3.137-.277-4.492-.833-1.355-.555-2.516-1.327-3.48-2.317s-1.712-2.162-2.242-3.518c-.529-1.354-.795-2.827-.795-4.417s.266-3.063.795-4.418c.53-1.354 1.277-2.527 2.242-3.518.965-.989 2.125-1.763 3.48-2.317s2.853-.832 4.492-.832c1.641 0 3.135.279 4.485.84 1.351.56 2.505 1.332 3.465 2.317s1.705 2.155 2.235 3.51c.529 1.355.795 2.828.795 4.418zm-4.141 0c0-1.19-.157-2.258-.473-3.203-.314-.944-.768-1.747-1.357-2.407s-1.307-1.165-2.152-1.515c-.845-.351-1.797-.525-2.857-.525-1.06 0-2.015.175-2.865.525-.85.35-1.572.854-2.167 1.515s-1.053 1.463-1.372 2.407c-.32.945-.48 2.013-.48 3.203 0 1.189.16 2.257.48 3.202.319.945.777 1.745 1.372 2.4a5.95 5.95 0 002.167 1.507c.851.351 1.806.525 2.865.525 1.061 0 2.013-.175 2.857-.525a5.877 5.877 0 002.152-1.507c.59-.655 1.043-1.455 1.357-2.4.316-.946.473-2.013.473-3.202zm12.076-.316l-6.915-10.53h4.02c.28 0 .482.038.607.113.125.074.238.197.338.367l4.936 7.965c.049-.13.104-.257.164-.383.061-.124.131-.252.211-.382l4.515-7.125c.22-.37.505-.556.854-.556h3.871l-6.99 10.365 7.185 11.325h-4.035c-.271 0-.487-.07-.652-.21s-.303-.3-.413-.48l-5.024-8.31c-.04.12-.085.232-.135.338-.05.104-.101.202-.15.292l-4.815 7.68a2.327 2.327 0 01-.404.473.854.854 0 01-.6.218h-3.78l7.212-11.16zM129.702 11.722h17.518l-26.009 45.049 26.009 45.051h-17.518l-26.009-45.051zm52.347 0H164.53l26.01 45.049-26.01 45.051h17.519l26.008-45.051z"/><path d="M172.4 11.722h17.518L163.91 56.771l26.008 45.051H172.4l-26.01-45.051z"/><path d="M163.64 11.722h17.52l-26.01 45.049 26.01 45.051h-17.52l-26.008-45.051z"/><path d="M190.808 11.722H173.29l26.009 45.049-26.009 45.051h17.518l26.008-45.051z"/></svg>