<svg xmlns="http://www.w3.org/2000/svg" width="320" height="150"><path d="M56.919 114.366c-.122.246-.265.419-.427.519-.162.101-.354.152-.579.152s-.474-.086-.754-.259a27.99 27.99 0 00-.988-.579 8.118 8.118 0 00-1.333-.579c-.508-.172-1.108-.259-1.801-.259-.626 0-1.171.075-1.634.226-.463.151-.855.36-1.173.628-.318.268-.556.59-.712.965a3.17 3.17 0 00-.234 1.232c0 .569.16 1.044.478 1.424.318.379.739.703 1.265.971.525.267 1.123.508 1.793.721.67.213 1.354.438 2.053.678.697.241 1.382.52 2.053.838.67.318 1.268.721 1.792 1.206a5.49 5.49 0 011.266 1.785c.318.703.478 1.558.478 2.563a8.35 8.35 0 01-.562 3.075 7.114 7.114 0 01-1.642 2.498c-.721.709-1.601 1.268-2.639 1.675-1.039.408-2.229.611-3.57.611-.771 0-1.531-.075-2.279-.225a12.125 12.125 0 01-2.153-.645c-.687-.279-1.329-.614-1.927-1.005s-1.131-.827-1.601-1.307l1.308-2.161c.122-.157.271-.288.444-.394.173-.106.366-.16.579-.16.279 0 .581.114.905.343.324.23.707.483 1.148.763.442.28.96.534 1.558.763s1.316.343 2.153.343c1.284 0 2.279-.305 2.982-.914.704-.608 1.056-1.483 1.056-2.622 0-.637-.16-1.156-.478-1.558-.318-.402-.74-.739-1.266-1.014s-1.122-.505-1.792-.695-1.352-.397-2.045-.62a17.618 17.618 0 01-2.045-.804 6.584 6.584 0 01-1.792-1.224c-.525-.502-.947-1.131-1.266-1.885-.319-.754-.478-1.684-.478-2.79 0-.882.177-1.742.528-2.58a6.608 6.608 0 011.542-2.229c.676-.648 1.506-1.167 2.489-1.559.983-.391 2.106-.586 3.368-.586 1.43 0 2.748.223 3.955.67 1.207.447 2.235 1.072 3.084 1.877l-1.107 2.127zm28.237 7.708c0 1.084-.112 2.121-.335 3.109a12.758 12.758 0 01-.964 2.773c-.419.86-.931 1.651-1.533 2.372a10.985 10.985 0 01-2.061 1.902l6.15 6.703h-3.72a4.515 4.515 0 01-1.449-.217c-.43-.145-.824-.413-1.181-.804l-3.553-3.922c-.57.157-1.154.274-1.752.352a14.44 14.44 0 01-1.868.118c-1.833 0-3.505-.309-5.019-.93-1.514-.619-2.809-1.483-3.888-2.588-1.078-1.107-1.913-2.416-2.506-3.93-.592-1.514-.888-3.159-.888-4.935 0-1.775.296-3.42.888-4.934.592-1.514 1.428-2.824 2.506-3.93 1.078-1.107 2.374-1.969 3.888-2.589 1.514-.62 3.186-.93 5.019-.93 1.832 0 3.502.312 5.01.939s2.799 1.488 3.871 2.588c1.072 1.102 1.904 2.408 2.497 3.922.592 1.513.888 3.156.888 4.931zm-4.625 0c0-1.329-.175-2.523-.528-3.577-.352-1.056-.857-1.953-1.516-2.69a6.562 6.562 0 00-2.405-1.693c-.944-.391-2.009-.586-3.192-.586-1.184 0-2.251.196-3.201.586-.95.392-1.757.956-2.422 1.693s-1.176 1.634-1.533 2.69c-.358 1.055-.537 2.247-.537 3.577s.179 2.523.537 3.578c.357 1.056.868 1.95 1.533 2.681a6.635 6.635 0 002.422 1.684c.95.392 2.016.588 3.201.588 1.183 0 2.247-.196 3.192-.588a6.58 6.58 0 002.405-1.684c.659-.731 1.164-1.626 1.516-2.681.352-1.055.528-2.247.528-3.578zm17.93 8.48c.872 0 1.651-.145 2.337-.436.687-.29 1.268-.697 1.744-1.223s.838-1.162 1.089-1.911.377-1.586.377-2.514v-14.513h4.507v14.513c0 1.44-.232 2.773-.695 3.996a9.035 9.035 0 01-2.003 3.168c-.872.888-1.927 1.581-3.167 2.078-1.24.497-2.637.745-4.189.745s-2.949-.248-4.189-.745c-1.24-.496-2.293-1.19-3.159-2.078a9.086 9.086 0 01-1.994-3.168c-.464-1.223-.695-2.555-.695-3.996v-14.513h4.507v14.496c0 .927.126 1.766.377 2.515.251.748.611 1.388 1.081 1.918s1.047.942 1.735 1.232c.687.291 1.466.436 2.337.436zm35.074 3.636h-3.486c-.392 0-.712-.097-.964-.293a1.676 1.676 0 01-.545-.73l-1.81-4.942h-10.038l-1.809 4.942c-.089.258-.265.493-.528.704s-.584.318-.964.318h-3.502l9.518-24.232h4.608l9.52 24.233zm-15.686-9.149h7.725l-2.949-8.06a32.766 32.766 0 01-.922-2.849c-.157.571-.31 1.102-.461 1.592-.151.493-.299.922-.444 1.291l-2.949 8.026zm22.84-.318v9.468h-4.507v-24.232h7.39c1.653 0 3.069.171 4.248.512 1.179.341 2.146.819 2.9 1.432.754.615 1.307 1.35 1.659 2.204s.528 1.796.528 2.823c0 .816-.12 1.586-.36 2.313a6.65 6.65 0 01-1.039 1.977c-.452.592-1.011 1.112-1.676 1.559s-1.422.804-2.27 1.072c.57.324 1.062.787 1.474 1.391l6.066 8.948h-4.056c-.392 0-.723-.078-.997-.234a2.044 2.044 0 01-.695-.67l-5.094-7.76c-.19-.29-.4-.496-.628-.619-.23-.122-.567-.185-1.014-.185h-1.927v.001zm0-3.235h2.816c.849 0 1.588-.106 2.22-.318.631-.213 1.15-.505 1.558-.88.408-.374.712-.819.914-1.333a4.583 4.583 0 00.301-1.692c0-1.23-.404-2.173-1.215-2.833-.811-.659-2.047-.988-3.711-.988h-2.883v8.044zm32.577-11.529v3.587h-10.741v6.72h8.463v3.469h-8.463v6.853h10.741v3.604h-15.283V109.96h15.283v-.001zm22.923 3.402c-.1.19-.246.285-.436.285-.145 0-.333-.103-.563-.309s-.541-.437-.933-.687a7.426 7.426 0 00-1.471-.695c-.589-.212-1.314-.318-2.177-.318-.864 0-1.622.122-2.278.368-.656.247-1.205.582-1.648 1.007a4.29 4.29 0 00-1.009 1.475 4.577 4.577 0 00-.345 1.759c0 .805.171 1.47.512 1.995a4.63 4.63 0 001.351 1.341 8.684 8.684 0 001.906.93c.71.252 1.439.5 2.19.746.751.246 1.48.516 2.191.813.71.297 1.345.668 1.904 1.114a5.1 5.1 0 011.351 1.65c.342.654.512 1.467.512 2.439 0 .994-.17 1.929-.511 2.807-.341.877-.834 1.639-1.483 2.288s-1.441 1.158-2.38 1.533c-.939.374-2.011.56-3.218.56-1.565 0-2.91-.276-4.039-.829a9.487 9.487 0 01-2.965-2.27l.469-.737c.134-.168.291-.252.469-.252.101 0 .23.068.386.202.157.135.348.3.571.495.224.196.494.408.806.637.312.23.677.443 1.09.637.413.196.89.36 1.427.495a7.535 7.535 0 001.83.202c.94 0 1.778-.143 2.517-.427.738-.285 1.362-.674 1.872-1.165a4.93 4.93 0 001.165-1.75 5.837 5.837 0 00.403-2.17c0-.838-.171-1.528-.512-2.07a4.413 4.413 0 00-1.351-1.356 8.7 8.7 0 00-1.906-.914c-.71-.247-1.44-.487-2.19-.721s-1.481-.497-2.191-.787a7.605 7.605 0 01-1.906-1.114 5.11 5.11 0 01-1.351-1.693c-.341-.676-.511-1.523-.511-2.538 0-.793.151-1.559.452-2.296a5.73 5.73 0 011.326-1.952c.583-.565 1.301-1.017 2.157-1.358.856-.341 1.831-.511 2.928-.511 1.231 0 2.336.196 3.315.586.978.392 1.869.988 2.674 1.793l-.4.762zm8.245 11.278v9.552h-1.71v-23.712h6.116c2.782 0 4.88.609 6.293 1.826 1.413 1.218 2.121 2.955 2.121 5.213 0 1.039-.194 1.994-.579 2.866a6.365 6.365 0 01-1.668 2.253c-.727.632-1.609 1.122-2.648 1.475-1.039.352-2.212.528-3.519.528h-4.407v-.001zm0-1.375h4.408c1.051 0 1.989-.145 2.815-.436.827-.29 1.528-.692 2.104-1.206a5.268 5.268 0 001.324-1.817 5.625 5.625 0 00.461-2.288c0-1.821-.562-3.223-1.685-4.206-1.122-.983-2.795-1.475-5.019-1.475h-4.408v11.429zm33.548 10.926h-1.325a.581.581 0 01-.385-.126.812.812 0 01-.234-.326l-2.799-6.887h-11.647l-2.782 6.887a.713.713 0 01-.234.318.627.627 0 01-.402.134h-1.307l9.703-23.712h1.709l9.703 23.712zm-15.869-8.613h10.625l-4.842-11.982a8.506 8.506 0 01-.234-.644 23.15 23.15 0 01-.234-.763c-.078.268-.157.523-.235.763-.077.24-.156.461-.234.662l-4.846 11.964zm36.346 4.626c.112 0 .207.038.285.118l.67.721c-.493.525-1.028.996-1.609 1.415a9.932 9.932 0 01-1.902 1.072c-.687.297-1.441.525-2.262.687-.822.162-1.723.242-2.707.242-1.642 0-3.148-.288-4.516-.863a10.018 10.018 0 01-3.518-2.447c-.978-1.056-1.74-2.332-2.288-3.829-.548-1.497-.822-3.161-.822-4.993 0-1.799.282-3.441.847-4.927.564-1.487 1.356-2.761 2.38-3.829a10.605 10.605 0 013.669-2.481c1.424-.586 2.996-.879 4.717-.879.86 0 1.648.065 2.363.192.716.128 1.384.312 2.003.553.62.241 1.204.54 1.752.897a13.31 13.31 0 011.609 1.241l-.52.754c-.089.134-.229.202-.419.202-.1 0-.229-.059-.385-.175a43.994 43.994 0 00-.594-.437 14.19 14.19 0 00-.872-.569 7.007 7.007 0 00-1.215-.569 10.402 10.402 0 00-1.626-.436 11.187 11.187 0 00-2.096-.177c-1.44 0-2.764.249-3.972.746a8.903 8.903 0 00-3.117 2.129c-.872.92-1.55 2.039-2.036 3.351-.487 1.312-.729 2.785-.729 4.416 0 1.675.24 3.172.72 4.49.481 1.319 1.146 2.433 1.995 3.343a8.648 8.648 0 003.007 2.095c1.156.487 2.41.73 3.762.73.849 0 1.605-.057 2.271-.168a8.925 8.925 0 001.834-.502 8.231 8.231 0 001.559-.822c.48-.324.954-.704 1.424-1.14a1.23 1.23 0 01.16-.109.363.363 0 01.178-.042zm20.561-19.725v1.424h-12.484v9.586h10.389v1.391h-10.389v9.886h12.484v1.424h-14.21v-23.712h14.21v.001zM121.64 16.104v73.938l29.187-36.969-29.187-36.969zm10.112 29.123l6.191 7.846-6.191 7.847V45.227zm38.519 7.846l29.198 36.969V16.103l-29.198 36.97zm19.082 7.846l-6.193-7.846 6.193-7.847v15.693zm-65.77 31.07h73.939L160.55 62.797l-36.967 29.192zm29.125-10.113l7.842-6.194 7.848 6.194h-15.69zm44.813-67.716h-73.938l36.967 29.189 36.971-29.189zm-29.123 10.112l-7.848 6.191-7.842-6.191h15.69z"/></svg>