<svg xmlns="http://www.w3.org/2000/svg" width="614" height="203"><path fill="#3498DB" d="M55.5 162h92v14h-92v-14z"/><path fill="#231F20" d="M55.5 38v56.343L106.734 38H55.5zm52.68 43.183L147.38 38h-19.399L55.5 117.437V145h24v-30.796l13.848-17.203L124.286 144H147.5v-2.083l-39.32-60.734z"/><path fill="#231F20" d="M203.5 203H-.5V0h204v203zm-194-9h184V9H9.5v185z"/><path d="M247.5 150V45h7v105h-7zm35-.231V45h44.092c4.619 0 8.314.884 12.471 2.732 3.695 1.848 6.928 4.137 9.7 7.37 2.772 3.233 4.619 6.456 6.466 10.613 1.386 3.695 2.309 7.847 2.309 11.542s-.462 7.388-1.848 11.083-2.771 6.927-5.081 9.698-4.619 5.08-7.852 6.928-6.466 3.079-10.161 3.542L358.924 149h-8.776l-25.404-39H290.5v39.306l-8 .463zm8-45.769h37.016c3.233 0 6.466-1.133 9.238-2.519 2.771-1.386 5.081-3.338 6.928-6.109 1.848-2.309 3.695-5.133 4.619-8.366a35.338 35.338 0 001.386-9.726c0-3.233-.462-6.479-1.848-9.713-1.386-3.233-2.771-6.011-5.081-8.32-2.309-2.309-4.619-4.354-7.39-5.74C332.597 52.12 329.363 51 326.13 51H290.5v53zm88 46V45h8v105h-8zm77.42.693c-7.39 0-13.857-1.386-19.861-4.619-6.005-3.233-11.085-6.928-15.704-12.009-4.157-5.081-7.852-10.623-10.161-17.09-2.309-6.466-3.695-12.933-3.695-19.861s1.386-13.857 3.695-20.323 6.005-12.009 10.161-17.09c4.157-5.081 9.7-8.776 15.704-11.547 6.005-2.771 12.471-4.157 19.399-4.157 7.39 0 13.857 1.386 19.861 4.619 6.005 3.233 11.085 7.39 15.704 12.009 4.157 5.081 7.39 10.623 10.161 17.09 2.309 6.466 3.695 12.933 3.695 19.399 0 6.928-1.386 13.857-3.695 20.323-2.309 6.466-6.005 12.009-10.161 17.09-4.157 5.081-9.7 8.776-15.704 11.547-6.004 3.233-12.47 4.619-19.399 4.619zm-41.569-53.117c0 6.004.924 12.009 3.233 17.552 1.848 5.543 5.081 10.623 8.776 14.78 3.695 4.157 8.314 7.852 13.395 10.162 5.081 2.309 10.623 3.695 16.628 3.695 6.466 0 12.009-1.386 17.09-4.157s9.238-6.005 12.933-10.623c3.695-4.157 6.466-9.238 8.314-14.78 1.848-5.543 2.771-11.085 2.771-16.628 0-6.004-.924-12.009-3.233-17.552-1.848-5.543-5.081-10.623-8.776-14.78s-7.852-7.852-12.933-10.162c-5.081-2.771-10.623-3.695-16.628-3.695-6.466 0-12.009 1.386-17.09 4.157s-9.7 6.004-12.933 10.623c-3.695 4.619-6.466 9.238-8.314 14.78-2.31 5.081-3.233 10.624-3.233 16.628zM532.5 59.24V150h-7V45h5.708l73.292 92.298V45h7v105h-6.39L532.5 59.24z"/></svg>